<svg width="22" height="161" viewBox="0 0 22 161" fill="none" xmlns="http://www.w3.org/2000/svg">
<path d="M19.844 159.61L20.4948 160.369L20.5532 160.319L20.6033 160.261L19.844 159.61ZM19.22 159.74L18.8763 160.679L18.8899 160.684L18.9038 160.689L19.22 159.74ZM2.528 153.63L2.87174 152.691L2.82196 152.673L2.77054 152.66L2.528 153.63ZM2.008 153.292L2.78887 152.667L2.78887 152.667L2.008 153.292ZM2.008 148.092L1.22713 147.467L1.22713 147.467L2.008 148.092ZM2.528 147.754L2.77053 148.724L2.82129 148.711L2.87045 148.694L2.528 147.754ZM19.22 141.67L19.0031 140.694L18.9391 140.708L18.8776 140.73L19.22 141.67ZM19.454 141.618L19.454 140.618L19.3442 140.618L19.2371 140.642L19.454 141.618ZM19.844 141.8L20.5511 141.093L20.5511 141.093L19.844 141.8ZM19.454 146.22L19.098 145.286L19.0969 145.286L19.454 146.22ZM16.802 147.234L16.4449 146.3L15.802 146.546L15.802 147.234L16.802 147.234ZM16.802 154.176L15.802 154.176L15.802 154.871L16.4529 155.113L16.802 154.176ZM19.454 155.164L19.81 154.229L19.8031 154.227L19.454 155.164ZM13.058 148.274L14.058 148.274L14.058 146.861L12.7257 147.331L13.058 148.274ZM6.194 150.692L5.86174 149.749L3.1843 150.692L5.86174 151.635L6.194 150.692ZM13.058 153.11L12.7257 154.053L14.058 154.523L14.058 153.11L13.058 153.11ZM19 159.22C19 159.161 19.0117 159.102 19.0325 159.05C19.0525 159 19.0753 158.97 19.0847 158.959L20.6033 160.261C20.8375 159.987 21 159.633 21 159.22L19 159.22ZM19.1932 158.851C19.2042 158.841 19.2341 158.819 19.2841 158.799C19.3361 158.778 19.3949 158.766 19.454 158.766L19.454 160.766C19.8673 160.766 20.2215 160.604 20.4948 160.369L19.1932 158.851ZM19.454 158.766C19.4278 158.766 19.4207 158.765 19.4279 158.766C19.4321 158.766 19.4433 158.767 19.46 158.771C19.4763 158.774 19.5028 158.78 19.5362 158.791L18.9038 160.689C19.1121 160.758 19.3208 160.766 19.454 160.766L19.454 158.766ZM19.5637 158.801L2.87174 152.691L2.18426 154.569L18.8763 160.679L19.5637 158.801ZM2.77054 152.66C2.76947 152.66 2.77122 152.66 2.77494 152.662C2.7787 152.663 2.78292 152.665 2.78699 152.668C2.79104 152.671 2.79348 152.673 2.79422 152.673C2.7949 152.674 2.79299 152.672 2.78887 152.667L1.22713 153.917C1.49739 154.255 1.85711 154.493 2.28546 154.6L2.77054 152.66ZM2.78887 152.667C2.79512 152.675 2.80006 152.683 2.80358 152.69C2.80705 152.696 2.80808 152.7 2.80778 152.699C2.80706 152.697 2.8 152.672 2.8 152.616L0.799998 152.616C0.799998 153.062 0.914211 153.526 1.22713 153.917L2.78887 152.667ZM2.8 152.616L2.8 148.768L0.799998 148.768L0.799998 152.616L2.8 152.616ZM2.8 148.768C2.8 148.712 2.80706 148.687 2.80778 148.685C2.80808 148.684 2.80705 148.688 2.80358 148.694C2.80006 148.701 2.79512 148.709 2.78887 148.717L1.22713 147.467C0.914211 147.858 0.799998 148.322 0.799998 148.768L2.8 148.768ZM2.78887 148.717C2.79299 148.712 2.7949 148.71 2.79422 148.711C2.79348 148.711 2.79104 148.713 2.78699 148.716C2.78291 148.719 2.7787 148.721 2.77493 148.722C2.77122 148.724 2.76946 148.724 2.77053 148.724L2.28546 146.784C1.85711 146.891 1.49739 147.129 1.22713 147.467L2.78887 148.717ZM2.87045 148.694L19.5624 142.61L18.8776 140.73L2.18555 146.814L2.87045 148.694ZM19.4369 142.646L19.6709 142.594L19.2371 140.642L19.0031 140.694L19.4369 142.646ZM19.454 142.618C19.3721 142.618 19.2953 142.599 19.2326 142.57C19.1736 142.542 19.1429 142.513 19.1369 142.507L20.5511 141.093C20.2894 140.831 19.9179 140.618 19.454 140.618L19.454 142.618ZM19.1369 142.507C19.0981 142.468 19.0593 142.414 19.0325 142.347C19.0062 142.281 19 142.225 19 142.19L21 142.19C21 141.787 20.8549 141.397 20.5511 141.093L19.1369 142.507ZM19 142.19L19 145.388L21 145.388L21 142.19L19 142.19ZM19 145.388C19 145.451 18.9872 145.421 19.0275 145.359C19.0462 145.331 19.0682 145.309 19.0868 145.295C19.1043 145.281 19.1113 145.28 19.098 145.286L19.81 147.154C20.1533 147.024 20.474 146.8 20.6995 146.457C20.9218 146.118 21 145.741 21 145.388L19 145.388ZM19.0969 145.286L16.4449 146.3L17.1591 148.168L19.8111 147.154L19.0969 145.286ZM15.802 147.234L15.802 154.176L17.802 154.176L17.802 147.234L15.802 147.234ZM16.4529 155.113L19.1049 156.101L19.8031 154.227L17.1511 153.239L16.4529 155.113ZM19.098 156.098C19.1078 156.102 19.0982 156.1 19.0789 156.085C19.0586 156.069 19.0371 156.047 19.0198 156.019C18.9838 155.963 19 155.943 19 156.022L21 156.022C21 155.668 20.9252 155.288 20.7072 154.946C20.4839 154.595 20.1619 154.364 19.81 154.23L19.098 156.098ZM19 156.022L19 159.22L21 159.22L21 156.022L19 156.022ZM12.7257 147.331L5.86174 149.749L6.52626 151.635L13.3903 149.217L12.7257 147.331ZM5.86174 151.635L12.7257 154.053L13.3903 152.167L6.52626 149.749L5.86174 151.635ZM14.058 153.11L14.058 148.274L12.058 148.274L12.058 153.11L14.058 153.11ZM19.818 138.113L20.4765 138.865L20.5267 138.821L20.5706 138.771L19.818 138.113ZM1.982 138.113L1.22942 138.771L1.25135 138.796L1.27489 138.82L1.982 138.113ZM2.294 134.005L2.72208 134.908L2.77804 134.882L2.8303 134.849L2.294 134.005ZM12.278 127.661L12.8143 128.505L15.7164 126.661L12.278 126.661L12.278 127.661ZM1.982 127.479L1.22942 128.137L1.25135 128.162L1.27489 128.186L1.982 127.479ZM1.982 123.423L2.6891 124.13L2.68911 124.13L1.982 123.423ZM19.818 123.423L20.5251 122.716L20.5016 122.692L20.4765 122.67L19.818 123.423ZM19.506 127.531L19.005 126.665L18.9798 126.68L18.9555 126.696L19.506 127.531ZM9.886 133.875L9.33547 133.04L6.55317 134.875L9.886 134.875L9.886 133.875ZM19.818 134.057L20.5251 133.35L20.5016 133.326L20.4765 133.304L19.818 134.057ZM19 137.645C19 137.612 19.0063 137.571 19.0225 137.529C19.0383 137.488 19.0572 137.464 19.0654 137.454L20.5706 138.771C20.8405 138.463 21 138.076 21 137.645L19 137.645ZM19.1595 137.36C19.1689 137.352 19.1938 137.333 19.2346 137.317C19.2762 137.301 19.3172 137.295 19.35 137.295L19.35 139.295C19.7817 139.295 20.168 139.135 20.4765 138.865L19.1595 137.36ZM19.35 137.295L2.45 137.295L2.45 139.295L19.35 139.295L19.35 137.295ZM2.45 137.295C2.46156 137.295 2.49997 137.297 2.55244 137.317C2.60698 137.338 2.65425 137.371 2.68911 137.406L1.27489 138.82C1.60543 139.15 2.02641 139.295 2.45 139.295L2.45 137.295ZM2.73457 137.454C2.74277 137.464 2.76165 137.488 2.7775 137.529C2.7937 137.571 2.8 137.612 2.8 137.645L0.799998 137.645C0.799998 138.076 0.959512 138.463 1.22942 138.771L2.73457 137.454ZM2.8 137.645L2.8 134.889L0.799998 134.889L0.799998 137.645L2.8 137.645ZM2.8 134.889C2.8 134.795 2.81781 134.792 2.79644 134.83C2.78571 134.85 2.77024 134.87 2.75183 134.886C2.73399 134.903 2.72142 134.909 2.72208 134.908L1.86591 133.101C1.52909 133.26 1.24252 133.511 1.05055 133.855C0.864518 134.188 0.799998 134.549 0.799998 134.889L2.8 134.889ZM2.8303 134.849L12.8143 128.505L11.7417 126.817L1.75769 133.161L2.8303 134.849ZM12.278 126.661L2.45 126.661L2.45 128.661L12.278 128.661L12.278 126.661ZM2.45 126.661C2.46156 126.661 2.49996 126.663 2.55244 126.683C2.60698 126.704 2.65425 126.737 2.68911 126.772L1.27489 128.186C1.60543 128.516 2.02641 128.661 2.45 128.661L2.45 126.661ZM2.73457 126.82C2.74277 126.83 2.76165 126.854 2.7775 126.895C2.7937 126.937 2.8 126.978 2.8 127.011L0.799997 127.011C0.799997 127.442 0.959512 127.829 1.22942 128.137L2.73457 126.82ZM2.8 127.011L2.8 123.891L0.799997 123.891L0.799997 127.011L2.8 127.011ZM2.8 123.891C2.8 123.902 2.79791 123.941 2.7775 123.993C2.75629 124.048 2.72396 124.095 2.6891 124.13L1.27489 122.716C0.944354 123.046 0.799997 123.467 0.799997 123.891L2.8 123.891ZM2.68911 124.13C2.65425 124.165 2.60698 124.197 2.55245 124.218C2.49997 124.239 2.46156 124.241 2.45 124.241L2.45 122.241C2.02641 122.241 1.60543 122.385 1.27489 122.716L2.68911 124.13ZM2.45 124.241L19.324 124.241L19.324 122.241L2.45 122.241L2.45 124.241ZM19.324 124.241C19.3116 124.241 19.2824 124.238 19.2448 124.225C19.2067 124.21 19.1775 124.191 19.1595 124.175L20.4765 122.67C20.1487 122.383 19.7477 122.241 19.324 122.241L19.324 124.241ZM19.1109 124.13C19.076 124.095 19.0437 124.048 19.0225 123.993C19.0021 123.941 19 123.902 19 123.891L21 123.891C21 123.467 20.8556 123.046 20.5251 122.716L19.1109 124.13ZM19 123.891L19 126.673L21 126.673L21 123.891L19 123.891ZM19 126.673C19 126.696 18.9975 126.704 18.9982 126.701C18.9986 126.7 18.9996 126.696 19.0016 126.691C19.0036 126.686 19.0064 126.68 19.0099 126.674C19.0134 126.668 19.017 126.663 19.0205 126.658C19.0239 126.654 19.0266 126.651 19.0278 126.65C19.0302 126.648 19.0247 126.654 19.005 126.665L20.007 128.396C20.646 128.026 21 127.41 21 126.673L19 126.673ZM18.9555 126.696L9.33547 133.04L10.4365 134.709L20.0565 128.365L18.9555 126.696ZM9.886 134.875L19.35 134.875L19.35 132.875L9.886 132.875L9.886 134.875ZM19.35 134.875C19.3172 134.875 19.2762 134.868 19.2346 134.852C19.1938 134.836 19.1689 134.817 19.1595 134.809L20.4765 133.304C20.168 133.034 19.7817 132.875 19.35 132.875L19.35 134.875ZM19.1109 134.764C19.076 134.729 19.0437 134.682 19.0225 134.627C19.0021 134.575 19 134.536 19 134.525L21 134.525C21 134.101 20.8556 133.68 20.5251 133.35L19.1109 134.764ZM19 134.525L19 137.645L21 137.645L21 134.525L19 134.525ZM18.466 116.695L19.2186 117.354L19.2272 117.344L18.466 116.695ZM13.214 118.905L13.251 119.904L13.2518 119.904L13.214 118.905ZM8.586 118.905L8.54756 119.904L8.55031 119.905L8.586 118.905ZM3.386 116.643L4.14658 115.994L4.14199 115.989L3.386 116.643ZM2.32 106.763L3.23921 107.157L3.24385 107.146L2.32 106.763ZM4.504 103.903L5.09217 104.712L5.1005 104.706L5.10871 104.7L4.504 103.903ZM7.806 102.811L7.806 101.811L7.7923 101.811L7.806 102.811ZM8.222 102.993L8.99029 102.353L8.98125 102.342L8.222 102.993ZM8.222 107.387L8.98125 108.038L9.01003 108.004L9.03573 107.968L8.222 107.387ZM7.676 107.699L7.94071 108.663L7.96668 108.656L7.99222 108.648L7.676 107.699ZM5.83 108.843L6.64923 109.417L6.65575 109.407L6.66205 109.398L5.83 108.843ZM8.716 114.069L8.75301 113.07L8.74629 113.07L8.716 114.069ZM13.084 114.069L13.0537 113.07L13.0495 113.07L13.084 114.069ZM15.97 108.817L16.7979 108.256L16.7918 108.247L16.7855 108.238L15.97 108.817ZM14.124 107.699L13.8663 108.665L13.8762 108.668L13.8861 108.67L14.124 107.699ZM13.604 107.413L14.4177 106.832L14.392 106.796L14.3633 106.762L13.604 107.413ZM13.604 102.967L14.3111 103.674L14.3383 103.647L14.3633 103.618L13.604 102.967ZM13.994 102.811L13.8836 103.805L13.9318 103.81L13.9803 103.811L13.994 102.811ZM17.322 103.903L16.7243 104.705L16.7268 104.707L17.322 103.903ZM19.506 106.763L20.4299 106.38L20.4251 106.369L19.506 106.763ZM19.26 110.871C19.26 113.194 18.7006 114.878 17.7048 116.047L19.2272 117.344C20.6234 115.705 21.26 113.505 21.26 110.871L19.26 110.871ZM17.7134 116.037C16.7234 117.168 15.2604 117.827 13.1761 117.906L13.2518 119.904C15.7436 119.81 17.7819 118.996 19.2186 117.354L17.7134 116.037ZM13.177 117.906C12.729 117.922 11.9824 117.931 10.926 117.931L10.926 119.931C11.9843 119.931 12.763 119.923 13.251 119.904L13.177 117.906ZM10.926 117.931C9.85255 117.931 9.08784 117.922 8.62169 117.906L8.55031 119.905C9.05482 119.923 9.85011 119.931 10.926 119.931L10.926 117.931ZM8.62443 117.906C6.5877 117.828 5.14168 117.16 4.14656 115.994L2.62543 117.292C4.05698 118.969 6.07763 119.809 8.54756 119.904L8.62443 117.906ZM4.14199 115.989C3.10993 114.797 2.54 113.129 2.54 110.871L0.539997 110.871C0.539997 113.467 1.20073 115.647 2.63 117.298L4.14199 115.989ZM2.54 110.871C2.54 109.46 2.78014 108.228 3.23914 107.157L1.40085 106.369C0.819853 107.725 0.539997 109.231 0.539997 110.871L2.54 110.871ZM3.24385 107.146C3.68429 106.083 4.30441 105.285 5.09217 104.712L3.91583 103.094C2.79691 103.908 1.96104 105.017 1.39614 106.38L3.24385 107.146ZM5.10871 104.7C5.86116 104.128 6.75066 103.826 7.8197 103.811L7.7923 101.811C6.33067 101.831 5.01884 102.257 3.89929 103.107L5.10871 104.7ZM7.806 103.811L7.858 103.811L7.858 101.811L7.806 101.811L7.806 103.811ZM7.858 103.811C7.77565 103.811 7.68713 103.792 7.60578 103.751C7.52798 103.712 7.48227 103.667 7.46274 103.644L8.98125 102.342C8.71947 102.037 8.33468 101.811 7.858 101.811L7.858 103.811ZM7.45378 103.633C7.42572 103.6 7.3976 103.554 7.37776 103.499C7.35803 103.443 7.352 103.394 7.352 103.357L9.352 103.357C9.352 102.991 9.23057 102.641 8.99022 102.353L7.45378 103.633ZM7.352 103.357L7.352 106.867L9.352 106.867L9.352 103.357L7.352 103.357ZM7.352 106.867C7.352 106.918 7.34683 106.934 7.34935 106.924C7.35223 106.912 7.36578 106.865 7.40826 106.806L9.03573 107.968C9.29113 107.611 9.352 107.201 9.352 106.867L7.352 106.867ZM7.46274 106.736C7.50451 106.688 7.53212 106.676 7.51136 106.688C7.49186 106.699 7.44518 106.722 7.35977 106.75L7.99222 108.648C8.31612 108.54 8.70241 108.363 8.98125 108.038L7.46274 106.736ZM7.41128 106.735C6.40092 107.012 5.52862 107.492 4.99795 108.288L6.66205 109.398C6.82471 109.154 7.18308 108.871 7.94071 108.663L7.41128 106.735ZM5.01077 108.27C4.49524 109.006 4.284 109.911 4.284 110.897L6.284 110.897C6.284 110.185 6.43675 109.72 6.64923 109.417L5.01077 108.27ZM4.284 110.897C4.284 112.107 4.62757 113.186 5.46326 113.959C6.27946 114.713 7.41113 115.03 8.68571 115.069L8.74629 113.07C7.73286 113.039 7.14854 112.793 6.82074 112.49C6.51243 112.205 6.284 111.733 6.284 110.897L4.284 110.897ZM8.67899 115.068C9.16643 115.087 9.90111 115.095 10.874 115.095L10.874 113.095C9.90555 113.095 9.20157 113.086 8.75301 113.07L8.67899 115.068ZM10.874 115.095C11.8477 115.095 12.5982 115.087 13.1185 115.069L13.0495 113.07C12.5645 113.086 11.8416 113.095 10.874 113.095L10.874 115.095ZM13.1143 115.069C14.3889 115.03 15.5205 114.713 16.3367 113.959C17.1724 113.186 17.516 112.107 17.516 110.897L15.516 110.897C15.516 111.733 15.2876 112.205 14.9793 112.49C14.6515 112.793 14.0671 113.039 13.0537 113.07L13.1143 115.069ZM17.516 110.897C17.516 109.909 17.304 109.003 16.7979 108.256L15.1421 109.378C15.364 109.706 15.516 110.187 15.516 110.897L17.516 110.897ZM16.7855 108.238C16.225 107.449 15.3673 106.974 14.3619 106.728L13.8861 108.67C14.5794 108.84 14.9523 109.111 15.1545 109.396L16.7855 108.238ZM14.3817 106.733C14.3446 106.723 14.3181 106.714 14.3005 106.708C14.2827 106.701 14.2772 106.697 14.2809 106.699C14.2846 106.701 14.3503 106.738 14.4177 106.832L12.7903 107.994C13.0843 108.406 13.5424 108.579 13.8663 108.665L14.3817 106.733ZM14.3633 106.762C14.4207 106.829 14.4422 106.889 14.4485 106.911C14.4541 106.93 14.448 106.92 14.448 106.867L12.448 106.867C12.448 107.229 12.5224 107.688 12.8447 108.064L14.3633 106.762ZM14.448 106.867L14.448 103.357L12.448 103.357L12.448 106.867L14.448 106.867ZM14.448 103.357C14.448 103.392 14.4418 103.448 14.4155 103.514C14.3887 103.581 14.3499 103.635 14.3111 103.674L12.8969 102.26C12.5931 102.564 12.448 102.954 12.448 103.357L14.448 103.357ZM14.3633 103.618C14.3252 103.662 14.2557 103.724 14.1509 103.766C14.0454 103.808 13.949 103.812 13.8836 103.805L14.1044 101.817C13.6125 101.763 13.1594 101.949 12.8447 102.316L14.3633 103.618ZM13.9803 103.811C15.0493 103.826 15.9511 104.128 16.7243 104.705L17.9197 103.101C16.7863 102.257 15.4693 101.831 14.0077 101.811L13.9803 103.811ZM16.7268 104.707C17.5023 105.281 18.1272 106.084 18.5869 107.157L20.4251 106.369C19.8448 105.015 19.0137 103.912 17.9172 103.1L16.7268 104.707ZM18.5821 107.146C19.0271 108.22 19.26 109.456 19.26 110.871L21.26 110.871C21.26 109.235 20.9902 107.733 20.4299 106.38L18.5821 107.146ZM19.818 98.6213L20.4765 99.3739L20.5267 99.33L20.5706 99.2798L19.818 98.6213ZM1.982 98.6213L1.22942 99.2798L1.25135 99.3049L1.27489 99.3284L1.982 98.6213ZM1.982 94.2013L2.6891 94.9084L2.71265 94.8849L2.73458 94.8598L1.982 94.2013ZM19.818 94.2013L19.0654 94.8598L19.0873 94.8849L19.1109 94.9084L19.818 94.2013ZM19 98.1533C19 98.1205 19.0063 98.0795 19.0225 98.0379C19.0383 97.9971 19.0572 97.9722 19.0654 97.9628L20.5706 99.2798C20.8405 98.9713 21 98.585 21 98.1533L19 98.1533ZM19.1595 97.8687C19.1689 97.8605 19.1938 97.8417 19.2346 97.8258C19.2762 97.8096 19.3172 97.8033 19.35 97.8033L19.35 99.8033C19.7817 99.8033 20.168 99.6438 20.4765 99.3739L19.1595 97.8687ZM19.35 97.8033L2.45 97.8033L2.45 99.8033L19.35 99.8033L19.35 97.8033ZM2.45 97.8033C2.46156 97.8033 2.49996 97.8054 2.55244 97.8258C2.60698 97.847 2.65425 97.8794 2.68911 97.9142L1.27489 99.3284C1.60543 99.659 2.02641 99.8033 2.45 99.8033L2.45 97.8033ZM2.73457 97.9628C2.74277 97.9722 2.76165 97.9971 2.7775 98.0379C2.7937 98.0795 2.8 98.1205 2.8 98.1533L0.799996 98.1533C0.799996 98.585 0.95951 98.9714 1.22942 99.2798L2.73457 97.9628ZM2.8 98.1533L2.8 94.6693L0.799996 94.6693L0.799996 98.1533L2.8 98.1533ZM2.8 94.6693C2.8 94.6809 2.79791 94.7193 2.7775 94.7718C2.75629 94.8263 2.72395 94.8736 2.6891 94.9084L1.27489 93.4942C0.944354 93.8247 0.799996 94.2457 0.799996 94.6693L2.8 94.6693ZM2.73458 94.8598C2.70736 94.8909 2.66106 94.9303 2.59614 94.9591C2.53209 94.9876 2.47817 94.9933 2.45 94.9933L2.45 92.9933C1.98242 92.9933 1.54806 93.1787 1.22942 93.5428L2.73458 94.8598ZM2.45 94.9933L19.35 94.9933L19.35 92.9933L2.45 92.9933L2.45 94.9933ZM19.35 94.9933C19.3218 94.9933 19.2679 94.9876 19.2039 94.9591C19.1389 94.9303 19.0926 94.8909 19.0654 94.8598L20.5706 93.5428C20.2519 93.1787 19.8176 92.9933 19.35 92.9933L19.35 94.9933ZM19.1109 94.9084C19.076 94.8736 19.0437 94.8263 19.0225 94.7718C19.0021 94.7193 19 94.6809 19 94.6693L21 94.6693C21 94.2457 20.8556 93.8247 20.5251 93.4942L19.1109 94.9084ZM19 94.6693L19 98.1533L21 98.1533L21 94.6693L19 94.6693ZM19.818 88.9176L20.4765 89.6702L20.5267 89.6263L20.5706 89.5761L19.818 88.9176ZM1.982 88.9176L1.22942 89.5761L1.25135 89.6012L1.27489 89.6247L1.982 88.9176ZM1.982 84.5496L2.6891 85.2567L2.6891 85.2567L1.982 84.5496ZM16.074 84.3676L16.074 85.3676L17.074 85.3676L17.074 84.3676L16.074 84.3676ZM16.282 76.0216L16.9405 76.7742L16.9656 76.7523L16.9891 76.7287L16.282 76.0216ZM19.818 76.0216L20.5251 75.3145L20.5016 75.291L20.4765 75.269L19.818 76.0216ZM19 88.4496C19 88.4168 19.0063 88.3758 19.0225 88.3342C19.0383 88.2934 19.0572 88.2685 19.0654 88.2591L20.5706 89.5761C20.8405 89.2677 21 88.8813 21 88.4496L19 88.4496ZM19.1595 88.165C19.1689 88.1568 19.1938 88.138 19.2346 88.1221C19.2762 88.1059 19.3172 88.0996 19.35 88.0996L19.35 90.0996C19.7816 90.0996 20.168 89.9401 20.4765 89.6702L19.1595 88.165ZM19.35 88.0996L2.45 88.0996L2.45 90.0996L19.35 90.0996L19.35 88.0996ZM2.45 88.0996C2.46156 88.0996 2.49996 88.1017 2.55244 88.1221C2.60698 88.1433 2.65425 88.1757 2.68911 88.2105L1.27489 89.6247C1.60543 89.9553 2.02641 90.0996 2.45 90.0996L2.45 88.0996ZM2.73457 88.2591C2.74277 88.2685 2.76165 88.2934 2.7775 88.3342C2.7937 88.3758 2.8 88.4168 2.8 88.4496L0.799996 88.4496C0.799996 88.8813 0.95951 89.2677 1.22942 89.5761L2.73457 88.2591ZM2.8 88.4496L2.8 85.0176L0.799995 85.0176L0.799996 88.4496L2.8 88.4496ZM2.8 85.0176C2.8 85.0292 2.79791 85.0676 2.7775 85.1201C2.75629 85.1746 2.72395 85.2219 2.6891 85.2567L1.27489 83.8425C0.944353 84.1731 0.799995 84.594 0.799995 85.0176L2.8 85.0176ZM2.6891 85.2567C2.65425 85.2916 2.60698 85.3239 2.55244 85.3451C2.49996 85.3655 2.46156 85.3676 2.45 85.3676L2.45 83.3676C2.02641 83.3676 1.60543 83.512 1.27489 83.8425L2.6891 85.2567ZM2.45 85.3676L16.074 85.3676L16.074 83.3676L2.45 83.3676L2.45 85.3676ZM17.074 84.3676L17.074 76.4896L15.074 76.4896L15.074 84.3676L17.074 84.3676ZM17.074 76.4896C17.074 76.5178 17.0683 76.5717 17.0398 76.6358C17.011 76.7007 16.9716 76.747 16.9405 76.7742L15.6235 75.269C15.2593 75.5877 15.074 76.0221 15.074 76.4896L17.074 76.4896ZM16.9891 76.7287C16.9543 76.7636 16.907 76.7959 16.8524 76.8171C16.8 76.8375 16.7616 76.8396 16.75 76.8396L16.75 74.8396C16.3264 74.8396 15.9054 74.984 15.5749 75.3145L16.9891 76.7287ZM16.75 76.8396L19.35 76.8396L19.35 74.8396L16.75 74.8396L16.75 76.8396ZM19.35 76.8396C19.3172 76.8396 19.2762 76.8333 19.2345 76.8171C19.1938 76.8013 19.1689 76.7824 19.1595 76.7742L20.4765 75.269C20.168 74.9991 19.7817 74.8396 19.35 74.8396L19.35 76.8396ZM19.1109 76.7287C19.076 76.6939 19.0437 76.6466 19.0225 76.5921C19.0021 76.5396 19 76.5012 19 76.4896L21 76.4896C21 76.066 20.8556 75.6451 20.5251 75.3145L19.1109 76.7287ZM19 76.4896L19 88.4496L21 88.4496L21 76.4896L19 76.4896ZM19.818 72.1299L20.4765 72.8825L20.5267 72.8386L20.5706 72.7885L19.818 72.1299ZM1.982 72.1299L1.22942 72.7885L1.25134 72.8135L1.27489 72.8371L1.982 72.1299ZM1.982 67.7619L2.6891 68.4691L2.6891 68.4691L1.982 67.7619ZM16.074 67.5799L16.074 68.5799L17.074 68.5799L17.074 67.5799L16.074 67.5799ZM16.282 59.2339L16.9405 59.9865L16.9656 59.9646L16.9891 59.9411L16.282 59.2339ZM19.818 59.2339L20.5251 58.5268L20.5016 58.5033L20.4765 58.4814L19.818 59.2339ZM19 71.6619C19 71.6291 19.0063 71.5882 19.0225 71.5465C19.0383 71.5058 19.0572 71.4808 19.0654 71.4714L20.5706 72.7885C20.8405 72.48 21 72.0936 21 71.6619L19 71.6619ZM19.1595 71.3774C19.1689 71.3692 19.1938 71.3503 19.2345 71.3344C19.2762 71.3182 19.3172 71.3119 19.35 71.3119L19.35 73.3119C19.7816 73.3119 20.168 73.1524 20.4765 72.8825L19.1595 71.3774ZM19.35 71.3119L2.45 71.312L2.45 73.312L19.35 73.3119L19.35 71.3119ZM2.45 71.312C2.46156 71.312 2.49996 71.314 2.55244 71.3344C2.60698 71.3557 2.65425 71.388 2.6891 71.4228L1.27489 72.8371C1.60542 73.1676 2.02641 73.312 2.45 73.312L2.45 71.312ZM2.73457 71.4714C2.74277 71.4808 2.76165 71.5057 2.7775 71.5465C2.7937 71.5882 2.79999 71.6291 2.79999 71.6619L0.799995 71.662C0.799995 72.0936 0.959509 72.48 1.22942 72.7885L2.73457 71.4714ZM2.79999 71.6619L2.79999 68.2299L0.799995 68.2299L0.799995 71.662L2.79999 71.6619ZM2.79999 68.2299C2.79999 68.2415 2.79791 68.2799 2.7775 68.3324C2.75629 68.3869 2.72395 68.4342 2.6891 68.4691L1.27489 67.0548C0.944352 67.3854 0.799995 67.8064 0.799995 68.2299L2.79999 68.2299ZM2.6891 68.4691C2.65425 68.5039 2.60697 68.5362 2.55244 68.5575C2.49996 68.5779 2.46156 68.5799 2.45 68.5799L2.45 66.5799C2.02641 66.58 1.60542 66.7243 1.27489 67.0548L2.6891 68.4691ZM2.45 68.5799L16.074 68.5799L16.074 66.5799L2.45 66.5799L2.45 68.5799ZM17.074 67.5799L17.074 59.7019L15.074 59.7019L15.074 67.5799L17.074 67.5799ZM17.074 59.7019C17.074 59.7301 17.0683 59.784 17.0398 59.8481C17.011 59.913 16.9716 59.9593 16.9405 59.9865L15.6235 58.4814C15.2593 58.8 15.074 59.2344 15.074 59.7019L17.074 59.7019ZM16.9891 59.9411C16.9543 59.9759 16.907 60.0082 16.8524 60.0295C16.8 60.0499 16.7616 60.0519 16.75 60.0519L16.75 58.0519C16.3264 58.0519 15.9054 58.1963 15.5749 58.5268L16.9891 59.9411ZM16.75 60.0519L19.35 60.0519L19.35 58.0519L16.75 58.0519L16.75 60.0519ZM19.35 60.0519C19.3172 60.0519 19.2762 60.0457 19.2345 60.0295C19.1938 60.0136 19.1689 59.9947 19.1595 59.9865L20.4765 58.4814C20.168 58.2115 19.7816 58.0519 19.35 58.0519L19.35 60.0519ZM19.1109 59.9411C19.076 59.9062 19.0437 59.8589 19.0225 59.8044C19.0021 59.7519 19 59.7135 19 59.7019L21 59.7019C21 59.2784 20.8556 58.8574 20.5251 58.5268L19.1109 59.9411ZM19 59.7019L19 71.6619L21 71.6619L21 59.7019L19 59.7019ZM19.844 56.9543L20.4948 57.7135L20.5532 57.6635L20.6033 57.6051L19.844 56.9543ZM19.22 57.0843L18.8763 58.0233L18.8899 58.0284L18.9038 58.033L19.22 57.0843ZM2.52799 50.9743L2.87173 50.0352L2.82196 50.017L2.77053 50.0041L2.52799 50.9743ZM2.00799 50.6363L2.78886 50.0116L2.78886 50.0116L2.00799 50.6363ZM2.00799 45.4363L1.22713 44.8116L1.22713 44.8116L2.00799 45.4363ZM2.52799 45.0983L2.77053 46.0684L2.82129 46.0557L2.87044 46.0378L2.52799 45.0983ZM19.22 39.0143L19.0031 38.0381L18.9391 38.0523L18.8775 38.0747L19.22 39.0143ZM19.454 38.9623L19.454 37.9623L19.3442 37.9623L19.2371 37.9861L19.454 38.9623ZM19.844 39.1443L20.5511 38.4372L20.5511 38.4372L19.844 39.1443ZM19.454 43.5643L19.098 42.6298L19.0969 42.6302L19.454 43.5643ZM16.802 44.5783L16.4449 43.6442L15.802 43.89L15.802 44.5783L16.802 44.5783ZM16.802 51.5203L15.802 51.5203L15.802 52.2149L16.4529 52.4574L16.802 51.5203ZM19.454 52.5083L19.81 51.5738L19.8031 51.5712L19.454 52.5083ZM13.058 45.6183L14.058 45.6183L14.058 44.2058L12.7257 44.6751L13.058 45.6183ZM6.19399 48.0363L5.86174 47.0931L3.1843 48.0363L5.86174 48.9795L6.19399 48.0363ZM13.058 50.4543L12.7257 51.3975L14.058 51.8668L14.058 50.4543L13.058 50.4543ZM19 56.5643C19 56.5051 19.0117 56.4463 19.0325 56.3944C19.0525 56.3444 19.0753 56.3145 19.0847 56.3035L20.6033 57.6051C20.8375 57.3318 21 56.9776 21 56.5643L19 56.5643ZM19.1932 56.195C19.2042 56.1856 19.2341 56.1628 19.2841 56.1428C19.336 56.122 19.3948 56.1103 19.454 56.1103L19.454 58.1103C19.8673 58.1103 20.2215 57.9478 20.4948 57.7135L19.1932 56.195ZM19.454 56.1103C19.4278 56.1103 19.4207 56.1091 19.4279 56.1099C19.4321 56.1104 19.4433 56.1117 19.46 56.1151C19.4763 56.1183 19.5028 56.1244 19.5362 56.1356L18.9038 58.033C19.1121 58.1024 19.3208 58.1103 19.454 58.1103L19.454 56.1103ZM19.5637 56.1452L2.87173 50.0352L2.18426 51.9133L18.8763 58.0233L19.5637 56.1452ZM2.77053 50.0041C2.76946 50.0039 2.77121 50.0042 2.77493 50.0058C2.7787 50.0075 2.78291 50.0097 2.78698 50.0123C2.79103 50.015 2.79347 50.0171 2.79422 50.0178C2.7949 50.0184 2.79298 50.0167 2.78886 50.0116L1.22713 51.261C1.49738 51.5988 1.8571 51.8373 2.28546 51.9444L2.77053 50.0041ZM2.78886 50.0116C2.79511 50.0194 2.80005 50.0272 2.80358 50.034C2.80705 50.0406 2.80808 50.0442 2.80777 50.0432C2.80706 50.0409 2.79999 50.0164 2.79999 49.9603L0.799994 49.9603C0.799994 50.4067 0.914207 50.8698 1.22713 51.261L2.78886 50.0116ZM2.79999 49.9603L2.79999 46.1123L0.799994 46.1123L0.799994 49.9603L2.79999 49.9603ZM2.79999 46.1123C2.79999 46.0562 2.80706 46.0317 2.80777 46.0294C2.80808 46.0284 2.80705 46.0319 2.80358 46.0386C2.80005 46.0454 2.79511 46.0532 2.78886 46.061L1.22713 44.8116C0.914206 45.2027 0.799994 45.6658 0.799994 46.1123L2.79999 46.1123ZM2.78886 46.061C2.79298 46.0558 2.7949 46.0542 2.79422 46.0548C2.79347 46.0555 2.79103 46.0576 2.78698 46.0602C2.78291 46.0629 2.77869 46.0651 2.77493 46.0667C2.77121 46.0683 2.76946 46.0687 2.77053 46.0684L2.28546 44.1281C1.85711 44.2352 1.49738 44.4738 1.22713 44.8116L2.78886 46.061ZM2.87044 46.0378L19.5624 39.9538L18.8775 38.0747L2.18555 44.1587L2.87044 46.0378ZM19.4369 39.9905L19.6709 39.9385L19.2371 37.9861L19.0031 38.0381L19.4369 39.9905ZM19.454 39.9623C19.3721 39.9623 19.2953 39.9432 19.2326 39.914C19.1736 39.8864 19.1429 39.8574 19.1369 39.8514L20.5511 38.4372C20.2894 38.1755 19.9179 37.9623 19.454 37.9623L19.454 39.9623ZM19.1369 39.8514C19.098 39.8125 19.0593 39.7582 19.0325 39.6912C19.0062 39.6253 19 39.569 19 39.5343L21 39.5343C21 39.1309 20.8549 38.741 20.5511 38.4372L19.1369 39.8514ZM19 39.5343L19 42.7323L21 42.7323L21 39.5343L19 39.5343ZM19 42.7323C19 42.7948 18.9872 42.7649 19.0274 42.7036C19.0462 42.675 19.0681 42.6531 19.0868 42.6389C19.1043 42.6255 19.1113 42.6247 19.098 42.6298L19.81 44.4988C20.1533 44.368 20.474 44.1447 20.6995 43.8009C20.9218 43.4623 21 43.0858 21 42.7323L19 42.7323ZM19.0969 42.6302L16.4449 43.6442L17.1591 45.5123L19.8111 44.4983L19.0969 42.6302ZM15.802 44.5783L15.802 51.5203L17.802 51.5203L17.802 44.5783L15.802 44.5783ZM16.4529 52.4574L19.1049 53.4454L19.8031 51.5712L17.1511 50.5832L16.4529 52.4574ZM19.098 53.4428C19.1078 53.4465 19.0982 53.4442 19.0789 53.4293C19.0586 53.4134 19.0371 53.3908 19.0198 53.3637C18.9838 53.3071 19 53.2874 19 53.3663L21 53.3663C21 53.0118 20.9251 52.6325 20.7072 52.2899C20.4839 51.9391 20.1619 51.7079 19.81 51.5738L19.098 53.4428ZM19 53.3663L19 56.5643L21 56.5643L21 53.3663L19 53.3663ZM12.7257 44.6751L5.86174 47.0931L6.52625 48.9795L13.3903 46.5615L12.7257 44.6751ZM5.86174 48.9795L12.7257 51.3975L13.3903 49.5111L6.52625 47.0931L5.86174 48.9795ZM14.058 50.4543L14.058 45.6183L12.058 45.6183L12.058 50.4543L14.058 50.4543ZM19.818 35.457L20.4765 36.2095L20.5267 36.1656L20.5706 36.1155L19.818 35.457ZM1.98199 35.457L1.22942 36.1155L1.25134 36.1405L1.27489 36.1641L1.98199 35.457ZM3.35999 22.613L4.13253 23.2479L4.13726 23.2422L4.14189 23.2364L3.35999 22.613ZM12.772 23.913L11.8595 24.322L12.3056 25.3173L13.2585 24.7866L12.772 23.913ZM19.168 20.351L18.7208 19.4565L18.7009 19.4665L18.6814 19.4773L19.168 20.351ZM19.844 20.455L20.5511 19.7478L20.5511 19.7478L19.844 20.455ZM19.298 25.343L18.8919 24.4291L18.8645 24.4413L18.8379 24.4551L19.298 25.343ZM13.578 28.307L13.1179 27.4191L12.578 27.6989L12.578 28.307L13.578 28.307ZM13.578 30.959L12.578 30.959L12.578 31.959L13.578 31.959L13.578 30.959ZM19.818 31.167L19.0654 31.8255L19.0873 31.8505L19.1109 31.8741L19.818 31.167ZM9.31399 26.149L10.0511 25.4732L10.0437 25.4651L10.036 25.457L9.31399 26.149ZM6.03799 26.149L6.7299 26.8709L6.74526 26.8562L6.75998 26.8409L6.03799 26.149ZM5.41399 30.959L4.41399 30.959L4.41399 31.959L5.41399 31.959L5.41399 30.959ZM9.88599 30.959L9.88599 31.959L10.886 31.959L10.886 30.959L9.88599 30.959ZM19 34.989C19 34.9561 19.0063 34.9152 19.0225 34.8735C19.0383 34.8328 19.0572 34.8078 19.0654 34.7984L20.5706 36.1155C20.8405 35.807 21 35.4206 21 34.989L19 34.989ZM19.1595 34.7044C19.1689 34.6962 19.1938 34.6773 19.2345 34.6614C19.2762 34.6452 19.3172 34.639 19.35 34.639L19.35 36.639C19.7816 36.639 20.168 36.4794 20.4765 36.2095L19.1595 34.7044ZM19.35 34.639L2.44999 34.639L2.44999 36.639L19.35 36.639L19.35 34.639ZM2.44999 34.639C2.46156 34.639 2.49996 34.641 2.55244 34.6614C2.60697 34.6827 2.65425 34.715 2.6891 34.7498L1.27489 36.1641C1.60542 36.4946 2.02641 36.639 2.44999 36.639L2.44999 34.639ZM2.73457 34.7984C2.74277 34.8078 2.76165 34.8328 2.7775 34.8735C2.7937 34.9152 2.79999 34.9561 2.79999 34.989L0.799993 34.989C0.799993 35.4206 0.959508 35.807 1.22942 36.1155L2.73457 34.7984ZM2.79999 34.989L2.79999 27.917L0.799993 27.917L0.799993 34.989L2.79999 34.989ZM2.79999 27.917C2.79999 25.7893 3.28745 24.2761 4.13253 23.2479L2.58745 21.978C1.35253 23.4805 0.799993 25.5033 0.799993 27.917L2.79999 27.917ZM4.14189 23.2364C4.94461 22.2296 6.09102 21.689 7.72799 21.689L7.72799 19.689C5.5863 19.689 3.82071 20.431 2.57809 21.9895L4.14189 23.2364ZM7.72799 21.689C8.77984 21.689 9.60775 21.9348 10.2634 22.3764L11.3806 20.7175C10.3376 20.0151 9.10281 19.689 7.72799 19.689L7.72799 21.689ZM10.2634 22.3764C10.946 22.8361 11.4792 23.4736 11.8595 24.322L13.6845 23.5039C13.1635 22.3416 12.3966 21.4018 11.3806 20.7175L10.2634 22.3764ZM13.2585 24.7866L19.6545 21.2246L18.6814 19.4773L12.2854 23.0393L13.2585 24.7866ZM19.6152 21.2454C19.6256 21.2402 19.5663 21.273 19.454 21.273L19.454 19.273C19.1684 19.273 18.9184 19.3577 18.7208 19.4565L19.6152 21.2454ZM19.454 21.273C19.3721 21.273 19.2953 21.2539 19.2326 21.2246C19.1736 21.1971 19.1429 21.1681 19.1369 21.1621L20.5511 19.7478C20.2894 19.4862 19.9179 19.273 19.454 19.273L19.454 21.273ZM19.1369 21.1621C19.1092 21.1344 19.0714 21.0868 19.0418 21.0179C19.0118 20.9478 19 20.8781 19 20.819L21 20.819C21 20.3977 20.83 20.0268 20.5511 19.7478L19.1369 21.1621ZM19 20.819L19 24.277L21 24.277L21 20.819L19 20.819ZM19 24.277C19 24.3251 18.9944 24.352 18.9914 24.3632C18.9886 24.3732 18.9872 24.3737 18.9893 24.3705C18.9973 24.3583 18.987 24.3869 18.8919 24.4291L19.7041 26.2568C20.077 26.091 20.4177 25.8379 20.6597 25.4704C20.9025 25.1017 21 24.6877 21 24.277L19 24.277ZM18.8379 24.4551L13.1179 27.4191L14.0381 29.1948L19.7581 26.2308L18.8379 24.4551ZM12.578 28.307L12.578 30.959L14.578 30.959L14.578 28.307L12.578 28.307ZM13.578 31.959L19.35 31.959L19.35 29.959L13.578 29.959L13.578 31.959ZM19.35 31.959C19.3218 31.959 19.2679 31.9532 19.2039 31.9248C19.1389 31.8959 19.0926 31.8566 19.0654 31.8255L20.5706 30.5084C20.2519 30.1443 19.8176 29.959 19.35 29.959L19.35 31.959ZM19.1109 31.8741C19.076 31.8392 19.0437 31.7919 19.0225 31.7374C19.0021 31.6849 19 31.6465 19 31.635L21 31.635C21 31.2114 20.8556 30.7904 20.5251 30.4598L19.1109 31.8741ZM19 31.635L19 34.989L21 34.989L21 31.635L19 31.635ZM10.886 27.969C10.886 27.0246 10.6603 26.1377 10.0511 25.4732L8.57684 26.8247C8.73039 26.9922 8.88599 27.3187 8.88599 27.969L10.886 27.969ZM10.036 25.457C9.41106 24.805 8.58225 24.525 7.67599 24.525L7.67599 26.525C8.1564 26.525 8.4196 26.661 8.59201 26.8409L10.036 25.457ZM7.67599 24.525C6.76973 24.525 5.94093 24.805 5.31601 25.457L6.75998 26.8409C6.93239 26.661 7.19559 26.525 7.67599 26.525L7.67599 24.525ZM5.34609 25.427C4.66344 26.0812 4.41399 26.9965 4.41399 27.969L6.41399 27.969C6.41399 27.312 6.58055 27.0141 6.7299 26.8709L5.34609 25.427ZM4.41399 27.969L4.41399 30.959L6.41399 30.959L6.41399 27.969L4.41399 27.969ZM5.41399 31.959L9.88599 31.959L9.88599 29.959L5.41399 29.959L5.41399 31.959ZM10.886 30.959L10.886 27.969L8.88599 27.969L8.88599 30.959L10.886 30.959ZM19.818 12.2373L20.4765 12.9899L20.5267 12.946L20.5706 12.8958L19.818 12.2373ZM13.76 12.4193L13.76 11.4193L13.5064 11.4193L13.2834 11.5402L13.76 12.4193ZM2.63199 18.4513L2.94822 19.4L3.03143 19.3723L3.10854 19.3305L2.63199 18.4513ZM1.98199 18.3733L2.6891 17.6662L2.6891 17.6662L1.98199 18.3733ZM2.34599 13.7973L1.86121 12.9227L1.81124 12.9504L1.76476 12.9836L2.34599 13.7973ZM9.05399 10.0793L9.53877 10.954L11.1113 10.0824L9.54136 9.20613L9.05399 10.0793ZM2.34599 6.33533L1.84983 7.20361L1.85863 7.20852L2.34599 6.33533ZM1.98199 1.78533L2.63278 2.54458L2.66194 2.51959L2.6891 2.49243L1.98199 1.78533ZM2.63199 1.68133L3.10854 0.802177L3.03143 0.760378L2.94822 0.732641L2.63199 1.68133ZM13.76 7.71333L13.2834 8.59247L13.5064 8.71333L13.76 8.71333L13.76 7.71333ZM19.818 7.92133L19.0654 8.57983L19.0873 8.60489L19.1109 8.62843L19.818 7.92133ZM19 11.7693C19 11.7365 19.0063 11.6955 19.0225 11.6539C19.0383 11.6131 19.0572 11.5882 19.0654 11.5788L20.5706 12.8958C20.8405 12.5874 21 12.201 21 11.7693L19 11.7693ZM19.1595 11.4847C19.1689 11.4765 19.1938 11.4577 19.2345 11.4418C19.2762 11.4256 19.3172 11.4193 19.35 11.4193L19.35 13.4193C19.7816 13.4193 20.168 13.2598 20.4765 12.9899L19.1595 11.4847ZM19.35 11.4193L13.76 11.4193L13.76 13.4193L19.35 13.4193L19.35 11.4193ZM13.2834 11.5402L2.15544 17.5722L3.10854 19.3305L14.2365 13.2985L13.2834 11.5402ZM2.31576 17.5026C2.28181 17.514 2.25336 17.5231 2.22997 17.5304C2.20623 17.5378 2.19011 17.5424 2.18037 17.5451C2.17568 17.5463 2.17376 17.5468 2.17423 17.5467C2.17449 17.5466 2.17913 17.5455 2.18725 17.5439C2.19474 17.5424 2.21061 17.5394 2.2325 17.5365C2.24377 17.535 2.25869 17.5333 2.27651 17.532C2.29402 17.5306 2.3177 17.5293 2.34599 17.5293L2.34599 19.5293C2.51787 19.5293 2.67656 19.4828 2.70661 19.4746C2.77992 19.4546 2.86252 19.4286 2.94822 19.4L2.31576 17.5026ZM2.34599 17.5293C2.40513 17.5293 2.47486 17.5412 2.54491 17.5712C2.61381 17.6007 2.6614 17.6385 2.6891 17.6662L1.27489 19.0804C1.5538 19.3593 1.92477 19.5293 2.34599 19.5293L2.34599 17.5293ZM2.6891 17.6662C2.7049 17.682 2.73578 17.7184 2.76165 17.7775C2.78833 17.8385 2.79999 17.9017 2.79999 17.9573L0.799993 17.9573C0.799993 18.4063 0.98661 18.7922 1.27489 19.0804L2.6891 17.6662ZM2.79999 17.9573L2.79999 14.7073L0.799992 14.7073L0.799993 17.9573L2.79999 17.9573ZM2.79999 14.7073C2.79999 14.7093 2.79957 14.7162 2.79708 14.7251C2.79463 14.7338 2.7922 14.7373 2.79399 14.7343C2.79838 14.727 2.82838 14.6817 2.92723 14.6111L1.76476 12.9836C1.22242 13.371 0.799992 13.9463 0.799992 14.7073L2.79999 14.7073ZM2.83077 14.672L9.53877 10.954L8.56921 9.20469L1.86121 12.9227L2.83077 14.672ZM9.54136 9.20613L2.83336 5.46213L1.85863 7.20852L8.56663 10.9525L9.54136 9.20613ZM2.84213 5.46708C2.81077 5.44916 2.79569 5.43625 2.79067 5.43155C2.78623 5.42739 2.78911 5.42921 2.79398 5.43733C2.79898 5.44565 2.80144 5.4529 2.80211 5.45549C2.8026 5.45737 2.79999 5.44863 2.79999 5.42533L0.799992 5.42533C0.799992 6.20506 1.19406 6.82883 1.84985 7.20357L2.84213 5.46708ZM2.79999 5.42533L2.79999 2.17533L0.799992 2.17533L0.799992 5.42533L2.79999 5.42533ZM2.79999 2.17533C2.79999 2.23049 2.78839 2.30504 2.75167 2.38371C2.71526 2.46175 2.66784 2.51454 2.63278 2.54458L1.3312 1.02607C0.994435 1.31472 0.799992 1.71931 0.799992 2.17533L2.79999 2.17533ZM2.6891 2.49243C2.6614 2.52014 2.61381 2.55794 2.54491 2.58747C2.47486 2.61749 2.40513 2.62933 2.34599 2.62933L2.34599 0.629326C1.92477 0.629326 1.5538 0.799307 1.27489 1.07822L2.6891 2.49243ZM2.34599 2.62933C2.3228 2.62933 2.30816 2.62702 2.30361 2.6262C2.29914 2.62538 2.30293 2.62573 2.31577 2.63001L2.94822 0.732641C2.76799 0.672566 2.56427 0.629326 2.34599 0.629326L2.34599 2.62933ZM2.15544 2.56047L13.2834 8.59247L14.2365 6.83418L3.10854 0.802177L2.15544 2.56047ZM13.76 8.71333L19.35 8.71333L19.35 6.71333L13.76 6.71333L13.76 8.71333ZM19.35 8.71333C19.3218 8.71333 19.2679 8.7076 19.2039 8.67914C19.1389 8.65028 19.0926 8.61093 19.0654 8.57983L20.5706 7.26282C20.2519 6.89866 19.8176 6.71333 19.35 6.71333L19.35 8.71333ZM19.1109 8.62843C19.076 8.59358 19.0437 8.54631 19.0225 8.49177C19.0021 8.43929 19 8.40089 19 8.38932L21 8.38932C21 7.96574 20.8556 7.54476 20.5251 7.21422L19.1109 8.62843ZM19 8.38932L19 11.7693L21 11.7693L21 8.38932L19 8.38932Z" fill="white"/>
</svg>
