<svg width="53" height="153" viewBox="0 0 53 153" fill="none" xmlns="http://www.w3.org/2000/svg">
<path d="M18.466 149.542L19.2186 150.201L19.2272 150.19L18.466 149.542ZM13.214 151.752L13.251 152.751L13.2519 152.751L13.214 151.752ZM8.586 151.752L8.54757 152.751L8.55031 152.751L8.586 151.752ZM3.386 149.49L4.14658 148.841L4.14199 148.835L3.386 149.49ZM2.32 139.61L3.23921 140.004L3.24386 139.993L2.32 139.61ZM4.504 136.75L5.09217 137.559L5.1005 137.553L5.10871 137.546L4.504 136.75ZM7.806 135.658L7.806 134.658L7.7923 134.658L7.806 135.658ZM8.222 135.84L8.99029 135.2L8.98126 135.189L8.222 135.84ZM8.222 140.234L8.98126 140.885L9.01003 140.851L9.03573 140.815L8.222 140.234ZM7.676 140.546L7.94072 141.51L7.96668 141.503L7.99223 141.495L7.676 140.546ZM5.83 141.69L6.64923 142.263L6.65575 142.254L6.66205 142.245L5.83 141.69ZM8.716 146.916L8.75301 145.917L8.74629 145.916L8.716 146.916ZM13.084 146.916L13.0537 145.916L13.0495 145.917L13.084 146.916ZM15.97 141.664L16.7979 141.103L16.7918 141.094L16.7855 141.085L15.97 141.664ZM14.124 140.546L13.8663 141.512L13.8762 141.515L13.8861 141.517L14.124 140.546ZM13.604 140.26L14.4177 139.679L14.392 139.643L14.3633 139.609L13.604 140.26ZM13.604 135.814L14.3111 136.521L14.3383 136.494L14.3633 136.465L13.604 135.814ZM13.994 135.658L13.8836 136.652L13.9318 136.657L13.9803 136.658L13.994 135.658ZM17.322 136.75L16.7243 137.552L16.7268 137.554L17.322 136.75ZM19.506 139.61L20.4299 139.227L20.4251 139.216L19.506 139.61ZM19.26 143.718C19.26 146.041 18.7006 147.725 17.7048 148.894L19.2272 150.19C20.6234 148.551 21.26 146.352 21.26 143.718L19.26 143.718ZM17.7134 148.883C16.7234 150.015 15.2604 150.674 13.1761 150.753L13.2519 152.751C15.7436 152.657 17.7819 151.842 19.2186 150.201L17.7134 148.883ZM13.177 150.753C12.729 150.769 11.9824 150.778 10.926 150.778L10.926 152.778C11.9843 152.778 12.763 152.769 13.251 152.751L13.177 150.753ZM10.926 150.778C9.85255 150.778 9.08785 150.769 8.62169 150.753L8.55031 152.751C9.05482 152.769 9.85012 152.778 10.926 152.778L10.926 150.778ZM8.62443 150.753C6.5877 150.674 5.14168 150.006 4.14656 148.841L2.62543 150.139C4.05698 151.816 6.07763 152.656 8.54757 152.751L8.62443 150.753ZM4.14199 148.835C3.10993 147.643 2.54 145.976 2.54 143.718L0.539999 143.718C0.539999 146.314 1.20073 148.494 2.63001 150.145L4.14199 148.835ZM2.54 143.718C2.54 142.307 2.78014 141.075 3.23914 140.004L1.40085 139.216C0.819854 140.572 0.539999 142.078 0.539999 143.718L2.54 143.718ZM3.24386 139.993C3.68429 138.93 4.30442 138.132 5.09217 137.559L3.91583 135.941C2.79692 136.755 1.96104 137.864 1.39614 139.227L3.24386 139.993ZM5.10871 137.546C5.86116 136.975 6.75066 136.673 7.8197 136.658L7.7923 134.658C6.33067 134.678 5.01884 135.104 3.89929 135.954L5.10871 137.546ZM7.806 136.658L7.858 136.658L7.858 134.658L7.806 134.658L7.806 136.658ZM7.858 136.658C7.77566 136.658 7.68713 136.639 7.60578 136.598C7.52798 136.559 7.48227 136.514 7.46274 136.491L8.98126 135.189C8.71947 134.884 8.33468 134.658 7.858 134.658L7.858 136.658ZM7.45378 136.48C7.42572 136.447 7.3976 136.401 7.37776 136.345C7.35803 136.29 7.352 136.241 7.352 136.204L9.352 136.204C9.352 135.838 9.23057 135.488 8.99022 135.2L7.45378 136.48ZM7.352 136.204L7.352 139.714L9.352 139.714L9.352 136.204L7.352 136.204ZM7.352 139.714C7.352 139.765 7.34683 139.781 7.34936 139.77C7.35223 139.759 7.36578 139.712 7.40827 139.653L9.03573 140.815C9.29113 140.458 9.352 140.047 9.352 139.714L7.352 139.714ZM7.46274 139.583C7.50452 139.534 7.53212 139.523 7.51136 139.535C7.49186 139.546 7.44518 139.569 7.35977 139.597L7.99223 141.495C8.31613 141.387 8.70241 141.21 8.98126 140.885L7.46274 139.583ZM7.41128 139.582C6.40092 139.859 5.52862 140.339 4.99795 141.135L6.66205 142.245C6.82471 142.001 7.18308 141.718 7.94072 141.51L7.41128 139.582ZM5.01077 141.117C4.49524 141.853 4.284 142.758 4.284 143.744L6.284 143.744C6.284 143.032 6.43676 142.567 6.64923 142.263L5.01077 141.117ZM4.284 143.744C4.284 144.954 4.62757 146.033 5.46326 146.805C6.27946 147.56 7.41114 147.877 8.68571 147.916L8.74629 145.916C7.73286 145.886 7.14854 145.64 6.82074 145.337C6.51243 145.052 6.284 144.58 6.284 143.744L4.284 143.744ZM8.67899 147.915C9.16643 147.933 9.90111 147.942 10.874 147.942L10.874 145.942C9.90555 145.942 9.20157 145.933 8.75301 145.917L8.67899 147.915ZM10.874 147.942C11.8477 147.942 12.5982 147.933 13.1185 147.915L13.0495 145.917C12.5645 145.933 11.8416 145.942 10.874 145.942L10.874 147.942ZM13.1143 147.916C14.3889 147.877 15.5205 147.56 16.3367 146.805C17.1724 146.033 17.516 144.954 17.516 143.744L15.516 143.744C15.516 144.58 15.2876 145.052 14.9793 145.337C14.6515 145.64 14.0671 145.886 13.0537 145.916L13.1143 147.916ZM17.516 143.744C17.516 142.756 17.304 141.85 16.7979 141.103L15.1421 142.225C15.364 142.552 15.516 143.034 15.516 143.744L17.516 143.744ZM16.7855 141.085C16.225 140.295 15.3673 139.821 14.3619 139.575L13.8861 141.517C14.5794 141.687 14.9523 141.958 15.1545 142.243L16.7855 141.085ZM14.3817 139.58C14.3446 139.57 14.3181 139.561 14.3005 139.554C14.2827 139.548 14.2772 139.544 14.2809 139.546C14.2846 139.548 14.3503 139.584 14.4177 139.679L12.7903 140.841C13.0843 141.253 13.5424 141.426 13.8663 141.512L14.3817 139.58ZM14.3633 139.609C14.4207 139.676 14.4422 139.736 14.4485 139.758C14.4541 139.777 14.448 139.767 14.448 139.714L12.448 139.714C12.448 140.076 12.5224 140.535 12.8447 140.911L14.3633 139.609ZM14.448 139.714L14.448 136.204L12.448 136.204L12.448 139.714L14.448 139.714ZM14.448 136.204C14.448 136.239 14.4418 136.295 14.4155 136.361C14.3887 136.428 14.3499 136.482 14.3111 136.521L12.8969 135.107C12.5931 135.411 12.448 135.801 12.448 136.204L14.448 136.204ZM14.3633 136.465C14.3252 136.509 14.2557 136.571 14.1509 136.612C14.0454 136.655 13.949 136.659 13.8836 136.652L14.1044 134.664C13.6125 134.609 13.1594 134.796 12.8447 135.163L14.3633 136.465ZM13.9803 136.658C15.0493 136.673 15.9511 136.975 16.7243 137.552L17.9197 135.948C16.7863 135.103 15.4693 134.678 14.0077 134.658L13.9803 136.658ZM16.7268 137.554C17.5023 138.128 18.1272 138.931 18.5869 140.004L20.4251 139.216C19.8448 137.862 19.0137 136.759 17.9172 135.946L16.7268 137.554ZM18.5821 139.993C19.0271 141.067 19.26 142.303 19.26 143.718L21.26 143.718C21.26 142.082 20.9902 140.58 20.4299 139.227L18.5821 139.993ZM19.818 127.296L20.4765 128.049L20.5267 128.005L20.5706 127.954L19.818 127.296ZM13.76 127.478L13.76 126.478L13.5064 126.478L13.2835 126.599L13.76 127.478ZM2.632 133.51L2.94823 134.459L3.03144 134.431L3.10855 134.389L2.632 133.51ZM1.982 133.432L2.68911 132.725L2.6891 132.725L1.982 133.432ZM2.346 128.856L1.86122 127.981L1.81125 128.009L1.76476 128.042L2.346 128.856ZM9.054 125.138L9.53878 126.013L11.1113 125.141L9.54136 124.265L9.054 125.138ZM2.346 121.394L1.84983 122.262L1.85863 122.267L2.346 121.394ZM1.982 116.844L2.63279 117.603L2.66195 117.578L2.6891 117.551L1.982 116.844ZM2.632 116.74L3.10855 115.861L3.03143 115.819L2.94822 115.791L2.632 116.74ZM13.76 122.772L13.2835 123.651L13.5064 123.772L13.76 123.772L13.76 122.772ZM19.818 122.98L19.0654 123.638L19.0873 123.664L19.1109 123.687L19.818 122.98ZM19 126.828C19 126.795 19.0063 126.754 19.0225 126.713C19.0383 126.672 19.0572 126.647 19.0654 126.637L20.5706 127.954C20.8405 127.646 21 127.26 21 126.828L19 126.828ZM19.1595 126.543C19.1689 126.535 19.1938 126.516 19.2346 126.5C19.2762 126.484 19.3172 126.478 19.35 126.478L19.35 128.478C19.7817 128.478 20.168 128.318 20.4765 128.049L19.1595 126.543ZM19.35 126.478L13.76 126.478L13.76 128.478L19.35 128.478L19.35 126.478ZM13.2835 126.599L2.15545 132.631L3.10855 134.389L14.2365 128.357L13.2835 126.599ZM2.31577 132.561C2.28181 132.573 2.25337 132.582 2.22997 132.589C2.20623 132.596 2.19012 132.601 2.18038 132.604C2.17568 132.605 2.17377 132.605 2.17424 132.605C2.1745 132.605 2.17913 132.604 2.18726 132.602C2.19475 132.601 2.21062 132.598 2.2325 132.595C2.24378 132.594 2.25869 132.592 2.27651 132.591C2.29402 132.589 2.3177 132.588 2.346 132.588L2.346 134.588C2.51787 134.588 2.67656 134.541 2.70662 134.533C2.77993 134.513 2.86252 134.487 2.94823 134.459L2.31577 132.561ZM2.346 132.588C2.40513 132.588 2.47487 132.6 2.54492 132.63C2.61381 132.659 2.6614 132.697 2.68911 132.725L1.27489 134.139C1.5538 134.418 1.92478 134.588 2.346 134.588L2.346 132.588ZM2.6891 132.725C2.70491 132.741 2.73578 132.777 2.76165 132.836C2.78833 132.897 2.8 132.96 2.8 133.016L0.799998 133.016C0.799998 133.465 0.986615 133.851 1.27489 134.139L2.6891 132.725ZM2.8 133.016L2.8 129.766L0.799998 129.766L0.799998 133.016L2.8 133.016ZM2.8 129.766C2.8 129.768 2.79958 129.775 2.79709 129.784C2.79463 129.792 2.79221 129.796 2.79399 129.793C2.79838 129.786 2.82838 129.74 2.92724 129.67L1.76476 128.042C1.22243 128.43 0.799998 129.005 0.799998 129.766L2.8 129.766ZM2.83078 129.731L9.53878 126.013L8.56922 124.263L1.86122 127.981L2.83078 129.731ZM9.54136 124.265L2.83336 120.521L1.85863 122.267L8.56663 126.011L9.54136 124.265ZM2.84214 120.526C2.81077 120.508 2.7957 120.495 2.79068 120.49C2.78623 120.486 2.78912 120.488 2.79399 120.496C2.79898 120.504 2.80145 120.512 2.80212 120.514C2.80261 120.516 2.8 120.507 2.8 120.484L0.799997 120.484C0.799997 121.264 1.19406 121.887 1.84986 122.262L2.84214 120.526ZM2.8 120.484L2.8 117.234L0.799997 117.234L0.799997 120.484L2.8 120.484ZM2.8 117.234C2.8 117.289 2.78839 117.364 2.75168 117.442C2.71526 117.52 2.66784 117.573 2.63279 117.603L1.33121 116.085C0.994441 116.373 0.799997 116.778 0.799997 117.234L2.8 117.234ZM2.6891 117.551C2.6614 117.579 2.61381 117.617 2.54492 117.646C2.47487 117.676 2.40513 117.688 2.346 117.688L2.346 115.688C1.92478 115.688 1.5538 115.858 1.27489 116.137L2.6891 117.551ZM2.346 117.688C2.3228 117.688 2.30817 117.686 2.30361 117.685C2.29914 117.684 2.30294 117.684 2.31577 117.689L2.94822 115.791C2.768 115.731 2.56428 115.688 2.346 115.688L2.346 117.688ZM2.15545 117.619L13.2835 123.651L14.2365 121.893L3.10855 115.861L2.15545 117.619ZM13.76 123.772L19.35 123.772L19.35 121.772L13.76 121.772L13.76 123.772ZM19.35 123.772C19.3218 123.772 19.2679 123.766 19.2039 123.738C19.1389 123.709 19.0926 123.67 19.0654 123.638L20.5706 122.321C20.2519 121.957 19.8176 121.772 19.35 121.772L19.35 123.772ZM19.1109 123.687C19.076 123.652 19.0437 123.605 19.0225 123.55C19.0021 123.498 19 123.46 19 123.448L21 123.448C21 123.024 20.8556 122.603 20.5251 122.273L19.1109 123.687ZM19 123.448L19 126.828L21 126.828L21 123.448L19 123.448ZM19.818 113.005L20.4765 113.757L20.5267 113.713L20.5706 113.663L19.818 113.005ZM1.982 113.005L1.22942 113.663L1.25135 113.688L1.27489 113.712L1.982 113.005ZM3.152 99.7447L3.91301 100.393L3.91871 100.387L3.92429 100.38L3.152 99.7447ZM9.158 98.8087L8.56167 99.6114L8.56561 99.6143L9.158 98.8087ZM10.458 100.291L9.56357 100.738L10.4922 102.595L11.3653 100.711L10.458 100.291ZM12.044 98.4967L11.4893 97.6646L11.4893 97.6646L12.044 98.4967ZM18.544 99.4847L17.7815 100.132L17.7815 100.132L18.544 99.4847ZM8.508 103.541L9.23213 102.851L9.22373 102.842L9.2151 102.834L8.508 103.541ZM5.7 103.541L6.42413 104.23L6.42414 104.23L5.7 103.541ZM5.18 108.507L4.18 108.507L4.18 109.507L5.18 109.507L5.18 108.507ZM9.028 108.507L9.028 109.507L10.028 109.507L10.028 108.507L9.028 108.507ZM15.996 103.229L15.3041 103.951L15.3041 103.951L15.996 103.229ZM12.954 103.229L13.6459 103.951L13.6536 103.943L13.6611 103.936L12.954 103.229ZM12.33 108.507L11.33 108.507L11.33 109.507L12.33 109.507L12.33 108.507ZM16.62 108.507L16.62 109.507L17.62 109.507L17.62 108.507L16.62 108.507ZM19 112.537C19 112.504 19.0063 112.463 19.0225 112.421C19.0383 112.38 19.0572 112.356 19.0654 112.346L20.5706 113.663C20.8405 113.355 21 112.968 21 112.537L19 112.537ZM19.1595 112.252C19.1689 112.244 19.1938 112.225 19.2346 112.209C19.2762 112.193 19.3172 112.187 19.35 112.187L19.35 114.187C19.7817 114.187 20.168 114.027 20.4765 113.757L19.1595 112.252ZM19.35 112.187L2.45 112.187L2.45 114.187L19.35 114.187L19.35 112.187ZM2.45 112.187C2.46156 112.187 2.49996 112.189 2.55244 112.209C2.60698 112.23 2.65425 112.263 2.68911 112.298L1.27489 113.712C1.60543 114.042 2.02641 114.187 2.45 114.187L2.45 112.187ZM2.73457 112.346C2.74277 112.356 2.76165 112.38 2.7775 112.421C2.7937 112.463 2.8 112.504 2.8 112.537L0.799997 112.537C0.799997 112.968 0.959511 113.355 1.22942 113.663L2.73457 112.346ZM2.8 112.537L2.8 104.607L0.799997 104.607L0.799997 112.537L2.8 112.537ZM2.8 104.607C2.8 102.532 3.23284 101.191 3.91301 100.393L2.39098 99.096C1.26848 100.413 0.799997 102.314 0.799997 104.607L2.8 104.607ZM3.92429 100.38C4.58277 99.5794 5.53946 99.1327 6.948 99.1327L6.948 97.1327C5.0632 97.1327 3.48922 97.7606 2.37971 99.1094L3.92429 100.38ZM6.948 99.1327C7.6327 99.1327 8.15206 99.3071 8.56167 99.6114L9.75432 98.0059C8.95061 97.4089 7.99663 97.1327 6.948 97.1327L6.948 99.1327ZM8.56561 99.6143C9.05013 99.9706 9.36878 100.348 9.56357 100.738L11.3524 99.8435C10.9926 99.1237 10.4445 98.5134 9.75039 98.003L8.56561 99.6143ZM11.3653 100.711C11.6084 100.187 12.0054 99.7242 12.5987 99.3287L11.4893 97.6646C10.6265 98.2398 9.96624 98.9735 9.55069 99.8702L11.3653 100.711ZM12.5987 99.3287C13.1573 98.9564 13.7778 98.7687 14.488 98.7687L14.488 96.7687C13.3956 96.7687 12.3867 97.0663 11.4893 97.6646L12.5987 99.3287ZM14.488 98.7687C15.9784 98.7687 17.0314 99.2476 17.7815 100.132L19.3065 98.8377C18.1153 97.4338 16.4642 96.7687 14.488 96.7687L14.488 98.7687ZM17.7815 100.132C18.5465 101.033 19 102.399 19 104.373L21 104.373C21 102.117 20.4829 100.224 19.3065 98.8377L17.7815 100.132ZM19 104.373L19 112.537L21 112.537L21 104.373L19 104.373ZM10.028 105.127C10.028 104.275 9.8139 103.462 9.23213 102.851L7.78386 104.23C7.89543 104.347 8.028 104.591 8.028 105.127L10.028 105.127ZM9.2151 102.834C8.636 102.254 7.89083 101.995 7.078 101.995L7.078 103.995C7.44383 103.995 7.652 104.099 7.80089 104.248L9.2151 102.834ZM7.078 101.995C6.27371 101.995 5.53803 102.261 4.97586 102.851L6.42414 104.23C6.5553 104.093 6.73829 103.995 7.078 103.995L7.078 101.995ZM4.97586 102.851C4.3941 103.462 4.18 104.275 4.18 105.127L6.18 105.127C6.18 104.591 6.31256 104.347 6.42413 104.23L4.97586 102.851ZM4.18 105.127L4.18 108.507L6.18 108.507L6.18 105.127L4.18 105.127ZM5.18 109.507L9.028 109.507L9.028 107.507L5.18 107.507L5.18 109.507ZM10.028 108.507L10.028 105.127L8.028 105.127L8.028 108.507L10.028 108.507ZM17.62 104.893C17.62 103.977 17.3449 103.136 16.6879 102.507L15.3041 103.951C15.4791 104.118 15.62 104.387 15.62 104.893L17.62 104.893ZM16.6879 102.507C16.0811 101.925 15.3286 101.631 14.488 101.631L14.488 103.631C14.826 103.631 15.0789 103.735 15.3041 103.951L16.6879 102.507ZM14.488 101.631C13.6298 101.631 12.854 101.915 12.2469 102.522L13.6611 103.936C13.8514 103.746 14.0982 103.631 14.488 103.631L14.488 101.631ZM12.2621 102.507C11.6051 103.136 11.33 103.977 11.33 104.893L13.33 104.893C13.33 104.387 13.4709 104.118 13.6459 103.951L12.2621 102.507ZM11.33 104.893L11.33 108.507L13.33 108.507L13.33 104.893L11.33 104.893ZM12.33 109.507L16.62 109.507L16.62 107.507L12.33 107.507L12.33 109.507ZM17.62 108.507L17.62 104.893L15.62 104.893L15.62 108.507L17.62 108.507ZM19.818 93.424L20.4765 94.1766L20.5267 94.1327L20.5706 94.0826L19.818 93.424ZM1.982 93.424L1.22942 94.0826L1.25135 94.1076L1.27489 94.1312L1.982 93.424ZM5.362 80.346L6.06911 79.6389L6.04556 79.6154L6.0205 79.5935L5.362 80.346ZM5.544 89.108L4.544 89.108L4.544 90.108L5.544 90.108L5.544 89.108ZM9.054 89.108L9.054 90.108L10.054 90.108L10.054 89.108L9.054 89.108ZM9.262 80.918L9.9205 81.6706L9.94556 81.6487L9.9691 81.6252L9.262 80.918ZM12.46 80.918L13.1671 80.2109L13.1436 80.1874L13.1185 80.1655L12.46 80.918ZM12.642 89.108L11.642 89.108L11.642 90.108L12.642 90.108L12.642 89.108ZM16.256 89.108L16.256 90.108L17.256 90.108L17.256 89.108L16.256 89.108ZM16.438 80.138L17.1451 80.8452L17.1451 80.8452L16.438 80.138ZM19.818 80.138L20.5251 79.4309L20.5016 79.4074L20.4765 79.3855L19.818 80.138ZM19 92.956C19 92.9232 19.0063 92.8823 19.0225 92.8406C19.0383 92.7998 19.0572 92.7749 19.0654 92.7655L20.5706 94.0826C20.8405 93.7741 21 93.3877 21 92.956L19 92.956ZM19.1595 92.6715C19.1689 92.6633 19.1938 92.6444 19.2346 92.6285C19.2762 92.6123 19.3172 92.606 19.35 92.606L19.35 94.606C19.7817 94.606 20.168 94.4465 20.4765 94.1766L19.1595 92.6715ZM19.35 92.606L2.45 92.606L2.45 94.606L19.35 94.606L19.35 92.606ZM2.45 92.606C2.46156 92.606 2.49996 92.6081 2.55244 92.6285C2.60698 92.6498 2.65425 92.6821 2.68911 92.7169L1.27489 94.1312C1.60543 94.4617 2.02641 94.606 2.45 94.606L2.45 92.606ZM2.73457 92.7655C2.74277 92.7749 2.76165 92.7998 2.7775 92.8406C2.7937 92.8823 2.8 92.9232 2.8 92.956L0.799996 92.956C0.799996 93.3877 0.95951 93.7741 1.22942 94.0826L2.73457 92.7655ZM2.8 92.956L2.8 80.814L0.799996 80.814L0.799996 92.956L2.8 92.956ZM2.8 80.814C2.8 80.8256 2.79791 80.864 2.7775 80.9165C2.75629 80.971 2.72396 81.0183 2.6891 81.0532L1.27489 79.6389C0.944354 79.9695 0.799996 80.3905 0.799996 80.814L2.8 80.814ZM2.6891 81.0532C2.65425 81.088 2.60697 81.1203 2.55244 81.1416C2.49996 81.162 2.46156 81.164 2.45 81.164L2.45 79.164C2.02641 79.164 1.60543 79.3084 1.27489 79.6389L2.6891 81.0532ZM2.45 81.164L4.894 81.164L4.894 79.164L2.45 79.164L2.45 81.164ZM4.894 81.164C4.86116 81.164 4.82021 81.1578 4.77855 81.1416C4.7378 81.1257 4.71287 81.1068 4.70349 81.0986L6.0205 79.5935C5.71203 79.3236 5.32565 79.164 4.894 79.164L4.894 81.164ZM4.65489 81.0532C4.62003 81.0183 4.5877 80.971 4.56649 80.9165C4.54608 80.864 4.544 80.8256 4.544 80.814L6.544 80.814C6.544 80.3905 6.39964 79.9695 6.06911 79.6389L4.65489 81.0532ZM4.544 80.814L4.544 89.108L6.544 89.108L6.544 80.814L4.544 80.814ZM5.544 90.108L9.054 90.108L9.054 88.108L5.544 88.108L5.544 90.108ZM10.054 89.108L10.054 81.386L8.054 81.386L8.054 89.108L10.054 89.108ZM10.054 81.386C10.054 81.4142 10.0483 81.4681 10.0198 81.5322C9.99095 81.5971 9.9516 81.6434 9.9205 81.6706L8.60349 80.1655C8.23933 80.4841 8.054 80.9185 8.054 81.386L10.054 81.386ZM9.9691 81.6252C9.93425 81.66 9.88697 81.6923 9.83244 81.7136C9.77996 81.734 9.74156 81.736 9.73 81.736L9.73 79.736C9.30641 79.736 8.88543 79.8804 8.55489 80.2109L9.9691 81.6252ZM9.73 81.736L11.992 81.736L11.992 79.736L9.73 79.736L9.73 81.736ZM11.992 81.736C11.9592 81.736 11.9182 81.7298 11.8766 81.7136C11.8358 81.6977 11.8109 81.6788 11.8015 81.6706L13.1185 80.1655C12.81 79.8956 12.4236 79.736 11.992 79.736L11.992 81.736ZM11.7529 81.6252C11.718 81.5903 11.6857 81.543 11.6645 81.4885C11.6441 81.436 11.642 81.3976 11.642 81.386L13.642 81.386C13.642 80.9625 13.4976 80.5415 13.1671 80.2109L11.7529 81.6252ZM11.642 81.386L11.642 89.108L13.642 89.108L13.642 81.386L11.642 81.386ZM12.642 90.108L16.256 90.108L16.256 88.108L12.642 88.108L12.642 90.108ZM17.256 89.108L17.256 80.606L15.256 80.606L15.256 89.108L17.256 89.108ZM17.256 80.606C17.256 80.6176 17.2539 80.656 17.2335 80.7085C17.2123 80.763 17.18 80.8103 17.1451 80.8452L15.7309 79.4309C15.4004 79.7615 15.256 80.1825 15.256 80.606L17.256 80.606ZM17.1451 80.8452C17.1103 80.88 17.063 80.9123 17.0084 80.9336C16.956 80.954 16.9176 80.956 16.906 80.956L16.906 78.956C16.4824 78.956 16.0614 79.1004 15.7309 79.4309L17.1451 80.8452ZM16.906 80.956L19.35 80.956L19.35 78.956L16.906 78.956L16.906 80.956ZM19.35 80.956C19.3172 80.956 19.2762 80.9498 19.2345 80.9336C19.1938 80.9177 19.1689 80.8988 19.1595 80.8906L20.4765 79.3855C20.168 79.1156 19.7817 78.956 19.35 78.956L19.35 80.956ZM19.1109 80.8452C19.076 80.8103 19.0437 80.763 19.0225 80.7085C19.0021 80.656 19 80.6176 19 80.606L21 80.606C21 80.1825 20.8556 79.7615 20.5251 79.4309L19.1109 80.8452ZM19 80.606L19 92.956L21 92.956L21 80.606L19 80.606ZM19.818 75.5446L20.4765 76.2972L20.5267 76.2533L20.5706 76.2031L19.818 75.5446ZM1.982 75.5446L1.22942 76.2031L1.25135 76.2281L1.27489 76.2517L1.982 75.5446ZM3.35999 62.7006L4.13254 63.3355L4.13726 63.3298L4.14189 63.324L3.35999 62.7006ZM12.772 64.0006L11.8595 64.4096L12.3056 65.4049L13.2585 64.8742L12.772 64.0006ZM19.168 60.4386L18.7208 59.5441L18.7009 59.5541L18.6814 59.5649L19.168 60.4386ZM19.844 60.5426L20.5511 59.8355L20.5511 59.8355L19.844 60.5426ZM19.298 65.4306L18.8919 64.5168L18.8645 64.5289L18.8379 64.5427L19.298 65.4306ZM13.578 68.3946L13.1179 67.5067L12.578 67.7865L12.578 68.3946L13.578 68.3946ZM13.578 71.0466L12.578 71.0466L12.578 72.0466L13.578 72.0466L13.578 71.0466ZM19.818 71.2546L19.0654 71.9131L19.0873 71.9381L19.1109 71.9617L19.818 71.2546ZM9.314 66.2366L10.0512 65.5609L10.0437 65.5527L10.036 65.5447L9.314 66.2366ZM6.038 66.2366L6.7299 66.9586L6.74526 66.9438L6.75998 66.9285L6.038 66.2366ZM5.414 71.0466L4.414 71.0466L4.414 72.0466L5.414 72.0466L5.414 71.0466ZM9.886 71.0466L9.886 72.0466L10.886 72.0466L10.886 71.0466L9.886 71.0466ZM19 75.0766C19 75.0437 19.0063 75.0028 19.0225 74.9611C19.0383 74.9204 19.0572 74.8954 19.0654 74.8861L20.5706 76.2031C20.8405 75.8946 21 75.5082 21 75.0766L19 75.0766ZM19.1595 74.792C19.1689 74.7838 19.1938 74.7649 19.2346 74.7491C19.2762 74.7329 19.3172 74.7266 19.35 74.7266L19.35 76.7266C19.7816 76.7266 20.168 76.5671 20.4765 76.2972L19.1595 74.792ZM19.35 74.7266L2.45 74.7266L2.45 76.7266L19.35 76.7266L19.35 74.7266ZM2.45 74.7266C2.46156 74.7266 2.49996 74.7287 2.55244 74.7491C2.60698 74.7703 2.65425 74.8026 2.6891 74.8375L1.27489 76.2517C1.60542 76.5822 2.02641 76.7266 2.45 76.7266L2.45 74.7266ZM2.73457 74.8861C2.74277 74.8954 2.76165 74.9204 2.7775 74.9611C2.7937 75.0028 2.8 75.0437 2.8 75.0766L0.799995 75.0766C0.799995 75.5082 0.95951 75.8946 1.22942 76.2031L2.73457 74.8861ZM2.8 75.0766L2.8 68.0046L0.799995 68.0046L0.799995 75.0766L2.8 75.0766ZM2.8 68.0046C2.79999 65.8769 3.28746 64.3637 4.13254 63.3355L2.58745 62.0656C1.35253 63.5681 0.799995 65.5909 0.799995 68.0046L2.8 68.0046ZM4.14189 63.324C4.94461 62.3172 6.09102 61.7766 7.728 61.7766L7.728 59.7766C5.5863 59.7766 3.82071 60.5186 2.5781 62.0772L4.14189 63.324ZM7.728 61.7766C8.77984 61.7766 9.60775 62.0225 10.2634 62.464L11.3806 60.8051C10.3376 60.1027 9.10282 59.7766 7.728 59.7766L7.728 61.7766ZM10.2634 62.464C10.946 62.9237 11.4792 63.5613 11.8595 64.4096L13.6845 63.5915C13.1635 62.4292 12.3966 61.4894 11.3806 60.8051L10.2634 62.464ZM13.2585 64.8742L19.6545 61.3122L18.6814 59.5649L12.2854 63.1269L13.2585 64.8742ZM19.6152 61.333C19.6256 61.3278 19.5663 61.3606 19.454 61.3606L19.454 59.3606C19.1684 59.3606 18.9184 59.4453 18.7208 59.5441L19.6152 61.333ZM19.454 61.3606C19.3721 61.3606 19.2953 61.3415 19.2326 61.3123C19.1736 61.2847 19.1429 61.2557 19.1369 61.2497L20.5511 59.8355C20.2894 59.5738 19.9179 59.3606 19.454 59.3606L19.454 61.3606ZM19.1369 61.2497C19.1092 61.222 19.0714 61.1744 19.0419 61.1055C19.0118 61.0354 19 60.9657 19 60.9066L21 60.9066C21 60.4854 20.83 60.1144 20.5511 59.8355L19.1369 61.2497ZM19 60.9066L19 64.3646L21 64.3646L21 60.9066L19 60.9066ZM19 64.3646C19 64.4127 18.9944 64.4396 18.9914 64.4508C18.9886 64.4609 18.9872 64.4614 18.9893 64.4581C18.9973 64.4459 18.987 64.4745 18.8919 64.5168L19.7041 66.3444C20.077 66.1787 20.4177 65.9255 20.6597 65.5581C20.9025 65.1894 21 64.7753 21 64.3646L19 64.3646ZM18.8379 64.5427L13.1179 67.5067L14.0381 69.2825L19.7581 66.3185L18.8379 64.5427ZM12.578 68.3946L12.578 71.0466L14.578 71.0466L14.578 68.3946L12.578 68.3946ZM13.578 72.0466L19.35 72.0466L19.35 70.0466L13.578 70.0466L13.578 72.0466ZM19.35 72.0466C19.3218 72.0466 19.2679 72.0409 19.2039 72.0124C19.1389 71.9835 19.0926 71.9442 19.0654 71.9131L20.5706 70.5961C20.2519 70.2319 19.8176 70.0466 19.35 70.0466L19.35 72.0466ZM19.1109 71.9617C19.076 71.9268 19.0437 71.8796 19.0225 71.825C19.0021 71.7725 19 71.7341 19 71.7226L21 71.7226C21 71.299 20.8556 70.878 20.5251 70.5475L19.1109 71.9617ZM19 71.7226L19 75.0766L21 75.0766L21 71.7226L19 71.7226ZM10.886 68.0566C10.886 67.1122 10.6603 66.2253 10.0512 65.5609L8.57684 66.9123C8.7304 67.0798 8.886 67.4063 8.886 68.0566L10.886 68.0566ZM10.036 65.5447C9.41106 64.8926 8.58225 64.6126 7.676 64.6126L7.676 66.6126C8.1564 66.6126 8.4196 66.7486 8.59201 66.9285L10.036 65.5447ZM7.676 64.6126C6.76974 64.6126 5.94093 64.8926 5.31601 65.5447L6.75998 66.9285C6.93239 66.7486 7.19559 66.6126 7.676 66.6126L7.676 64.6126ZM5.34609 65.5146C4.66344 66.1688 4.41399 67.0842 4.414 68.0566L6.414 68.0566C6.41399 67.3997 6.58055 67.1017 6.7299 66.9586L5.34609 65.5146ZM4.414 68.0566L4.414 71.0466L6.414 71.0466L6.414 68.0566L4.414 68.0566ZM5.414 72.0466L9.886 72.0466L9.886 70.0466L5.414 70.0466L5.414 72.0466ZM10.886 71.0466L10.886 68.0566L8.886 68.0566L8.886 71.0466L10.886 71.0466ZM50.818 150.998L51.4765 151.751L51.5267 151.707L51.5706 151.657L50.818 150.998ZM32.982 150.998L32.2294 151.657L32.2513 151.682L32.2749 151.705L32.982 150.998ZM32.982 146.578L33.6891 147.285L33.7127 147.262L33.7346 147.237L32.982 146.578ZM50.818 146.578L50.0654 147.237L50.0873 147.262L50.1109 147.285L50.818 146.578ZM50 150.53C50 150.497 50.0063 150.456 50.0225 150.415C50.0383 150.374 50.0572 150.349 50.0654 150.339L51.5706 151.657C51.8405 151.348 52 150.962 52 150.53L50 150.53ZM50.1595 150.245C50.1689 150.237 50.1938 150.218 50.2346 150.202C50.2762 150.186 50.3172 150.18 50.35 150.18L50.35 152.18C50.7817 152.18 51.168 152.02 51.4765 151.751L50.1595 150.245ZM50.35 150.18L33.45 150.18L33.45 152.18L50.35 152.18L50.35 150.18ZM33.45 150.18C33.4616 150.18 33.5 150.182 33.5524 150.202C33.607 150.224 33.6543 150.256 33.6891 150.291L32.2749 151.705C32.6054 152.036 33.0264 152.18 33.45 152.18L33.45 150.18ZM33.7346 150.339C33.7428 150.349 33.7617 150.374 33.7775 150.415C33.7937 150.456 33.8 150.497 33.8 150.53L31.8 150.53C31.8 150.962 31.9595 151.348 32.2294 151.657L33.7346 150.339ZM33.8 150.53L33.8 147.046L31.8 147.046L31.8 150.53L33.8 150.53ZM33.8 147.046C33.8 147.058 33.7979 147.096 33.7775 147.148C33.7563 147.203 33.724 147.25 33.6891 147.285L32.2749 145.871C31.9444 146.201 31.8 146.622 31.8 147.046L33.8 147.046ZM33.7346 147.237C33.7074 147.268 33.6611 147.307 33.5961 147.336C33.5321 147.364 33.4782 147.37 33.45 147.37L33.45 145.37C32.9824 145.37 32.5481 145.555 32.2294 145.919L33.7346 147.237ZM33.45 147.37L50.35 147.37L50.35 145.37L33.45 145.37L33.45 147.37ZM50.35 147.37C50.3218 147.37 50.2679 147.364 50.2039 147.336C50.1389 147.307 50.0926 147.268 50.0654 147.237L51.5706 145.919C51.2519 145.555 50.8176 145.37 50.35 145.37L50.35 147.37ZM50.1109 147.285C50.076 147.25 50.0437 147.203 50.0225 147.148C50.0021 147.096 50 147.058 50 147.046L52 147.046C52 146.622 51.8556 146.201 51.5251 145.871L50.1109 147.285ZM50 147.046L50 150.53L52 150.53L52 147.046L50 147.046ZM50.818 141.294L51.4765 142.047L51.5267 142.003L51.5706 141.953L50.818 141.294ZM32.982 141.294L32.2294 141.953L32.2513 141.978L32.2749 142.001L32.982 141.294ZM33.294 137.186L33.7221 138.09L33.778 138.064L33.8303 138.03L33.294 137.186ZM43.278 130.842L43.8143 131.686L46.7164 129.842L43.278 129.842L43.278 130.842ZM32.982 130.66L32.2294 131.319L32.2513 131.344L32.2749 131.367L32.982 130.66ZM32.982 126.604L33.6891 127.311L33.6891 127.311L32.982 126.604ZM50.818 126.604L51.5251 125.897L51.5016 125.874L51.4765 125.852L50.818 126.604ZM50.506 130.712L50.005 129.847L49.9798 129.861L49.9555 129.877L50.506 130.712ZM40.886 137.056L40.3355 136.221L37.5532 138.056L40.886 138.056L40.886 137.056ZM50.818 137.238L51.5251 136.531L51.5016 136.508L51.4765 136.486L50.818 137.238ZM50 140.826C50 140.793 50.0063 140.753 50.0225 140.711C50.0383 140.67 50.0572 140.645 50.0654 140.636L51.5706 141.953C51.8405 141.644 52 141.258 52 140.826L50 140.826ZM50.1595 140.542C50.1689 140.534 50.1938 140.515 50.2346 140.499C50.2762 140.483 50.3172 140.476 50.35 140.476L50.35 142.476C50.7817 142.476 51.168 142.317 51.4765 142.047L50.1595 140.542ZM50.35 140.476L33.45 140.476L33.45 142.476L50.35 142.476L50.35 140.476ZM33.45 140.476C33.4616 140.476 33.5 140.478 33.5524 140.499C33.607 140.52 33.6543 140.552 33.6891 140.587L32.2749 142.001C32.6054 142.332 33.0264 142.476 33.45 142.476L33.45 140.476ZM33.7346 140.636C33.7428 140.645 33.7617 140.67 33.7775 140.711C33.7937 140.753 33.8 140.793 33.8 140.826L31.8 140.826C31.8 141.258 31.9595 141.644 32.2294 141.953L33.7346 140.636ZM33.8 140.826L33.8 138.07L31.8 138.07L31.8 140.826L33.8 140.826ZM33.8 138.07C33.8 137.977 33.8178 137.974 33.7964 138.012C33.7857 138.031 33.7702 138.051 33.7518 138.068C33.734 138.084 33.7214 138.09 33.7221 138.09L32.8659 136.283C32.5291 136.442 32.2425 136.693 32.0506 137.036C31.8645 137.369 31.8 137.73 31.8 138.07L33.8 138.07ZM33.8303 138.03L43.8143 131.686L42.7417 129.998L32.7577 136.342L33.8303 138.03ZM43.278 129.842L33.45 129.842L33.45 131.842L43.278 131.842L43.278 129.842ZM33.45 129.842C33.4616 129.842 33.5 129.844 33.5524 129.865C33.607 129.886 33.6543 129.918 33.6891 129.953L32.2749 131.367C32.6054 131.698 33.0264 131.842 33.45 131.842L33.45 129.842ZM33.7346 130.002C33.7428 130.011 33.7617 130.036 33.7775 130.077C33.7937 130.119 33.8 130.159 33.8 130.192L31.8 130.192C31.8 130.624 31.9595 131.01 32.2294 131.319L33.7346 130.002ZM33.8 130.192L33.8 127.072L31.8 127.072L31.8 130.192L33.8 130.192ZM33.8 127.072C33.8 127.084 33.7979 127.122 33.7775 127.175C33.7563 127.229 33.724 127.277 33.6891 127.311L32.2749 125.897C31.9444 126.228 31.8 126.649 31.8 127.072L33.8 127.072ZM33.6891 127.311C33.6543 127.346 33.607 127.379 33.5524 127.4C33.5 127.42 33.4616 127.422 33.45 127.422L33.45 125.422C33.0264 125.422 32.6054 125.567 32.2749 125.897L33.6891 127.311ZM33.45 127.422L50.324 127.422L50.324 125.422L33.45 125.422L33.45 127.422ZM50.324 127.422C50.3116 127.422 50.2824 127.42 50.2448 127.406C50.2067 127.392 50.1775 127.373 50.1595 127.357L51.4765 125.852C51.1487 125.565 50.7477 125.422 50.324 125.422L50.324 127.422ZM50.1109 127.311C50.076 127.277 50.0437 127.229 50.0225 127.175C50.0021 127.122 50 127.084 50 127.072L52 127.072C52 126.649 51.8556 126.228 51.5251 125.897L50.1109 127.311ZM50 127.072L50 129.854L52 129.854L52 127.072L50 127.072ZM50 129.854C50 129.878 49.9975 129.886 49.9982 129.883C49.9986 129.881 49.9996 129.878 50.0016 129.873C50.0036 129.868 50.0064 129.862 50.0099 129.856C50.0134 129.85 50.017 129.844 50.0205 129.84C50.0239 129.836 50.0266 129.833 50.0278 129.832C50.0302 129.829 50.0247 129.835 50.005 129.847L51.007 131.578C51.646 131.208 52 130.592 52 129.854L50 129.854ZM49.9555 129.877L40.3355 136.221L41.4365 137.891L51.0565 131.547L49.9555 129.877ZM40.886 138.056L50.35 138.056L50.35 136.056L40.886 136.056L40.886 138.056ZM50.35 138.056C50.3172 138.056 50.2762 138.05 50.2346 138.034C50.1938 138.018 50.1689 137.999 50.1595 137.991L51.4765 136.486C51.168 136.216 50.7817 136.056 50.35 136.056L50.35 138.056ZM50.1109 137.945C50.076 137.911 50.0437 137.863 50.0225 137.809C50.0021 137.756 50 137.718 50 137.706L52 137.706C52 137.283 51.8556 136.862 51.5251 136.531L50.1109 137.945ZM50 137.706L50 140.826L52 140.826L52 137.706L50 137.706ZM50.818 117.329L51.4765 118.081L51.5267 118.037L51.5706 117.987L50.818 117.329ZM36.882 117.511L36.882 116.511L35.882 116.511L35.882 117.511L36.882 117.511ZM36.7 122.607L37.3585 123.359L37.4087 123.315L37.4526 123.265L36.7 122.607ZM32.982 122.607L32.2294 123.265L32.2513 123.29L32.2749 123.314L32.982 122.607ZM36.7 107.683L37.4071 106.976L37.4071 106.976L36.7 107.683ZM36.882 112.779L35.882 112.779L35.882 113.779L36.882 113.779L36.882 112.779ZM50.818 112.961L51.5251 112.254L51.5016 112.23L51.4765 112.208L50.818 112.961ZM50 116.861C50 116.828 50.0063 116.787 50.0225 116.745C50.0383 116.705 50.0572 116.68 50.0654 116.67L51.5706 117.987C51.8405 117.679 52 117.292 52 116.861L50 116.861ZM50.1595 116.576C50.1689 116.568 50.1938 116.549 50.2346 116.533C50.2762 116.517 50.3172 116.511 50.35 116.511L50.35 118.511C50.7817 118.511 51.168 118.351 51.4765 118.081L50.1595 116.576ZM50.35 116.511L36.882 116.511L36.882 118.511L50.35 118.511L50.35 116.511ZM35.882 117.511L35.882 122.139L37.882 122.139L37.882 117.511L35.882 117.511ZM35.882 122.139C35.882 122.106 35.8883 122.065 35.9045 122.023C35.9203 121.983 35.9392 121.958 35.9474 121.948L37.4526 123.265C37.7225 122.957 37.882 122.57 37.882 122.139L35.882 122.139ZM36.0415 121.854C36.0509 121.846 36.0758 121.827 36.1166 121.811C36.1582 121.795 36.1992 121.789 36.232 121.789L36.232 123.789C36.6637 123.789 37.05 123.629 37.3585 123.359L36.0415 121.854ZM36.232 121.789L33.45 121.789L33.45 123.789L36.232 123.789L36.232 121.789ZM33.45 121.789C33.4616 121.789 33.5 121.791 33.5524 121.811C33.607 121.833 33.6543 121.865 33.6891 121.9L32.2749 123.314C32.6054 123.644 33.0264 123.789 33.45 123.789L33.45 121.789ZM33.7346 121.948C33.7428 121.958 33.7617 121.983 33.7775 122.023C33.7937 122.065 33.8 122.106 33.8 122.139L31.8 122.139C31.8 122.57 31.9595 122.957 32.2294 123.265L33.7346 121.948ZM33.8 122.139L33.8 108.151L31.8 108.151L31.8 122.139L33.8 122.139ZM33.8 108.151C33.8 108.162 33.7979 108.201 33.7775 108.253C33.7563 108.308 33.724 108.355 33.6891 108.39L32.2749 106.976C31.9444 107.306 31.8 107.727 31.8 108.151L33.8 108.151ZM33.6891 108.39C33.6543 108.425 33.607 108.457 33.5524 108.478C33.5 108.499 33.4616 108.501 33.45 108.501L33.45 106.501C33.0264 106.501 32.6054 106.645 32.2749 106.976L33.6891 108.39ZM33.45 108.501L36.232 108.501L36.232 106.501L33.45 106.501L33.45 108.501ZM36.232 108.501C36.2204 108.501 36.182 108.499 36.1296 108.478C36.075 108.457 36.0277 108.425 35.9929 108.39L37.4071 106.976C37.0766 106.645 36.6556 106.501 36.232 106.501L36.232 108.501ZM35.9929 108.39C35.958 108.355 35.9257 108.308 35.9045 108.253C35.8841 108.201 35.882 108.162 35.882 108.151L37.882 108.151C37.882 107.727 37.7376 107.306 37.4071 106.976L35.9929 108.39ZM35.882 108.151L35.882 112.779L37.882 112.779L37.882 108.151L35.882 108.151ZM36.882 113.779L50.35 113.779L50.35 111.779L36.882 111.779L36.882 113.779ZM50.35 113.779C50.3172 113.779 50.2762 113.773 50.2346 113.756C50.1938 113.74 50.1689 113.722 50.1595 113.713L51.4765 112.208C51.168 111.938 50.7817 111.779 50.35 111.779L50.35 113.779ZM50.1109 113.668C50.076 113.633 50.0437 113.586 50.0225 113.531C50.0021 113.479 50 113.44 50 113.429L52 113.429C52 113.005 51.8556 112.584 51.5251 112.254L50.1109 113.668ZM50 113.429L50 116.861L52 116.861L52 113.429L50 113.429ZM50.818 103.682L51.4765 104.434L51.5267 104.391L51.5706 104.34L50.818 103.682ZM32.982 103.682L32.2294 104.34L32.2513 104.365L32.2749 104.389L32.982 103.682ZM34.36 90.8379L35.1325 91.4728L35.1373 91.4671L35.1419 91.4613L34.36 90.8379ZM43.772 92.1379L42.8595 92.5469L43.3056 93.5422L44.2585 93.0115L43.772 92.1379ZM50.168 88.5759L49.7208 87.6814L49.7009 87.6914L49.6814 87.7022L50.168 88.5759ZM50.844 88.6799L51.5511 87.9728L51.5511 87.9727L50.844 88.6799ZM50.298 93.5679L49.8919 92.654L49.8645 92.6662L49.8379 92.68L50.298 93.5679ZM44.578 96.5319L44.1179 95.644L43.578 95.9238L43.578 96.5319L44.578 96.5319ZM44.578 99.1839L43.578 99.1839L43.578 100.184L44.578 100.184L44.578 99.1839ZM50.818 99.3919L50.0654 100.05L50.0873 100.075L50.1109 100.099L50.818 99.3919ZM40.314 94.3739L41.0512 93.6981L41.0437 93.69L41.036 93.682L40.314 94.3739ZM37.038 94.3739L37.7299 95.0958L37.7453 95.0811L37.76 95.0658L37.038 94.3739ZM36.414 99.1839L35.414 99.1839L35.414 100.184L36.414 100.184L36.414 99.1839ZM40.886 99.1839L40.886 100.184L41.886 100.184L41.886 99.1839L40.886 99.1839ZM50 103.214C50 103.181 50.0063 103.14 50.0225 103.098C50.0383 103.058 50.0572 103.033 50.0654 103.023L51.5706 104.34C51.8405 104.032 52 103.646 52 103.214L50 103.214ZM50.1595 102.929C50.1689 102.921 50.1938 102.902 50.2346 102.886C50.2762 102.87 50.3172 102.864 50.35 102.864L50.35 104.864C50.7817 104.864 51.168 104.704 51.4765 104.434L50.1595 102.929ZM50.35 102.864L33.45 102.864L33.45 104.864L50.35 104.864L50.35 102.864ZM33.45 102.864C33.4616 102.864 33.5 102.866 33.5524 102.886C33.607 102.908 33.6543 102.94 33.6891 102.975L32.2749 104.389C32.6054 104.72 33.0264 104.864 33.45 104.864L33.45 102.864ZM33.7346 103.023C33.7428 103.033 33.7617 103.058 33.7775 103.098C33.7937 103.14 33.8 103.181 33.8 103.214L31.8 103.214C31.8 103.646 31.9595 104.032 32.2294 104.34L33.7346 103.023ZM33.8 103.214L33.8 96.1419L31.8 96.1419L31.8 103.214L33.8 103.214ZM33.8 96.1419C33.8 94.0142 34.2875 92.501 35.1325 91.4728L33.5875 90.2029C32.3525 91.7054 31.8 93.7282 31.8 96.1419L33.8 96.1419ZM35.1419 91.4613C35.9446 90.4545 37.091 89.9139 38.728 89.9139L38.728 87.9139C36.5863 87.9139 34.8207 88.6559 33.5781 90.2145L35.1419 91.4613ZM38.728 89.9139C39.7798 89.9139 40.6077 90.1597 41.2634 90.6013L42.3806 88.9424C41.3376 88.24 40.1028 87.9139 38.728 87.9139L38.728 89.9139ZM41.2634 90.6013C41.946 91.061 42.4792 91.6985 42.8595 92.5469L44.6845 91.7288C44.1635 90.5665 43.3966 89.6267 42.3806 88.9424L41.2634 90.6013ZM44.2585 93.0115L50.6545 89.4495L49.6814 87.7022L43.2854 91.2642L44.2585 93.0115ZM50.6152 89.4703C50.6256 89.4651 50.5663 89.4979 50.454 89.4979L50.454 87.4979C50.1684 87.4979 49.9184 87.5826 49.7208 87.6814L50.6152 89.4703ZM50.454 89.4979C50.3721 89.4979 50.2953 89.4788 50.2326 89.4495C50.1736 89.422 50.1429 89.393 50.1369 89.387L51.5511 87.9727C51.2894 87.7111 50.9179 87.4979 50.454 87.4979L50.454 89.4979ZM50.1369 89.387C50.1092 89.3593 50.0714 89.3117 50.0419 89.2428C50.0118 89.1727 50 89.103 50 89.0439L52 89.0439C52 88.6226 51.83 88.2517 51.5511 87.9728L50.1369 89.387ZM50 89.0439L50 92.5019L52 92.5019L52 89.0439L50 89.0439ZM50 92.5019C50 92.55 49.9944 92.5769 49.9914 92.5881C49.9886 92.5981 49.9872 92.5986 49.9893 92.5954C49.9973 92.5832 49.987 92.6118 49.8919 92.654L50.7041 94.4817C51.077 94.3159 51.4177 94.0628 51.6597 93.6953C51.9025 93.3266 52 92.9126 52 92.5019L50 92.5019ZM49.8379 92.68L44.1179 95.644L45.0381 97.4197L50.7581 94.4557L49.8379 92.68ZM43.578 96.5319L43.578 99.1839L45.578 99.1839L45.578 96.5319L43.578 96.5319ZM44.578 100.184L50.35 100.184L50.35 98.1839L44.578 98.1839L44.578 100.184ZM50.35 100.184C50.3218 100.184 50.2679 100.178 50.2039 100.15C50.1389 100.121 50.0926 100.081 50.0654 100.05L51.5706 98.7334C51.2519 98.3692 50.8176 98.1839 50.35 98.1839L50.35 100.184ZM50.1109 100.099C50.076 100.064 50.0437 100.017 50.0225 99.9623C50.0021 99.9098 50 99.8714 50 99.8599L52 99.8599C52 99.4363 51.8556 99.0153 51.5251 98.6848L50.1109 100.099ZM50 99.8599L50 103.214L52 103.214L52 99.8599L50 99.8599ZM41.886 96.1939C41.886 95.2495 41.6603 94.3626 41.0512 93.6981L39.5768 95.0496C39.7304 95.2171 39.886 95.5436 39.886 96.1939L41.886 96.1939ZM41.036 93.682C40.4111 93.0299 39.5823 92.7499 38.676 92.7499L38.676 94.7499C39.1564 94.7499 39.4196 94.8859 39.592 95.0658L41.036 93.682ZM38.676 92.7499C37.7697 92.7499 36.9409 93.0299 36.316 93.682L37.76 95.0658C37.9324 94.8859 38.1956 94.7499 38.676 94.7499L38.676 92.7499ZM36.3461 93.6519C35.6634 94.3061 35.414 95.2214 35.414 96.1939L37.414 96.1939C37.414 95.5369 37.5806 95.239 37.7299 95.0958L36.3461 93.6519ZM35.414 96.1939L35.414 99.1839L37.414 99.1839L37.414 96.1939L35.414 96.1939ZM36.414 100.184L40.886 100.184L40.886 98.1839L36.414 98.1839L36.414 100.184ZM41.886 99.1839L41.886 96.1939L39.886 96.1939L39.886 99.1839L41.886 99.1839ZM49.466 82.7153L50.2192 83.3731L50.2232 83.3684L49.466 82.7153ZM32.982 84.5873L32.2294 85.2458L32.2513 85.2709L32.2749 85.2944L32.982 84.5873ZM32.982 80.2973L33.6891 81.0044L33.7126 80.9809L33.7346 80.9558L32.982 80.2973ZM46.58 79.3093L47.2527 80.0492L47.2644 80.0386L47.2758 80.0275L46.58 79.3093ZM46.554 74.7073L47.2387 73.9784L47.2387 73.9784L46.554 74.7073ZM32.982 73.7193L32.2294 74.3778L32.2513 74.4029L32.2749 74.4264L32.982 73.7193ZM32.982 69.4033L33.6891 70.1104L33.6891 70.1104L32.982 69.4033ZM49.466 71.3013L48.7087 71.9544L48.7128 71.9591L49.466 71.3013ZM50.26 76.9693C50.26 79.2546 49.7023 80.9103 48.7087 82.0622L50.2232 83.3684C51.6217 81.747 52.26 79.572 52.26 76.9693L50.26 76.9693ZM48.7128 82.0575C47.7635 83.1443 46.278 83.7693 44.058 83.7693L44.058 85.7693C46.6567 85.7693 48.7764 85.0249 50.2192 83.3731L48.7128 82.0575ZM44.058 83.7693L33.45 83.7693L33.45 85.7693L44.058 85.7693L44.058 83.7693ZM33.45 83.7693C33.4616 83.7693 33.5 83.7714 33.5524 83.7918C33.607 83.813 33.6543 83.8453 33.6891 83.8802L32.2749 85.2944C32.6054 85.6249 33.0264 85.7693 33.45 85.7693L33.45 83.7693ZM33.7346 83.9288C33.7428 83.9382 33.7617 83.9631 33.7775 84.0038C33.7937 84.0455 33.8 84.0865 33.8 84.1193L31.8 84.1193C31.8 84.5509 31.9595 84.9373 32.2294 85.2458L33.7346 83.9288ZM33.8 84.1193L33.8 80.7653L31.8 80.7653L31.8 84.1193L33.8 84.1193ZM33.8 80.7653C33.8 80.7769 33.7979 80.8153 33.7775 80.8677C33.7563 80.9223 33.724 80.9695 33.6891 81.0044L32.2749 79.5902C31.9444 79.9207 31.8 80.3417 31.8 80.7653L33.8 80.7653ZM33.7346 80.9558C33.7074 80.9869 33.6611 81.0262 33.5961 81.0551C33.5321 81.0836 33.4782 81.0893 33.45 81.0893L33.45 79.0893C32.9824 79.0893 32.5481 79.2746 32.2294 79.6388L33.7346 80.9558ZM33.45 81.0893L44.032 81.0893L44.032 79.0893L33.45 79.0893L33.45 81.0893ZM44.032 81.0893C45.2953 81.0893 46.4277 80.7992 47.2527 80.0492L45.9073 78.5694C45.5883 78.8594 45.022 79.0893 44.032 79.0893L44.032 81.0893ZM47.2758 80.0275C48.0788 79.2496 48.412 78.1858 48.412 76.9953L46.412 76.9953C46.412 77.8155 46.1905 78.2943 45.8842 78.5911L47.2758 80.0275ZM48.412 76.9953C48.412 75.8073 48.0613 74.7512 47.2387 73.9784L45.8693 75.4361C46.1907 75.738 46.412 76.2073 46.412 76.9953L48.412 76.9953ZM47.2387 73.9784C46.4165 73.2061 45.2903 72.9013 44.032 72.9013L44.032 74.9013C44.9923 74.9013 45.5475 75.1338 45.8693 75.4361L47.2387 73.9784ZM44.032 72.9013L33.45 72.9013L33.45 74.9013L44.032 74.9013L44.032 72.9013ZM33.45 72.9013C33.4616 72.9013 33.5 72.9034 33.5524 72.9238C33.607 72.945 33.6543 72.9773 33.6891 73.0122L32.2749 74.4264C32.6054 74.7569 33.0264 74.9013 33.45 74.9013L33.45 72.9013ZM33.7346 73.0608C33.7428 73.0702 33.7617 73.0951 33.7775 73.1358C33.7937 73.1775 33.8 73.2185 33.8 73.2513L31.8 73.2513C31.8 73.6829 31.9595 74.0693 32.2294 74.3778L33.7346 73.0608ZM33.8 73.2513L33.8 69.8713L31.8 69.8713L31.8 73.2513L33.8 73.2513ZM33.8 69.8713C33.8 69.8829 33.7979 69.9213 33.7775 69.9737C33.7563 70.0283 33.724 70.0755 33.6891 70.1104L32.2749 68.6962C31.9444 69.0267 31.8 69.4477 31.8 69.8713L33.8 69.8713ZM33.6891 70.1104C33.6543 70.1453 33.607 70.1776 33.5524 70.1988C33.5 70.2192 33.4616 70.2213 33.45 70.2213L33.45 68.2213C33.0264 68.2213 32.6054 68.3656 32.2749 68.6962L33.6891 70.1104ZM33.45 70.2213L44.058 70.2213L44.058 68.2213L33.45 68.2213L33.45 70.2213ZM44.058 70.2213C46.2741 70.2213 47.7583 70.8525 48.7087 71.9544L50.2232 70.6482C48.7816 68.9767 46.6605 68.2213 44.058 68.2213L44.058 70.2213ZM48.7128 71.9591C49.704 73.094 50.26 74.722 50.26 76.9693L52.26 76.9693C52.26 74.3979 51.62 72.2473 50.2192 70.6435L48.7128 71.9591ZM50.532 61.9514L49.6073 61.5707L49.6073 61.5707L50.532 61.9514ZM48.634 64.6294L49.2284 65.4336L49.2383 65.4263L49.2479 65.4188L48.634 64.6294ZM46.034 65.5654L46.034 66.5654L46.0525 66.5654L46.071 66.5648L46.034 65.5654ZM45.67 65.4094L44.9629 66.1166L44.9629 66.1166L45.67 65.4094ZM45.618 61.2234L46.4317 61.8047L46.4773 61.7408L46.5124 61.6707L45.618 61.2234ZM45.956 60.8074L45.5088 59.913L45.3905 59.9722L45.2916 60.06L45.956 60.8074ZM47.074 59.7154L47.9367 60.2212L47.9367 60.2212L47.074 59.7154ZM47.048 55.4514L46.1905 55.9659L46.1905 55.9659L47.048 55.4514ZM44.838 55.0874L45.5691 55.7698L45.58 55.758L45.5906 55.746L44.838 55.0874ZM44.188 56.3354L43.2393 56.0192L43.2393 56.0192L44.188 56.3354ZM43.538 58.8834L42.5604 58.6729L42.559 58.6795L43.538 58.8834ZM41.64 63.5634L42.4093 64.2023L42.4151 64.1953L42.4209 64.1881L41.64 63.5634ZM35.192 64.2134L34.614 65.0295L34.614 65.0295L35.192 64.2134ZM33.242 61.6914L32.3229 62.0854L32.3229 62.0854L33.242 61.6914ZM33.32 53.9434L34.2255 54.3679L34.2255 54.3679L33.32 53.9434ZM35.296 51.4214L35.8789 52.234L35.889 52.2268L35.8988 52.2193L35.296 51.4214ZM37.61 50.4854L37.61 49.4854L37.5873 49.4854L37.5646 49.4865L37.61 50.4854ZM38 50.6414L38.7071 49.9343L38.7071 49.9343L38 50.6414ZM38.052 54.9834L38.9202 55.4796L38.934 55.4555L38.9464 55.4307L38.052 54.9834ZM37.714 55.3214L37.9664 56.2891L38.1289 56.2467L38.2687 56.1535L37.714 55.3214ZM36.7 56.1794L37.5517 56.7035L37.556 56.6964L37.5603 56.6892L36.7 56.1794ZM36.7 59.6634L37.532 59.1087L37.532 59.1087L36.7 59.6634ZM38.832 59.9494L39.5124 60.6822L39.526 60.6696L39.5391 60.6566L38.832 59.9494ZM39.508 58.8054L40.4365 59.1768L40.4438 59.1585L40.4504 59.1399L39.508 58.8054ZM40.106 56.5174L41.0845 56.7235L41.0873 56.7104L41.0897 56.6973L40.106 56.5174ZM41.224 52.6694L42.1281 53.0968L42.1327 53.087L42.1371 53.0771L41.224 52.6694ZM42.94 50.5374L43.4756 51.382L43.485 51.3759L42.94 50.5374ZM48.608 50.8754L47.993 51.664L47.9952 51.6657L48.608 50.8754ZM50.584 53.6574L51.5181 53.3003L51.5152 53.293L50.584 53.6574ZM50.26 57.7134C50.26 59.2659 50.0307 60.5424 49.6073 61.5707L51.4567 62.3322C52.0039 61.0031 52.26 59.4543 52.26 57.7134L50.26 57.7134ZM49.6073 61.5707C49.1695 62.634 48.6284 63.3669 48.0201 63.8401L49.2479 65.4188C50.1996 64.6786 50.9239 63.6262 51.4567 62.3322L49.6073 61.5707ZM48.0396 63.8253C47.3942 64.3023 46.7197 64.5394 45.997 64.5661L46.071 66.5648C47.2203 66.5222 48.2791 66.1352 49.2284 65.4336L48.0396 63.8253ZM46.034 64.5654C46.0931 64.5654 46.1629 64.5773 46.2329 64.6073C46.3018 64.6368 46.3494 64.6746 46.3771 64.7023L44.9629 66.1166C45.2418 66.3955 45.6128 66.5654 46.034 66.5654L46.034 64.5654ZM46.3771 64.7023C46.3929 64.7181 46.4238 64.7545 46.4497 64.8136C46.4763 64.8746 46.488 64.9378 46.488 64.9934L44.488 64.9934C44.488 65.4424 44.6746 65.8283 44.9629 66.1166L46.3771 64.7023ZM46.488 64.9934L46.488 61.7174L44.488 61.7174L44.488 64.9934L46.488 64.9934ZM46.488 61.7174C46.488 61.6811 46.492 61.6758 46.4876 61.6924C46.4827 61.711 46.4682 61.7537 46.4317 61.8047L44.8043 60.6422C44.557 60.9883 44.488 61.381 44.488 61.7174L46.488 61.7174ZM46.5124 61.6707C46.5089 61.6777 46.5285 61.6365 46.6204 61.5549L45.2916 60.06C45.0715 60.2557 44.8658 60.4918 44.7236 60.7762L46.5124 61.6707ZM46.4032 61.7019C47.0529 61.377 47.5598 60.8641 47.9367 60.2212L46.2113 59.2097C45.9989 59.5721 45.7604 59.7872 45.5088 59.913L46.4032 61.7019ZM47.9367 60.2212C48.3517 59.5132 48.516 58.6514 48.516 57.7134L46.516 57.7134C46.516 58.4395 46.3856 58.9124 46.2113 59.2097L47.9367 60.2212ZM48.516 57.7134C48.516 56.6467 48.3522 55.6815 47.9055 54.937L46.1905 55.9659C46.3678 56.2614 46.516 56.8042 46.516 57.7134L48.516 57.7134ZM47.9055 54.937C47.4405 54.162 46.7134 53.6714 45.774 53.6714L45.774 55.6714C45.9093 55.6714 46.0315 55.7009 46.1905 55.9659L47.9055 54.937ZM45.774 53.6714C45.1158 53.6714 44.5254 53.9261 44.0854 54.4289L45.5906 55.746C45.6359 55.6941 45.6696 55.6714 45.774 55.6714L45.774 53.6714ZM44.1069 54.4051C43.7208 54.8189 43.448 55.393 43.2393 56.0192L45.1367 56.6517C45.3093 56.1339 45.4699 55.876 45.5691 55.7698L44.1069 54.4051ZM43.2393 56.0192C43.031 56.6442 42.8052 57.5364 42.5604 58.6729L44.5156 59.094C44.7561 57.9771 44.9637 57.1707 45.1367 56.6517L43.2393 56.0192ZM42.559 58.6795C42.1407 60.6875 41.5514 62.0734 40.8591 62.9388L42.4209 64.1881C43.3926 62.9735 44.0687 61.2394 44.517 59.0874L42.559 58.6795ZM40.8707 62.9245C40.2452 63.6777 39.346 64.0974 38.026 64.0974L38.026 66.0974C39.826 66.0974 41.3361 65.4945 42.4093 64.2023L40.8707 62.9245ZM38.026 64.0974C37.1676 64.0974 36.4265 63.8624 35.77 63.3974L34.614 65.0295C35.6215 65.7431 36.7698 66.0974 38.026 66.0974L38.026 64.0974ZM35.77 63.3974C35.1118 62.9312 34.5687 62.2485 34.1611 61.2975L32.3229 62.0854C32.8513 63.3184 33.6081 64.317 34.614 65.0295L35.77 63.3974ZM34.1611 61.2975C33.7571 60.3547 33.54 59.2198 33.54 57.8694L31.54 57.8694C31.54 59.4311 31.7909 60.8442 32.3229 62.0854L34.1611 61.2975ZM33.54 57.8694C33.54 56.475 33.7804 55.3174 34.2255 54.3679L32.4145 53.519C31.8196 54.7882 31.54 56.2479 31.54 57.8694L33.54 57.8694ZM34.2255 54.3679C34.6907 53.3754 35.251 52.6845 35.8789 52.234L34.7131 50.6089C33.7464 51.3024 32.9893 52.2928 32.4145 53.519L34.2255 54.3679ZM35.8988 52.2193C36.5627 51.7177 37.1445 51.5076 37.6554 51.4844L37.5646 49.4865C36.5502 49.5326 35.5893 49.9465 34.6932 50.6236L35.8988 52.2193ZM37.61 51.4854C37.5753 51.4854 37.519 51.4793 37.4531 51.4529C37.3861 51.4261 37.3317 51.3874 37.2929 51.3486L38.7071 49.9343C38.4033 49.6305 38.0134 49.4854 37.61 49.4854L37.61 51.4854ZM37.2929 51.3486C37.254 51.3097 37.2153 51.2554 37.1885 51.1883C37.1622 51.1225 37.156 51.0662 37.156 51.0314L39.156 51.0314C39.156 50.6281 39.0109 50.2381 38.7071 49.9343L37.2929 51.3486ZM37.156 51.0314L37.156 54.4634L39.156 54.4634L39.156 51.0314L37.156 51.0314ZM37.156 54.4634C37.156 54.5128 37.1518 54.5414 37.1494 54.5533C37.1471 54.5648 37.1474 54.5566 37.1576 54.5362L38.9464 55.4307C39.1047 55.114 39.156 54.7761 39.156 54.4634L37.156 54.4634ZM37.1838 54.4873C37.1988 54.4609 37.2105 54.4497 37.2084 54.4518C37.2059 54.4543 37.1918 54.4677 37.1593 54.4894L38.2687 56.1535C38.5118 55.9914 38.7522 55.7737 38.9202 55.4796L37.1838 54.4873ZM37.4616 54.3538C36.7342 54.5436 36.2068 55.0501 35.8397 55.6696L37.5603 56.6892C37.7478 56.3728 37.8965 56.3073 37.9664 56.2891L37.4616 54.3538ZM35.8483 55.6553C35.4505 56.3018 35.284 57.0591 35.284 57.8694L37.284 57.8694C37.284 57.3278 37.3948 56.9584 37.5517 56.7035L35.8483 55.6553ZM35.284 57.8694C35.284 58.7447 35.4356 59.5696 35.8679 60.2181L37.532 59.1087C37.4097 58.9253 37.284 58.5542 37.284 57.8694L35.284 57.8694ZM35.8679 60.2181C36.3466 60.9362 37.08 61.2874 37.922 61.2874L37.922 59.2874C37.6893 59.2874 37.608 59.2227 37.532 59.1087L35.8679 60.2181ZM37.922 61.2874C38.5112 61.2874 39.0658 61.097 39.5124 60.6822L38.1515 59.2167C38.1129 59.2526 38.0608 59.2874 37.922 59.2874L37.922 61.2874ZM39.5391 60.6566C39.9192 60.2764 40.206 59.7529 40.4365 59.1768L38.5795 58.4341C38.3939 58.898 38.2301 59.1371 38.1249 59.2423L39.5391 60.6566ZM40.4504 59.1399C40.6631 58.5404 40.8732 57.7273 41.0845 56.7235L39.1274 56.3114C38.9228 57.2836 38.7342 57.9958 38.5656 58.471L40.4504 59.1399ZM41.0897 56.6973C41.3763 55.1292 41.7292 53.9406 42.1281 53.0968L40.3199 52.2421C39.8175 53.3049 39.425 54.6817 39.1223 56.3376L41.0897 56.6973ZM42.1371 53.0771C42.5114 52.2389 42.9698 51.7027 43.4755 51.382L42.4045 49.6929C41.4889 50.2735 40.8033 51.1587 40.3109 52.2618L42.1371 53.0771ZM43.485 51.3759C43.9764 51.0564 44.6487 50.8614 45.566 50.8614L45.566 48.8614C44.3687 48.8614 43.2902 49.1171 42.395 49.699L43.485 51.3759ZM45.566 50.8614C46.518 50.8614 47.3124 51.1331 47.993 51.6639L49.223 50.0869C48.1703 49.2658 46.9367 48.8614 45.566 48.8614L45.566 50.8614ZM47.9952 51.6657C48.6763 52.1939 49.2376 52.961 49.6528 54.0218L51.5152 53.293C50.9944 51.9619 50.2383 50.8743 49.2208 50.0852L47.9952 51.6657ZM49.6499 54.0146C50.049 55.0582 50.26 56.2854 50.26 57.7134L52.26 57.7134C52.26 56.0908 52.0204 54.6141 51.518 53.3003L49.6499 54.0146ZM50.818 45.8032L51.4765 46.5558L51.5267 46.5119L51.5706 46.4617L50.818 45.8032ZM32.982 45.8032L32.2294 46.4617L32.2513 46.4868L32.2749 46.5103L32.982 45.8032ZM32.982 41.3832L33.6891 42.0903L33.7126 42.0668L33.7346 42.0417L32.982 41.3832ZM50.818 41.3832L50.0654 42.0417L50.0873 42.0668L50.1109 42.0903L50.818 41.3832ZM50 45.3352C50 45.3024 50.0063 45.2614 50.0225 45.2198C50.0383 45.179 50.0572 45.1541 50.0654 45.1447L51.5706 46.4617C51.8405 46.1533 52 45.7669 52 45.3352L50 45.3352ZM50.1595 45.0506C50.1689 45.0424 50.1938 45.0236 50.2345 45.0077C50.2762 44.9915 50.3172 44.9852 50.35 44.9852L50.35 46.9852C50.7816 46.9852 51.168 46.8257 51.4765 46.5558L50.1595 45.0506ZM50.35 44.9852L33.45 44.9852L33.45 46.9852L50.35 46.9852L50.35 44.9852ZM33.45 44.9852C33.4616 44.9852 33.5 44.9873 33.5524 45.0077C33.607 45.0289 33.6542 45.0613 33.6891 45.0961L32.2749 46.5103C32.6054 46.8409 33.0264 46.9852 33.45 46.9852L33.45 44.9852ZM33.7346 45.1447C33.7428 45.1541 33.7617 45.179 33.7775 45.2198C33.7937 45.2614 33.8 45.3024 33.8 45.3352L31.8 45.3352C31.8 45.7669 31.9595 46.1533 32.2294 46.4617L33.7346 45.1447ZM33.8 45.3352L33.8 41.8512L31.8 41.8512L31.8 45.3352L33.8 45.3352ZM33.8 41.8512C33.8 41.8628 33.7979 41.9012 33.7775 41.9537C33.7563 42.0082 33.724 42.0555 33.6891 42.0903L32.2749 40.6761C31.9444 41.0066 31.8 41.4276 31.8 41.8512L33.8 41.8512ZM33.7346 42.0417C33.7074 42.0728 33.6611 42.1122 33.5961 42.141C33.5321 42.1695 33.4782 42.1752 33.45 42.1752L33.45 40.1752C32.9824 40.1752 32.5481 40.3606 32.2294 40.7247L33.7346 42.0417ZM33.45 42.1752L50.35 42.1752L50.35 40.1752L33.45 40.1752L33.45 42.1752ZM50.35 42.1752C50.3218 42.1752 50.2679 42.1695 50.2039 42.141C50.1389 42.1122 50.0926 42.0728 50.0654 42.0417L51.5706 40.7247C51.2519 40.3606 50.8176 40.1752 50.35 40.1752L50.35 42.1752ZM50.1109 42.0903C50.076 42.0555 50.0437 42.0082 50.0225 41.9537C50.0021 41.9012 50 41.8628 50 41.8512L52 41.8512C52 41.4276 51.8556 41.0066 51.5251 40.6761L50.1109 42.0903ZM50 41.8512L50 45.3352L52 45.3352L52 41.8512L50 41.8512ZM49.466 34.6175L48.7048 33.9691L48.7048 33.9691L49.466 34.6175ZM44.188 36.8535L44.2225 37.8529L44.2253 37.8528L44.188 36.8535ZM39.69 36.8535L39.6521 37.8528L39.6555 37.8529L39.69 36.8535ZM34.412 34.5915L35.168 33.937L35.1674 33.9363L34.412 34.5915ZM34.412 23.0995L35.1674 23.7548L35.1719 23.7496L34.412 23.0995ZM39.69 20.8375L39.7203 21.8371L39.7245 21.8369L39.69 20.8375ZM44.188 20.8375L44.2253 19.8382L44.2225 19.8381L44.188 20.8375ZM49.466 23.0735L48.7048 23.722L48.7048 23.722L49.466 23.0735ZM46.658 26.5835L45.9509 27.2906L45.9563 27.2961L45.9618 27.3014L46.658 26.5835ZM44.032 25.6735L43.9975 26.6729L44.0026 26.6731L44.032 25.6735ZM39.768 25.6735L39.7974 26.6731L39.8037 26.6729L39.768 25.6735ZM37.142 26.5835L36.4349 25.8764L36.4349 25.8764L37.142 26.5835ZM37.142 31.1075L36.4349 31.8146L36.4403 31.8201L36.4458 31.8254L37.142 31.1075ZM39.768 32.0175L39.7239 33.0166L39.7323 33.0169L39.768 32.0175ZM44.032 32.0175L44.0665 33.017L44.0761 33.0166L44.032 32.0175ZM46.658 31.1075L45.9618 30.3896L45.9618 30.3896L46.658 31.1075ZM50.26 28.8455C50.26 31.13 49.7026 32.7977 48.7048 33.9691L50.2272 35.266C51.6214 33.6294 52.26 31.449 52.26 28.8455L50.26 28.8455ZM48.7048 33.9691C47.7353 35.1071 46.2713 35.7751 44.1507 35.8542L44.2253 37.8528C46.75 37.7586 48.8047 36.9359 50.2272 35.266L48.7048 33.9691ZM44.1535 35.8541C43.6686 35.8708 42.9372 35.8795 41.952 35.8795L41.952 37.8795C42.9428 37.8795 43.702 37.8709 44.2225 37.8529L44.1535 35.8541ZM41.952 35.8795C40.9492 35.8795 40.2093 35.8708 39.7245 35.8541L39.6555 37.8529C40.1761 37.8709 40.9441 37.8795 41.952 37.8795L41.952 35.8795ZM39.7278 35.8542C37.6517 35.7756 36.1788 35.1044 35.168 33.937L33.656 35.2461C35.1065 36.9214 37.1523 37.7581 39.6521 37.8528L39.7278 35.8542ZM35.1674 33.9363C34.1144 32.7224 33.54 31.0604 33.54 28.8455L31.54 28.8455C31.54 31.4146 32.2136 33.5834 33.6566 35.2468L35.1674 33.9363ZM33.54 28.8455C33.54 26.6306 34.1144 24.9687 35.1674 23.7548L33.6566 22.4443C32.2136 24.1077 31.54 26.2764 31.54 28.8455L33.54 28.8455ZM35.1719 23.7496C36.1817 22.5691 37.65 21.8998 39.7203 21.8371L39.6597 19.838C37.154 19.9139 35.1036 20.7526 33.6521 22.4495L35.1719 23.7496ZM39.7245 21.8369C40.7272 21.8024 41.4672 21.7855 41.952 21.7855L41.952 19.7855C41.4314 19.7855 40.6634 19.8034 39.6555 19.8381L39.7245 21.8369ZM41.952 21.7855C42.4192 21.7855 43.1503 21.8023 44.1535 21.8369L44.2225 19.8381C43.2151 19.8034 42.4554 19.7855 41.952 19.7855L41.952 21.7855ZM44.1507 21.8368C46.2713 21.916 47.7353 22.5839 48.7048 23.722L50.2272 22.4251C48.8047 20.7551 46.75 19.9324 44.2253 19.8382L44.1507 21.8368ZM48.7048 23.722C49.7026 24.8934 50.26 26.561 50.26 28.8455L52.26 28.8455C52.26 26.242 51.6214 24.0617 50.2272 22.4251L48.7048 23.722ZM48.516 28.8455C48.516 27.6789 48.1579 26.6451 47.3541 25.8656L45.9618 27.3014C46.302 27.6313 46.516 28.1055 46.516 28.8455L48.516 28.8455ZM47.3651 25.8764C46.5449 25.0562 45.3794 24.7127 44.0614 24.674L44.0026 26.6731C45.0419 26.7037 45.6271 26.9668 45.9509 27.2906L47.3651 25.8764ZM44.0665 24.6741C43.0611 24.6395 42.335 24.6215 41.9 24.6215L41.9 26.6215C42.2969 26.6215 42.9922 26.6383 43.9975 26.6729L44.0665 24.6741ZM41.9 24.6215C41.4303 24.6215 40.7046 24.6394 39.7323 24.6742L39.8037 26.6729C40.7728 26.6383 41.4683 26.6215 41.9 26.6215L41.9 24.6215ZM39.7386 24.674C38.4206 24.7127 37.2551 25.0562 36.4349 25.8764L37.8491 27.2906C38.1729 26.9668 38.7581 26.7037 39.7974 26.6731L39.7386 24.674ZM36.4349 25.8764C35.6457 26.6656 35.284 27.6894 35.284 28.8455L37.284 28.8455C37.284 28.1296 37.4943 27.6455 37.8491 27.2906L36.4349 25.8764ZM35.284 28.8455C35.284 30.0016 35.6457 31.0255 36.4349 31.8146L37.8491 30.4004C37.4943 30.0456 37.284 29.5614 37.284 28.8455L35.284 28.8455ZM36.4458 31.8254C37.2614 32.6162 38.4155 32.9588 39.7239 33.0166L39.8121 31.0185C38.7631 30.9722 38.1666 30.7081 37.8381 30.3896L36.4458 31.8254ZM39.7323 33.0169C40.2359 33.0349 40.9608 33.0435 41.9 33.0435L41.9 31.0435C40.9672 31.0435 40.2708 31.0348 39.8037 31.0182L39.7323 33.0169ZM41.9 33.0435C42.8224 33.0435 43.5466 33.0349 44.0665 33.0169L43.9975 31.0181C43.5121 31.0349 42.8149 31.0435 41.9 31.0435L41.9 33.0435ZM44.0761 33.0166C45.3845 32.9588 46.5386 32.6162 47.3541 31.8254L45.9618 30.3896C45.6334 30.7081 45.0369 30.9722 43.9879 31.0185L44.0761 33.0166ZM47.3541 31.8254C48.1579 31.046 48.516 30.0122 48.516 28.8455L46.516 28.8455C46.516 29.5855 46.302 30.0597 45.9618 30.3896L47.3541 31.8254ZM50.818 16.3158L51.4765 17.0683L51.5267 17.0244L51.5706 16.9743L50.818 16.3158ZM32.982 16.3158L32.2294 16.9743L32.2513 16.9993L32.2749 17.0229L32.982 16.3158ZM33.294 12.2078L33.7221 13.1115L33.778 13.085L33.8303 13.0518L33.294 12.2078ZM43.278 5.86376L43.8143 6.70778L46.7164 4.86376L43.278 4.86376L43.278 5.86376ZM32.982 5.68176L32.2294 6.34027L32.2513 6.36532L32.2749 6.38887L32.982 5.68176ZM32.982 1.62576L33.6891 2.33287L33.6891 2.33287L32.982 1.62576ZM50.818 1.62576L51.5251 0.918653L51.5016 0.89511L51.4765 0.873186L50.818 1.62576ZM50.506 5.73376L50.005 4.86834L49.9798 4.88292L49.9555 4.89894L50.506 5.73376ZM40.886 12.0778L40.3355 11.2429L37.5532 13.0778L40.886 13.0778L40.886 12.0778ZM50.818 12.2598L51.5251 11.5527L51.5016 11.5291L51.4765 11.5072L50.818 12.2598ZM50 15.8478C50 15.8149 50.0063 15.774 50.0225 15.7323C50.0383 15.6916 50.0572 15.6666 50.0654 15.6573L51.5706 16.9743C51.8405 16.6658 52 16.2794 52 15.8478L50 15.8478ZM50.1595 15.5632C50.1689 15.555 50.1938 15.5361 50.2345 15.5203C50.2762 15.5041 50.3172 15.4978 50.35 15.4978L50.35 17.4978C50.7816 17.4978 51.168 17.3382 51.4765 17.0683L50.1595 15.5632ZM50.35 15.4978L33.45 15.4978L33.45 17.4978L50.35 17.4978L50.35 15.4978ZM33.45 15.4978C33.4616 15.4978 33.5 15.4998 33.5524 15.5203C33.607 15.5415 33.6542 15.5738 33.6891 15.6087L32.2749 17.0229C32.6054 17.3534 33.0264 17.4978 33.45 17.4978L33.45 15.4978ZM33.7346 15.6573C33.7428 15.6666 33.7616 15.6916 33.7775 15.7323C33.7937 15.774 33.8 15.8149 33.8 15.8478L31.8 15.8478C31.8 16.2794 31.9595 16.6658 32.2294 16.9743L33.7346 15.6573ZM33.8 15.8478L33.8 13.0918L31.8 13.0918L31.8 15.8478L33.8 15.8478ZM33.8 13.0918C33.8 12.9986 33.8178 12.9953 33.7964 13.0336C33.7857 13.0528 33.7702 13.0727 33.7518 13.0895C33.734 13.1058 33.7214 13.1118 33.7221 13.1115L32.8659 11.304C32.5291 11.4636 32.2425 11.7144 32.0505 12.0579C31.8645 12.3908 31.8 12.7516 31.8 13.0918L33.8 13.0918ZM33.8303 13.0518L43.8143 6.70778L42.7417 5.01974L32.7577 11.3637L33.8303 13.0518ZM43.278 4.86376L33.45 4.86376L33.45 6.86376L43.278 6.86376L43.278 4.86376ZM33.45 4.86376C33.4616 4.86376 33.5 4.86585 33.5524 4.88626C33.607 4.90746 33.6542 4.9398 33.6891 4.97466L32.2749 6.38887C32.6054 6.71941 33.0264 6.86376 33.45 6.86376L33.45 4.86376ZM33.7346 5.02326C33.7428 5.03263 33.7616 5.05756 33.7775 5.09831C33.7937 5.13998 33.8 5.18093 33.8 5.21376L31.8 5.21376C31.8 5.64542 31.9595 6.0318 32.2294 6.34027L33.7346 5.02326ZM33.8 5.21376L33.8 2.09376L31.8 2.09376L31.8 5.21376L33.8 5.21376ZM33.8 2.09376C33.8 2.10533 33.7979 2.14373 33.7775 2.19621C33.7563 2.25074 33.724 2.29802 33.6891 2.33287L32.2749 0.918652C31.9443 1.24919 31.8 1.67018 31.8 2.09376L33.8 2.09376ZM33.6891 2.33287C33.6542 2.36772 33.607 2.40006 33.5524 2.42127C33.5 2.44167 33.4616 2.44376 33.45 2.44376L33.45 0.443761C33.0264 0.443761 32.6054 0.588118 32.2749 0.918658L33.6891 2.33287ZM33.45 2.44376L50.324 2.44376L50.324 0.443761L33.45 0.443761L33.45 2.44376ZM50.324 2.44376C50.3116 2.44376 50.2824 2.44144 50.2448 2.4276C50.2067 2.41357 50.1775 2.39412 50.1595 2.37834L51.4765 0.873186C51.1487 0.586372 50.7477 0.443761 50.324 0.443761L50.324 2.44376ZM50.1109 2.33287C50.076 2.29802 50.0437 2.25074 50.0225 2.19621C50.0021 2.14373 50 2.10533 50 2.09376L52 2.09376C52 1.67018 51.8556 1.24919 51.5251 0.918653L50.1109 2.33287ZM50 2.09376L50 4.87576L52 4.87576L52 2.09376L50 2.09376ZM50 4.87576C50 4.89906 49.9975 4.90731 49.9982 4.90432C49.9986 4.9029 49.9996 4.89937 50.0016 4.89427C50.0036 4.88915 50.0064 4.88334 50.0099 4.8773C50.0134 4.87125 50.017 4.86592 50.0205 4.86151C50.0239 4.85712 50.0266 4.8544 50.0277 4.85327C50.0302 4.85088 50.0247 4.85692 50.005 4.86834L51.007 6.59919C51.646 6.22927 52 5.61301 52 4.87576L50 4.87576ZM49.9555 4.89894L40.3355 11.2429L41.4365 12.9126L51.0565 6.56858L49.9555 4.89894ZM40.886 13.0778L50.35 13.0778L50.35 11.0778L40.886 11.0778L40.886 13.0778ZM50.35 13.0778C50.3172 13.0778 50.2762 13.0715 50.2345 13.0553C50.1938 13.0394 50.1689 13.0205 50.1595 13.0123L51.4765 11.5072C51.168 11.2373 50.7816 11.0778 50.35 11.0778L50.35 13.0778ZM50.1109 12.9669C50.076 12.932 50.0437 12.8847 50.0225 12.8302C50.0021 12.7777 50 12.7393 50 12.7278L52 12.7278C52 12.3042 51.8556 11.8832 51.5251 11.5527L50.1109 12.9669ZM50 12.7278L50 15.8478L52 15.8478L52 12.7278L50 12.7278Z" fill="white"/>
</svg>
