<svg width="22" height="200" viewBox="0 0 22 200" fill="none" xmlns="http://www.w3.org/2000/svg">
<path d="M19.818 197.998L20.4765 198.751L20.5267 198.707L20.5706 198.657L19.818 197.998ZM1.982 197.998L1.22942 198.657L1.25135 198.682L1.27489 198.705L1.982 197.998ZM3.62 184.842L2.86339 184.188L2.86339 184.188L3.62 184.842ZM8.898 182.632L8.92806 183.632L8.93246 183.631L8.898 182.632ZM12.876 182.632L12.9119 181.633L12.9117 181.633L12.876 182.632ZM18.258 184.79L19.0124 184.134L19.0118 184.133L18.258 184.79ZM15.45 188.248L16.1571 187.541L16.1515 187.535L16.1458 187.53L15.45 188.248ZM12.824 187.39L12.7552 188.388L12.7751 188.389L12.795 188.39L12.824 187.39ZM8.95 187.39L8.97984 188.39L9.00056 188.389L9.02125 188.387L8.95 187.39ZM6.376 188.326L7.0939 189.022L7.09909 189.017L7.1042 189.011L6.376 188.326ZM5.544 193.5L4.544 193.5L4.544 194.5L5.544 194.5L5.544 193.5ZM16.256 193.5L16.256 194.5L17.256 194.5L17.256 193.5L16.256 193.5ZM19 197.53C19 197.497 19.0063 197.456 19.0225 197.415C19.0383 197.374 19.0572 197.349 19.0654 197.339L20.5706 198.657C20.8405 198.348 21 197.962 21 197.53L19 197.53ZM19.1595 197.245C19.1689 197.237 19.1938 197.218 19.2346 197.202C19.2762 197.186 19.3172 197.18 19.35 197.18L19.35 199.18C19.7817 199.18 20.168 199.02 20.4765 198.751L19.1595 197.245ZM19.35 197.18L2.45 197.18L2.45 199.18L19.35 199.18L19.35 197.18ZM2.45 197.18C2.46156 197.18 2.49997 197.182 2.55245 197.202C2.60698 197.224 2.65425 197.256 2.68911 197.291L1.27489 198.705C1.60543 199.036 2.02642 199.18 2.45 199.18L2.45 197.18ZM2.73457 197.339C2.74278 197.349 2.76165 197.374 2.7775 197.415C2.79371 197.456 2.8 197.497 2.8 197.53L0.799999 197.53C0.799999 197.962 0.959513 198.348 1.22942 198.657L2.73457 197.339ZM2.8 197.53L2.8 190.77L0.799998 190.77L0.799999 197.53L2.8 197.53ZM2.8 190.77C2.8 188.372 3.37035 186.66 4.37661 185.496L2.86339 184.188C1.44298 185.832 0.799998 188.072 0.799998 190.77L2.8 190.77ZM4.37661 185.496C5.36403 184.353 6.82969 183.695 8.92806 183.632L8.86794 181.632C6.35564 181.708 4.30264 182.523 2.86339 184.188L4.37661 185.496ZM8.93246 183.631C9.41868 183.615 10.0731 183.606 10.9 183.606L10.9 181.606C10.0629 181.606 9.38265 181.615 8.86354 181.633L8.93246 183.631ZM10.9 183.606C11.7272 183.606 12.3723 183.615 12.8403 183.631L12.9117 181.633C12.409 181.615 11.7368 181.606 10.9 181.606L10.9 183.606ZM12.8401 183.631C15.072 183.712 16.5634 184.368 17.5042 185.447L19.0118 184.133C17.5952 182.508 15.4986 181.726 12.9119 181.633L12.8401 183.631ZM17.5036 185.446C18.4484 186.532 19 188.209 19 190.64L21 190.64C21 187.94 20.3903 185.717 19.0124 184.134L17.5036 185.446ZM19 190.64L19 197.53L21 197.53L21 190.64L19 190.64ZM17.256 190.77C17.256 189.493 16.9584 188.342 16.1571 187.541L14.7429 188.955C15.0163 189.228 15.256 189.759 15.256 190.77L17.256 190.77ZM16.1458 187.53C15.3354 186.745 14.1666 186.428 12.853 186.39L12.795 188.39C13.8734 188.421 14.4553 188.677 14.7542 188.966L16.1458 187.53ZM12.8928 186.392C12.3581 186.355 11.6828 186.338 10.874 186.338L10.874 188.338C11.6599 188.338 12.2846 188.355 12.7552 188.388L12.8928 186.392ZM10.874 186.338C10.0658 186.338 9.3979 186.355 8.87875 186.393L9.02125 188.387C9.47277 188.355 10.0875 188.338 10.874 188.338L10.874 186.338ZM8.92016 186.39C7.60975 186.43 6.45094 186.787 5.6478 187.641L7.1042 189.011C7.41039 188.686 7.96758 188.42 8.97984 188.39L8.92016 186.39ZM5.6581 187.63C4.85656 188.456 4.544 189.609 4.544 190.9L6.544 190.9C6.544 189.903 6.7861 189.34 7.0939 189.022L5.6581 187.63ZM4.544 190.9L4.544 193.5L6.544 193.5L6.544 190.9L4.544 190.9ZM5.544 194.5L16.256 194.5L16.256 192.5L5.544 192.5L5.544 194.5ZM17.256 193.5L17.256 190.77L15.256 190.77L15.256 193.5L17.256 193.5ZM19.818 178.113L20.4765 178.865L20.5267 178.821L20.5706 178.771L19.818 178.113ZM1.982 178.113L1.22942 178.771L1.25135 178.796L1.27489 178.82L1.982 178.113ZM5.362 165.035L6.06911 164.328L6.04556 164.304L6.0205 164.282L5.362 165.035ZM5.544 173.797L4.544 173.797L4.544 174.797L5.544 174.797L5.544 173.797ZM9.054 173.797L9.054 174.797L10.054 174.797L10.054 173.797L9.054 173.797ZM9.262 165.607L9.9205 166.359L9.94556 166.337L9.9691 166.314L9.262 165.607ZM12.46 165.607L13.1671 164.9L13.1436 164.876L13.1185 164.854L12.46 165.607ZM12.642 173.797L11.642 173.797L11.642 174.797L12.642 174.797L12.642 173.797ZM16.256 173.797L16.256 174.797L17.256 174.797L17.256 173.797L16.256 173.797ZM16.438 164.827L17.1451 165.534L17.1451 165.534L16.438 164.827ZM19.818 164.827L20.5251 164.12L20.5016 164.096L20.4765 164.074L19.818 164.827ZM19 177.645C19 177.612 19.0063 177.571 19.0225 177.529C19.0383 177.488 19.0572 177.464 19.0654 177.454L20.5706 178.771C20.8405 178.463 21 178.076 21 177.645L19 177.645ZM19.1595 177.36C19.1689 177.352 19.1938 177.333 19.2346 177.317C19.2762 177.301 19.3172 177.295 19.35 177.295L19.35 179.295C19.7817 179.295 20.168 179.135 20.4765 178.865L19.1595 177.36ZM19.35 177.295L2.45 177.295L2.45 179.295L19.35 179.295L19.35 177.295ZM2.45 177.295C2.46156 177.295 2.49997 177.297 2.55244 177.317C2.60698 177.338 2.65425 177.371 2.68911 177.406L1.27489 178.82C1.60543 179.15 2.02641 179.295 2.45 179.295L2.45 177.295ZM2.73457 177.454C2.74277 177.464 2.76165 177.488 2.7775 177.529C2.7937 177.571 2.8 177.612 2.8 177.645L0.799998 177.645C0.799998 178.076 0.959512 178.463 1.22942 178.771L2.73457 177.454ZM2.8 177.645L2.8 165.503L0.799997 165.503L0.799998 177.645L2.8 177.645ZM2.8 165.503C2.8 165.514 2.79791 165.553 2.7775 165.605C2.75629 165.66 2.72396 165.707 2.6891 165.742L1.27489 164.328C0.944355 164.658 0.799997 165.079 0.799997 165.503L2.8 165.503ZM2.6891 165.742C2.65425 165.777 2.60698 165.809 2.55244 165.83C2.49996 165.851 2.46156 165.853 2.45 165.853L2.45 163.853C2.02642 163.853 1.60543 163.997 1.27489 164.328L2.6891 165.742ZM2.45 165.853L4.894 165.853L4.894 163.853L2.45 163.853L2.45 165.853ZM4.894 165.853C4.86116 165.853 4.82022 165.846 4.77855 165.83C4.7378 165.814 4.71287 165.795 4.7035 165.787L6.0205 164.282C5.71203 164.012 5.32565 163.853 4.894 163.853L4.894 165.853ZM4.65489 165.742C4.62004 165.707 4.5877 165.66 4.56649 165.605C4.54608 165.553 4.544 165.514 4.544 165.503L6.544 165.503C6.544 165.079 6.39964 164.658 6.06911 164.328L4.65489 165.742ZM4.544 165.503L4.544 173.797L6.544 173.797L6.544 165.503L4.544 165.503ZM5.544 174.797L9.054 174.797L9.054 172.797L5.544 172.797L5.544 174.797ZM10.054 173.797L10.054 166.075L8.054 166.075L8.054 173.797L10.054 173.797ZM10.054 166.075C10.054 166.103 10.0483 166.157 10.0198 166.221C9.99095 166.286 9.9516 166.332 9.9205 166.359L8.60349 164.854C8.23934 165.173 8.054 165.607 8.054 166.075L10.054 166.075ZM9.9691 166.314C9.93425 166.349 9.88698 166.381 9.83244 166.402C9.77996 166.423 9.74156 166.425 9.73 166.425L9.73 164.425C9.30642 164.425 8.88543 164.569 8.55489 164.9L9.9691 166.314ZM9.73 166.425L11.992 166.425L11.992 164.425L9.73 164.425L9.73 166.425ZM11.992 166.425C11.9592 166.425 11.9182 166.418 11.8766 166.402C11.8358 166.386 11.8109 166.367 11.8015 166.359L13.1185 164.854C12.81 164.584 12.4236 164.425 11.992 164.425L11.992 166.425ZM11.7529 166.314C11.718 166.279 11.6857 166.232 11.6645 166.177C11.6441 166.125 11.642 166.086 11.642 166.075L13.642 166.075C13.642 165.651 13.4976 165.23 13.1671 164.9L11.7529 166.314ZM11.642 166.075L11.642 173.797L13.642 173.797L13.642 166.075L11.642 166.075ZM12.642 174.797L16.256 174.797L16.256 172.797L12.642 172.797L12.642 174.797ZM17.256 173.797L17.256 165.295L15.256 165.295L15.256 173.797L17.256 173.797ZM17.256 165.295C17.256 165.306 17.2539 165.345 17.2335 165.397C17.2123 165.452 17.18 165.499 17.1451 165.534L15.7309 164.12C15.4004 164.45 15.256 164.871 15.256 165.295L17.256 165.295ZM17.1451 165.534C17.1103 165.569 17.063 165.601 17.0084 165.622C16.956 165.643 16.9176 165.645 16.906 165.645L16.906 163.645C16.4824 163.645 16.0614 163.789 15.7309 164.12L17.1451 165.534ZM16.906 165.645L19.35 165.645L19.35 163.645L16.906 163.645L16.906 165.645ZM19.35 165.645C19.3172 165.645 19.2762 165.638 19.2346 165.622C19.1938 165.606 19.1689 165.587 19.1595 165.579L20.4765 164.074C20.168 163.804 19.7817 163.645 19.35 163.645L19.35 165.645ZM19.1109 165.534C19.076 165.499 19.0437 165.452 19.0225 165.397C19.0021 165.345 19 165.306 19 165.295L21 165.295C21 164.871 20.8556 164.45 20.5251 164.12L19.1109 165.534ZM19 165.295L19 177.645L21 177.645L21 165.295L19 165.295ZM19.844 161.793L20.4948 162.552L20.5532 162.502L20.6033 162.444L19.844 161.793ZM19.142 161.845L19.7667 161.064L19.7345 161.039L19.7002 161.016L19.142 161.845ZM10.718 156.177L11.2762 155.348L10.7268 154.978L10.1721 155.339L10.718 156.177ZM2.658 161.429L3.10521 162.324L3.15619 162.298L3.20393 162.267L2.658 161.429ZM1.982 161.351L2.68911 160.644L2.66195 160.617L2.63279 160.592L1.982 161.351ZM1.956 156.671L2.756 157.271L2.756 157.271L1.956 156.671ZM2.346 156.281L1.79664 155.446L1.76343 155.467L1.73206 155.492L2.346 156.281ZM7.052 153.187L7.60136 154.023L8.86173 153.194L7.60776 152.356L7.052 153.187ZM2.346 150.041L2.90176 149.21L2.88722 149.2L2.87235 149.191L2.346 150.041ZM1.982 145.179L2.63279 145.938L2.69119 145.888L2.74126 145.83L1.982 145.179ZM2.658 145.101L2.0333 145.882L2.06983 145.911L2.10893 145.937L2.658 145.101ZM10.692 150.379L10.1429 151.215L10.7003 151.581L11.2526 151.207L10.692 150.379ZM19.142 144.659L19.7026 145.487L19.7226 145.474L19.742 145.459L19.142 144.659ZM19.844 144.737L20.5511 144.03L20.5239 144.003L20.4948 143.978L19.844 144.737ZM19.48 149.911L20.0465 150.735L20.0535 150.73L19.48 149.911ZM14.488 153.343L13.9215 152.519L12.7183 153.346L13.9244 154.169L14.488 153.343ZM19.48 156.749L18.9164 157.575L18.956 157.602L18.9981 157.625L19.48 156.749ZM19 161.377C19 161.342 19.0064 161.296 19.0247 161.247C19.0429 161.199 19.0667 161.163 19.0847 161.142L20.6033 162.444C20.8585 162.146 21 161.778 21 161.377L19 161.377ZM19.1932 161.034C19.2042 161.025 19.2341 161.002 19.2841 160.982C19.3361 160.961 19.3949 160.949 19.454 160.949L19.454 162.949C19.8673 162.949 20.2215 162.787 20.4948 162.552L19.1932 161.034ZM19.454 160.949C19.4894 160.949 19.541 160.954 19.6012 160.975C19.6626 160.995 19.7191 161.026 19.7667 161.064L18.5173 162.626C18.7981 162.851 19.1282 162.949 19.454 162.949L19.454 160.949ZM19.7002 161.016L11.2762 155.348L10.1598 157.007L18.5838 162.675L19.7002 161.016ZM10.1721 155.339L2.11206 160.591L3.20393 162.267L11.2639 157.015L10.1721 155.339ZM2.21078 160.535C2.22907 160.526 2.27723 160.507 2.346 160.507L2.346 162.507C2.62276 162.507 2.87892 162.437 3.10521 162.324L2.21078 160.535ZM2.346 160.507C2.40513 160.507 2.47487 160.519 2.54492 160.549C2.61381 160.579 2.6614 160.616 2.68911 160.644L1.27489 162.058C1.5538 162.337 1.92478 162.507 2.346 162.507L2.346 160.507ZM2.63279 160.592C2.66784 160.622 2.71526 160.675 2.75168 160.753C2.78839 160.831 2.8 160.906 2.8 160.961L0.799997 160.961C0.799997 161.417 0.994441 161.822 1.33121 162.11L2.63279 160.592ZM2.8 160.961L2.8 157.191L0.799997 157.191L0.799997 160.961L2.8 160.961ZM2.8 157.191C2.8 157.17 2.8026 157.173 2.79682 157.193C2.79052 157.214 2.77767 157.242 2.756 157.271L1.156 156.071C0.897794 156.415 0.799997 156.811 0.799997 157.191L2.8 157.191ZM2.756 157.271C2.79982 157.213 2.86448 157.145 2.95994 157.071L1.73206 155.492C1.51552 155.66 1.32017 155.852 1.156 156.071L2.756 157.271ZM2.89536 157.117L7.60136 154.023L6.50264 152.352L1.79664 155.446L2.89536 157.117ZM7.60776 152.356L2.90176 149.21L1.79024 150.873L6.49624 154.019L7.60776 152.356ZM2.87235 149.191C2.79773 149.145 2.78745 149.119 2.79399 149.13C2.79676 149.135 2.79927 149.141 2.80056 149.146C2.80172 149.15 2.8 149.146 2.8 149.131L0.799997 149.131C0.799997 149.907 1.20413 150.51 1.81964 150.891L2.87235 149.191ZM2.8 149.131L2.8 145.543L0.799996 145.543L0.799997 149.131L2.8 149.131ZM2.8 145.543C2.8 145.626 2.7806 145.714 2.73992 145.795C2.70102 145.873 2.65557 145.919 2.63279 145.938L1.33121 144.42C1.02579 144.682 0.799996 145.067 0.799996 145.543L2.8 145.543ZM2.74126 145.83C2.72172 145.853 2.67602 145.898 2.59821 145.937C2.51686 145.978 2.42834 145.997 2.346 145.997L2.346 143.997C1.86932 143.997 1.48452 144.223 1.22274 144.528L2.74126 145.83ZM2.346 145.997C2.31057 145.997 2.25901 145.992 2.19877 145.972C2.13744 145.951 2.08092 145.92 2.0333 145.882L3.28269 144.32C3.00186 144.096 2.67184 143.997 2.346 143.997L2.346 145.997ZM2.10893 145.937L10.1429 151.215L11.2411 149.543L3.20707 144.265L2.10893 145.937ZM11.2526 151.207L19.7026 145.487L18.5814 143.831L10.1314 149.551L11.2526 151.207ZM19.742 145.459C19.648 145.53 19.5621 145.559 19.5145 145.571C19.468 145.582 19.4439 145.581 19.454 145.581L19.454 143.581C19.2192 143.581 18.8607 143.62 18.542 143.859L19.742 145.459ZM19.454 145.581C19.3949 145.581 19.3361 145.569 19.2841 145.549C19.2341 145.529 19.2042 145.506 19.1932 145.496L20.4948 143.978C20.2215 143.744 19.8673 143.581 19.454 143.581L19.454 145.581ZM19.1369 145.444C19.0981 145.405 19.0593 145.351 19.0325 145.284C19.0062 145.218 19 145.162 19 145.127L21 145.127C21 144.724 20.8549 144.334 20.5511 144.03L19.1369 145.444ZM19 145.127L19 149.001L21 149.001L21 145.127L19 145.127ZM19 149.001C19 149.012 18.9988 149.015 18.9996 149.011C19.0005 149.008 19.0018 149.006 19.0018 149.006C19.0015 149.006 18.9971 149.014 18.9834 149.028C18.9693 149.043 18.9453 149.065 18.9065 149.092L20.0535 150.73C20.6175 150.336 21 149.748 21 149.001L19 149.001ZM18.9135 149.087L13.9215 152.519L15.0545 154.167L20.0465 150.735L18.9135 149.087ZM13.9244 154.169L18.9164 157.575L20.0436 155.923L15.0516 152.517L13.9244 154.169ZM18.9981 157.625C19.0202 157.638 19.0271 157.645 19.0252 157.643C19.0243 157.642 19.0218 157.639 19.0185 157.635C19.0151 157.631 19.0115 157.626 19.0081 157.62C19.0046 157.614 19.002 157.609 19.0001 157.604C18.9983 157.6 18.9975 157.597 18.9974 157.596C18.9971 157.595 19 157.606 19 157.633L21 157.633C21 157.286 20.9231 156.931 20.7319 156.606C20.5406 156.281 20.2677 156.041 19.9619 155.873L18.9981 157.625ZM19 157.633L19 161.377L21 161.377L21 157.633L19 157.633ZM19.818 137.004L20.4765 137.757L20.5267 137.713L20.5706 137.663L19.818 137.004ZM5.882 137.186L5.882 136.186L4.882 136.186L4.882 137.186L5.882 137.186ZM5.7 142.282L6.3585 143.035L6.40867 142.991L6.45258 142.941L5.7 142.282ZM1.982 142.282L1.22942 142.941L1.25135 142.966L1.27489 142.989L1.982 142.282ZM5.7 127.358L6.40711 126.651L6.4071 126.651L5.7 127.358ZM5.882 132.454L4.882 132.454L4.882 133.454L5.882 133.454L5.882 132.454ZM19.818 132.636L20.5251 131.929L20.5016 131.905L20.4765 131.883L19.818 132.636ZM19 136.536C19 136.503 19.0063 136.462 19.0225 136.421C19.0383 136.38 19.0572 136.355 19.0654 136.346L20.5706 137.663C20.8405 137.354 21 136.968 21 136.536L19 136.536ZM19.1595 136.251C19.1689 136.243 19.1938 136.224 19.2346 136.209C19.2762 136.192 19.3172 136.186 19.35 136.186L19.35 138.186C19.7816 138.186 20.168 138.027 20.4765 137.757L19.1595 136.251ZM19.35 136.186L5.882 136.186L5.882 138.186L19.35 138.186L19.35 136.186ZM4.882 137.186L4.882 141.814L6.882 141.814L6.882 137.186L4.882 137.186ZM4.882 141.814C4.882 141.781 4.88829 141.74 4.90449 141.699C4.92034 141.658 4.93922 141.633 4.94742 141.624L6.45258 142.941C6.72248 142.632 6.882 142.246 6.882 141.814L4.882 141.814ZM5.04149 141.529C5.05087 141.521 5.0758 141.502 5.11655 141.487C5.15821 141.47 5.19916 141.464 5.232 141.464L5.232 143.464C5.66365 143.464 6.05003 143.305 6.3585 143.035L5.04149 141.529ZM5.232 141.464L2.45 141.464L2.45 143.464L5.232 143.464L5.232 141.464ZM2.45 141.464C2.46156 141.464 2.49996 141.466 2.55244 141.487C2.60698 141.508 2.65425 141.54 2.68911 141.575L1.27489 142.989C1.60543 143.32 2.02641 143.464 2.45 143.464L2.45 141.464ZM2.73457 141.624C2.74277 141.633 2.76165 141.658 2.7775 141.699C2.7937 141.74 2.8 141.781 2.8 141.814L0.799996 141.814C0.799996 142.246 0.95951 142.632 1.22942 142.941L2.73457 141.624ZM2.8 141.814L2.8 127.826L0.799996 127.826L0.799996 141.814L2.8 141.814ZM2.8 127.826C2.8 127.838 2.79791 127.876 2.7775 127.928C2.75629 127.983 2.72396 128.03 2.6891 128.065L1.27489 126.651C0.944354 126.981 0.799996 127.402 0.799996 127.826L2.8 127.826ZM2.6891 128.065C2.65425 128.1 2.60697 128.132 2.55244 128.154C2.49996 128.174 2.46156 128.176 2.45 128.176L2.45 126.176C2.02641 126.176 1.60543 126.32 1.27489 126.651L2.6891 128.065ZM2.45 128.176L5.232 128.176L5.232 126.176L2.45 126.176L2.45 128.176ZM5.232 128.176C5.22043 128.176 5.18203 128.174 5.12955 128.154C5.07502 128.132 5.02775 128.1 4.99289 128.065L6.4071 126.651C6.07656 126.32 5.65558 126.176 5.232 126.176L5.232 128.176ZM4.99289 128.065C4.95803 128.03 4.9257 127.983 4.90449 127.928C4.88408 127.876 4.882 127.838 4.882 127.826L6.882 127.826C6.882 127.402 6.73764 126.981 6.40711 126.651L4.99289 128.065ZM4.882 127.826L4.882 132.454L6.882 132.454L6.882 127.826L4.882 127.826ZM5.882 133.454L19.35 133.454L19.35 131.454L5.882 131.454L5.882 133.454ZM19.35 133.454C19.3172 133.454 19.2762 133.448 19.2346 133.432C19.1938 133.416 19.1689 133.397 19.1595 133.389L20.4765 131.883C20.168 131.614 19.7816 131.454 19.35 131.454L19.35 133.454ZM19.1109 133.343C19.076 133.308 19.0437 133.261 19.0225 133.206C19.0021 133.154 19 133.116 19 133.104L21 133.104C21 132.68 20.8556 132.259 20.5251 131.929L19.1109 133.343ZM19 133.104L19 136.536L21 136.536L21 133.104L19 133.104ZM19.818 123.357L20.4765 124.11L20.5267 124.066L20.5706 124.016L19.818 123.357ZM1.982 123.357L1.22942 124.016L1.25135 124.041L1.27489 124.064L1.982 123.357ZM5.362 110.279L6.06911 109.572L6.04556 109.548L6.0205 109.526L5.362 110.279ZM5.544 119.041L4.544 119.041L4.544 120.041L5.544 120.041L5.544 119.041ZM9.054 119.041L9.054 120.041L10.054 120.041L10.054 119.041L9.054 119.041ZM9.262 110.851L9.9205 111.604L9.94556 111.582L9.9691 111.558L9.262 110.851ZM12.46 110.851L13.1671 110.144L13.1436 110.12L13.1185 110.098L12.46 110.851ZM12.642 119.041L11.642 119.041L11.642 120.041L12.642 120.041L12.642 119.041ZM16.256 119.041L16.256 120.041L17.256 120.041L17.256 119.041L16.256 119.041ZM16.438 110.071L17.1451 110.778L17.1451 110.778L16.438 110.071ZM19.818 110.071L20.5251 109.364L20.5016 109.34L20.4765 109.319L19.818 110.071ZM19 122.889C19 122.856 19.0063 122.815 19.0225 122.774C19.0383 122.733 19.0572 122.708 19.0654 122.699L20.5706 124.016C20.8405 123.707 21 123.321 21 122.889L19 122.889ZM19.1595 122.604C19.1689 122.596 19.1938 122.577 19.2346 122.562C19.2762 122.545 19.3172 122.539 19.35 122.539L19.35 124.539C19.7816 124.539 20.168 124.38 20.4765 124.11L19.1595 122.604ZM19.35 122.539L2.45 122.539L2.45 124.539L19.35 124.539L19.35 122.539ZM2.45 122.539C2.46156 122.539 2.49996 122.541 2.55244 122.562C2.60698 122.583 2.65425 122.615 2.6891 122.65L1.27489 124.064C1.60542 124.395 2.02641 124.539 2.45 124.539L2.45 122.539ZM2.73457 122.699C2.74277 122.708 2.76165 122.733 2.7775 122.774C2.7937 122.815 2.8 122.856 2.8 122.889L0.799995 122.889C0.799995 123.321 0.95951 123.707 1.22942 124.016L2.73457 122.699ZM2.8 122.889L2.79999 110.747L0.799995 110.747L0.799995 122.889L2.8 122.889ZM2.79999 110.747C2.79999 110.759 2.79791 110.797 2.7775 110.85C2.75629 110.904 2.72395 110.951 2.6891 110.986L1.27489 109.572C0.944353 109.903 0.799995 110.323 0.799995 110.747L2.79999 110.747ZM2.6891 110.986C2.65425 111.021 2.60697 111.053 2.55244 111.075C2.49996 111.095 2.46156 111.097 2.45 111.097L2.45 109.097C2.02641 109.097 1.60543 109.241 1.27489 109.572L2.6891 110.986ZM2.45 111.097L4.894 111.097L4.894 109.097L2.45 109.097L2.45 111.097ZM4.894 111.097C4.86116 111.097 4.82021 111.091 4.77855 111.075C4.7378 111.059 4.71287 111.04 4.70349 111.032L6.0205 109.526C5.71203 109.257 5.32565 109.097 4.894 109.097L4.894 111.097ZM4.65489 110.986C4.62003 110.951 4.5877 110.904 4.56649 110.85C4.54608 110.797 4.54399 110.759 4.54399 110.747L6.54399 110.747C6.54399 110.323 6.39964 109.903 6.06911 109.572L4.65489 110.986ZM4.54399 110.747L4.544 119.041L6.544 119.041L6.54399 110.747L4.54399 110.747ZM5.544 120.041L9.054 120.041L9.054 118.041L5.544 118.041L5.544 120.041ZM10.054 119.041L10.054 111.319L8.054 111.319L8.054 119.041L10.054 119.041ZM10.054 111.319C10.054 111.347 10.0483 111.401 10.0198 111.465C9.99095 111.53 9.9516 111.576 9.9205 111.604L8.60349 110.099C8.23933 110.417 8.054 110.852 8.054 111.319L10.054 111.319ZM9.9691 111.558C9.93425 111.593 9.88697 111.625 9.83244 111.647C9.77996 111.667 9.74156 111.669 9.73 111.669L9.73 109.669C9.30641 109.669 8.88543 109.813 8.55489 110.144L9.9691 111.558ZM9.73 111.669L11.992 111.669L11.992 109.669L9.73 109.669L9.73 111.669ZM11.992 111.669C11.9592 111.669 11.9182 111.663 11.8766 111.647C11.8358 111.631 11.8109 111.612 11.8015 111.604L13.1185 110.098C12.81 109.829 12.4236 109.669 11.992 109.669L11.992 111.669ZM11.7529 111.558C11.718 111.523 11.6857 111.476 11.6645 111.422C11.6441 111.369 11.642 111.331 11.642 111.319L13.642 111.319C13.642 110.895 13.4976 110.475 13.1671 110.144L11.7529 111.558ZM11.642 111.319L11.642 119.041L13.642 119.041L13.642 111.319L11.642 111.319ZM12.642 120.041L16.256 120.041L16.256 118.041L12.642 118.041L12.642 120.041ZM17.256 119.041L17.256 110.539L15.256 110.539L15.256 119.041L17.256 119.041ZM17.256 110.539C17.256 110.551 17.2539 110.589 17.2335 110.642C17.2123 110.696 17.18 110.743 17.1451 110.778L15.7309 109.364C15.4004 109.695 15.256 110.115 15.256 110.539L17.256 110.539ZM17.1451 110.778C17.1103 110.813 17.063 110.845 17.0084 110.867C16.956 110.887 16.9176 110.889 16.906 110.889L16.906 108.889C16.4824 108.889 16.0614 109.033 15.7309 109.364L17.1451 110.778ZM16.906 110.889L19.35 110.889L19.35 108.889L16.906 108.889L16.906 110.889ZM19.35 110.889C19.3172 110.889 19.2762 110.883 19.2345 110.867C19.1938 110.851 19.1689 110.832 19.1595 110.824L20.4765 109.319C20.168 109.049 19.7816 108.889 19.35 108.889L19.35 110.889ZM19.1109 110.778C19.076 110.743 19.0437 110.696 19.0225 110.642C19.0021 110.589 19 110.551 19 110.539L21 110.539C21 110.115 20.8556 109.695 20.5251 109.364L19.1109 110.778ZM19 110.539L19 122.889L21 122.889L21 110.539L19 110.539ZM19.818 105.478L20.4765 106.23L20.5267 106.186L20.5706 106.136L19.818 105.478ZM1.982 105.478L1.22942 106.136L1.25134 106.161L1.27489 106.185L1.982 105.478ZM3.35999 92.6336L4.13254 93.2686L4.13726 93.2628L4.14189 93.257L3.35999 92.6336ZM12.772 93.9336L11.8595 94.3427L12.3056 95.3379L13.2585 94.8073L12.772 93.9336ZM19.168 90.3716L18.7208 89.4772L18.7009 89.4871L18.6814 89.498L19.168 90.3716ZM19.844 90.4756L20.5511 89.7685L20.5511 89.7685L19.844 90.4756ZM19.298 95.3636L18.8919 94.4498L18.8645 94.462L18.8379 94.4757L19.298 95.3636ZM13.578 98.3276L13.1179 97.4397L12.578 97.7195L12.578 98.3276L13.578 98.3276ZM13.578 100.98L12.578 100.98L12.578 101.98L13.578 101.98L13.578 100.98ZM19.818 101.188L19.0654 101.846L19.0873 101.871L19.1109 101.895L19.818 101.188ZM9.314 96.1696L10.0511 95.4939L10.0437 95.4857L10.036 95.4777L9.314 96.1696ZM6.038 96.1696L6.7299 96.8916L6.74526 96.8769L6.75998 96.8615L6.038 96.1696ZM5.41399 100.98L4.41399 100.98L4.41399 101.98L5.41399 101.98L5.41399 100.98ZM9.88599 100.98L9.88599 101.98L10.886 101.98L10.886 100.98L9.88599 100.98ZM19 105.01C19 104.977 19.0063 104.936 19.0225 104.894C19.0383 104.853 19.0572 104.828 19.0654 104.819L20.5706 106.136C20.8405 105.828 21 105.441 21 105.01L19 105.01ZM19.1595 104.725C19.1689 104.717 19.1938 104.698 19.2345 104.682C19.2762 104.666 19.3172 104.66 19.35 104.66L19.35 106.66C19.7816 106.66 20.168 106.5 20.4765 106.23L19.1595 104.725ZM19.35 104.66L2.45 104.66L2.45 106.66L19.35 106.66L19.35 104.66ZM2.45 104.66C2.46156 104.66 2.49996 104.662 2.55244 104.682C2.60697 104.703 2.65425 104.736 2.6891 104.771L1.27489 106.185C1.60542 106.515 2.02641 106.66 2.45 106.66L2.45 104.66ZM2.73457 104.819C2.74277 104.828 2.76165 104.853 2.7775 104.894C2.7937 104.936 2.79999 104.977 2.79999 105.01L0.799995 105.01C0.799995 105.441 0.959509 105.828 1.22942 106.136L2.73457 104.819ZM2.79999 105.01L2.79999 97.9376L0.799994 97.9376L0.799995 105.01L2.79999 105.01ZM2.79999 97.9376C2.79999 95.8099 3.28746 94.2968 4.13254 93.2686L2.58745 91.9986C1.35253 93.5011 0.799994 95.524 0.799994 97.9376L2.79999 97.9376ZM4.14189 93.257C4.94461 92.2502 6.09102 91.7096 7.72799 91.7096L7.72799 89.7096C5.5863 89.7096 3.82071 90.4517 2.5781 92.0102L4.14189 93.257ZM7.72799 91.7096C8.77984 91.7096 9.60775 91.9555 10.2634 92.397L11.3806 90.7382C10.3376 90.0357 9.10282 89.7096 7.72799 89.7096L7.72799 91.7096ZM10.2634 92.397C10.946 92.8568 11.4792 93.4943 11.8595 94.3427L13.6845 93.5245C13.1635 92.3623 12.3966 91.4224 11.3806 90.7382L10.2634 92.397ZM13.2585 94.8073L19.6545 91.2453L18.6814 89.498L12.2854 93.06L13.2585 94.8073ZM19.6152 91.266C19.6256 91.2608 19.5663 91.2936 19.454 91.2936L19.454 89.2936C19.1684 89.2936 18.9184 89.3784 18.7208 89.4772L19.6152 91.266ZM19.454 91.2936C19.3721 91.2936 19.2953 91.2746 19.2326 91.2453C19.1736 91.2177 19.1429 91.1887 19.1369 91.1827L20.5511 89.7685C20.2894 89.5068 19.9179 89.2936 19.454 89.2936L19.454 91.2936ZM19.1369 91.1827C19.1092 91.155 19.0714 91.1074 19.0419 91.0385C19.0118 90.9685 19 90.8987 19 90.8396L21 90.8396C21 90.4184 20.83 90.0474 20.5511 89.7685L19.1369 91.1827ZM19 90.8396L19 94.2976L21 94.2976L21 90.8396L19 90.8396ZM19 94.2976C19 94.3458 18.9944 94.3727 18.9914 94.3839C18.9886 94.3939 18.9872 94.3944 18.9893 94.3911C18.9973 94.379 18.987 94.4075 18.8919 94.4498L19.7041 96.2774C20.077 96.1117 20.4177 95.8586 20.6597 95.4911C20.9025 95.1224 21 94.7083 21 94.2976L19 94.2976ZM18.8379 94.4757L13.1179 97.4397L14.0381 99.2155L19.7581 96.2515L18.8379 94.4757ZM12.578 98.3276L12.578 100.98L14.578 100.98L14.578 98.3276L12.578 98.3276ZM13.578 101.98L19.35 101.98L19.35 99.9796L13.578 99.9796L13.578 101.98ZM19.35 101.98C19.3218 101.98 19.2679 101.974 19.2039 101.945C19.1389 101.917 19.0926 101.877 19.0654 101.846L20.5706 100.529C20.2519 100.165 19.8176 99.9796 19.35 99.9796L19.35 101.98ZM19.1109 101.895C19.076 101.86 19.0437 101.813 19.0225 101.758C19.0021 101.706 19 101.667 19 101.656L21 101.656C21 101.232 20.8556 100.811 20.5251 100.48L19.1109 101.895ZM19 101.656L19 105.01L21 105.01L21 101.656L19 101.656ZM10.886 97.9896C10.886 97.0452 10.6603 96.1584 10.0511 95.4939L8.57684 96.8453C8.7304 97.0128 8.88599 97.3393 8.88599 97.9896L10.886 97.9896ZM10.036 95.4777C9.41106 94.8256 8.58225 94.5456 7.67599 94.5456L7.67599 96.5456C8.1564 96.5456 8.4196 96.6816 8.59201 96.8615L10.036 95.4777ZM7.67599 94.5456C6.76974 94.5456 5.94093 94.8256 5.31601 95.4777L6.75998 96.8615C6.93239 96.6816 7.19559 96.5456 7.67599 96.5456L7.67599 94.5456ZM5.34609 95.4476C4.66344 96.1018 4.41399 97.0172 4.41399 97.9896L6.41399 97.9896C6.41399 97.3327 6.58055 97.0347 6.7299 96.8916L5.34609 95.4476ZM4.41399 97.9896L4.41399 100.98L6.41399 100.98L6.41399 97.9896L4.41399 97.9896ZM5.41399 101.98L9.88599 101.98L9.88599 99.9796L5.41399 99.9796L5.41399 101.98ZM10.886 100.98L10.886 97.9896L8.88599 97.9896L8.88599 100.98L10.886 100.98ZM7.93599 87.033L8.57618 87.8013L8.61103 87.7722L8.6431 87.7402L7.93599 87.033ZM7.49399 87.137L7.34194 88.1254L7.37258 88.1301L7.40346 88.1329L7.49399 87.137ZM2.42399 86.357L2.57606 85.3686L2.56541 85.3671L2.42399 86.357ZM1.69599 82.041L2.33618 82.8093L2.37102 82.7802L2.4031 82.7482L1.69599 82.041ZM2.34599 81.937L1.97458 82.8656L1.98378 82.8691L2.34599 81.937ZM7.36399 83.887L7.78305 82.9791L7.755 82.9661L7.72621 82.955L7.36399 83.887ZM7.90999 84.251L8.66257 83.5925L8.64065 83.5675L8.6171 83.5439L7.90999 84.251ZM7.09199 86.643C7.09199 86.6083 7.09817 86.552 7.12452 86.4862C7.15133 86.4191 7.19005 86.3648 7.22889 86.3259L8.6431 87.7402C8.9469 87.4364 9.09199 87.0464 9.09199 86.643L7.09199 86.643ZM7.29581 86.2648C7.46742 86.1218 7.62168 86.1445 7.58453 86.1412L7.40346 88.1329C7.74764 88.1642 8.19657 88.1176 8.57618 87.8013L7.29581 86.2648ZM7.64605 86.1487L2.57605 85.3687L2.27194 87.3454L7.34194 88.1254L7.64605 86.1487ZM2.56541 85.3671C2.50856 85.359 2.48704 85.344 2.46896 85.3278L1.13103 86.8143C1.45961 87.1101 1.85409 87.2858 2.28257 87.347L2.56541 85.3671ZM2.46896 85.3278C2.48088 85.3385 2.49404 85.3528 2.50637 85.3705C2.5187 85.3882 2.52757 85.4054 2.53347 85.4202C2.54539 85.4499 2.53999 85.456 2.53999 85.421L0.539994 85.421C0.539994 85.9233 0.707044 86.4328 1.13103 86.8143L2.46896 85.3278ZM2.53999 85.421L2.53999 82.379L0.539994 82.379L0.539994 85.421L2.53999 85.421ZM2.53999 82.379C2.53999 82.4373 2.52837 82.5199 2.48695 82.6096C2.44523 82.7 2.38773 82.7663 2.33618 82.8093L1.05581 81.2728C0.717496 81.5548 0.539994 81.9519 0.539994 82.379L2.53999 82.379ZM2.4031 82.7482C2.3754 82.7759 2.32781 82.8137 2.25891 82.8432C2.18886 82.8732 2.11913 82.885 2.05999 82.885L2.05999 80.885C1.63877 80.885 1.2678 81.055 0.988888 81.3339L2.4031 82.7482ZM2.05999 82.885C2.05128 82.885 2.01881 82.8832 1.9746 82.8655L2.71739 81.0086C2.49984 80.9216 2.27671 80.885 2.05999 80.885L2.05999 82.885ZM1.98378 82.8691L7.00178 84.8191L7.72621 82.955L2.70821 81.005L1.98378 82.8691ZM6.94494 84.795C7.09036 84.8621 7.16648 84.9217 7.20289 84.9582L8.6171 83.5439C8.37618 83.303 8.08829 83.12 7.78305 82.9791L6.94494 84.795ZM7.15742 84.9096C7.11332 84.8592 7.09533 84.8138 7.08982 84.7957C7.08534 84.781 7.09199 84.7944 7.09199 84.849L9.09199 84.849C9.09199 84.4456 8.99827 83.9762 8.66257 83.5925L7.15742 84.9096ZM7.09199 84.849L7.09199 86.643L9.09199 86.643L9.09199 84.849L7.09199 84.849ZM19.532 75.9601L18.6073 75.5793L18.6073 75.5793L19.532 75.9601ZM17.634 78.6381L18.2284 79.4423L18.2383 79.435L18.2479 79.4274L17.634 78.6381ZM15.034 79.5741L15.034 80.5741L15.0525 80.5741L15.071 80.5734L15.034 79.5741ZM14.67 79.4181L13.9629 80.1252L13.9629 80.1252L14.67 79.4181ZM14.618 75.2321L15.4317 75.8133L15.4773 75.7495L15.5124 75.6793L14.618 75.2321ZM14.956 74.8161L14.5088 73.9217L14.3905 73.9808L14.2916 74.0687L14.956 74.8161ZM16.074 73.7241L16.9367 74.2298L16.9367 74.2298L16.074 73.7241ZM16.048 69.4601L15.1905 69.9746L15.1905 69.9746L16.048 69.4601ZM13.838 69.0961L14.569 69.7784L14.58 69.7667L14.5906 69.7546L13.838 69.0961ZM13.188 70.3441L12.2393 70.0279L12.2393 70.0279L13.188 70.3441ZM12.538 72.8921L11.5604 72.6815L11.559 72.6881L12.538 72.8921ZM10.64 77.5721L11.4093 78.211L11.4151 78.2039L11.4209 78.1968L10.64 77.5721ZM4.19199 78.2221L3.61398 79.0381L3.61398 79.0381L4.19199 78.2221ZM2.24199 75.7001L1.32285 76.094L1.32285 76.094L2.24199 75.7001ZM2.31999 67.9521L3.22545 68.3765L3.22545 68.3765L2.31999 67.9521ZM4.29599 65.4301L4.8789 66.2426L4.88895 66.2354L4.89883 66.228L4.29599 65.4301ZM6.60999 64.4941L6.60999 63.4941L6.58728 63.4941L6.56459 63.4951L6.60999 64.4941ZM6.99999 64.6501L7.7071 63.943L7.7071 63.943L6.99999 64.6501ZM7.05199 68.9921L7.92024 69.4882L7.93401 69.4641L7.94642 69.4393L7.05199 68.9921ZM6.71399 69.3301L6.96641 70.2977L7.12894 70.2553L7.26869 70.1621L6.71399 69.3301ZM5.69999 70.1881L6.55165 70.7122L6.55603 70.7051L6.56029 70.6979L5.69999 70.1881ZM5.69999 73.6721L6.53204 73.1174L6.53204 73.1174L5.69999 73.6721ZM7.83199 73.9581L8.51244 74.6909L8.52601 74.6783L8.5391 74.6652L7.83199 73.9581ZM8.50799 72.8141L9.43647 73.1855L9.44381 73.1671L9.45042 73.1485L8.50799 72.8141ZM9.10599 70.5261L10.0845 70.7321L10.0873 70.719L10.0897 70.7059L9.10599 70.5261ZM10.224 66.6781L11.1281 67.1055L11.1327 67.0957L11.1371 67.0857L10.224 66.6781ZM11.94 64.5461L12.4756 65.3907L12.485 65.3845L11.94 64.5461ZM17.608 64.8841L16.993 65.6726L16.9952 65.6743L17.608 64.8841ZM19.584 67.6661L20.5181 67.3089L20.5152 67.3017L19.584 67.6661ZM19.26 71.7221C19.26 73.2745 19.0307 74.5511 18.6073 75.5793L20.4567 76.3408C21.0039 75.0118 21.26 73.463 21.26 71.7221L19.26 71.7221ZM18.6073 75.5793C18.1695 76.6427 17.6284 77.3756 17.0201 77.8487L18.2479 79.4274C19.1996 78.6873 19.9238 77.6348 20.4567 76.3408L18.6073 75.5793ZM17.0396 77.8339C16.3942 78.311 15.7197 78.548 14.997 78.5748L15.071 80.5734C16.2203 80.5308 17.2791 80.1439 18.2284 79.4423L17.0396 77.8339ZM15.034 78.5741C15.0931 78.5741 15.1629 78.5859 15.2329 78.6159C15.3018 78.6455 15.3494 78.6833 15.3771 78.711L13.9629 80.1252C14.2418 80.4041 14.6128 80.5741 15.034 80.5741L15.034 78.5741ZM15.3771 78.711C15.3929 78.7268 15.4238 78.7631 15.4497 78.8223C15.4763 78.8832 15.488 78.9465 15.488 79.0021L13.488 79.0021C13.488 79.4511 13.6746 79.8369 13.9629 80.1252L15.3771 78.711ZM15.488 79.0021L15.488 75.7261L13.488 75.7261L13.488 79.0021L15.488 79.0021ZM15.488 75.7261C15.488 75.6898 15.492 75.6844 15.4876 75.7011C15.4827 75.7196 15.4682 75.7623 15.4317 75.8133L13.8043 74.6509C13.557 74.997 13.488 75.3897 13.488 75.7261L15.488 75.7261ZM15.5124 75.6793C15.5089 75.6864 15.5285 75.6452 15.6204 75.5635L14.2916 74.0687C14.0715 74.2643 13.8658 74.5005 13.7236 74.7849L15.5124 75.6793ZM15.4032 75.7105C16.0529 75.3857 16.5598 74.8728 16.9367 74.2298L15.2113 73.2184C14.9989 73.5807 14.7604 73.7958 14.5088 73.9217L15.4032 75.7105ZM16.9367 74.2298C17.3517 73.5218 17.516 72.66 17.516 71.7221L15.516 71.7221C15.516 72.4482 15.3856 72.921 15.2113 73.2184L16.9367 74.2298ZM17.516 71.7221C17.516 70.6553 17.3522 69.6901 16.9055 68.9456L15.1905 69.9746C15.3678 70.2701 15.516 70.8129 15.516 71.7221L17.516 71.7221ZM16.9055 68.9456C16.4405 68.1707 15.7134 67.6801 14.774 67.6801L14.774 69.6801C14.9093 69.6801 15.0315 69.7095 15.1905 69.9746L16.9055 68.9456ZM14.774 67.6801C14.1158 67.6801 13.5254 67.9348 13.0854 68.4376L14.5906 69.7546C14.6359 69.7028 14.6696 69.6801 14.774 69.6801L14.774 67.6801ZM13.1069 68.4138C12.7208 68.8275 12.448 69.4017 12.2393 70.0279L14.1367 70.6603C14.3093 70.1425 14.4699 69.8846 14.569 69.7784L13.1069 68.4138ZM12.2393 70.0279C12.031 70.6529 11.8052 71.5451 11.5604 72.6815L13.5156 73.1026C13.7561 71.9858 13.9637 71.1793 14.1367 70.6603L12.2393 70.0279ZM11.559 72.6881C11.1407 74.6962 10.5514 76.082 9.85913 76.9474L11.4209 78.1968C12.3926 76.9822 13.0686 75.248 13.517 73.096L11.559 72.6881ZM9.87071 76.9332C9.24519 77.6864 8.34598 78.1061 7.02599 78.1061L7.02599 80.1061C8.82601 80.1061 10.3361 79.5032 11.4093 78.211L9.87071 76.9332ZM7.02599 78.1061C6.16757 78.1061 5.42649 77.8711 4.77001 77.4061L3.61398 79.0381C4.6215 79.7518 5.76976 80.1061 7.02599 80.1061L7.02599 78.1061ZM4.77001 77.4061C4.11185 76.9399 3.5687 76.2572 3.16114 75.3062L1.32285 76.094C1.85129 77.327 2.60814 78.3257 3.61398 79.0381L4.77001 77.4061ZM3.16114 75.3062C2.75707 74.3634 2.53999 73.2284 2.53999 71.8781L0.539993 71.8781C0.539993 73.4398 0.790916 74.8528 1.32285 76.094L3.16114 75.3062ZM2.53999 71.8781C2.53999 70.4837 2.78039 69.326 3.22545 68.3765L1.41454 67.5277C0.819601 68.7969 0.539993 70.2565 0.539993 71.8781L2.53999 71.8781ZM3.22545 68.3765C3.69066 67.3841 4.25097 66.6931 4.8789 66.2426L3.71309 64.6176C2.74635 65.3111 1.98932 66.3014 1.41453 67.5277L3.22545 68.3765ZM4.89883 66.228C5.56269 65.7264 6.1445 65.5163 6.6554 65.4931L6.56459 63.4951C5.55015 63.5412 4.5893 63.9551 3.69316 64.6322L4.89883 66.228ZM6.60999 65.4941C6.57528 65.4941 6.51898 65.4879 6.4531 65.4616C6.38606 65.4348 6.33173 65.396 6.29289 65.3572L7.7071 63.943C7.4033 63.6392 7.01335 63.4941 6.60999 63.4941L6.60999 65.4941ZM6.29288 65.3572C6.25404 65.3184 6.21533 65.264 6.18852 65.197C6.16217 65.1311 6.15599 65.0748 6.15599 65.0401L8.15599 65.0401C8.15599 64.6367 8.0109 64.2468 7.7071 63.943L6.29288 65.3572ZM6.15599 65.0401L6.15599 68.4721L8.15599 68.4721L8.15599 65.0401L6.15599 65.0401ZM6.15599 68.4721C6.15599 68.5214 6.15181 68.55 6.14941 68.562C6.14712 68.5734 6.14738 68.5653 6.15757 68.5449L7.94642 69.4393C8.10473 69.1227 8.15599 68.7847 8.15599 68.4721L6.15599 68.4721ZM6.18375 68.496C6.19884 68.4695 6.21049 68.4584 6.20839 68.4605C6.20592 68.4629 6.19182 68.4764 6.15929 68.498L7.26869 70.1621C7.51177 70.0001 7.75219 69.7823 7.92024 69.4882L6.18375 68.496ZM6.46157 68.3625C5.7342 68.5522 5.20684 69.0587 4.8397 69.6783L6.56029 70.6979C6.74781 70.3814 6.89645 70.316 6.96641 70.2977L6.46157 68.3625ZM4.84834 69.664C4.45051 70.3105 4.28399 71.0677 4.28399 71.8781L6.28399 71.8781C6.28399 71.3365 6.39481 70.9671 6.55165 70.7122L4.84834 69.664ZM4.28399 71.8781C4.28399 72.7534 4.4356 73.5783 4.86794 74.2268L6.53204 73.1174C6.40972 72.9339 6.28399 72.5628 6.28399 71.8781L4.28399 71.8781ZM4.86794 74.2268C5.34662 74.9448 6.07998 75.2961 6.92199 75.2961L6.92199 73.2961C6.68934 73.2961 6.60804 73.2314 6.53204 73.1174L4.86794 74.2268ZM6.92199 75.2961C7.5112 75.2961 8.0658 75.1056 8.51244 74.6909L7.15154 73.2253C7.11286 73.2612 7.06079 73.2961 6.92199 73.2961L6.92199 75.2961ZM8.5391 74.6652C8.91922 74.2851 9.20604 73.7616 9.43647 73.1855L7.57952 72.4427C7.39394 72.9066 7.2301 73.1458 7.12489 73.251L8.5391 74.6652ZM9.45042 73.1485C9.66313 72.5491 9.8732 71.736 10.0845 70.7321L8.12744 70.3201C7.92278 71.2922 7.7342 72.0045 7.56557 72.4797L9.45042 73.1485ZM10.0897 70.7059C10.3763 69.1378 10.7292 67.9493 11.1281 67.1055L9.31992 66.2507C8.81748 67.3136 8.42499 68.6903 8.12229 70.3463L10.0897 70.7059ZM11.1371 67.0857C11.5113 66.2475 11.9698 65.7113 12.4755 65.3906L11.4045 63.7016C10.4889 64.2822 9.80331 65.1674 9.31086 66.2704L11.1371 67.0857ZM12.485 65.3845C12.9764 65.0651 13.6487 64.8701 14.566 64.8701L14.566 62.8701C13.3687 62.8701 12.2902 63.1258 11.395 63.7076L12.485 65.3845ZM14.566 64.8701C15.518 64.8701 16.3124 65.1417 16.993 65.6726L18.223 64.0956C17.1703 63.2744 15.9367 62.8701 14.566 62.8701L14.566 64.8701ZM16.9952 65.6743C17.6763 66.2025 18.2376 66.9696 18.6528 68.0305L20.5152 67.3017C19.9944 65.9706 19.2383 64.883 18.2208 64.0939L16.9952 65.6743ZM18.6499 68.0232C19.049 69.0668 19.26 70.2941 19.26 71.7221L21.26 71.7221C21.26 70.0995 21.0204 68.6227 20.518 67.309L18.6499 68.0232ZM19.818 53.0027L20.4765 53.7553L20.5267 53.7114L20.5706 53.6612L19.818 53.0027ZM1.98199 53.0027L1.22942 53.6612L1.25134 53.6863L1.27488 53.7098L1.98199 53.0027ZM1.98199 48.6347L2.6891 49.3418L2.6891 49.3418L1.98199 48.6347ZM16.074 48.4527L16.074 49.4527L17.074 49.4527L17.074 48.4527L16.074 48.4527ZM16.282 40.1067L16.9405 40.8593L16.9656 40.8373L16.9891 40.8138L16.282 40.1067ZM19.818 40.1067L20.5251 39.3996L20.5016 39.376L20.4765 39.3541L19.818 40.1067ZM19 52.5347C19 52.5019 19.0063 52.4609 19.0225 52.4193C19.0383 52.3785 19.0572 52.3536 19.0654 52.3442L20.5706 53.6612C20.8405 53.3527 21 52.9664 21 52.5347L19 52.5347ZM19.1595 52.2501C19.1689 52.2419 19.1938 52.223 19.2345 52.2072C19.2762 52.191 19.3172 52.1847 19.35 52.1847L19.35 54.1847C19.7816 54.1847 20.168 54.0252 20.4765 53.7553L19.1595 52.2501ZM19.35 52.1847L2.44999 52.1847L2.44999 54.1847L19.35 54.1847L19.35 52.1847ZM2.44999 52.1847C2.46156 52.1847 2.49996 52.1868 2.55244 52.2072C2.60697 52.2284 2.65425 52.2607 2.6891 52.2956L1.27488 53.7098C1.60542 54.0403 2.02641 54.1847 2.44999 54.1847L2.44999 52.1847ZM2.73457 52.3442C2.74277 52.3536 2.76165 52.3785 2.7775 52.4193C2.7937 52.4609 2.79999 52.5019 2.79999 52.5347L0.799992 52.5347C0.799992 52.9664 0.959507 53.3527 1.22942 53.6612L2.73457 52.3442ZM2.79999 52.5347L2.79999 49.1027L0.799992 49.1027L0.799992 52.5347L2.79999 52.5347ZM2.79999 49.1027C2.79999 49.1143 2.79791 49.1527 2.7775 49.2051C2.75629 49.2597 2.72395 49.307 2.6891 49.3418L1.27489 47.9276C0.94435 48.2581 0.799992 48.6791 0.799992 49.1027L2.79999 49.1027ZM2.6891 49.3418C2.65425 49.3767 2.60697 49.409 2.55244 49.4302C2.49996 49.4506 2.46156 49.4527 2.44999 49.4527L2.44999 47.4527C2.02641 47.4527 1.60542 47.5971 1.27488 47.9276L2.6891 49.3418ZM2.44999 49.4527L16.074 49.4527L16.074 47.4527L2.44999 47.4527L2.44999 49.4527ZM17.074 48.4527L17.074 40.5747L15.074 40.5747L15.074 48.4527L17.074 48.4527ZM17.074 40.5747C17.074 40.6029 17.0683 40.6568 17.0398 40.7208C17.0109 40.7858 16.9716 40.8321 16.9405 40.8593L15.6235 39.3541C15.2593 39.6728 15.074 40.1071 15.074 40.5747L17.074 40.5747ZM16.9891 40.8138C16.9542 40.8487 16.907 40.881 16.8524 40.9022C16.8 40.9226 16.7616 40.9247 16.75 40.9247L16.75 38.9247C16.3264 38.9247 15.9054 39.0691 15.5749 39.3996L16.9891 40.8138ZM16.75 40.9247L19.35 40.9247L19.35 38.9247L16.75 38.9247L16.75 40.9247ZM19.35 40.9247C19.3172 40.9247 19.2762 40.9184 19.2345 40.9022C19.1938 40.8864 19.1689 40.8675 19.1595 40.8593L20.4765 39.3541C20.168 39.0842 19.7816 38.9247 19.35 38.9247L19.35 40.9247ZM19.1109 40.8138C19.076 40.779 19.0437 40.7317 19.0225 40.6771C19.0021 40.6247 19 40.5863 19 40.5747L21 40.5747C21 40.1511 20.8556 39.7301 20.5251 39.3996L19.1109 40.8138ZM19 40.5747L19 52.5347L21 52.5347L21 40.5747L19 40.5747ZM19.844 37.827L20.4948 38.5863L20.5532 38.5362L20.6032 38.4778L19.844 37.827ZM19.22 37.957L18.8763 38.8961L18.8899 38.9011L18.9038 38.9057L19.22 37.957ZM2.52799 31.847L2.87173 30.908L2.82195 30.8897L2.77053 30.8769L2.52799 31.847ZM2.00799 31.509L2.78886 30.8843L2.78886 30.8843L2.00799 31.509ZM2.00799 26.309L1.22712 25.6843L1.22712 25.6843L2.00799 26.309ZM2.52799 25.971L2.77053 26.9412L2.82128 26.9285L2.87044 26.9106L2.52799 25.971ZM19.22 19.887L19.0031 18.9108L18.9391 18.925L18.8775 18.9475L19.22 19.887ZM19.454 19.835L19.454 18.835L19.3442 18.835L19.2371 18.8588L19.454 19.835ZM19.844 20.017L20.5511 19.3099L20.5511 19.3099L19.844 20.017ZM19.454 24.437L19.098 23.5025L19.0969 23.503L19.454 24.437ZM16.802 25.451L16.4449 24.517L15.802 24.7628L15.802 25.451L16.802 25.451ZM16.802 32.393L15.802 32.393L15.802 33.0876L16.4529 33.3301L16.802 32.393ZM19.454 33.381L19.81 32.4465L19.8031 32.4439L19.454 33.381ZM13.058 26.491L14.058 26.491L14.058 25.0785L12.7257 25.5478L13.058 26.491ZM6.19399 28.909L5.86173 27.9658L3.1843 28.909L5.86173 29.8522L6.19399 28.909ZM13.058 31.327L12.7257 32.2702L14.058 32.7395L14.058 31.327L13.058 31.327ZM19 37.437C19 37.3779 19.0117 37.3191 19.0325 37.2671C19.0525 37.2171 19.0753 37.1872 19.0847 37.1762L20.6032 38.4778C20.8375 38.2045 21 37.8503 21 37.437L19 37.437ZM19.1932 37.0678C19.2042 37.0584 19.2341 37.0356 19.2841 37.0155C19.336 36.9948 19.3948 36.983 19.454 36.983L19.454 38.983C19.8673 38.983 20.2215 38.8205 20.4948 38.5863L19.1932 37.0678ZM19.454 36.983C19.4278 36.983 19.4207 36.9818 19.4279 36.9826C19.4321 36.9831 19.4433 36.9845 19.46 36.9878C19.4763 36.9911 19.5028 36.9972 19.5362 37.0083L18.9038 38.9057C19.1121 38.9752 19.3208 38.983 19.454 38.983L19.454 36.983ZM19.5637 37.018L2.87173 30.908L2.18425 32.7861L18.8763 38.8961L19.5637 37.018ZM2.77053 30.8769C2.76946 30.8766 2.77121 30.877 2.77493 30.8786C2.77869 30.8802 2.78291 30.8824 2.78698 30.8851C2.79103 30.8877 2.79347 30.8898 2.79422 30.8905C2.7949 30.8911 2.79298 30.8895 2.78886 30.8843L1.22712 32.1337C1.49738 32.4715 1.8571 32.7101 2.28545 32.8172L2.77053 30.8769ZM2.78886 30.8843C2.79511 30.8921 2.80005 30.8999 2.80358 30.9067C2.80705 30.9134 2.80808 30.9169 2.80777 30.9159C2.80705 30.9136 2.79999 30.8891 2.79999 30.833L0.799991 30.833C0.799991 31.2795 0.914204 31.7426 1.22712 32.1337L2.78886 30.8843ZM2.79999 30.833L2.79999 26.985L0.799991 26.985L0.799991 30.833L2.79999 30.833ZM2.79999 26.985C2.79999 26.929 2.80705 26.9044 2.80777 26.9021C2.80808 26.9011 2.80705 26.9047 2.80358 26.9113C2.80005 26.9181 2.79511 26.9259 2.78886 26.9337L1.22712 25.6843C0.914204 26.0755 0.799991 26.5386 0.799991 26.985L2.79999 26.985ZM2.78886 26.9337C2.79298 26.9286 2.7949 26.9269 2.79422 26.9276C2.79347 26.9282 2.79103 26.9303 2.78698 26.933C2.78291 26.9356 2.77869 26.9378 2.77493 26.9395C2.77121 26.9411 2.76946 26.9414 2.77053 26.9412L2.28546 25.0009C1.8571 25.108 1.49738 25.3465 1.22712 25.6843L2.78886 26.9337ZM2.87044 26.9106L19.5624 20.8266L18.8775 18.9475L2.18554 25.0315L2.87044 26.9106ZM19.4369 20.8632L19.6709 20.8112L19.2371 18.8588L19.0031 18.9108L19.4369 20.8632ZM19.454 20.835C19.3721 20.835 19.2953 20.816 19.2326 20.7867C19.1736 20.7591 19.1429 20.7301 19.1369 20.7241L20.5511 19.3099C20.2894 19.0482 19.9179 18.835 19.454 18.835L19.454 20.835ZM19.1369 20.7241C19.098 20.6853 19.0593 20.631 19.0325 20.5639C19.0062 20.498 19 20.4417 19 20.407L21 20.407C21 20.0037 20.8549 19.6137 20.5511 19.3099L19.1369 20.7241ZM19 20.407L19 23.605L21 23.605L21 20.407L19 20.407ZM19 23.605C19 23.6676 18.9872 23.6377 19.0274 23.5764C19.0462 23.5477 19.0681 23.5258 19.0868 23.5116C19.1043 23.4983 19.1113 23.4975 19.098 23.5025L19.81 25.3715C20.1533 25.2407 20.474 25.0174 20.6995 24.6737C20.9218 24.3351 21 23.9585 21 23.605L19 23.605ZM19.0969 23.503L16.4449 24.517L17.1591 26.3851L19.8111 25.3711L19.0969 23.503ZM15.802 25.451L15.802 32.393L17.802 32.393L17.802 25.451L15.802 25.451ZM16.4529 33.3301L19.1049 34.3181L19.8031 32.4439L17.1511 31.4559L16.4529 33.3301ZM19.098 34.3155C19.1078 34.3193 19.0982 34.317 19.0789 34.302C19.0586 34.2862 19.0371 34.2636 19.0198 34.2364C18.9838 34.1798 19 34.1602 19 34.239L21 34.239C21 33.8846 20.9251 33.5052 20.7072 33.1626C20.4839 32.8118 20.1619 32.5806 19.81 32.4465L19.098 34.3155ZM19 34.239L19 37.437L21 37.437L21 34.239L19 34.239ZM12.7257 25.5478L5.86173 27.9658L6.52625 29.8522L13.3903 27.4342L12.7257 25.5478ZM5.86173 29.8522L12.7257 32.2702L13.3903 30.3838L6.52625 27.9658L5.86173 29.8522ZM14.058 31.327L14.058 26.491L12.058 26.491L12.058 31.327L14.058 31.327ZM19.818 16.3297L20.4765 17.0823L20.5267 17.0384L20.5706 16.9882L19.818 16.3297ZM1.98199 16.3297L1.22942 16.9882L1.25134 17.0133L1.27488 17.0368L1.98199 16.3297ZM3.15199 3.06969L3.91301 3.71843L3.9187 3.71175L3.92428 3.70497L3.15199 3.06969ZM9.15799 2.13369L8.56166 2.93645L8.5656 2.93935L9.15799 2.13369ZM10.458 3.61569L9.56356 4.06291L10.4922 5.9202L11.3653 4.03615L10.458 3.61569ZM12.044 1.82169L11.4893 0.989643L11.4893 0.989643L12.044 1.82169ZM18.544 2.80969L17.7815 3.45667L17.7815 3.45667L18.544 2.80969ZM8.50799 6.86569L9.23213 6.17604L9.22372 6.16721L9.2151 6.15859L8.50799 6.86569ZM5.69999 6.86569L6.42413 7.55535L6.42413 7.55535L5.69999 6.86569ZM5.17999 11.8317L4.17999 11.8317L4.17999 12.8317L5.17999 12.8317L5.17999 11.8317ZM9.02799 11.8317L9.02799 12.8317L10.028 12.8317L10.028 11.8317L9.02799 11.8317ZM15.996 6.55369L15.3041 7.27568L15.3041 7.27568L15.996 6.55369ZM12.954 6.55369L13.6459 7.27568L13.6536 7.26832L13.6611 7.2608L12.954 6.55369ZM12.33 11.8317L11.33 11.8317L11.33 12.8317L12.33 12.8317L12.33 11.8317ZM16.62 11.8317L16.62 12.8317L17.62 12.8317L17.62 11.8317L16.62 11.8317ZM19 15.8617C19 15.8289 19.0063 15.7879 19.0225 15.7462C19.0383 15.7055 19.0572 15.6806 19.0654 15.6712L20.5706 16.9882C20.8405 16.6797 21 16.2933 21 15.8617L19 15.8617ZM19.1595 15.5771C19.1689 15.5689 19.1938 15.55 19.2345 15.5342C19.2762 15.518 19.3172 15.5117 19.35 15.5117L19.35 17.5117C19.7816 17.5117 20.168 17.3522 20.4765 17.0823L19.1595 15.5771ZM19.35 15.5117L2.44999 15.5117L2.44999 17.5117L19.35 17.5117L19.35 15.5117ZM2.44999 15.5117C2.46156 15.5117 2.49996 15.5138 2.55244 15.5342C2.60697 15.5554 2.65425 15.5877 2.6891 15.6226L1.27488 17.0368C1.60542 17.3673 2.02641 17.5117 2.44999 17.5117L2.44999 15.5117ZM2.73457 15.6712C2.74277 15.6806 2.76165 15.7055 2.7775 15.7462C2.7937 15.7879 2.79999 15.8289 2.79999 15.8617L0.799991 15.8617C0.799991 16.2933 0.959505 16.6797 1.22942 16.9882L2.73457 15.6712ZM2.79999 15.8617L2.79999 7.9317L0.79999 7.9317L0.799991 15.8617L2.79999 15.8617ZM2.79999 7.9317C2.79999 5.85658 3.23284 4.51632 3.91301 3.71843L2.39098 2.42096C1.26848 3.73774 0.79999 5.63881 0.79999 7.9317L2.79999 7.9317ZM3.92428 3.70497C4.58276 2.90446 5.53945 2.45769 6.94799 2.45769L6.94799 0.457694C5.0632 0.457694 3.48922 1.0856 2.3797 2.43442L3.92428 3.70497ZM6.94799 2.45769C7.6327 2.45769 8.15205 2.63215 8.56167 2.93644L9.75432 1.33095C8.9506 0.733904 7.99662 0.457694 6.94799 0.457694L6.94799 2.45769ZM8.5656 2.93935C9.05013 3.29561 9.36877 3.67332 9.56356 4.06291L11.3524 3.16848C10.9925 2.44873 10.4445 1.83844 9.75038 1.32804L8.5656 2.93935ZM11.3653 4.03615C11.6084 3.51155 12.0054 3.04924 12.5987 2.65374L11.4893 0.989643C10.6265 1.56481 9.96624 2.29851 9.55068 3.19523L11.3653 4.03615ZM12.5987 2.65374C13.1572 2.28137 13.7778 2.09369 14.488 2.09369L14.488 0.0936935C13.3955 0.0936936 12.3867 0.391349 11.4893 0.989643L12.5987 2.65374ZM14.488 2.09369C15.9784 2.09369 17.0314 2.57261 17.7815 3.45667L19.3065 2.16272C18.1153 0.758774 16.4642 0.0936934 14.488 0.0936935L14.488 2.09369ZM17.7815 3.45667C18.5465 4.35826 19 5.72407 19 7.69769L21 7.69769C21 5.44198 20.4829 3.54913 19.3065 2.16272L17.7815 3.45667ZM19 7.69769L19 15.8617L21 15.8617L21 7.69769L19 7.69769ZM10.028 8.45169C10.028 7.60025 9.81389 6.78689 9.23213 6.17604L7.78385 7.55535C7.89542 7.6725 8.02799 7.91647 8.02799 8.45169L10.028 8.45169ZM9.2151 6.15859C8.63599 5.57948 7.89083 5.31969 7.07799 5.31969L7.07799 7.31969C7.44382 7.31969 7.65199 7.42391 7.80088 7.5728L9.2151 6.15859ZM7.07799 5.31969C6.2737 5.31969 5.53802 5.58576 4.97585 6.17604L6.42413 7.55535C6.55529 7.41763 6.73828 7.31969 7.07799 7.31969L7.07799 5.31969ZM4.97585 6.17604C4.39409 6.78689 4.17999 7.60025 4.17999 8.45169L6.17999 8.45169C6.17999 7.91647 6.31256 7.6725 6.42413 7.55535L4.97585 6.17604ZM4.17999 8.45169L4.17999 11.8317L6.17999 11.8317L6.17999 8.45169L4.17999 8.45169ZM5.17999 12.8317L9.02799 12.8317L9.02799 10.8317L5.17999 10.8317L5.17999 12.8317ZM10.028 11.8317L10.028 8.45169L8.02799 8.45169L8.02799 11.8317L10.028 11.8317ZM17.62 8.21769C17.62 7.30239 17.3449 6.46133 16.6879 5.83171L15.3041 7.27568C15.4791 7.44339 15.62 7.71167 15.62 8.21769L17.62 8.21769ZM16.6879 5.83171C16.0811 5.25015 15.3286 4.95569 14.488 4.95569L14.488 6.95569C14.826 6.95569 15.0789 7.05991 15.3041 7.27568L16.6879 5.83171ZM14.488 4.95569C13.6298 4.95569 12.854 5.23951 12.2469 5.84659L13.6611 7.2608C13.8514 7.07055 14.0981 6.95569 14.488 6.95569L14.488 4.95569ZM12.2621 5.83171C11.6051 6.46134 11.33 7.30239 11.33 8.21769L13.33 8.21769C13.33 7.71167 13.4709 7.44339 13.6459 7.27568L12.2621 5.83171ZM11.33 8.21769L11.33 11.8317L13.33 11.8317L13.33 8.21769L11.33 8.21769ZM12.33 12.8317L16.62 12.8317L16.62 10.8317L12.33 10.8317L12.33 12.8317ZM17.62 11.8317L17.62 8.21769L15.62 8.21769L15.62 11.8317L17.62 11.8317Z" fill="white"/>
</svg>
