<svg width="22" height="157" viewBox="0 0 22 157" fill="none" xmlns="http://www.w3.org/2000/svg">
<path d="M19.818 154.998L20.4765 155.751L20.5267 155.707L20.5706 155.657L19.818 154.998ZM1.982 154.998L1.22942 155.657L1.25135 155.682L1.27489 155.705L1.982 154.998ZM1.982 142.102L2.6891 142.809L2.68911 142.809L1.982 142.102ZM5.544 142.102L6.2511 141.395L6.22756 141.371L6.20251 141.349L5.544 142.102ZM5.726 150.604L4.726 150.604L4.726 151.604L5.726 151.604L5.726 150.604ZM9.548 150.604L9.548 151.604L10.548 151.604L10.548 150.604L9.548 150.604ZM9.756 142.622L10.4145 143.375L10.4396 143.353L10.4631 143.329L9.756 142.622ZM13.292 142.622L13.9991 141.915L13.9756 141.891L13.9505 141.869L13.292 142.622ZM13.474 150.604L12.474 150.604L12.474 151.604L13.474 151.604L13.474 150.604ZM19 154.53C19 154.497 19.0063 154.456 19.0225 154.415C19.0383 154.374 19.0572 154.349 19.0654 154.339L20.5706 155.657C20.8405 155.348 21 154.962 21 154.53L19 154.53ZM19.1595 154.245C19.1689 154.237 19.1938 154.218 19.2346 154.202C19.2762 154.186 19.3172 154.18 19.35 154.18L19.35 156.18C19.7817 156.18 20.168 156.02 20.4765 155.751L19.1595 154.245ZM19.35 154.18L2.45 154.18L2.45 156.18L19.35 156.18L19.35 154.18ZM2.45 154.18C2.46156 154.18 2.49997 154.182 2.55245 154.202C2.60698 154.224 2.65425 154.256 2.68911 154.291L1.27489 155.705C1.60543 156.036 2.02642 156.18 2.45 156.18L2.45 154.18ZM2.73457 154.339C2.74278 154.349 2.76165 154.374 2.7775 154.415C2.79371 154.456 2.8 154.497 2.8 154.53L0.799999 154.53C0.799999 154.962 0.959513 155.348 1.22942 155.657L2.73457 154.339ZM2.8 154.53L2.8 142.57L0.799998 142.57L0.799999 154.53L2.8 154.53ZM2.8 142.57C2.8 142.582 2.79791 142.62 2.7775 142.672C2.75629 142.727 2.72396 142.774 2.6891 142.809L1.2749 141.395C0.944355 141.725 0.799998 142.146 0.799998 142.57L2.8 142.57ZM2.68911 142.809C2.65426 142.844 2.60698 142.876 2.55245 142.898C2.49997 142.918 2.46156 142.92 2.45 142.92L2.45 140.92C2.02641 140.92 1.60543 141.064 1.27489 141.395L2.68911 142.809ZM2.45 142.92L5.076 142.92L5.076 140.92L2.45 140.92L2.45 142.92ZM5.076 142.92C5.04316 142.92 5.00221 142.914 4.96055 142.898C4.9198 142.882 4.89486 142.863 4.88549 142.855L6.20251 141.349C5.89404 141.08 5.50765 140.92 5.076 140.92L5.076 142.92ZM4.83689 142.809C4.80204 142.774 4.7697 142.727 4.74849 142.672C4.72809 142.62 4.726 142.582 4.726 142.57L6.726 142.57C6.726 142.146 6.58164 141.725 6.2511 141.395L4.83689 142.809ZM4.726 142.57L4.726 150.604L6.726 150.604L6.726 142.57L4.726 142.57ZM5.726 151.604L9.548 151.604L9.548 149.604L5.726 149.604L5.726 151.604ZM10.548 150.604L10.548 143.09L8.548 143.09L8.548 150.604L10.548 150.604ZM10.548 143.09C10.548 143.118 10.5423 143.172 10.5138 143.236C10.485 143.301 10.4456 143.347 10.4145 143.375L9.09749 141.869C8.73334 142.188 8.548 142.622 8.548 143.09L10.548 143.09ZM10.4631 143.329C10.4283 143.364 10.381 143.396 10.3264 143.418C10.274 143.438 10.2356 143.44 10.224 143.44L10.224 141.44C9.80042 141.44 9.37943 141.584 9.04889 141.915L10.4631 143.329ZM10.224 143.44L12.824 143.44L12.824 141.44L10.224 141.44L10.224 143.44ZM12.824 143.44C12.7912 143.44 12.7502 143.434 12.7086 143.418C12.6678 143.402 12.6429 143.383 12.6335 143.375L13.9505 141.869C13.642 141.6 13.2557 141.44 12.824 141.44L12.824 143.44ZM12.5849 143.329C12.55 143.294 12.5177 143.247 12.4965 143.192C12.4761 143.14 12.474 143.102 12.474 143.09L14.474 143.09C14.474 142.666 14.3296 142.245 13.9991 141.915L12.5849 143.329ZM12.474 143.09L12.474 150.604L14.474 150.604L14.474 143.09L12.474 143.09ZM13.474 151.604L19.35 151.604L19.35 149.604L13.474 149.604L13.474 151.604ZM19.35 151.604C19.3384 151.604 19.3 151.602 19.2476 151.582C19.193 151.56 19.1457 151.528 19.1109 151.493L20.5251 150.079C20.1946 149.748 19.7736 149.604 19.35 149.604L19.35 151.604ZM19.1109 151.493C19.076 151.458 19.0437 151.411 19.0225 151.356C19.0021 151.304 19 151.266 19 151.254L21 151.254C21 150.83 20.8556 150.409 20.5251 150.079L19.1109 151.493ZM19 151.254L19 154.53L21 154.53L21 151.254L19 151.254ZM18.466 135.936L19.2192 136.594L19.2232 136.589L18.466 135.936ZM1.982 137.808L1.22942 138.466L1.25135 138.491L1.27489 138.515L1.982 137.808ZM1.982 133.518L2.6891 134.225L2.71265 134.201L2.73458 134.176L1.982 133.518ZM15.58 132.53L16.2527 133.27L16.2644 133.259L16.2758 133.248L15.58 132.53ZM15.554 127.928L16.2387 127.199L16.2387 127.199L15.554 127.928ZM1.982 126.94L1.22942 127.598L1.25135 127.623L1.27489 127.647L1.982 126.94ZM1.982 122.624L2.6891 123.331L2.68911 123.331L1.982 122.624ZM18.466 124.522L17.7087 125.175L17.7128 125.18L18.466 124.522ZM19.26 130.19C19.26 132.475 18.7023 134.131 17.7088 135.283L19.2232 136.589C20.6217 134.967 21.26 132.792 21.26 130.19L19.26 130.19ZM17.7128 135.278C16.7636 136.365 15.278 136.99 13.058 136.99L13.058 138.99C15.6567 138.99 17.7764 138.245 19.2192 136.594L17.7128 135.278ZM13.058 136.99L2.45 136.99L2.45 138.99L13.058 138.99L13.058 136.99ZM2.45 136.99C2.46156 136.99 2.49997 136.992 2.55244 137.012C2.60698 137.033 2.65425 137.066 2.68911 137.101L1.27489 138.515C1.60543 138.845 2.02641 138.99 2.45 138.99L2.45 136.99ZM2.73457 137.149C2.74277 137.159 2.76165 137.184 2.7775 137.224C2.7937 137.266 2.8 137.307 2.8 137.34L0.799998 137.34C0.799998 137.771 0.959512 138.158 1.22942 138.466L2.73457 137.149ZM2.8 137.34L2.8 133.986L0.799998 133.986L0.799998 137.34L2.8 137.34ZM2.8 133.986C2.8 133.997 2.79791 134.036 2.7775 134.088C2.75629 134.143 2.72396 134.19 2.6891 134.225L1.27489 132.811C0.944355 133.141 0.799998 133.562 0.799998 133.986L2.8 133.986ZM2.73458 134.176C2.70736 134.207 2.66106 134.247 2.59614 134.276C2.53209 134.304 2.47817 134.31 2.45 134.31L2.45 132.31C1.98243 132.31 1.54806 132.495 1.22942 132.859L2.73458 134.176ZM2.45 134.31L13.032 134.31L13.032 132.31L2.45 132.31L2.45 134.31ZM13.032 134.31C14.2953 134.31 15.4277 134.02 16.2527 133.27L14.9073 131.79C14.5883 132.08 14.022 132.31 13.032 132.31L13.032 134.31ZM16.2758 133.248C17.0788 132.47 17.412 131.406 17.412 130.216L15.412 130.216C15.412 131.036 15.1905 131.515 14.8842 131.811L16.2758 133.248ZM17.412 130.216C17.412 129.028 17.0613 127.972 16.2387 127.199L14.8693 128.657C15.1907 128.958 15.412 129.428 15.412 130.216L17.412 130.216ZM16.2387 127.199C15.4165 126.427 14.2903 126.122 13.032 126.122L13.032 128.122C13.9923 128.122 14.5475 128.354 14.8693 128.657L16.2387 127.199ZM13.032 126.122L2.45 126.122L2.45 128.122L13.032 128.122L13.032 126.122ZM2.45 126.122C2.46156 126.122 2.49997 126.124 2.55244 126.144C2.60698 126.165 2.65425 126.198 2.68911 126.233L1.27489 127.647C1.60543 127.977 2.02641 128.122 2.45 128.122L2.45 126.122ZM2.73457 126.281C2.74277 126.291 2.76165 126.316 2.7775 126.356C2.7937 126.398 2.8 126.439 2.8 126.472L0.799997 126.472C0.799997 126.903 0.959511 127.29 1.22942 127.598L2.73457 126.281ZM2.8 126.472L2.8 123.092L0.799997 123.092L0.799997 126.472L2.8 126.472ZM2.8 123.092C2.8 123.103 2.79791 123.142 2.7775 123.194C2.75629 123.249 2.72396 123.296 2.6891 123.331L1.27489 121.917C0.944355 122.247 0.799997 122.668 0.799997 123.092L2.8 123.092ZM2.68911 123.331C2.65425 123.366 2.60698 123.398 2.55245 123.419C2.49997 123.44 2.46156 123.442 2.45 123.442L2.45 121.442C2.02641 121.442 1.60543 121.586 1.27489 121.917L2.68911 123.331ZM2.45 123.442L13.058 123.442L13.058 121.442L2.45 121.442L2.45 123.442ZM13.058 123.442C15.2741 123.442 16.7583 124.073 17.7087 125.175L19.2232 123.869C17.7816 122.197 15.6605 121.442 13.058 121.442L13.058 123.442ZM17.7128 125.18C18.704 126.314 19.26 127.942 19.26 130.19L21.26 130.19C21.26 127.618 20.62 125.468 19.2192 123.864L17.7128 125.18ZM19.818 117.538L20.4765 118.29L20.5267 118.247L20.5706 118.196L19.818 117.538ZM1.982 117.538L1.22942 118.196L1.25135 118.221L1.27489 118.245L1.982 117.538ZM2.294 113.43L2.72208 114.334L2.77804 114.307L2.8303 114.274L2.294 113.43ZM12.278 107.086L12.8143 107.93L15.7164 106.086L12.278 106.086L12.278 107.086ZM1.982 106.904L1.22942 107.562L1.25135 107.587L1.27489 107.611L1.982 106.904ZM1.982 102.848L2.6891 103.555L2.68911 103.555L1.982 102.848ZM19.818 102.848L20.5251 102.141L20.5016 102.117L20.4765 102.095L19.818 102.848ZM19.506 106.956L19.005 106.09L18.9798 106.105L18.9555 106.121L19.506 106.956ZM9.886 113.3L9.33547 112.465L6.55317 114.3L9.886 114.3L9.886 113.3ZM19.818 113.482L20.5251 112.775L20.5016 112.751L20.4765 112.729L19.818 113.482ZM19 117.07C19 117.037 19.0063 116.996 19.0225 116.954C19.0383 116.914 19.0572 116.889 19.0654 116.879L20.5706 118.196C20.8405 117.888 21 117.502 21 117.07L19 117.07ZM19.1595 116.785C19.1689 116.777 19.1938 116.758 19.2346 116.742C19.2762 116.726 19.3172 116.72 19.35 116.72L19.35 118.72C19.7817 118.72 20.168 118.56 20.4765 118.29L19.1595 116.785ZM19.35 116.72L2.45 116.72L2.45 118.72L19.35 118.72L19.35 116.72ZM2.45 116.72C2.46156 116.72 2.49996 116.722 2.55244 116.742C2.60698 116.764 2.65425 116.796 2.68911 116.831L1.27489 118.245C1.60543 118.576 2.02641 118.72 2.45 118.72L2.45 116.72ZM2.73457 116.879C2.74277 116.889 2.76165 116.914 2.7775 116.954C2.7937 116.996 2.8 117.037 2.8 117.07L0.799997 117.07C0.799997 117.502 0.959511 117.888 1.22942 118.196L2.73457 116.879ZM2.8 117.07L2.8 114.314L0.799997 114.314L0.799997 117.07L2.8 117.07ZM2.8 114.314C2.8 114.221 2.81781 114.217 2.79644 114.256C2.7857 114.275 2.77023 114.295 2.75183 114.312C2.73399 114.328 2.72142 114.334 2.72208 114.334L1.86591 112.526C1.52909 112.686 1.24251 112.937 1.05055 113.28C0.864517 113.613 0.799997 113.974 0.799997 114.314L2.8 114.314ZM2.8303 114.274L12.8143 107.93L11.7417 106.242L1.75769 112.586L2.8303 114.274ZM12.278 106.086L2.45 106.086L2.45 108.086L12.278 108.086L12.278 106.086ZM2.45 106.086C2.46156 106.086 2.49996 106.088 2.55244 106.108C2.60698 106.13 2.65425 106.162 2.68911 106.197L1.27489 107.611C1.60543 107.942 2.02641 108.086 2.45 108.086L2.45 106.086ZM2.73457 106.245C2.74277 106.255 2.76165 106.28 2.7775 106.32C2.7937 106.362 2.8 106.403 2.8 106.436L0.799997 106.436C0.799997 106.868 0.959511 107.254 1.22942 107.562L2.73457 106.245ZM2.8 106.436L2.8 103.316L0.799996 103.316L0.799997 106.436L2.8 106.436ZM2.8 103.316C2.8 103.327 2.79791 103.366 2.7775 103.418C2.75629 103.473 2.72395 103.52 2.6891 103.555L1.27489 102.141C0.944353 102.471 0.799996 102.892 0.799996 103.316L2.8 103.316ZM2.68911 103.555C2.65425 103.59 2.60698 103.622 2.55244 103.643C2.49997 103.664 2.46156 103.666 2.45 103.666L2.45 101.666C2.02641 101.666 1.60542 101.81 1.27489 102.141L2.68911 103.555ZM2.45 103.666L19.324 103.666L19.324 101.666L2.45 101.666L2.45 103.666ZM19.324 103.666C19.3116 103.666 19.2824 103.664 19.2448 103.65C19.2067 103.636 19.1775 103.616 19.1595 103.6L20.4765 102.095C20.1487 101.808 19.7477 101.666 19.324 101.666L19.324 103.666ZM19.1109 103.555C19.076 103.52 19.0437 103.473 19.0225 103.418C19.0021 103.366 19 103.327 19 103.316L21 103.316C21 102.892 20.8556 102.471 20.5251 102.141L19.1109 103.555ZM19 103.316L19 106.098L21 106.098L21 103.316L19 103.316ZM19 106.098C19 106.121 18.9975 106.129 18.9982 106.126C18.9986 106.125 18.9996 106.121 19.0016 106.116C19.0036 106.111 19.0064 106.105 19.0099 106.099C19.0134 106.093 19.017 106.088 19.0205 106.084C19.0239 106.079 19.0266 106.077 19.0278 106.075C19.0302 106.073 19.0247 106.079 19.005 106.09L20.007 107.821C20.646 107.451 21 106.835 21 106.098L19 106.098ZM18.9555 106.121L9.33547 112.465L10.4365 114.135L20.0565 107.791L18.9555 106.121ZM9.886 114.3L19.35 114.3L19.35 112.3L9.886 112.3L9.886 114.3ZM19.35 114.3C19.3172 114.3 19.2762 114.294 19.2346 114.277C19.1938 114.262 19.1689 114.243 19.1595 114.234L20.4765 112.729C20.168 112.459 19.7817 112.3 19.35 112.3L19.35 114.3ZM19.1109 114.189C19.076 114.154 19.0437 114.107 19.0225 114.052C19.0021 114 19 113.961 19 113.95L21 113.95C21 113.526 20.8556 113.105 20.5251 112.775L19.1109 114.189ZM19 113.95L19 117.07L21 117.07L21 113.95L19 113.95ZM19.818 93.5724L20.4765 94.325L20.5267 94.2811L20.5706 94.2309L19.818 93.5724ZM5.882 93.7544L5.882 92.7544L4.882 92.7544L4.882 93.7544L5.882 93.7544ZM5.7 98.8504L6.3585 99.603L6.40867 99.5591L6.45258 99.5089L5.7 98.8504ZM1.982 98.8504L1.22942 99.5089L1.25135 99.534L1.27489 99.5575L1.982 98.8504ZM5.7 83.9264L6.40711 83.2193L6.4071 83.2193L5.7 83.9264ZM5.882 89.0224L4.882 89.0224L4.882 90.0224L5.882 90.0224L5.882 89.0224ZM19.818 89.2044L20.5251 88.4973L20.5016 88.4737L20.4765 88.4518L19.818 89.2044ZM19 93.1044C19 93.0716 19.0063 93.0306 19.0225 92.9889C19.0383 92.9482 19.0572 92.9233 19.0654 92.9139L20.5706 94.2309C20.8405 93.9224 21 93.536 21 93.1044L19 93.1044ZM19.1595 92.8198C19.1689 92.8116 19.1938 92.7927 19.2346 92.7769C19.2762 92.7607 19.3172 92.7544 19.35 92.7544L19.35 94.7544C19.7816 94.7544 20.168 94.5949 20.4765 94.325L19.1595 92.8198ZM19.35 92.7544L5.882 92.7544L5.882 94.7544L19.35 94.7544L19.35 92.7544ZM4.882 93.7544L4.882 98.3824L6.882 98.3824L6.882 93.7544L4.882 93.7544ZM4.882 98.3824C4.882 98.3496 4.88829 98.3086 4.90449 98.2669C4.92034 98.2262 4.93922 98.2013 4.94742 98.1919L6.45258 99.5089C6.72248 99.2004 6.882 98.814 6.882 98.3824L4.882 98.3824ZM5.04149 98.0978C5.05087 98.0896 5.0758 98.0707 5.11655 98.0549C5.15821 98.0387 5.19916 98.0324 5.232 98.0324L5.232 100.032C5.66365 100.032 6.05003 99.8729 6.3585 99.603L5.04149 98.0978ZM5.232 98.0324L2.45 98.0324L2.45 100.032L5.232 100.032L5.232 98.0324ZM2.45 98.0324C2.46156 98.0324 2.49996 98.0345 2.55244 98.0549C2.60698 98.0761 2.65425 98.1084 2.68911 98.1433L1.27489 99.5575C1.60543 99.888 2.02641 100.032 2.45 100.032L2.45 98.0324ZM2.73457 98.1919C2.74277 98.2013 2.76165 98.2262 2.7775 98.2669C2.7937 98.3086 2.8 98.3496 2.8 98.3824L0.799996 98.3824C0.799996 98.814 0.95951 99.2004 1.22942 99.5089L2.73457 98.1919ZM2.8 98.3824L2.8 84.3944L0.799996 84.3944L0.799996 98.3824L2.8 98.3824ZM2.8 84.3944C2.8 84.406 2.79791 84.4444 2.7775 84.4968C2.75629 84.5514 2.72396 84.5986 2.6891 84.6335L1.27489 83.2193C0.944354 83.5498 0.799996 83.9708 0.799996 84.3944L2.8 84.3944ZM2.6891 84.6335C2.65425 84.6684 2.60697 84.7007 2.55244 84.7219C2.49996 84.7423 2.46156 84.7444 2.45 84.7444L2.45 82.7444C2.02641 82.7444 1.60543 82.8887 1.27489 83.2193L2.6891 84.6335ZM2.45 84.7444L5.232 84.7444L5.232 82.7444L2.45 82.7444L2.45 84.7444ZM5.232 84.7444C5.22043 84.7444 5.18203 84.7423 5.12955 84.7219C5.07502 84.7007 5.02775 84.6684 4.99289 84.6335L6.4071 83.2193C6.07656 82.8887 5.65558 82.7444 5.232 82.7444L5.232 84.7444ZM4.99289 84.6335C4.95803 84.5986 4.9257 84.5514 4.90449 84.4968C4.88408 84.4444 4.882 84.406 4.882 84.3944L6.882 84.3944C6.882 83.9708 6.73764 83.5498 6.40711 83.2193L4.99289 84.6335ZM4.882 84.3944L4.882 89.0224L6.882 89.0224L6.882 84.3944L4.882 84.3944ZM5.882 90.0224L19.35 90.0224L19.35 88.0224L5.882 88.0224L5.882 90.0224ZM19.35 90.0224C19.3172 90.0224 19.2762 90.0161 19.2346 89.9999C19.1938 89.984 19.1689 89.9652 19.1595 89.957L20.4765 88.4518C20.168 88.1819 19.7816 88.0224 19.35 88.0224L19.35 90.0224ZM19.1109 89.9115C19.076 89.8766 19.0437 89.8294 19.0225 89.7748C19.0021 89.7224 19 89.684 19 89.6724L21 89.6724C21 89.2488 20.8556 88.8278 20.5251 88.4973L19.1109 89.9115ZM19 89.6724L19 93.1044L21 93.1044L21 89.6724L19 89.6724ZM19.844 83.391L20.4948 84.1502L20.5532 84.1001L20.6033 84.0417L19.844 83.391ZM19.22 83.521L18.8763 84.46L18.8899 84.465L18.9038 84.4696L19.22 83.521ZM2.528 77.411L2.87173 76.4719L2.82196 76.4537L2.77053 76.4408L2.528 77.411ZM2.008 77.073L2.78886 76.4483L2.78886 76.4483L2.008 77.073ZM2.008 71.873L1.22713 71.2483L1.22713 71.2483L2.008 71.873ZM2.52799 71.535L2.77053 72.5051L2.82129 72.4924L2.87044 72.4745L2.52799 71.535ZM19.22 65.451L19.0031 64.4748L18.9391 64.489L18.8775 64.5114L19.22 65.451ZM19.454 65.399L19.454 64.399L19.3442 64.399L19.2371 64.4228L19.454 65.399ZM19.844 65.581L20.5511 64.8738L20.5511 64.8738L19.844 65.581ZM19.454 70.001L19.098 69.0665L19.0969 69.0669L19.454 70.001ZM16.802 71.015L16.4449 70.0809L15.802 70.3267L15.802 71.015L16.802 71.015ZM16.802 77.957L15.802 77.957L15.802 78.6515L16.4529 78.894L16.802 77.957ZM19.454 78.945L19.81 78.0104L19.8031 78.0079L19.454 78.945ZM13.058 72.055L14.058 72.055L14.058 70.6424L12.7257 71.1118L13.058 72.055ZM6.194 74.473L5.86174 73.5298L3.1843 74.473L5.86174 75.4161L6.194 74.473ZM13.058 76.891L12.7257 77.8341L14.058 78.3035L14.058 76.891L13.058 76.891ZM19 83.001C19 82.9418 19.0117 82.883 19.0325 82.8311C19.0525 82.781 19.0753 82.7511 19.0847 82.7402L20.6033 84.0417C20.8375 83.7684 21 83.4142 21 83.001L19 83.001ZM19.1932 82.6317C19.2042 82.6223 19.2341 82.5995 19.2841 82.5795C19.336 82.5587 19.3948 82.547 19.454 82.547L19.454 84.547C19.8673 84.547 20.2215 84.3845 20.4948 84.1502L19.1932 82.6317ZM19.454 82.547C19.4278 82.547 19.4207 82.5458 19.4279 82.5466C19.4321 82.547 19.4433 82.5484 19.46 82.5517C19.4763 82.555 19.5028 82.5611 19.5362 82.5723L18.9038 84.4696C19.1121 84.5391 19.3208 84.547 19.454 84.547L19.454 82.547ZM19.5637 82.5819L2.87173 76.4719L2.18426 78.35L18.8763 84.46L19.5637 82.5819ZM2.77053 76.4408C2.76946 76.4405 2.77122 76.4409 2.77493 76.4425C2.7787 76.4441 2.78291 76.4464 2.78698 76.449C2.79103 76.4516 2.79348 76.4537 2.79422 76.4544C2.7949 76.455 2.79298 76.4534 2.78886 76.4483L1.22713 77.6976C1.49738 78.0355 1.85711 78.274 2.28546 78.3811L2.77053 76.4408ZM2.78886 76.4483C2.79511 76.4561 2.80005 76.4639 2.80358 76.4706C2.80705 76.4773 2.80808 76.4809 2.80777 76.4799C2.80706 76.4775 2.8 76.453 2.8 76.397L0.799995 76.397C0.799995 76.8434 0.914208 77.3065 1.22713 77.6976L2.78886 76.4483ZM2.8 76.397L2.8 72.549L0.799995 72.549L0.799995 76.397L2.8 76.397ZM2.8 72.549C2.8 72.4929 2.80706 72.4684 2.80777 72.466C2.80808 72.465 2.80705 72.4686 2.80358 72.4753C2.80005 72.482 2.79511 72.4898 2.78886 72.4976L1.22713 71.2483C0.914208 71.6394 0.799995 72.1025 0.799995 72.549L2.8 72.549ZM2.78886 72.4976C2.79298 72.4925 2.7949 72.4909 2.79422 72.4915C2.79348 72.4922 2.79103 72.4943 2.78698 72.4969C2.78291 72.4995 2.7787 72.5018 2.77493 72.5034C2.77121 72.505 2.76946 72.5054 2.77053 72.5051L2.28546 70.5648C1.85711 70.6719 1.49738 70.9104 1.22713 71.2483L2.78886 72.4976ZM2.87044 72.4745L19.5624 66.3905L18.8775 64.5114L2.18555 70.5954L2.87044 72.4745ZM19.4369 66.4271L19.6709 66.3751L19.2371 64.4228L19.0031 64.4748L19.4369 66.4271ZM19.454 66.399C19.3721 66.399 19.2953 66.3799 19.2326 66.3506C19.1736 66.3231 19.1429 66.2941 19.1369 66.2881L20.5511 64.8738C20.2894 64.6122 19.9179 64.399 19.454 64.399L19.454 66.399ZM19.1369 66.2881C19.098 66.2492 19.0593 66.1949 19.0325 66.1278C19.0062 66.062 19 66.0057 19 65.9709L21 65.9709C21 65.5676 20.8549 65.1776 20.5511 64.8738L19.1369 66.2881ZM19 65.9709L19 69.169L21 69.169L21 65.9709L19 65.9709ZM19 69.169C19 69.2315 18.9872 69.2016 19.0274 69.1403C19.0462 69.1117 19.0681 69.0898 19.0868 69.0755C19.1043 69.0622 19.1113 69.0614 19.098 69.0665L19.81 70.9354C20.1533 70.8047 20.474 70.5813 20.6995 70.2376C20.9218 69.899 21 69.5224 21 69.169L19 69.169ZM19.0969 69.0669L16.4449 70.0809L17.1591 71.949L19.8111 70.935L19.0969 69.0669ZM15.802 71.015L15.802 77.957L17.802 77.957L17.802 71.015L15.802 71.015ZM16.4529 78.894L19.1049 79.882L19.8031 78.0079L17.1511 77.0199L16.4529 78.894ZM19.098 79.8794C19.1078 79.8832 19.0982 79.8809 19.0789 79.8659C19.0586 79.8501 19.0371 79.8275 19.0198 79.8003C18.9838 79.7438 19 79.7241 19 79.803L21 79.803C21 79.4485 20.9251 79.0691 20.7072 78.7266C20.4839 78.3757 20.1619 78.1445 19.81 78.0105L19.098 79.8794ZM19 79.803L19 83.001L21 83.001L21 79.803L19 79.803ZM12.7257 71.1118L5.86174 73.5298L6.52626 75.4161L13.3903 72.9981L12.7257 71.1118ZM5.86174 75.4161L12.7257 77.8341L13.3903 75.9478L6.52626 73.5298L5.86174 75.4161ZM14.058 76.891L14.058 72.055L12.058 72.055L12.058 76.891L14.058 76.891ZM19.532 59.8069L18.6073 59.4262L18.6073 59.4262L19.532 59.8069ZM17.634 62.4849L18.2284 63.2891L18.2383 63.2818L18.2479 63.2743L17.634 62.4849ZM15.034 63.4209L15.034 64.4209L15.0525 64.4209L15.071 64.4202L15.034 63.4209ZM14.67 63.2649L13.9629 63.972L13.9629 63.972L14.67 63.2649ZM14.618 59.0789L15.4317 59.6602L15.4773 59.5963L15.5124 59.5261L14.618 59.0789ZM14.956 58.6629L14.5088 57.7685L14.3905 57.8276L14.2916 57.9155L14.956 58.6629ZM16.074 57.5709L16.9367 58.0766L16.9367 58.0766L16.074 57.5709ZM16.048 53.3069L15.1905 53.8214L15.1905 53.8214L16.048 53.3069ZM13.838 52.9429L14.569 53.6252L14.58 53.6135L14.5906 53.6014L13.838 52.9429ZM13.188 54.1909L12.2393 53.8747L12.2393 53.8747L13.188 54.1909ZM12.538 56.7389L11.5604 56.5284L11.559 56.535L12.538 56.7389ZM10.64 61.4189L11.4093 62.0578L11.4151 62.0508L11.4209 62.0436L10.64 61.4189ZM4.19199 62.0689L3.61398 62.8849L3.61398 62.8849L4.19199 62.0689ZM2.242 59.5469L1.32285 59.9408L1.32285 59.9408L2.242 59.5469ZM2.32 51.7989L3.22545 52.2234L3.22545 52.2234L2.32 51.7989ZM4.29599 49.2769L4.8789 50.0895L4.88896 50.0822L4.89883 50.0748L4.29599 49.2769ZM6.60999 48.3409L6.60999 47.3409L6.58728 47.3409L6.56459 47.3419L6.60999 48.3409ZM7 48.4969L7.70711 47.7898L7.7071 47.7898L7 48.4969ZM7.05199 52.8389L7.92024 53.3351L7.93401 53.311L7.94642 53.2861L7.05199 52.8389ZM6.71399 53.1769L6.96642 54.1445L7.12894 54.1021L7.2687 54.009L6.71399 53.1769ZM5.7 54.0349L6.55165 54.559L6.55603 54.5519L6.56029 54.5447L5.7 54.0349ZM5.7 57.5189L6.53205 56.9642L6.53204 56.9642L5.7 57.5189ZM7.832 57.8049L8.51245 58.5377L8.52601 58.5251L8.5391 58.512L7.832 57.8049ZM8.50799 56.6609L9.43647 57.0323L9.44381 57.014L9.45042 56.9953L8.50799 56.6609ZM9.10599 54.3729L10.0845 54.5789L10.0873 54.5659L10.0897 54.5527L9.10599 54.3729ZM10.224 50.5249L11.1281 50.9523L11.1327 50.9425L11.1371 50.9326L10.224 50.5249ZM11.94 48.3929L12.4756 49.2375L12.485 49.2314L11.94 48.3929ZM17.608 48.7309L16.993 49.5194L16.9952 49.5211L17.608 48.7309ZM19.584 51.5129L20.5181 51.1558L20.5152 51.1485L19.584 51.5129ZM19.26 55.5689C19.26 57.1214 19.0307 58.3979 18.6073 59.4262L20.4567 60.1877C21.0039 58.8586 21.26 57.3098 21.26 55.5689L19.26 55.5689ZM18.6073 59.4262C18.1695 60.4895 17.6284 61.2224 17.0201 61.6956L18.2479 63.2743C19.1996 62.5341 19.9238 61.4817 20.4567 60.1877L18.6073 59.4262ZM17.0396 61.6807C16.3942 62.1578 15.7197 62.3948 14.997 62.4216L15.071 64.4202C16.2203 64.3777 17.2791 63.9907 18.2284 63.2891L17.0396 61.6807ZM15.034 62.4209C15.0931 62.4209 15.1629 62.4328 15.2329 62.4628C15.3018 62.4923 15.3494 62.5301 15.3771 62.5578L13.9629 63.972C14.2418 64.2509 14.6128 64.4209 15.034 64.4209L15.034 62.4209ZM15.3771 62.5578C15.3929 62.5736 15.4238 62.61 15.4497 62.6691C15.4763 62.7301 15.488 62.7933 15.488 62.8489L13.488 62.8489C13.488 63.2979 13.6746 63.6837 13.9629 63.972L15.3771 62.5578ZM15.488 62.8489L15.488 59.5729L13.488 59.5729L13.488 62.8489L15.488 62.8489ZM15.488 59.5729C15.488 59.5366 15.492 59.5312 15.4876 59.5479C15.4827 59.5664 15.4682 59.6091 15.4317 59.6602L13.8043 58.4977C13.557 58.8438 13.488 59.2365 13.488 59.5729L15.488 59.5729ZM15.5124 59.5261C15.5089 59.5332 15.5285 59.492 15.6204 59.4103L14.2916 57.9155C14.0715 58.1112 13.8658 58.3473 13.7236 58.6317L15.5124 59.5261ZM15.4032 59.5573C16.0529 59.2325 16.5598 58.7196 16.9367 58.0766L15.2113 57.0652C14.9989 57.4276 14.7604 57.6427 14.5088 57.7685L15.4032 59.5573ZM16.9367 58.0766C17.3517 57.3686 17.516 56.5068 17.516 55.5689L15.516 55.5689C15.516 56.295 15.3856 56.7679 15.2113 57.0652L16.9367 58.0766ZM17.516 55.5689C17.516 54.5021 17.3522 53.5369 16.9055 52.7924L15.1905 53.8214C15.3678 54.1169 15.516 54.6597 15.516 55.5689L17.516 55.5689ZM16.9055 52.7924C16.4405 52.0175 15.7134 51.5269 14.774 51.5269L14.774 53.5269C14.9093 53.5269 15.0315 53.5564 15.1905 53.8214L16.9055 52.7924ZM14.774 51.5269C14.1158 51.5269 13.5254 51.7816 13.0854 52.2844L14.5906 53.6014C14.6359 53.5496 14.6696 53.5269 14.774 53.5269L14.774 51.5269ZM13.1069 52.2606C12.7208 52.6744 12.448 53.2485 12.2393 53.8747L14.1367 54.5071C14.3093 53.9893 14.4699 53.7315 14.569 53.6252L13.1069 52.2606ZM12.2393 53.8747C12.031 54.4997 11.8052 55.3919 11.5604 56.5284L13.5156 56.9495C13.7561 55.8326 13.9637 55.0261 14.1367 54.5071L12.2393 53.8747ZM11.559 56.535C11.1407 58.543 10.5514 59.9289 9.85913 60.7942L11.4209 62.0436C12.3926 60.829 13.0687 59.0948 13.517 56.9429L11.559 56.535ZM9.87071 60.78C9.24519 61.5332 8.34598 61.9529 7.026 61.9529L7.026 63.9529C8.82601 63.9529 10.3361 63.35 11.4093 62.0578L9.87071 60.78ZM7.026 61.9529C6.16757 61.9529 5.42649 61.7179 4.77001 61.2529L3.61398 62.8849C4.6215 63.5986 5.76976 63.9529 7.026 63.9529L7.026 61.9529ZM4.77001 61.2529C4.11185 60.7867 3.5687 60.104 3.16114 59.153L1.32285 59.9408C1.85129 61.1739 2.60814 62.1725 3.61398 62.8849L4.77001 61.2529ZM3.16114 59.153C2.75707 58.2102 2.53999 57.0752 2.53999 55.7249L0.539995 55.7249C0.539995 57.2866 0.790917 58.6997 1.32285 59.9408L3.16114 59.153ZM2.53999 55.7249C2.53999 54.3305 2.78039 53.1728 3.22545 52.2234L1.41454 51.3745C0.819602 52.6437 0.539995 54.1033 0.539995 55.7249L2.53999 55.7249ZM3.22545 52.2234C3.69066 51.2309 4.25097 50.5399 4.8789 50.0895L3.71309 48.4644C2.74635 49.1579 1.98933 50.1483 1.41454 51.3745L3.22545 52.2234ZM4.89883 50.0748C5.56269 49.5732 6.1445 49.3631 6.6554 49.3399L6.56459 47.3419C5.55015 47.3881 4.5893 47.802 3.69316 48.4791L4.89883 50.0748ZM6.60999 49.3409C6.57528 49.3409 6.51898 49.3347 6.45311 49.3084C6.38606 49.2816 6.33173 49.2429 6.29289 49.204L7.7071 47.7898C7.4033 47.486 7.01335 47.3409 6.60999 47.3409L6.60999 49.3409ZM6.29288 49.204C6.25405 49.1652 6.21533 49.1109 6.18852 49.0438C6.16217 48.9779 6.15599 48.9216 6.15599 48.8869L8.15599 48.8869C8.15599 48.4836 8.0109 48.0936 7.70711 47.7898L6.29288 49.204ZM6.15599 48.8869L6.15599 52.3189L8.15599 52.3189L8.15599 48.8869L6.15599 48.8869ZM6.15599 52.3189C6.15599 52.3683 6.15181 52.3968 6.14941 52.4088C6.14712 52.4203 6.14738 52.4121 6.15757 52.3917L7.94642 53.2861C8.10473 52.9695 8.15599 52.6316 8.15599 52.3189L6.15599 52.3189ZM6.18375 52.3428C6.19885 52.3164 6.21049 52.3052 6.20839 52.3073C6.20592 52.3098 6.19183 52.3232 6.15929 52.3449L7.2687 54.009C7.51177 53.8469 7.75219 53.6291 7.92024 53.3351L6.18375 52.3428ZM6.46157 52.2093C5.7342 52.399 5.20685 52.9056 4.8397 53.5251L6.56029 54.5447C6.74781 54.2283 6.89645 54.1628 6.96642 54.1445L6.46157 52.2093ZM4.84834 53.5108C4.45051 54.1573 4.28399 54.9145 4.28399 55.7249L6.28399 55.7249C6.28399 55.1833 6.39481 54.8139 6.55165 54.559L4.84834 53.5108ZM4.28399 55.7249C4.28399 56.6002 4.4356 57.4251 4.86795 58.0736L6.53204 56.9642C6.40972 56.7807 6.28399 56.4096 6.28399 55.7249L4.28399 55.7249ZM4.86794 58.0736C5.34662 58.7916 6.07998 59.1429 6.922 59.1429L6.922 57.1429C6.68934 57.1429 6.60804 57.0782 6.53205 56.9642L4.86794 58.0736ZM6.922 59.1429C7.5112 59.1429 8.0658 58.9525 8.51245 58.5377L7.15154 57.0721C7.11286 57.108 7.06079 57.1429 6.922 57.1429L6.922 59.1429ZM8.5391 58.512C8.91922 58.1319 9.20604 57.6084 9.43647 57.0323L7.57952 56.2895C7.39395 56.7535 7.2301 56.9926 7.12489 57.0978L8.5391 58.512ZM9.45042 56.9953C9.66313 56.3959 9.8732 55.5828 10.0845 54.5789L8.12744 54.1669C7.92278 55.139 7.7342 55.8513 7.56557 56.3265L9.45042 56.9953ZM10.0897 54.5527C10.3763 52.9847 10.7292 51.7961 11.1281 50.9523L9.31992 50.0975C8.81748 51.1604 8.42499 52.5372 8.12229 54.1931L10.0897 54.5527ZM11.1371 50.9326C11.5113 50.0943 11.9698 49.5582 12.4755 49.2374L11.4045 47.5484C10.4889 48.129 9.80331 49.0142 9.31086 50.1173L11.1371 50.9326ZM12.485 49.2314C12.9764 48.9119 13.6487 48.7169 14.566 48.7169L14.566 46.7169C13.3687 46.7169 12.2902 46.9726 11.395 47.5545L12.485 49.2314ZM14.566 48.7169C15.518 48.7169 16.3124 48.9886 16.993 49.5194L18.223 47.9424C17.1703 47.1213 15.9367 46.7169 14.566 46.7169L14.566 48.7169ZM16.9952 49.5211C17.6763 50.0494 18.2376 50.8165 18.6528 51.8773L20.5152 51.1485C19.9944 49.8174 19.2383 48.7298 18.2208 47.9407L16.9952 49.5211ZM18.6499 51.8701C19.049 52.9136 19.26 54.1409 19.26 55.5689L21.26 55.5689C21.26 53.9463 21.0204 52.4695 20.518 51.1558L18.6499 51.8701ZM19.818 39.8324L20.4765 40.585L20.5267 40.5411L20.5706 40.4909L19.818 39.8324ZM5.88199 40.0144L5.88199 39.0144L4.88199 39.0144L4.88199 40.0144L5.88199 40.0144ZM5.69999 45.1104L6.3585 45.863L6.40867 45.8191L6.45257 45.7689L5.69999 45.1104ZM1.98199 45.1104L1.22942 45.7689L1.25134 45.794L1.27489 45.8175L1.98199 45.1104ZM5.69999 30.1864L6.4071 29.4793L6.4071 29.4793L5.69999 30.1864ZM5.88199 35.2824L4.88199 35.2824L4.88199 36.2824L5.88199 36.2824L5.88199 35.2824ZM19.818 35.4644L20.5251 34.7573L20.5016 34.7338L20.4765 34.7118L19.818 35.4644ZM19 39.3644C19 39.3316 19.0063 39.2906 19.0225 39.249C19.0383 39.2082 19.0572 39.1833 19.0654 39.1739L20.5706 40.4909C20.8405 40.1825 21 39.7961 21 39.3644L19 39.3644ZM19.1595 39.0798C19.1689 39.0716 19.1938 39.0528 19.2345 39.0369C19.2762 39.0207 19.3172 39.0144 19.35 39.0144L19.35 41.0144C19.7816 41.0144 20.168 40.8549 20.4765 40.585L19.1595 39.0798ZM19.35 39.0144L5.88199 39.0144L5.88199 41.0144L19.35 41.0144L19.35 39.0144ZM4.88199 40.0144L4.88199 44.6424L6.88199 44.6424L6.88199 40.0144L4.88199 40.0144ZM4.88199 44.6424C4.88199 44.6096 4.88829 44.5686 4.90449 44.527C4.92034 44.4862 4.93922 44.4613 4.94742 44.4519L6.45257 45.7689C6.72248 45.4605 6.88199 45.0741 6.88199 44.6424L4.88199 44.6424ZM5.04149 44.3578C5.05086 44.3496 5.0758 44.3308 5.11655 44.3149C5.15821 44.2987 5.19916 44.2924 5.23199 44.2924L5.23199 46.2924C5.66365 46.2924 6.05003 46.1329 6.3585 45.863L5.04149 44.3578ZM5.23199 44.2924L2.44999 44.2924L2.44999 46.2924L5.23199 46.2924L5.23199 44.2924ZM2.44999 44.2924C2.46156 44.2924 2.49996 44.2945 2.55244 44.3149C2.60697 44.3361 2.65425 44.3685 2.6891 44.4033L1.27489 45.8175C1.60542 46.1481 2.02641 46.2924 2.44999 46.2924L2.44999 44.2924ZM2.73457 44.4519C2.74277 44.4613 2.76165 44.4862 2.7775 44.527C2.7937 44.5686 2.79999 44.6096 2.79999 44.6424L0.799994 44.6424C0.799994 45.0741 0.959508 45.4605 1.22942 45.7689L2.73457 44.4519ZM2.79999 44.6424L2.79999 30.6544L0.799993 30.6544L0.799994 44.6424L2.79999 44.6424ZM2.79999 30.6544C2.79999 30.666 2.79791 30.7044 2.7775 30.7569C2.75629 30.8114 2.72395 30.8587 2.6891 30.8935L1.27489 29.4793C0.944351 29.8099 0.799993 30.2308 0.799993 30.6544L2.79999 30.6544ZM2.6891 30.8935C2.65425 30.9284 2.60697 30.9607 2.55244 30.9819C2.49996 31.0023 2.46156 31.0044 2.44999 31.0044L2.44999 29.0044C2.02641 29.0044 1.60542 29.1488 1.27489 29.4793L2.6891 30.8935ZM2.44999 31.0044L5.23199 31.0044L5.23199 29.0044L2.44999 29.0044L2.44999 31.0044ZM5.23199 31.0044C5.22043 31.0044 5.18203 31.0023 5.12955 30.9819C5.07502 30.9607 5.02774 30.9284 4.99289 30.8935L6.4071 29.4793C6.07656 29.1488 5.65558 29.0044 5.23199 29.0044L5.23199 31.0044ZM4.99288 30.8935C4.95803 30.8587 4.9257 30.8114 4.90449 30.7569C4.88408 30.7044 4.88199 30.666 4.88199 30.6544L6.88199 30.6544C6.88199 30.2308 6.73764 29.8099 6.4071 29.4793L4.99288 30.8935ZM4.88199 30.6544L4.88199 35.2824L6.88199 35.2824L6.88199 30.6544L4.88199 30.6544ZM5.88199 36.2824L19.35 36.2824L19.35 34.2824L5.88199 34.2824L5.88199 36.2824ZM19.35 36.2824C19.3172 36.2824 19.2762 36.2761 19.2345 36.2599C19.1938 36.2441 19.1689 36.2252 19.1595 36.217L20.4765 34.7118C20.168 34.4419 19.7816 34.2824 19.35 34.2824L19.35 36.2824ZM19.1109 36.1715C19.076 36.1367 19.0437 36.0894 19.0225 36.0349C19.0021 35.9824 19 35.944 19 35.9324L21 35.9324C21 35.5088 20.8556 35.0879 20.5251 34.7573L19.1109 36.1715ZM19 35.9324L19 39.3644L21 39.3644L21 35.9324L19 35.9324ZM19.818 26.1855L20.4765 26.938L20.5267 26.8941L20.5706 26.844L19.818 26.1855ZM1.98199 26.1855L1.22942 26.844L1.25134 26.869L1.27489 26.8926L1.98199 26.1855ZM1.98199 21.7655L2.6891 22.4726L2.71264 22.449L2.73457 22.424L1.98199 21.7655ZM19.818 21.7655L19.0654 22.424L19.0873 22.449L19.1109 22.4726L19.818 21.7655ZM19 25.7175C19 25.6846 19.0063 25.6437 19.0225 25.602C19.0383 25.5613 19.0572 25.5363 19.0654 25.527L20.5706 26.844C20.8405 26.5355 21 26.1491 21 25.7175L19 25.7175ZM19.1595 25.4329C19.1689 25.4247 19.1938 25.4058 19.2345 25.39C19.2762 25.3738 19.3172 25.3675 19.35 25.3675L19.35 27.3675C19.7816 27.3675 20.168 27.208 20.4765 26.938L19.1595 25.4329ZM19.35 25.3675L2.44999 25.3675L2.44999 27.3675L19.35 27.3675L19.35 25.3675ZM2.44999 25.3675C2.46156 25.3675 2.49996 25.3696 2.55244 25.39C2.60697 25.4112 2.65425 25.4435 2.6891 25.4784L1.27489 26.8926C1.60542 27.2231 2.02641 27.3675 2.44999 27.3675L2.44999 25.3675ZM2.73457 25.527C2.74277 25.5363 2.76165 25.5613 2.7775 25.602C2.7937 25.6437 2.79999 25.6846 2.79999 25.7175L0.799993 25.7175C0.799993 26.1491 0.959507 26.5355 1.22942 26.844L2.73457 25.527ZM2.79999 25.7175L2.79999 22.2335L0.799993 22.2335L0.799993 25.7175L2.79999 25.7175ZM2.79999 22.2335C2.79999 22.245 2.79791 22.2834 2.7775 22.3359C2.75629 22.3904 2.72395 22.4377 2.6891 22.4726L1.27489 21.0584C0.944351 21.3889 0.799993 21.8099 0.799993 22.2335L2.79999 22.2335ZM2.73457 22.424C2.70736 22.4551 2.66106 22.4944 2.59613 22.5233C2.53208 22.5517 2.47817 22.5575 2.44999 22.5575L2.44999 20.5575C1.98242 20.5575 1.54805 20.7428 1.22941 21.107L2.73457 22.424ZM2.44999 22.5575L19.35 22.5575L19.35 20.5575L2.44999 20.5575L2.44999 22.5575ZM19.35 22.5575C19.3218 22.5575 19.2679 22.5517 19.2039 22.5233C19.1389 22.4944 19.0926 22.4551 19.0654 22.424L20.5706 21.107C20.2519 20.7428 19.8176 20.5575 19.35 20.5575L19.35 22.5575ZM19.1109 22.4726C19.076 22.4377 19.0437 22.3904 19.0225 22.3359C19.0021 22.2834 19 22.245 19 22.2335L21 22.2335C21 21.8099 20.8556 21.3889 20.5251 21.0584L19.1109 22.4726ZM19 22.2335L19 25.7175L21 25.7175L21 22.2335L19 22.2335ZM18.466 15.0258L19.2186 15.6843L19.2272 15.6742L18.466 15.0258ZM13.214 17.2358L13.251 18.2351L13.2518 18.2351L13.214 17.2358ZM8.58599 17.2358L8.54756 18.235L8.5503 18.2351L8.58599 17.2358ZM3.38599 14.9738L4.14658 14.3245L4.14199 14.3192L3.38599 14.9738ZM2.31999 5.09378L3.23921 5.48773L3.24385 5.47652L2.31999 5.09378ZM4.50399 2.23378L5.09216 3.04252L5.1005 3.03646L5.1087 3.03023L4.50399 2.23378ZM7.80599 1.14178L7.80599 0.141684L7.79229 0.141872L7.80599 1.14178ZM8.22199 1.32378L8.99029 0.683532L8.98125 0.672988L8.22199 1.32378ZM8.22199 5.71778L8.98125 6.36857L9.01003 6.335L9.03573 6.29902L8.22199 5.71778ZM7.67599 6.02978L7.94071 6.9941L7.96668 6.98698L7.99222 6.97846L7.67599 6.02978ZM5.82999 7.17378L6.64922 7.74724L6.65574 7.73793L6.66204 7.72848L5.82999 7.17378ZM8.71599 12.3998L8.75301 11.4004L8.74628 11.4002L8.71599 12.3998ZM13.084 12.3998L13.0537 11.4002L13.0495 11.4004L13.084 12.3998ZM15.97 7.14778L16.7979 6.58693L16.7918 6.57791L16.7855 6.56903L15.97 7.14778ZM14.124 6.02978L13.8663 6.99601L13.8762 6.99865L13.8861 7.00108L14.124 6.02978ZM13.604 5.74378L14.4177 5.16254L14.392 5.12656L14.3632 5.09299L13.604 5.74378ZM13.604 1.29778L14.3111 2.00489L14.3383 1.97773L14.3633 1.94857L13.604 1.29778ZM13.994 1.14178L13.8836 2.13566L13.9318 2.14102L13.9803 2.14168L13.994 1.14178ZM17.322 2.23378L16.7243 3.03553L16.7268 3.03734L17.322 2.23378ZM19.506 5.09378L20.4299 4.71101L20.4251 4.69986L19.506 5.09378ZM19.26 9.20178C19.26 11.5251 18.7006 13.2083 17.7048 14.3773L19.2272 15.6742C20.6234 14.0353 21.26 11.8358 21.26 9.20178L19.26 9.20178ZM17.7134 14.3673C16.7234 15.4987 15.2604 16.1575 13.1761 16.2365L13.2518 18.2351C15.7436 18.1407 17.7819 17.3262 19.2186 15.6843L17.7134 14.3673ZM13.177 16.2365C12.729 16.2531 11.9824 16.2618 10.926 16.2618L10.926 18.2618C11.9843 18.2618 12.763 18.2532 13.251 18.2351L13.177 16.2365ZM10.926 16.2618C9.85254 16.2618 9.08784 16.2531 8.62169 16.2364L8.5503 18.2351C9.05481 18.2532 9.85011 18.2618 10.926 18.2618L10.926 16.2618ZM8.62443 16.2365C6.5877 16.1582 5.14167 15.4902 4.14656 14.3245L2.62543 15.623C4.05698 17.3 6.07762 18.14 8.54756 18.235L8.62443 16.2365ZM4.14199 14.3192C3.10993 13.1272 2.53999 11.4595 2.53999 9.20178L0.539993 9.20178C0.539993 11.7974 1.20073 13.9776 2.63 15.6284L4.14199 14.3192ZM2.53999 9.20178C2.53999 7.79099 2.78014 6.5587 3.23914 5.4877L1.40085 4.69986C0.819848 6.05552 0.539992 7.5619 0.539993 9.20178L2.53999 9.20178ZM3.24385 5.47652C3.68428 4.41341 4.30441 3.61543 5.09216 3.04252L3.91582 1.42504C2.79691 2.2388 1.96104 3.34748 1.39614 4.71104L3.24385 5.47652ZM5.1087 3.03023C5.86115 2.45892 6.75065 2.15633 7.81969 2.14168L7.79229 0.141872C6.33066 0.161895 5.01883 0.587306 3.89928 1.43733L5.1087 3.03023ZM7.80599 2.14178L7.85799 2.14178L7.85799 0.141778L7.80599 0.141778L7.80599 2.14178ZM7.85799 2.14178C7.77565 2.14178 7.68713 2.12238 7.60578 2.0817C7.52797 2.0428 7.48227 1.99736 7.46274 1.97457L8.98125 0.672988C8.71946 0.367571 8.33468 0.141778 7.85799 0.141778L7.85799 2.14178ZM7.45377 1.96396C7.42572 1.9303 7.3976 1.88468 7.37775 1.82911C7.35802 1.77388 7.35199 1.7243 7.35199 1.68778L9.35199 1.68778C9.35199 1.32137 9.23056 0.972014 8.99021 0.683594L7.45377 1.96396ZM7.35199 1.68778L7.35199 5.19778L9.35199 5.19778L9.35199 1.68778L7.35199 1.68778ZM7.35199 5.19778C7.35199 5.24889 7.34682 5.26436 7.34935 5.25424C7.35222 5.24276 7.36577 5.19602 7.40826 5.13654L9.03573 6.29902C9.29113 5.94145 9.35199 5.53112 9.35199 5.19778L7.35199 5.19778ZM7.46274 5.06699C7.50451 5.01825 7.53212 5.00667 7.51135 5.01854C7.49185 5.02968 7.44518 5.05262 7.35977 5.0811L7.99222 6.97846C8.31612 6.8705 8.70241 6.69389 8.98125 6.36857L7.46274 5.06699ZM7.41128 5.06545C6.40091 5.34281 5.52862 5.82307 4.99794 6.61908L6.66204 7.72848C6.8247 7.48449 7.18307 7.20208 7.94071 6.9941L7.41128 5.06545ZM5.01076 6.60032C4.49524 7.33678 4.28399 8.24153 4.28399 9.22778L6.28399 9.22778C6.28399 8.51536 6.43675 8.05078 6.64922 7.74724L5.01076 6.60032ZM4.28399 9.22778C4.28399 10.4375 4.62756 11.5168 5.46325 12.2892C6.27945 13.0435 7.41113 13.3607 8.6857 13.3993L8.74628 11.4002C7.73286 11.3695 7.14853 11.1234 6.82073 10.8204C6.51242 10.5354 6.28399 10.0634 6.28399 9.22778L4.28399 9.22778ZM8.67898 13.3991C9.16642 13.4171 9.90111 13.4258 10.874 13.4258L10.874 11.4258C9.90554 11.4258 9.20156 11.4171 8.753 11.4005L8.67898 13.3991ZM10.874 13.4258C11.8477 13.4258 12.5982 13.4171 13.1185 13.3992L13.0495 11.4004C12.5645 11.4171 11.8416 11.4258 10.874 11.4258L10.874 13.4258ZM13.1143 13.3993C14.3889 13.3607 15.5205 13.0435 16.3367 12.2892C17.1724 11.5168 17.516 10.4375 17.516 9.22778L15.516 9.22778C15.516 10.0634 15.2876 10.5354 14.9793 10.8204C14.6515 11.1234 14.0671 11.3695 13.0537 11.4002L13.1143 13.3993ZM17.516 9.22778C17.516 8.23948 17.304 7.33397 16.7979 6.58693L15.1421 7.70863C15.364 8.03626 15.516 8.51741 15.516 9.22778L17.516 9.22778ZM16.7855 6.56903C16.225 5.77924 15.3673 5.30471 14.3619 5.05848L13.8861 7.00108C14.5794 7.17085 14.9523 7.44165 15.1545 7.72653L16.7855 6.56903ZM14.3817 5.06354C14.3446 5.05366 14.3181 5.04481 14.3005 5.03812C14.2827 5.03135 14.2772 5.02802 14.2809 5.03006C14.2846 5.03208 14.3503 5.0682 14.4177 5.16254L12.7903 6.32502C13.0843 6.73669 13.5424 6.90962 13.8663 6.99601L14.3817 5.06354ZM14.3632 5.09299C14.4207 5.15997 14.4422 5.21934 14.4485 5.24156C14.454 5.26092 14.448 5.25094 14.448 5.19778L12.448 5.19778C12.448 5.5601 12.5223 6.01845 12.8447 6.39457L14.3632 5.09299ZM14.448 5.19778L14.448 1.68778L12.448 1.68778L12.448 5.19778L14.448 5.19778ZM14.448 1.68778C14.448 1.7225 14.4418 1.77879 14.4155 1.84467C14.3887 1.91171 14.3499 1.96605 14.3111 2.00489L12.8969 0.590671C12.5931 0.894467 12.448 1.28442 12.448 1.68778L14.448 1.68778ZM14.3633 1.94857C14.3252 1.99294 14.2557 2.05434 14.1509 2.09625C14.0454 2.13846 13.949 2.14293 13.8836 2.13566L14.1044 0.147894C13.6125 0.09324 13.1593 0.279939 12.8447 0.646989L14.3633 1.94857ZM13.9803 2.14168C15.0493 2.15633 15.9511 2.4591 16.7243 3.03552L17.9197 1.43203C16.7862 0.587127 15.4693 0.161895 14.0077 0.141872L13.9803 2.14168ZM16.7268 3.03734C17.5022 3.61177 18.1272 4.41507 18.5868 5.4877L20.4251 4.69986C19.8448 3.34582 19.0137 2.24246 17.9172 1.43022L16.7268 3.03734ZM18.5821 5.47652C19.0271 6.55055 19.26 7.78684 19.26 9.20178L21.26 9.20178C21.26 7.56605 20.9902 6.06367 20.4298 4.71104L18.5821 5.47652Z" fill="white"/>
</svg>
