<svg width="22" height="200" viewBox="0 0 22 200" fill="none" xmlns="http://www.w3.org/2000/svg">
<path d="M19.532 194.632L18.6073 194.251L18.6073 194.251L19.532 194.632ZM17.634 197.31L18.2284 198.114L18.2383 198.107L18.2479 198.099L17.634 197.31ZM15.034 198.246L15.034 199.246L15.0525 199.246L15.071 199.245L15.034 198.246ZM14.67 198.09L13.9629 198.797L13.9629 198.797L14.67 198.09ZM14.618 193.904L15.4317 194.485L15.4773 194.421L15.5124 194.351L14.618 193.904ZM14.956 193.488L14.5088 192.594L14.3905 192.653L14.2916 192.741L14.956 193.488ZM16.074 192.396L16.9367 192.902L16.9367 192.902L16.074 192.396ZM16.048 188.132L15.1905 188.646L15.1905 188.646L16.048 188.132ZM13.838 187.768L14.5691 188.45L14.58 188.439L14.5906 188.427L13.838 187.768ZM13.188 189.016L12.2393 188.7L12.2393 188.7L13.188 189.016ZM12.538 191.564L11.5604 191.353L11.559 191.36L12.538 191.564ZM10.64 196.244L11.4093 196.883L11.4151 196.876L11.4209 196.869L10.64 196.244ZM4.192 196.894L3.61398 197.71L3.61398 197.71L4.192 196.894ZM2.242 194.372L1.32285 194.766L1.32285 194.766L2.242 194.372ZM2.32 186.624L3.22546 187.048L3.22546 187.048L2.32 186.624ZM4.296 184.102L4.87891 184.915L4.88896 184.907L4.89883 184.9L4.296 184.102ZM6.61 183.166L6.61 182.166L6.58728 182.166L6.56459 182.167L6.61 183.166ZM7 183.322L7.70711 182.615L7.7071 182.615L7 183.322ZM7.052 187.664L7.92024 188.16L7.93401 188.136L7.94643 188.111L7.052 187.664ZM6.714 188.002L6.96642 188.97L7.12894 188.927L7.2687 188.834L6.714 188.002ZM5.7 188.86L6.55166 189.384L6.55603 189.377L6.56029 189.37L5.7 188.86ZM5.7 192.344L6.53205 191.789L6.53205 191.789L5.7 192.344ZM7.832 192.63L8.51245 193.363L8.52602 193.35L8.53911 193.337L7.832 192.63ZM8.508 191.486L9.43648 191.857L9.44382 191.839L9.45043 191.82L8.508 191.486ZM9.106 189.198L10.0845 189.404L10.0873 189.391L10.0897 189.378L9.106 189.198ZM10.224 185.35L11.1281 185.777L11.1327 185.768L11.1371 185.758L10.224 185.35ZM11.94 183.218L12.4756 184.063L12.485 184.056L11.94 183.218ZM17.608 183.556L16.993 184.345L16.9952 184.346L17.608 183.556ZM19.584 186.338L20.5181 185.981L20.5152 185.974L19.584 186.338ZM19.26 190.394C19.26 191.946 19.0307 193.223 18.6073 194.251L20.4567 195.013C21.0039 193.684 21.26 192.135 21.26 190.394L19.26 190.394ZM18.6073 194.251C18.1695 195.315 17.6284 196.047 17.0201 196.521L18.2479 198.099C19.1996 197.359 19.9239 196.307 20.4567 195.013L18.6073 194.251ZM17.0396 196.506C16.3942 196.983 15.7197 197.22 14.997 197.247L15.071 199.245C16.2203 199.203 17.2792 198.816 18.2284 198.114L17.0396 196.506ZM15.034 197.246C15.0931 197.246 15.1629 197.258 15.2329 197.288C15.3018 197.317 15.3494 197.355 15.3771 197.383L13.9629 198.797C14.2418 199.076 14.6128 199.246 15.034 199.246L15.034 197.246ZM15.3771 197.383C15.3929 197.399 15.4238 197.435 15.4497 197.494C15.4763 197.555 15.488 197.618 15.488 197.674L13.488 197.674C13.488 198.123 13.6746 198.509 13.9629 198.797L15.3771 197.383ZM15.488 197.674L15.488 194.398L13.488 194.398L13.488 197.674L15.488 197.674ZM15.488 194.398C15.488 194.362 15.492 194.356 15.4876 194.373C15.4827 194.392 15.4682 194.434 15.4317 194.485L13.8043 193.323C13.557 193.669 13.488 194.062 13.488 194.398L15.488 194.398ZM15.5124 194.351C15.5089 194.358 15.5285 194.317 15.6204 194.235L14.2916 192.741C14.0715 192.936 13.8658 193.172 13.7236 193.457L15.5124 194.351ZM15.4032 194.382C16.0529 194.058 16.5598 193.545 16.9367 192.902L15.2113 191.89C14.9989 192.253 14.7604 192.468 14.5088 192.594L15.4032 194.382ZM16.9367 192.902C17.3517 192.194 17.516 191.332 17.516 190.394L15.516 190.394C15.516 191.12 15.3856 191.593 15.2113 191.89L16.9367 192.902ZM17.516 190.394C17.516 189.327 17.3522 188.362 16.9055 187.618L15.1905 188.646C15.3678 188.942 15.516 189.485 15.516 190.394L17.516 190.394ZM16.9055 187.618C16.4405 186.843 15.7134 186.352 14.774 186.352L14.774 188.352C14.9093 188.352 15.0315 188.381 15.1905 188.646L16.9055 187.618ZM14.774 186.352C14.1158 186.352 13.5254 186.607 13.0854 187.109L14.5906 188.427C14.6359 188.375 14.6696 188.352 14.774 188.352L14.774 186.352ZM13.1069 187.086C12.7208 187.499 12.448 188.074 12.2393 188.7L14.1367 189.332C14.3093 188.814 14.4699 188.557 14.5691 188.45L13.1069 187.086ZM12.2393 188.7C12.031 189.325 11.8052 190.217 11.5604 191.353L13.5156 191.775C13.7561 190.658 13.9637 189.851 14.1367 189.332L12.2393 188.7ZM11.559 191.36C11.1407 193.368 10.5514 194.754 9.85913 195.619L11.4209 196.869C12.3926 195.654 13.0687 193.92 13.517 191.768L11.559 191.36ZM9.87071 195.605C9.24519 196.358 8.34598 196.778 7.026 196.778L7.026 198.778C8.82602 198.778 10.3361 198.175 11.4093 196.883L9.87071 195.605ZM7.026 196.778C6.16757 196.778 5.42649 196.543 4.77002 196.078L3.61398 197.71C4.62151 198.424 5.76976 198.778 7.026 198.778L7.026 196.778ZM4.77002 196.078C4.11185 195.612 3.56871 194.929 3.16114 193.978L1.32285 194.766C1.85129 195.999 2.60815 196.998 3.61398 197.71L4.77002 196.078ZM3.16114 193.978C2.75708 193.035 2.54 191.9 2.54 190.55L0.539999 190.55C0.539999 192.112 0.790921 193.525 1.32285 194.766L3.16114 193.978ZM2.54 190.55C2.54 189.156 2.78039 187.998 3.22546 187.048L1.41454 186.2C0.819606 187.469 0.539999 188.928 0.539999 190.55L2.54 190.55ZM3.22546 187.048C3.69067 186.056 4.25097 185.365 4.87891 184.915L3.71309 183.289C2.74636 183.983 1.98933 184.973 1.41454 186.2L3.22546 187.048ZM4.89883 184.9C5.56269 184.398 6.14451 184.188 6.65541 184.165L6.56459 182.167C5.55016 182.213 4.58931 182.627 3.69317 183.304L4.89883 184.9ZM6.61 184.166C6.57528 184.166 6.51899 184.16 6.45311 184.133C6.38607 184.107 6.33174 184.068 6.2929 184.029L7.7071 182.615C7.40331 182.311 7.01336 182.166 6.61 182.166L6.61 184.166ZM6.29289 184.029C6.25405 183.99 6.21534 183.936 6.18852 183.869C6.16217 183.803 6.156 183.747 6.156 183.712L8.156 183.712C8.156 183.309 8.0109 182.919 7.70711 182.615L6.29289 184.029ZM6.156 183.712L6.156 187.144L8.156 187.144L8.156 183.712L6.156 183.712ZM6.156 187.144C6.156 187.193 6.15181 187.222 6.14942 187.234C6.14713 187.245 6.14739 187.237 6.15757 187.217L7.94643 188.111C8.10474 187.795 8.156 187.457 8.156 187.144L6.156 187.144ZM6.18376 187.168C6.19885 187.141 6.21049 187.13 6.20839 187.132C6.20593 187.135 6.19183 187.148 6.1593 187.17L7.2687 188.834C7.51177 188.672 7.7522 188.454 7.92024 188.16L6.18376 187.168ZM6.46158 187.034C5.73421 187.224 5.20685 187.731 4.83971 188.35L6.56029 189.37C6.74782 189.053 6.89646 188.988 6.96642 188.97L6.46158 187.034ZM4.84834 188.336C4.45051 188.982 4.284 189.74 4.284 190.55L6.284 190.55C6.284 190.008 6.39482 189.639 6.55166 189.384L4.84834 188.336ZM4.284 190.55C4.284 191.425 4.43561 192.25 4.86795 192.899L6.53205 191.789C6.40972 191.606 6.284 191.235 6.284 190.55L4.284 190.55ZM4.86795 192.899C5.34662 193.617 6.07998 193.968 6.922 193.968L6.922 191.968C6.68935 191.968 6.60804 191.903 6.53205 191.789L4.86795 192.899ZM6.922 193.968C7.51121 193.968 8.0658 193.778 8.51245 193.363L7.15155 191.897C7.11286 191.933 7.06079 191.968 6.922 191.968L6.922 193.968ZM8.53911 193.337C8.91923 192.957 9.20605 192.433 9.43648 191.857L7.57952 191.115C7.39395 191.579 7.23011 191.818 7.12489 191.923L8.53911 193.337ZM9.45043 191.82C9.66313 191.221 9.87321 190.408 10.0845 189.404L8.12745 188.992C7.92279 189.964 7.7342 190.676 7.56557 191.152L9.45043 191.82ZM10.0897 189.378C10.3763 187.81 10.7292 186.621 11.1281 185.777L9.31993 184.923C8.81748 185.985 8.425 187.362 8.1223 189.018L10.0897 189.378ZM11.1371 185.758C11.5114 184.919 11.9698 184.383 12.4755 184.063L11.4045 182.373C10.4889 182.954 9.80331 183.839 9.31086 184.942L11.1371 185.758ZM12.485 184.056C12.9765 183.737 13.6487 183.542 14.566 183.542L14.566 181.542C13.3687 181.542 12.2902 181.798 11.395 182.38L12.485 184.056ZM14.566 183.542C15.518 183.542 16.3124 183.814 16.993 184.345L18.223 182.767C17.1703 181.946 15.9367 181.542 14.566 181.542L14.566 183.542ZM16.9952 184.346C17.6763 184.874 18.2376 185.642 18.6528 186.702L20.5152 185.974C19.9944 184.642 19.2383 183.555 18.2208 182.766L16.9952 184.346ZM18.6499 186.695C19.049 187.739 19.26 188.966 19.26 190.394L21.26 190.394C21.26 188.771 21.0204 187.295 20.5181 185.981L18.6499 186.695ZM19.818 174.657L20.4765 175.41L20.5267 175.366L20.5706 175.316L19.818 174.657ZM5.882 174.839L5.882 173.839L4.882 173.839L4.882 174.839L5.882 174.839ZM5.7 179.935L6.3585 180.688L6.40868 180.644L6.45258 180.594L5.7 179.935ZM1.982 179.935L1.22942 180.594L1.25135 180.619L1.27489 180.643L1.982 179.935ZM5.7 165.011L6.40711 164.304L6.4071 164.304L5.7 165.011ZM5.882 170.107L4.882 170.107L4.882 171.107L5.882 171.107L5.882 170.107ZM19.818 170.289L20.5251 169.582L20.5016 169.559L20.4765 169.537L19.818 170.289ZM19 174.189C19 174.157 19.0063 174.116 19.0225 174.074C19.0383 174.033 19.0572 174.008 19.0654 173.999L20.5706 175.316C20.8405 175.008 21 174.621 21 174.189L19 174.189ZM19.1595 173.905C19.1689 173.897 19.1938 173.878 19.2346 173.862C19.2762 173.846 19.3172 173.839 19.35 173.839L19.35 175.839C19.7817 175.839 20.168 175.68 20.4765 175.41L19.1595 173.905ZM19.35 173.839L5.882 173.839L5.882 175.839L19.35 175.839L19.35 173.839ZM4.882 174.839L4.882 179.467L6.882 179.467L6.882 174.839L4.882 174.839ZM4.882 179.467C4.882 179.435 4.88829 179.394 4.90449 179.352C4.92034 179.311 4.93922 179.286 4.94742 179.277L6.45258 180.594C6.72249 180.286 6.882 179.899 6.882 179.467L4.882 179.467ZM5.0415 179.183C5.05087 179.175 5.0758 179.156 5.11655 179.14C5.15822 179.124 5.19916 179.117 5.232 179.117L5.232 181.117C5.66365 181.117 6.05003 180.958 6.3585 180.688L5.0415 179.183ZM5.232 179.117L2.45 179.117L2.45 181.117L5.232 181.117L5.232 179.117ZM2.45 179.117C2.46156 179.117 2.49997 179.12 2.55244 179.14C2.60698 179.161 2.65425 179.194 2.68911 179.228L1.27489 180.643C1.60543 180.973 2.02641 181.117 2.45 181.117L2.45 179.117ZM2.73457 179.277C2.74277 179.286 2.76165 179.311 2.7775 179.352C2.7937 179.394 2.8 179.435 2.8 179.467L0.799998 179.467C0.799998 179.899 0.959512 180.286 1.22942 180.594L2.73457 179.277ZM2.8 179.467L2.8 165.479L0.799997 165.479L0.799998 179.467L2.8 179.467ZM2.8 165.479C2.8 165.491 2.79791 165.529 2.7775 165.582C2.75629 165.636 2.72396 165.684 2.6891 165.719L1.27489 164.304C0.944355 164.635 0.799997 165.056 0.799997 165.479L2.8 165.479ZM2.6891 165.719C2.65425 165.753 2.60698 165.786 2.55244 165.807C2.49996 165.827 2.46156 165.829 2.45 165.829L2.45 163.829C2.02642 163.829 1.60543 163.974 1.27489 164.304L2.6891 165.719ZM2.45 165.829L5.232 165.829L5.232 163.829L2.45 163.829L2.45 165.829ZM5.232 165.829C5.22043 165.829 5.18203 165.827 5.12955 165.807C5.07502 165.786 5.02775 165.753 4.99289 165.719L6.4071 164.304C6.07657 163.974 5.65558 163.829 5.232 163.829L5.232 165.829ZM4.99289 165.719C4.95804 165.684 4.9257 165.636 4.90449 165.582C4.88408 165.529 4.882 165.491 4.882 165.479L6.882 165.479C6.882 165.056 6.73764 164.635 6.40711 164.304L4.99289 165.719ZM4.882 165.479L4.882 170.107L6.882 170.107L6.882 165.479L4.882 165.479ZM5.882 171.107L19.35 171.107L19.35 169.107L5.882 169.107L5.882 171.107ZM19.35 171.107C19.3172 171.107 19.2762 171.101 19.2346 171.085C19.1938 171.069 19.1689 171.05 19.1595 171.042L20.4765 169.537C20.168 169.267 19.7817 169.107 19.35 169.107L19.35 171.107ZM19.1109 170.997C19.076 170.962 19.0437 170.914 19.0225 170.86C19.0021 170.807 19 170.769 19 170.757L21 170.757C21 170.334 20.8556 169.913 20.5251 169.582L19.1109 170.997ZM19 170.757L19 174.189L21 174.189L21 170.757L19 170.757ZM19.818 161.011L20.4765 161.763L20.5267 161.719L20.5706 161.669L19.818 161.011ZM1.982 161.011L1.22942 161.669L1.25135 161.694L1.27489 161.718L1.982 161.011ZM3.36 148.167L4.13254 148.802L4.13726 148.796L4.1419 148.79L3.36 148.167ZM12.772 149.467L11.8595 149.876L12.3056 150.871L13.2585 150.34L12.772 149.467ZM19.168 145.905L18.7208 145.01L18.7009 145.02L18.6815 145.031L19.168 145.905ZM19.844 146.009L20.5511 145.301L20.5511 145.301L19.844 146.009ZM19.298 150.897L18.8919 149.983L18.8645 149.995L18.8379 150.009L19.298 150.897ZM13.578 153.861L13.1179 152.973L12.578 153.252L12.578 153.861L13.578 153.861ZM13.578 156.513L12.578 156.513L12.578 157.513L13.578 157.513L13.578 156.513ZM19.818 156.721L19.0654 157.379L19.0873 157.404L19.1109 157.428L19.818 156.721ZM9.314 151.703L10.0512 151.027L10.0437 151.019L10.036 151.011L9.314 151.703ZM6.038 151.703L6.7299 152.425L6.74526 152.41L6.75999 152.394L6.038 151.703ZM5.414 156.513L4.414 156.513L4.414 157.513L5.414 157.513L5.414 156.513ZM9.886 156.513L9.886 157.513L10.886 157.513L10.886 156.513L9.886 156.513ZM19 160.543C19 160.51 19.0063 160.469 19.0225 160.427C19.0383 160.386 19.0572 160.361 19.0654 160.352L20.5706 161.669C20.8405 161.361 21 160.974 21 160.543L19 160.543ZM19.1595 160.258C19.1689 160.25 19.1938 160.231 19.2346 160.215C19.2762 160.199 19.3172 160.193 19.35 160.193L19.35 162.193C19.7817 162.193 20.168 162.033 20.4765 161.763L19.1595 160.258ZM19.35 160.193L2.45 160.193L2.45 162.193L19.35 162.193L19.35 160.193ZM2.45 160.193C2.46156 160.193 2.49996 160.195 2.55244 160.215C2.60698 160.236 2.65425 160.269 2.68911 160.303L1.27489 161.718C1.60543 162.048 2.02641 162.193 2.45 162.193L2.45 160.193ZM2.73457 160.352C2.74277 160.361 2.76165 160.386 2.7775 160.427C2.7937 160.469 2.8 160.51 2.8 160.543L0.799997 160.543C0.799997 160.974 0.959511 161.361 1.22942 161.669L2.73457 160.352ZM2.8 160.543L2.8 153.471L0.799997 153.471L0.799997 160.543L2.8 160.543ZM2.8 153.471C2.8 151.343 3.28746 149.83 4.13254 148.802L2.58746 147.532C1.35254 149.034 0.799997 151.057 0.799997 153.471L2.8 153.471ZM4.1419 148.79C4.94461 147.783 6.09103 147.243 7.728 147.243L7.728 145.243C5.5863 145.243 3.82072 145.985 2.5781 147.543L4.1419 148.79ZM7.728 147.243C8.77984 147.243 9.60775 147.488 10.2634 147.93L11.3806 146.271C10.3376 145.569 9.10282 145.243 7.728 145.243L7.728 147.243ZM10.2634 147.93C10.946 148.39 11.4792 149.027 11.8595 149.876L13.6845 149.057C13.1635 147.895 12.3966 146.955 11.3806 146.271L10.2634 147.93ZM13.2585 150.34L19.6545 146.778L18.6815 145.031L12.2854 148.593L13.2585 150.34ZM19.6152 146.799C19.6256 146.794 19.5663 146.827 19.454 146.827L19.454 144.827C19.1684 144.827 18.9184 144.911 18.7208 145.01L19.6152 146.799ZM19.454 146.827C19.3721 146.827 19.2953 146.807 19.2326 146.778C19.1736 146.751 19.1429 146.722 19.1369 146.716L20.5511 145.301C20.2894 145.04 19.9179 144.827 19.454 144.827L19.454 146.827ZM19.1369 146.716C19.1092 146.688 19.0714 146.64 19.0419 146.571C19.0118 146.501 19 146.432 19 146.373L21 146.373C21 145.951 20.83 145.58 20.5511 145.301L19.1369 146.716ZM19 146.373L19 149.831L21 149.831L21 146.373L19 146.373ZM19 149.831C19 149.879 18.9944 149.906 18.9914 149.917C18.9886 149.927 18.9872 149.927 18.9893 149.924C18.9973 149.912 18.987 149.94 18.8919 149.983L19.7041 151.81C20.077 151.645 20.4177 151.392 20.6597 151.024C20.9025 150.655 21 150.241 21 149.831L19 149.831ZM18.8379 150.009L13.1179 152.973L14.0381 154.748L19.7581 151.784L18.8379 150.009ZM12.578 153.861L12.578 156.513L14.578 156.513L14.578 153.861L12.578 153.861ZM13.578 157.513L19.35 157.513L19.35 155.513L13.578 155.513L13.578 157.513ZM19.35 157.513C19.3218 157.513 19.2679 157.507 19.2039 157.478C19.1389 157.45 19.0926 157.41 19.0654 157.379L20.5706 156.062C20.2519 155.698 19.8176 155.513 19.35 155.513L19.35 157.513ZM19.1109 157.428C19.076 157.393 19.0437 157.346 19.0225 157.291C19.0021 157.239 19 157.2 19 157.189L21 157.189C21 156.765 20.8556 156.344 20.5251 156.013L19.1109 157.428ZM19 157.189L19 160.543L21 160.543L21 157.189L19 157.189ZM10.886 153.523C10.886 152.578 10.6603 151.691 10.0512 151.027L8.57684 152.378C8.7304 152.546 8.886 152.872 8.886 153.523L10.886 153.523ZM10.036 151.011C9.41106 150.359 8.58226 150.079 7.676 150.079L7.676 152.079C8.1564 152.079 8.4196 152.215 8.59201 152.394L10.036 151.011ZM7.676 150.079C6.76974 150.079 5.94093 150.359 5.31601 151.011L6.75999 152.394C6.9324 152.215 7.19559 152.079 7.676 152.079L7.676 150.079ZM5.34609 150.981C4.66344 151.635 4.414 152.55 4.414 153.523L6.414 153.523C6.414 152.866 6.58055 152.568 6.7299 152.425L5.34609 150.981ZM4.414 153.523L4.414 156.513L6.414 156.513L6.414 153.523L4.414 153.523ZM5.414 157.513L9.886 157.513L9.886 155.513L5.414 155.513L5.414 157.513ZM10.886 156.513L10.886 153.523L8.886 153.523L8.886 156.513L10.886 156.513ZM18.466 140.044L19.2192 140.702L19.2232 140.697L18.466 140.044ZM1.982 141.916L1.22942 142.574L1.25135 142.6L1.27489 142.623L1.982 141.916ZM1.982 137.626L2.6891 138.333L2.71265 138.31L2.73458 138.284L1.982 137.626ZM15.58 136.638L16.2527 137.378L16.2644 137.367L16.2758 137.356L15.58 136.638ZM15.554 132.036L16.2387 131.307L16.2387 131.307L15.554 132.036ZM1.982 131.048L1.22942 131.706L1.25135 131.732L1.27489 131.755L1.982 131.048ZM1.982 126.732L2.6891 127.439L2.68911 127.439L1.982 126.732ZM18.466 128.63L17.7087 129.283L17.7128 129.288L18.466 128.63ZM19.26 134.298C19.26 136.583 18.7023 138.239 17.7087 139.391L19.2232 140.697C20.6217 139.076 21.26 136.901 21.26 134.298L19.26 134.298ZM17.7128 139.386C16.7636 140.473 15.278 141.098 13.058 141.098L13.058 143.098C15.6567 143.098 17.7764 142.354 19.2192 140.702L17.7128 139.386ZM13.058 141.098L2.45 141.098L2.45 143.098L13.058 143.098L13.058 141.098ZM2.45 141.098C2.46156 141.098 2.49996 141.1 2.55244 141.12C2.60698 141.142 2.65425 141.174 2.68911 141.209L1.27489 142.623C1.60543 142.954 2.02641 143.098 2.45 143.098L2.45 141.098ZM2.73457 141.257C2.74277 141.267 2.76165 141.292 2.7775 141.333C2.7937 141.374 2.8 141.415 2.8 141.448L0.799996 141.448C0.799996 141.88 0.959511 142.266 1.22942 142.574L2.73457 141.257ZM2.8 141.448L2.8 138.094L0.799996 138.094L0.799996 141.448L2.8 141.448ZM2.8 138.094C2.8 138.106 2.79791 138.144 2.7775 138.196C2.75629 138.251 2.72396 138.298 2.6891 138.333L1.27489 136.919C0.944354 137.249 0.799996 137.67 0.799996 138.094L2.8 138.094ZM2.73458 138.284C2.70736 138.316 2.66106 138.355 2.59613 138.384C2.53209 138.412 2.47817 138.418 2.45 138.418L2.45 136.418C1.98243 136.418 1.54806 136.603 1.22942 136.967L2.73458 138.284ZM2.45 138.418L13.032 138.418L13.032 136.418L2.45 136.418L2.45 138.418ZM13.032 138.418C14.2953 138.418 15.4277 138.128 16.2527 137.378L14.9073 135.898C14.5883 136.188 14.022 136.418 13.032 136.418L13.032 138.418ZM16.2758 137.356C17.0788 136.578 17.412 135.514 17.412 134.324L15.412 134.324C15.412 135.144 15.1905 135.623 14.8842 135.92L16.2758 137.356ZM17.412 134.324C17.412 133.136 17.0613 132.08 16.2387 131.307L14.8693 132.765C15.1907 133.067 15.412 133.536 15.412 134.324L17.412 134.324ZM16.2387 131.307C15.4165 130.535 14.2903 130.23 13.032 130.23L13.032 132.23C13.9923 132.23 14.5475 132.462 14.8693 132.765L16.2387 131.307ZM13.032 130.23L2.45 130.23L2.45 132.23L13.032 132.23L13.032 130.23ZM2.45 130.23C2.46156 130.23 2.49996 130.232 2.55244 130.252C2.60698 130.274 2.65425 130.306 2.6891 130.341L1.27489 131.755C1.60543 132.086 2.02641 132.23 2.45 132.23L2.45 130.23ZM2.73457 130.389C2.74277 130.399 2.76165 130.424 2.7775 130.465C2.7937 130.506 2.8 130.547 2.8 130.58L0.799996 130.58C0.799996 131.012 0.95951 131.398 1.22942 131.706L2.73457 130.389ZM2.8 130.58L2.8 127.2L0.799996 127.2L0.799996 130.58L2.8 130.58ZM2.8 127.2C2.8 127.212 2.79791 127.25 2.7775 127.302C2.75629 127.357 2.72396 127.404 2.6891 127.439L1.27489 126.025C0.944354 126.355 0.799996 126.776 0.799996 127.2L2.8 127.2ZM2.68911 127.439C2.65425 127.474 2.60698 127.506 2.55244 127.527C2.49996 127.548 2.46156 127.55 2.45 127.55L2.45 125.55C2.02641 125.55 1.60542 125.694 1.27489 126.025L2.68911 127.439ZM2.45 127.55L13.058 127.55L13.058 125.55L2.45 125.55L2.45 127.55ZM13.058 127.55C15.2741 127.55 16.7583 128.181 17.7087 129.283L19.2232 127.977C17.7816 126.305 15.6605 125.55 13.058 125.55L13.058 127.55ZM17.7128 129.288C18.704 130.423 19.26 132.051 19.26 134.298L21.26 134.298C21.26 131.727 20.62 129.576 19.2192 127.972L17.7128 129.288ZM18.466 120.19L19.2186 120.849L19.2272 120.839L18.466 120.19ZM13.214 122.4L13.251 123.399L13.2518 123.399L13.214 122.4ZM8.586 122.4L8.54756 123.399L8.5503 123.4L8.586 122.4ZM3.386 120.138L4.14658 119.489L4.14199 119.484L3.386 120.138ZM2.32 110.258L3.23921 110.652L3.24385 110.641L2.32 110.258ZM4.504 107.398L5.09217 108.207L5.1005 108.201L5.10871 108.195L4.504 107.398ZM7.806 106.306L7.806 105.306L7.7923 105.306L7.806 106.306ZM8.222 106.488L8.99029 105.848L8.98125 105.837L8.222 106.488ZM8.222 110.882L8.98125 111.533L9.01003 111.499L9.03573 111.463L8.222 110.882ZM7.676 111.194L7.94071 112.158L7.96668 112.151L7.99222 112.143L7.676 111.194ZM5.83 112.338L6.64923 112.912L6.65574 112.902L6.66205 112.893L5.83 112.338ZM8.716 117.564L8.75301 116.565L8.74629 116.565L8.716 117.564ZM13.084 117.564L13.0537 116.565L13.0495 116.565L13.084 117.564ZM15.97 112.312L16.7979 111.751L16.7918 111.742L16.7855 111.733L15.97 112.312ZM14.124 111.194L13.8663 112.16L13.8762 112.163L13.8861 112.165L14.124 111.194ZM13.604 110.908L14.4177 110.327L14.392 110.291L14.3633 110.257L13.604 110.908ZM13.604 106.462L14.3111 107.169L14.3383 107.142L14.3633 107.113L13.604 106.462ZM13.994 106.306L13.8836 107.3L13.9318 107.305L13.9803 107.306L13.994 106.306ZM17.322 107.398L16.7243 108.2L16.7268 108.202L17.322 107.398ZM19.506 110.258L20.4299 109.875L20.4251 109.864L19.506 110.258ZM19.26 114.366C19.26 116.689 18.7006 118.373 17.7048 119.542L19.2272 120.839C20.6234 119.2 21.26 117 21.26 114.366L19.26 114.366ZM17.7134 119.532C16.7234 120.663 15.2604 121.322 13.1761 121.401L13.2518 123.399C15.7436 123.305 17.7819 122.491 19.2186 120.849L17.7134 119.532ZM13.177 121.401C12.729 121.417 11.9824 121.426 10.926 121.426L10.926 123.426C11.9843 123.426 12.763 123.418 13.251 123.399L13.177 121.401ZM10.926 121.426C9.85255 121.426 9.08784 121.417 8.62169 121.401L8.5503 123.4C9.05482 123.418 9.85011 123.426 10.926 123.426L10.926 121.426ZM8.62443 121.401C6.5877 121.323 5.14168 120.655 4.14656 119.489L2.62543 120.787C4.05698 122.464 6.07763 123.304 8.54756 123.399L8.62443 121.401ZM4.14199 119.484C3.10993 118.292 2.54 116.624 2.54 114.366L0.539995 114.366C0.539995 116.962 1.20073 119.142 2.63 120.793L4.14199 119.484ZM2.54 114.366C2.54 112.955 2.78014 111.723 3.23914 110.652L1.40085 109.864C0.819851 111.22 0.539995 112.726 0.539995 114.366L2.54 114.366ZM3.24385 110.641C3.68428 109.578 4.30441 108.78 5.09217 108.207L3.91582 106.589C2.79691 107.403 1.96104 108.512 1.39614 109.875L3.24385 110.641ZM5.10871 108.195C5.86116 107.623 6.75066 107.321 7.81969 107.306L7.7923 105.306C6.33067 105.326 5.01883 105.752 3.89929 106.602L5.10871 108.195ZM7.806 107.306L7.858 107.306L7.858 105.306L7.806 105.306L7.806 107.306ZM7.858 107.306C7.77565 107.306 7.68713 107.287 7.60578 107.246C7.52798 107.207 7.48227 107.162 7.46274 107.139L8.98125 105.837C8.71947 105.532 8.33468 105.306 7.858 105.306L7.858 107.306ZM7.45378 107.128C7.42572 107.095 7.3976 107.049 7.37775 106.993C7.35803 106.938 7.352 106.889 7.352 106.852L9.352 106.852C9.352 106.486 9.23057 106.136 8.99022 105.848L7.45378 107.128ZM7.352 106.852L7.352 110.362L9.352 110.362L9.352 106.852L7.352 106.852ZM7.352 110.362C7.352 110.413 7.34682 110.429 7.34935 110.419C7.35223 110.407 7.36578 110.36 7.40826 110.301L9.03573 111.463C9.29113 111.106 9.352 110.695 9.352 110.362L7.352 110.362ZM7.46274 110.231C7.50451 110.183 7.53212 110.171 7.51136 110.183C7.49186 110.194 7.44518 110.217 7.35977 110.245L7.99222 112.143C8.31612 112.035 8.70241 111.858 8.98125 111.533L7.46274 110.231ZM7.41128 110.23C6.40092 110.507 5.52862 110.987 4.99795 111.783L6.66205 112.893C6.8247 112.649 7.18308 112.366 7.94071 112.158L7.41128 110.23ZM5.01076 111.765C4.49524 112.501 4.284 113.406 4.284 114.392L6.284 114.392C6.284 113.68 6.43675 113.215 6.64923 112.912L5.01076 111.765ZM4.284 114.392C4.284 115.602 4.62757 116.681 5.46325 117.454C6.27945 118.208 7.41113 118.525 8.68571 118.564L8.74629 116.565C7.73286 116.534 7.14854 116.288 6.82074 115.985C6.51242 115.7 6.284 115.228 6.284 114.392L4.284 114.392ZM8.67898 118.563C9.16643 118.582 9.90111 118.59 10.874 118.59L10.874 116.59C9.90555 116.59 9.20157 116.581 8.75301 116.565L8.67898 118.563ZM10.874 118.59C11.8477 118.59 12.5982 118.581 13.1185 118.564L13.0495 116.565C12.5645 116.581 11.8416 116.59 10.874 116.59L10.874 118.59ZM13.1143 118.564C14.3889 118.525 15.5205 118.208 16.3367 117.454C17.1724 116.681 17.516 115.602 17.516 114.392L15.516 114.392C15.516 115.228 15.2876 115.7 14.9793 115.985C14.6515 116.288 14.0671 116.534 13.0537 116.565L13.1143 118.564ZM17.516 114.392C17.516 113.404 17.304 112.498 16.7979 111.751L15.1421 112.873C15.364 113.201 15.516 113.682 15.516 114.392L17.516 114.392ZM16.7855 111.733C16.225 110.944 15.3673 110.469 14.3619 110.223L13.8861 112.165C14.5794 112.335 14.9523 112.606 15.1545 112.891L16.7855 111.733ZM14.3817 110.228C14.3446 110.218 14.3181 110.209 14.3005 110.202C14.2827 110.196 14.2772 110.192 14.2809 110.194C14.2846 110.196 14.3503 110.233 14.4177 110.327L12.7903 111.489C13.0843 111.901 13.5424 112.074 13.8663 112.16L14.3817 110.228ZM14.3633 110.257C14.4207 110.324 14.4422 110.384 14.4485 110.406C14.4541 110.425 14.448 110.415 14.448 110.362L12.448 110.362C12.448 110.724 12.5224 111.183 12.8447 111.559L14.3633 110.257ZM14.448 110.362L14.448 106.852L12.448 106.852L12.448 110.362L14.448 110.362ZM14.448 106.852C14.448 106.887 14.4418 106.943 14.4155 107.009C14.3887 107.076 14.3499 107.13 14.3111 107.169L12.8969 105.755C12.5931 106.059 12.448 106.449 12.448 106.852L14.448 106.852ZM14.3633 107.113C14.3252 107.157 14.2557 107.219 14.1509 107.261C14.0454 107.303 13.949 107.307 13.8836 107.3L14.1044 105.312C13.6125 105.258 13.1594 105.444 12.8447 105.811L14.3633 107.113ZM13.9803 107.306C15.0493 107.321 15.9511 107.623 16.7243 108.2L17.9197 106.596C16.7863 105.751 15.4693 105.326 14.0077 105.306L13.9803 107.306ZM16.7268 108.202C17.5022 108.776 18.1272 109.579 18.5869 110.652L20.4251 109.864C19.8448 108.51 19.0137 107.407 17.9172 106.595L16.7268 108.202ZM18.5821 110.641C19.0271 111.715 19.26 112.951 19.26 114.366L21.26 114.366C21.26 112.73 20.9902 111.228 20.4299 109.875L18.5821 110.641ZM19.818 98.1123L20.4765 98.8649L20.5267 98.821L20.5706 98.7708L19.818 98.1123ZM5.88199 98.2943L5.88199 97.2943L4.88199 97.2943L4.88199 98.2943L5.88199 98.2943ZM5.7 103.39L6.3585 104.143L6.40867 104.099L6.45257 104.049L5.7 103.39ZM1.982 103.39L1.22942 104.049L1.25134 104.074L1.27489 104.097L1.982 103.39ZM5.69999 88.4663L6.4071 87.7592L6.4071 87.7592L5.69999 88.4663ZM5.88199 93.5623L4.88199 93.5623L4.88199 94.5623L5.88199 94.5623L5.88199 93.5623ZM19.818 93.7443L20.5251 93.0372L20.5016 93.0136L20.4765 92.9917L19.818 93.7443ZM19 97.6443C19 97.6114 19.0063 97.5705 19.0225 97.5288C19.0383 97.4881 19.0572 97.4631 19.0654 97.4538L20.5706 98.7708C20.8405 98.4623 21 98.0759 21 97.6443L19 97.6443ZM19.1595 97.3597C19.1689 97.3515 19.1938 97.3326 19.2345 97.3168C19.2762 97.3006 19.3172 97.2943 19.35 97.2943L19.35 99.2943C19.7816 99.2943 20.168 99.1348 20.4765 98.8649L19.1595 97.3597ZM19.35 97.2943L5.88199 97.2943L5.88199 99.2943L19.35 99.2943L19.35 97.2943ZM4.88199 98.2943L4.88199 102.922L6.88199 102.922L6.88199 98.2943L4.88199 98.2943ZM4.88199 102.922C4.88199 102.889 4.88829 102.848 4.90449 102.807C4.92034 102.766 4.93922 102.741 4.94742 102.732L6.45257 104.049C6.72248 103.74 6.88199 103.354 6.88199 102.922L4.88199 102.922ZM5.04149 102.638C5.05086 102.63 5.0758 102.611 5.11655 102.595C5.15821 102.579 5.19916 102.572 5.232 102.572L5.232 104.572C5.66365 104.572 6.05003 104.413 6.3585 104.143L5.04149 102.638ZM5.232 102.572L2.45 102.572L2.45 104.572L5.232 104.572L5.232 102.572ZM2.45 102.572C2.46156 102.572 2.49996 102.574 2.55244 102.595C2.60697 102.616 2.65425 102.648 2.6891 102.683L1.27489 104.097C1.60542 104.428 2.02641 104.572 2.45 104.572L2.45 102.572ZM2.73457 102.732C2.74277 102.741 2.76165 102.766 2.7775 102.807C2.7937 102.848 2.79999 102.889 2.79999 102.922L0.799995 102.922C0.799995 103.354 0.959509 103.74 1.22942 104.049L2.73457 102.732ZM2.79999 102.922L2.79999 88.9343L0.799994 88.9343L0.799995 102.922L2.79999 102.922ZM2.79999 88.9343C2.79999 88.9458 2.79791 88.9842 2.7775 89.0367C2.75629 89.0913 2.72395 89.1385 2.6891 89.1734L1.27489 87.7592C0.944352 88.0897 0.799994 88.5107 0.799994 88.9343L2.79999 88.9343ZM2.6891 89.1734C2.65425 89.2082 2.60697 89.2406 2.55244 89.2618C2.49996 89.2822 2.46156 89.2843 2.44999 89.2843L2.44999 87.2843C2.02641 87.2843 1.60543 87.4286 1.27489 87.7592L2.6891 89.1734ZM2.44999 89.2843L5.23199 89.2843L5.23199 87.2843L2.44999 87.2843L2.44999 89.2843ZM5.23199 89.2843C5.22043 89.2843 5.18203 89.2822 5.12955 89.2618C5.07502 89.2406 5.02774 89.2082 4.99289 89.1734L6.4071 87.7592C6.07656 87.4286 5.65558 87.2843 5.23199 87.2843L5.23199 89.2843ZM4.99289 89.1734C4.95803 89.1385 4.9257 89.0913 4.90449 89.0367C4.88408 88.9842 4.88199 88.9458 4.88199 88.9343L6.88199 88.9343C6.88199 88.5107 6.73764 88.0897 6.4071 87.7592L4.99289 89.1734ZM4.88199 88.9343L4.88199 93.5623L6.88199 93.5623L6.88199 88.9343L4.88199 88.9343ZM5.88199 94.5623L19.35 94.5623L19.35 92.5623L5.88199 92.5623L5.88199 94.5623ZM19.35 94.5623C19.3172 94.5623 19.2762 94.556 19.2345 94.5398C19.1938 94.5239 19.1689 94.5051 19.1595 94.4969L20.4765 92.9917C20.168 92.7218 19.7816 92.5623 19.35 92.5623L19.35 94.5623ZM19.1109 94.4514C19.076 94.4165 19.0437 94.3693 19.0225 94.3147C19.0021 94.2622 19 94.2238 19 94.2123L21 94.2123C21 93.7887 20.8556 93.3677 20.5251 93.0372L19.1109 94.4514ZM19 94.2123L19 97.6443L21 97.6443L21 94.2123L19 94.2123ZM18.466 83.2626L17.7048 82.6142L17.7048 82.6142L18.466 83.2626ZM13.188 85.4986L13.2225 86.498L13.2253 86.4979L13.188 85.4986ZM8.68999 85.4986L8.65214 86.4979L8.65553 86.498L8.68999 85.4986ZM3.41199 83.2366L4.16799 82.582L4.16738 82.5814L3.41199 83.2366ZM3.41199 71.7446L4.1674 72.3999L4.1719 72.3947L3.41199 71.7446ZM8.68999 69.4826L8.72028 70.4822L8.72446 70.482L8.68999 69.4826ZM13.188 69.4826L13.2253 68.4833L13.2225 68.4832L13.188 69.4826ZM18.466 71.7186L17.7048 72.3671L17.7048 72.3671L18.466 71.7186ZM15.658 75.2286L14.9509 75.9357L14.9563 75.9412L14.9618 75.9465L15.658 75.2286ZM13.032 74.3186L12.9975 75.318L13.0026 75.3182L13.032 74.3186ZM8.76799 74.3186L8.79739 75.3182L8.80369 75.318L8.76799 74.3186ZM6.14199 75.2286L5.43489 74.5215L5.43489 74.5215L6.14199 75.2286ZM6.14199 79.7526L5.43489 80.4597L5.44033 80.4652L5.44585 80.4705L6.14199 79.7526ZM8.76799 80.6626L8.72392 81.6617L8.7323 81.662L8.76799 80.6626ZM13.032 80.6626L13.0665 81.6621L13.0761 81.6617L13.032 80.6626ZM15.658 79.7526L14.9618 79.0347L14.9618 79.0347L15.658 79.7526ZM19.26 77.4906C19.26 79.7751 18.7026 81.4428 17.7048 82.6142L19.2272 83.9111C20.6214 82.2745 21.26 80.0941 21.26 77.4906L19.26 77.4906ZM17.7048 82.6142C16.7353 83.7522 15.2713 84.4202 13.1507 84.4993L13.2253 86.4979C15.75 86.4037 17.8047 85.581 19.2272 83.9111L17.7048 82.6142ZM13.1535 84.4992C12.6686 84.5159 11.9372 84.5246 10.952 84.5246L10.952 86.5246C11.9428 86.5246 12.702 86.516 13.2225 86.498L13.1535 84.4992ZM10.952 84.5246C9.94922 84.5246 9.20926 84.5159 8.72446 84.4992L8.65553 86.498C9.17606 86.516 9.9441 86.5246 10.952 86.5246L10.952 84.5246ZM8.72785 84.4993C6.6517 84.4207 5.17879 83.7495 4.16799 82.582L2.656 83.8912C4.10653 85.5665 6.15229 86.4032 8.65214 86.4979L8.72785 84.4993ZM4.16738 82.5814C3.11436 81.3675 2.53999 79.7055 2.53999 77.4906L0.539994 77.4906C0.539994 80.0597 1.21362 82.2285 2.65661 83.8919L4.16738 82.5814ZM2.53999 77.4906C2.53999 75.2757 3.11436 73.6138 4.16738 72.3999L2.65661 71.0893C1.21362 72.7528 0.539994 74.9215 0.539994 77.4906L2.53999 77.4906ZM4.1719 72.3947C5.18168 71.2142 6.65003 70.5449 8.72028 70.4822L8.6597 68.4831C6.15396 68.559 4.10364 69.3977 2.65209 71.0946L4.1719 72.3947ZM8.72446 70.482C9.72725 70.4475 10.4672 70.4306 10.952 70.4306L10.952 68.4306C10.4314 68.4306 9.66341 68.4485 8.65553 68.4832L8.72446 70.482ZM10.952 70.4306C11.4192 70.4306 12.1503 70.4474 13.1535 70.482L13.2225 68.4832C12.2151 68.4485 11.4554 68.4306 10.952 68.4306L10.952 70.4306ZM13.1507 70.4819C15.2713 70.5611 16.7353 71.229 17.7048 72.3671L19.2272 71.0702C17.8047 69.4002 15.75 68.5775 13.2253 68.4833L13.1507 70.4819ZM17.7048 72.3671C18.7026 73.5385 19.26 75.2061 19.26 77.4906L21.26 77.4906C21.26 74.8871 20.6214 72.7068 19.2272 71.0702L17.7048 72.3671ZM17.516 77.4906C17.516 76.324 17.1579 75.2902 16.3541 74.5107L14.9618 75.9465C15.302 76.2764 15.516 76.7506 15.516 77.4906L17.516 77.4906ZM16.3651 74.5215C15.5449 73.7013 14.3794 73.3578 13.0614 73.3191L13.0026 75.3182C14.0419 75.3488 14.6271 75.6119 14.9509 75.9357L16.3651 74.5215ZM13.0665 73.3192C12.0611 73.2846 11.335 73.2666 10.9 73.2666L10.9 75.2666C11.2969 75.2666 11.9922 75.2834 12.9975 75.318L13.0665 73.3192ZM10.9 73.2666C10.4303 73.2666 9.70456 73.2845 8.7323 73.3193L8.80369 75.318C9.77276 75.2834 10.4683 75.2666 10.9 75.2666L10.9 73.2666ZM8.7386 73.3191C7.42059 73.3578 6.25509 73.7013 5.43489 74.5215L6.8491 75.9357C7.1729 75.6119 7.75807 75.3488 8.79739 75.3182L8.7386 73.3191ZM5.43489 74.5215C4.6457 75.3107 4.28399 76.3345 4.28399 77.4906L6.28399 77.4906C6.28399 76.7747 6.49428 76.2905 6.8491 75.9357L5.43489 74.5215ZM4.28399 77.4906C4.28399 78.6467 4.6457 79.6705 5.43489 80.4597L6.8491 79.0455C6.49428 78.6907 6.28399 78.2065 6.28399 77.4906L4.28399 77.4906ZM5.44585 80.4705C6.26138 81.2613 7.41553 81.6039 8.72392 81.6617L8.81207 79.6636C7.76312 79.6173 7.16661 79.3532 6.83814 79.0347L5.44585 80.4705ZM8.7323 81.662C9.23587 81.68 9.96083 81.6886 10.9 81.6886L10.9 79.6886C9.96716 79.6886 9.27078 79.6799 8.80369 79.6633L8.7323 81.662ZM10.9 81.6886C11.8224 81.6886 12.5466 81.68 13.0665 81.662L12.9975 79.6632C12.5121 79.68 11.8149 79.6886 10.9 79.6886L10.9 81.6886ZM13.0761 81.6617C14.3845 81.6039 15.5386 81.2613 16.3541 80.4705L14.9618 79.0347C14.6334 79.3532 14.0369 79.6173 12.9879 79.6636L13.0761 81.6617ZM16.3541 80.4705C17.1579 79.6911 17.516 78.6573 17.516 77.4906L15.516 77.4906C15.516 78.2306 15.302 78.7048 14.9618 79.0347L16.3541 80.4705ZM19.818 64.9609L20.4765 65.7134L20.5267 65.6695L20.5706 65.6194L19.818 64.9609ZM1.98199 64.9609L1.22942 65.6194L1.25134 65.6444L1.27489 65.668L1.98199 64.9609ZM2.29399 60.8529L2.72208 61.7566L2.77804 61.7301L2.8303 61.6969L2.29399 60.8529ZM12.278 54.5089L12.8143 55.3529L15.7164 53.5089L12.278 53.5089L12.278 54.5089ZM1.98199 54.3269L1.22942 54.9854L1.25134 55.0104L1.27488 55.034L1.98199 54.3269ZM1.98199 50.2709L2.6891 50.978L2.6891 50.978L1.98199 50.2709ZM19.818 50.2709L20.5251 49.5638L20.5016 49.5402L20.4765 49.5183L19.818 50.2709ZM19.506 54.3789L19.005 53.5134L18.9798 53.528L18.9555 53.544L19.506 54.3789ZM9.88599 60.7229L9.33547 59.888L6.55316 61.7229L9.88599 61.7229L9.88599 60.7229ZM19.818 60.9049L20.5251 60.1978L20.5016 60.1742L20.4765 60.1523L19.818 60.9049ZM19 64.4929C19 64.46 19.0063 64.4191 19.0225 64.3774C19.0383 64.3367 19.0572 64.3117 19.0654 64.3024L20.5706 65.6194C20.8405 65.3109 21 64.9245 21 64.4929L19 64.4929ZM19.1595 64.2083C19.1689 64.2001 19.1938 64.1812 19.2345 64.1654C19.2762 64.1492 19.3172 64.1429 19.35 64.1429L19.35 66.1429C19.7816 66.1429 20.168 65.9833 20.4765 65.7134L19.1595 64.2083ZM19.35 64.1429L2.44999 64.1429L2.44999 66.1429L19.35 66.1429L19.35 64.1429ZM2.44999 64.1429C2.46156 64.1429 2.49996 64.1449 2.55244 64.1654C2.60697 64.1866 2.65425 64.2189 2.6891 64.2538L1.27489 65.668C1.60542 65.9985 2.02641 66.1429 2.44999 66.1429L2.44999 64.1429ZM2.73457 64.3024C2.74277 64.3117 2.76165 64.3367 2.7775 64.3774C2.7937 64.4191 2.79999 64.46 2.79999 64.4929L0.799993 64.4929C0.799993 64.9245 0.959507 65.3109 1.22942 65.6194L2.73457 64.3024ZM2.79999 64.4929L2.79999 61.7369L0.799993 61.7369L0.799993 64.4929L2.79999 64.4929ZM2.79999 61.7369C2.79999 61.6437 2.81781 61.6404 2.79644 61.6787C2.7857 61.6979 2.77023 61.7178 2.75183 61.7346C2.73398 61.7509 2.72142 61.7569 2.72208 61.7566L1.86591 59.9491C1.52909 60.1087 1.24251 60.3595 1.05055 60.703C0.864513 61.0359 0.799993 61.3967 0.799993 61.7369L2.79999 61.7369ZM2.8303 61.6969L12.8143 55.3529L11.7417 53.6648L1.75769 60.0088L2.8303 61.6969ZM12.278 53.5089L2.44999 53.5089L2.44999 55.5089L12.278 55.5089L12.278 53.5089ZM2.44999 53.5089C2.46156 53.5089 2.49996 53.5109 2.55244 53.5314C2.60697 53.5526 2.65425 53.5849 2.6891 53.6198L1.27488 55.034C1.60542 55.3645 2.02641 55.5089 2.44999 55.5089L2.44999 53.5089ZM2.73457 53.6684C2.74277 53.6777 2.76165 53.7027 2.7775 53.7434C2.7937 53.7851 2.79999 53.826 2.79999 53.8589L0.799992 53.8589C0.799992 54.2905 0.959507 54.6769 1.22942 54.9854L2.73457 53.6684ZM2.79999 53.8589L2.79999 50.7389L0.799992 50.7389L0.799992 53.8589L2.79999 53.8589ZM2.79999 50.7389C2.79999 50.7504 2.79791 50.7888 2.7775 50.8413C2.75629 50.8958 2.72395 50.9431 2.6891 50.978L1.27489 49.5637C0.944349 49.8943 0.799992 50.3153 0.799992 50.7389L2.79999 50.7389ZM2.6891 50.978C2.65425 51.0128 2.60697 51.0452 2.55244 51.0664C2.49996 51.0868 2.46156 51.0889 2.44999 51.0889L2.44999 49.0889C2.02641 49.0889 1.60542 49.2332 1.27488 49.5638L2.6891 50.978ZM2.44999 51.0889L19.324 51.0889L19.324 49.0889L2.44999 49.0889L2.44999 51.0889ZM19.324 51.0889C19.3116 51.0889 19.2824 51.0865 19.2448 51.0727C19.2067 51.0587 19.1775 51.0392 19.1595 51.0234L20.4765 49.5183C20.1487 49.2315 19.7477 49.0889 19.324 49.0889L19.324 51.0889ZM19.1109 50.978C19.076 50.9431 19.0437 50.8958 19.0225 50.8413C19.0021 50.7888 19 50.7504 19 50.7389L21 50.7389C21 50.3153 20.8556 49.8943 20.5251 49.5638L19.1109 50.978ZM19 50.7389L19 53.5209L21 53.5209L21 50.7389L19 50.7389ZM19 53.5209C19 53.5442 18.9975 53.5524 18.9982 53.5494C18.9986 53.548 18.9996 53.5445 19.0016 53.5394C19.0036 53.5342 19.0064 53.5284 19.0099 53.5224C19.0134 53.5163 19.017 53.511 19.0205 53.5066C19.0239 53.5022 19.0266 53.4995 19.0277 53.4984C19.0302 53.496 19.0247 53.502 19.005 53.5134L20.007 55.2443C20.646 54.8744 21 54.2581 21 53.5209L19 53.5209ZM18.9555 53.544L9.33547 59.888L10.4365 61.5577L20.0565 55.2137L18.9555 53.544ZM9.88599 61.7229L19.35 61.7229L19.35 59.7229L9.88599 59.7229L9.88599 61.7229ZM19.35 61.7229C19.3172 61.7229 19.2762 61.7166 19.2345 61.7004C19.1938 61.6845 19.1689 61.6656 19.1595 61.6574L20.4765 60.1523C20.168 59.8824 19.7816 59.7229 19.35 59.7229L19.35 61.7229ZM19.1109 61.612C19.076 61.5771 19.0437 61.5298 19.0225 61.4753C19.0021 61.4228 19 61.3844 19 61.3729L21 61.3729C21 60.9493 20.8556 60.5283 20.5251 60.1978L19.1109 61.612ZM19 61.3729L19 64.4929L21 64.4929L21 61.3729L19 61.3729ZM19.818 44.9994L20.4765 45.7519L20.5267 45.708L20.5706 45.6579L19.818 44.9994ZM1.98199 44.9994L1.22942 45.6579L1.25134 45.6829L1.27488 45.7065L1.98199 44.9994ZM1.98199 40.5794L2.6891 41.2865L2.71264 41.2629L2.73457 41.2379L1.98199 40.5794ZM19.818 40.5794L19.0654 41.2379L19.0873 41.2629L19.1109 41.2865L19.818 40.5794ZM19 44.5314C19 44.4985 19.0063 44.4576 19.0225 44.4159C19.0383 44.3752 19.0572 44.3502 19.0654 44.3409L20.5706 45.6579C20.8405 45.3494 21 44.963 21 44.5314L19 44.5314ZM19.1595 44.2468C19.1689 44.2386 19.1938 44.2197 19.2345 44.2039C19.2762 44.1877 19.3172 44.1814 19.35 44.1814L19.35 46.1814C19.7816 46.1814 20.168 46.0218 20.4765 45.7519L19.1595 44.2468ZM19.35 44.1814L2.44999 44.1814L2.44999 46.1814L19.35 46.1814L19.35 44.1814ZM2.44999 44.1814C2.46156 44.1814 2.49996 44.1834 2.55244 44.2039C2.60697 44.2251 2.65425 44.2574 2.6891 44.2923L1.27488 45.7065C1.60542 46.037 2.02641 46.1814 2.44999 46.1814L2.44999 44.1814ZM2.73457 44.3409C2.74277 44.3502 2.76165 44.3752 2.7775 44.4159C2.7937 44.4576 2.79999 44.4985 2.79999 44.5314L0.799992 44.5314C0.799992 44.963 0.959506 45.3494 1.22942 45.6579L2.73457 44.3409ZM2.79999 44.5314L2.79999 41.0474L0.799992 41.0474L0.799992 44.5314L2.79999 44.5314ZM2.79999 41.0474C2.79999 41.0589 2.7979 41.0973 2.7775 41.1498C2.75629 41.2043 2.72395 41.2516 2.6891 41.2865L1.27489 39.8722C0.94435 40.2028 0.799992 40.6238 0.799992 41.0474L2.79999 41.0474ZM2.73457 41.2379C2.70736 41.269 2.66106 41.3083 2.59613 41.3372C2.53208 41.3656 2.47817 41.3714 2.44999 41.3714L2.44999 39.3714C1.98242 39.3714 1.54805 39.5567 1.22941 39.9209L2.73457 41.2379ZM2.44999 41.3714L19.35 41.3714L19.35 39.3714L2.44999 39.3714L2.44999 41.3714ZM19.35 41.3714C19.3218 41.3714 19.2679 41.3656 19.2039 41.3372C19.1389 41.3083 19.0926 41.269 19.0654 41.2379L20.5706 39.9209C20.2519 39.5567 19.8176 39.3714 19.35 39.3714L19.35 41.3714ZM19.1109 41.2865C19.076 41.2516 19.0437 41.2043 19.0225 41.1498C19.0021 41.0973 19 41.0589 19 41.0474L21 41.0474C21 40.6238 20.8556 40.2028 20.5251 39.8722L19.1109 41.2865ZM19 41.0474L19 44.5314L21 44.5314L21 41.0474L19 41.0474ZM18.466 33.8397L19.2186 34.4982L19.2272 34.4881L18.466 33.8397ZM13.214 36.0497L13.251 37.049L13.2518 37.049L13.214 36.0497ZM8.58599 36.0497L8.54756 37.0489L8.5503 37.049L8.58599 36.0497ZM3.38599 33.7877L4.14657 33.1384L4.14198 33.1331L3.38599 33.7877ZM2.31999 23.9077L3.2392 24.3016L3.24385 24.2904L2.31999 23.9077ZM4.50399 21.0477L5.09216 21.8564L5.1005 21.8503L5.1087 21.8441L4.50399 21.0477ZM7.80599 19.9557L7.80599 18.9556L7.79229 18.9558L7.80599 19.9557ZM8.22199 20.1377L8.99029 19.4974L8.98125 19.4869L8.22199 20.1377ZM8.22199 24.5317L8.98125 25.1825L9.01002 25.1489L9.03573 25.1129L8.22199 24.5317ZM7.67599 24.8437L7.94071 25.808L7.96667 25.8009L7.99222 25.7924L7.67599 24.8437ZM5.82999 25.9877L6.64922 26.5611L6.65574 26.5518L6.66204 26.5424L5.82999 25.9877ZM8.71599 31.2137L8.753 30.2143L8.74628 30.2141L8.71599 31.2137ZM13.084 31.2137L13.0537 30.2141L13.0495 30.2143L13.084 31.2137ZM15.97 25.9617L16.7979 25.4008L16.7918 25.3918L16.7855 25.3829L15.97 25.9617ZM14.124 24.8437L13.8663 25.8099L13.8762 25.8125L13.8861 25.815L14.124 24.8437ZM13.604 24.5577L14.4177 23.9764L14.392 23.9404L14.3632 23.9069L13.604 24.5577ZM13.604 20.1117L14.3111 20.8188L14.3383 20.7916L14.3633 20.7625L13.604 20.1117ZM13.994 19.9557L13.8836 20.9496L13.9318 20.9549L13.9803 20.9556L13.994 19.9557ZM17.322 21.0477L16.7243 21.8494L16.7268 21.8512L17.322 21.0477ZM19.506 23.9077L20.4299 23.5249L20.4251 23.5137L19.506 23.9077ZM19.26 28.0157C19.26 30.3389 18.7006 32.0222 17.7047 33.1912L19.2272 34.4881C20.6234 32.8491 21.26 30.6497 21.26 28.0157L19.26 28.0157ZM17.7134 33.1812C16.7234 34.3126 15.2604 34.9714 13.1761 35.0504L13.2518 37.049C15.7436 36.9546 17.7819 36.1401 19.2186 34.4982L17.7134 33.1812ZM13.177 35.0504C12.729 35.0669 11.9824 35.0757 10.926 35.0757L10.926 37.0757C11.9843 37.0757 12.763 37.0671 13.251 37.049L13.177 35.0504ZM10.926 35.0757C9.85254 35.0757 9.08784 35.067 8.62168 35.0503L8.5503 37.049C9.05481 37.067 9.85011 37.0757 10.926 37.0757L10.926 35.0757ZM8.62443 35.0504C6.5877 34.9721 5.14167 34.3041 4.14656 33.1384L2.62543 34.4369C4.05698 36.1139 6.07762 36.9539 8.54756 37.0489L8.62443 35.0504ZM4.14198 33.1331C3.10992 31.9411 2.53999 30.2734 2.53999 28.0157L0.539992 28.0157C0.539992 30.6113 1.20073 32.7915 2.63 34.4422L4.14198 33.1331ZM2.53999 28.0157C2.53999 26.6049 2.78014 25.3726 3.23914 24.3016L1.40085 23.5137C0.819847 24.8694 0.539991 26.3758 0.539992 28.0157L2.53999 28.0157ZM3.24385 24.2904C3.68428 23.2273 4.30441 22.4293 5.09216 21.8564L3.91582 20.2389C2.79691 21.0527 1.96104 22.1614 1.39614 23.5249L3.24385 24.2904ZM5.1087 21.8441C5.86115 21.2728 6.75065 20.9702 7.81969 20.9556L7.79229 18.9558C6.33066 18.9758 5.01883 19.4012 3.89928 20.2512L5.1087 21.8441ZM7.80599 20.9557L7.85799 20.9557L7.85799 18.9557L7.80599 18.9557L7.80599 20.9557ZM7.85799 20.9557C7.77565 20.9557 7.68712 20.9363 7.60578 20.8956C7.52797 20.8567 7.48227 20.8112 7.46273 20.7885L8.98125 19.4869C8.71946 19.1815 8.33467 18.9557 7.85799 18.9557L7.85799 20.9557ZM7.45377 20.7779C7.42572 20.7442 7.39759 20.6986 7.37775 20.643C7.35802 20.5878 7.35199 20.5382 7.35199 20.5017L9.35199 20.5017C9.35199 20.1353 9.23056 19.7859 8.99021 19.4975L7.45377 20.7779ZM7.35199 20.5017L7.35199 24.0117L9.35199 24.0117L9.35199 20.5017L7.35199 20.5017ZM7.35199 24.0117C7.35199 24.0628 7.34682 24.0782 7.34935 24.0681C7.35222 24.0566 7.36577 24.0099 7.40826 23.9504L9.03573 25.1129C9.29113 24.7553 9.35199 24.345 9.35199 24.0117L7.35199 24.0117ZM7.46274 23.8809C7.50451 23.8321 7.53212 23.8206 7.51135 23.8324C7.49185 23.8436 7.44518 23.8665 7.35976 23.895L7.99222 25.7924C8.31612 25.6844 8.70241 25.5078 8.98125 25.1825L7.46274 23.8809ZM7.41127 23.8793C6.40091 24.1567 5.52862 24.637 4.99794 25.433L6.66204 26.5424C6.8247 26.2984 7.18307 26.016 7.94071 25.808L7.41127 23.8793ZM5.01076 25.4142C4.49524 26.1507 4.28399 27.0554 4.28399 28.0417L6.28399 28.0417C6.28399 27.3293 6.43675 26.8647 6.64922 26.5611L5.01076 25.4142ZM4.28399 28.0417C4.28399 29.2514 4.62756 30.3307 5.46325 31.103C6.27945 31.8574 7.41113 32.1746 8.6857 32.2132L8.74628 30.2141C7.73286 30.1834 7.14853 29.9373 6.82073 29.6343C6.51242 29.3493 6.28399 28.8773 6.28399 28.0417L4.28399 28.0417ZM8.67898 32.213C9.16642 32.231 9.90111 32.2397 10.874 32.2397L10.874 30.2397C9.90554 30.2397 9.20156 30.231 8.753 30.2144L8.67898 32.213ZM10.874 32.2397C11.8477 32.2397 12.5982 32.231 13.1185 32.2131L13.0495 30.2143C12.5645 30.231 11.8416 30.2397 10.874 30.2397L10.874 32.2397ZM13.1143 32.2132C14.3889 32.1746 15.5205 31.8574 16.3367 31.103C17.1724 30.3307 17.516 29.2514 17.516 28.0417L15.516 28.0417C15.516 28.8773 15.2876 29.3493 14.9793 29.6343C14.6515 29.9373 14.0671 30.1834 13.0537 30.2141L13.1143 32.2132ZM17.516 28.0417C17.516 27.0534 17.304 26.1479 16.7979 25.4008L15.1421 26.5225C15.364 26.8501 15.516 27.3313 15.516 28.0417L17.516 28.0417ZM16.7855 25.3829C16.225 24.5931 15.3673 24.1186 14.3619 23.8724L13.8861 25.815C14.5794 25.9847 14.9523 26.2555 15.1545 26.5404L16.7855 25.3829ZM14.3817 23.8774C14.3446 23.8675 14.3181 23.8587 14.3005 23.852C14.2827 23.8452 14.2772 23.8419 14.2809 23.844C14.2846 23.846 14.3503 23.8821 14.4177 23.9764L12.7903 25.1389C13.0843 25.5506 13.5424 25.7235 13.8663 25.8099L14.3817 23.8774ZM14.3632 23.9069C14.4207 23.9739 14.4422 24.0332 14.4485 24.0554C14.454 24.0748 14.448 24.0648 14.448 24.0117L12.448 24.0117C12.448 24.374 12.5223 24.8323 12.8447 25.2085L14.3632 23.9069ZM14.448 24.0117L14.448 20.5017L12.448 20.5017L12.448 24.0117L14.448 24.0117ZM14.448 20.5017C14.448 20.5364 14.4418 20.5927 14.4155 20.6586C14.3887 20.7256 14.3499 20.7799 14.3111 20.8188L12.8969 19.4046C12.5931 19.7084 12.448 20.0983 12.448 20.5017L14.448 20.5017ZM14.3633 20.7625C14.3252 20.8068 14.2557 20.8682 14.1509 20.9101C14.0454 20.9523 13.949 20.9568 13.8836 20.9496L14.1044 18.9618C13.6125 18.9071 13.1593 19.0938 12.8447 19.4609L14.3633 20.7625ZM13.9803 20.9556C15.0493 20.9702 15.9511 21.273 16.7243 21.8494L17.9197 20.2459C16.7862 19.401 15.4693 18.9758 14.0077 18.9558L13.9803 20.9556ZM16.7268 21.8512C17.5022 22.4257 18.1271 23.229 18.5868 24.3016L20.4251 23.5137C19.8448 22.1597 19.0137 21.0563 17.9172 20.2441L16.7268 21.8512ZM18.5821 24.2904C19.0271 25.3644 19.26 26.6007 19.26 28.0157L21.26 28.0157C21.26 26.3799 20.9902 24.8776 20.4298 23.5249L18.5821 24.2904ZM19.532 13.3998L18.6073 13.0191L18.6073 13.0191L19.532 13.3998ZM17.634 16.0778L18.2284 16.882L18.2382 16.8747L18.2479 16.8672L17.634 16.0778ZM15.034 17.0138L15.034 18.0138L15.0525 18.0138L15.071 18.0131L15.034 17.0138ZM14.67 16.8578L13.9629 17.5649L13.9629 17.5649L14.67 16.8578ZM14.618 12.6718L15.4317 13.253L15.4773 13.1892L15.5124 13.119L14.618 12.6718ZM14.956 12.2558L14.5088 11.3614L14.3905 11.4205L14.2916 11.5084L14.956 12.2558ZM16.074 11.1638L16.9367 11.6695L16.9367 11.6695L16.074 11.1638ZM16.048 6.89981L15.1905 7.4143L15.1905 7.4143L16.048 6.89981ZM13.838 6.53581L14.569 7.21812L14.58 7.20639L14.5906 7.19431L13.838 6.53581ZM13.188 7.78381L12.2393 7.46758L12.2393 7.46758L13.188 7.78381ZM12.538 10.3318L11.5604 10.1212L11.559 10.1279L12.538 10.3318ZM10.64 15.0118L11.4093 15.6507L11.4151 15.6437L11.4209 15.6365L10.64 15.0118ZM4.19199 15.6618L3.61397 16.4778L3.61397 16.4778L4.19199 15.6618ZM2.24199 13.1398L1.32285 13.5337L1.32285 13.5337L2.24199 13.1398ZM2.31999 5.39181L3.22545 5.81624L3.22545 5.81624L2.31999 5.39181ZM4.29599 2.86981L4.8789 3.68234L4.88895 3.67513L4.89882 3.66767L4.29599 2.86981ZM6.60999 1.93381L6.60999 0.933806L6.58727 0.933806L6.56458 0.934837L6.60999 1.93381ZM6.99999 2.08981L7.7071 1.3827L7.70709 1.3827L6.99999 2.08981ZM7.05199 6.43181L7.92023 6.92795L7.934 6.90385L7.94642 6.87902L7.05199 6.43181ZM6.71399 6.76981L6.96641 7.73742L7.12894 7.69503L7.26869 7.60186L6.71399 6.76981ZM5.69999 7.62781L6.55165 8.1519L6.55603 8.14479L6.56028 8.13761L5.69999 7.62781ZM5.69999 11.1118L6.53204 10.5571L6.53204 10.5571L5.69999 11.1118ZM7.83199 11.3978L8.51244 12.1306L8.52601 12.118L8.5391 12.1049L7.83199 11.3978ZM8.50799 10.2538L9.43647 10.6252L9.44381 10.6068L9.45042 10.5882L8.50799 10.2538ZM9.10599 7.96581L10.0845 8.17182L10.0873 8.15875L10.0897 8.14562L9.10599 7.96581ZM10.224 4.11781L11.1281 4.54518L11.1327 4.53537L11.1371 4.52546L10.224 4.11781ZM11.94 1.9858L12.4756 2.83037L12.485 2.82425L11.94 1.9858ZM17.608 2.3238L16.993 3.11231L16.9952 3.11402L17.608 2.3238ZM19.584 5.10581L20.5181 4.74866L20.5152 4.74141L19.584 5.10581ZM19.26 9.16181C19.26 10.7143 19.0307 11.9908 18.6073 13.0191L20.4567 13.7806C21.0039 12.4515 21.26 10.9027 21.26 9.16181L19.26 9.16181ZM18.6073 13.0191C18.1695 14.0824 17.6284 14.8153 17.0201 15.2885L18.2479 16.8672C19.1996 16.127 19.9238 15.0746 20.4567 13.7806L18.6073 13.0191ZM17.0396 15.2736C16.3942 15.7507 15.7197 15.9877 14.997 16.0145L15.071 18.0131C16.2203 17.9706 17.2791 17.5836 18.2284 16.882L17.0396 15.2736ZM15.034 16.0138C15.0931 16.0138 15.1629 16.0256 15.2329 16.0557C15.3018 16.0852 15.3494 16.123 15.3771 16.1507L13.9629 17.5649C14.2418 17.8438 14.6128 18.0138 15.034 18.0138L15.034 16.0138ZM15.3771 16.1507C15.3929 16.1665 15.4238 16.2028 15.4496 16.262C15.4763 16.323 15.488 16.3862 15.488 16.4418L13.488 16.4418C13.488 16.8908 13.6746 17.2766 13.9629 17.5649L15.3771 16.1507ZM15.488 16.4418L15.488 13.1658L13.488 13.1658L13.488 16.4418L15.488 16.4418ZM15.488 13.1658C15.488 13.1295 15.492 13.1241 15.4876 13.1408C15.4827 13.1593 15.4682 13.202 15.4317 13.253L13.8043 12.0906C13.557 12.4367 13.488 12.8294 13.488 13.1658L15.488 13.1658ZM15.5124 13.119C15.5089 13.1261 15.5285 13.0849 15.6204 13.0032L14.2916 11.5084C14.0715 11.7041 13.8658 11.9402 13.7236 12.2246L15.5124 13.119ZM15.4032 13.1502C16.0529 12.8254 16.5598 12.3125 16.9367 11.6695L15.2113 10.6581C14.9989 11.0204 14.7604 11.2355 14.5088 11.3614L15.4032 13.1502ZM16.9367 11.6695C17.3517 10.9615 17.516 10.0997 17.516 9.16181L15.516 9.16181C15.516 9.88788 15.3856 10.3607 15.2113 10.6581L16.9367 11.6695ZM17.516 9.16181C17.516 8.09501 17.3522 7.12982 16.9055 6.38531L15.1905 7.4143C15.3678 7.7098 15.516 8.2526 15.516 9.16181L17.516 9.16181ZM16.9055 6.38531C16.4405 5.61037 15.7134 5.11981 14.774 5.11981L14.774 7.11981C14.9093 7.11981 15.0315 7.14924 15.1905 7.4143L16.9055 6.38531ZM14.774 5.11981C14.1158 5.11981 13.5254 5.37448 13.0854 5.8773L14.5906 7.19431C14.6359 7.14247 14.6696 7.11981 14.774 7.11981L14.774 5.11981ZM13.1069 5.85349C12.7207 6.26726 12.448 6.84138 12.2393 7.46758L14.1367 8.10003C14.3093 7.58224 14.4699 7.32435 14.569 7.21812L13.1069 5.85349ZM12.2393 7.46758C12.031 8.0926 11.8052 8.98478 11.5604 10.1212L13.5156 10.5424C13.7561 9.4255 13.9637 8.61902 14.1367 8.10003L12.2393 7.46758ZM11.559 10.1279C11.1407 12.1359 10.5514 13.5217 9.85912 14.3871L11.4209 15.6365C12.3926 14.4219 13.0686 12.6877 13.517 10.5358L11.559 10.1279ZM9.8707 14.3729C9.24518 15.1261 8.34598 15.5458 7.02599 15.5458L7.02599 17.5458C8.82601 17.5458 10.3361 16.9429 11.4093 15.6507L9.8707 14.3729ZM7.02599 15.5458C6.16756 15.5458 5.42649 15.3108 4.77001 14.8458L3.61397 16.4778C4.6215 17.1915 5.76975 17.5458 7.02599 17.5458L7.02599 15.5458ZM4.77001 14.8458C4.11184 14.3796 3.5687 13.6969 3.16114 12.7459L1.32285 13.5337C1.85128 14.7667 2.60814 15.7654 3.61397 16.4778L4.77001 14.8458ZM3.16114 12.7459C2.75707 11.8031 2.53999 10.6681 2.53999 9.31781L0.539991 9.31781C0.539991 10.8795 0.790914 12.2926 1.32285 13.5337L3.16114 12.7459ZM2.53999 9.31781C2.53999 7.9234 2.78038 6.76571 3.22545 5.81624L1.41453 4.96737C0.819598 6.23656 0.539991 7.69621 0.539991 9.31781L2.53999 9.31781ZM3.22545 5.81624C3.69066 4.82379 4.25097 4.13282 4.8789 3.68234L3.71308 2.05727C2.74635 2.75079 1.98932 3.74115 1.41453 4.96737L3.22545 5.81624ZM4.89882 3.66767C5.56268 3.16609 6.1445 2.956 6.6554 2.93277L6.56458 0.934837C5.55015 0.980947 4.5893 1.39485 3.69316 2.07194L4.89882 3.66767ZM6.60999 2.93381C6.57527 2.93381 6.51898 2.92763 6.4531 2.90128C6.38606 2.87447 6.33173 2.83576 6.29289 2.79692L7.70709 1.3827C7.4033 1.0789 7.01335 0.933806 6.60999 0.933806L6.60999 2.93381ZM6.29288 2.79691C6.25404 2.75807 6.21533 2.70374 6.18851 2.6367C6.16216 2.57082 6.15599 2.51452 6.15599 2.47981L8.15599 2.47981C8.15599 2.07645 8.01089 1.6865 7.7071 1.3827L6.29288 2.79691ZM6.15599 2.47981L6.15599 5.91181L8.15599 5.91181L8.15599 2.47981L6.15599 2.47981ZM6.15599 5.91181C6.15599 5.96116 6.1518 5.98973 6.14941 6.00169C6.14712 6.01315 6.14738 6.00496 6.15756 5.98459L7.94642 6.87902C8.10473 6.5624 8.15599 6.22446 8.15599 5.91181L6.15599 5.91181ZM6.18375 5.93567C6.19884 5.90925 6.21048 5.8981 6.20838 5.9002C6.20592 5.90266 6.19182 5.91607 6.15929 5.93776L7.26869 7.60186C7.51176 7.43981 7.75219 7.22203 7.92023 6.92795L6.18375 5.93567ZM6.46157 5.80219C5.7342 5.99194 5.20684 6.49845 4.8397 7.118L6.56028 8.13761C6.74781 7.82116 6.89645 7.75567 6.96641 7.73742L6.46157 5.80219ZM4.84833 7.10371C4.4505 7.75018 4.28399 8.50741 4.28399 9.31781L6.28399 9.31781C6.28399 8.7762 6.39481 8.40677 6.55165 8.1519L4.84833 7.10371ZM4.28399 9.31781C4.28399 10.1931 4.4356 11.018 4.86794 11.6665L6.53204 10.5571C6.40971 10.3736 6.28399 10.0025 6.28399 9.31781L4.28399 9.31781ZM4.86794 11.6665C5.34662 12.3845 6.07998 12.7358 6.92199 12.7358L6.92199 10.7358C6.68934 10.7358 6.60803 10.6711 6.53204 10.5571L4.86794 11.6665ZM6.92199 12.7358C7.5112 12.7358 8.0658 12.5453 8.51244 12.1306L7.15154 10.665C7.11285 10.7009 7.06078 10.7358 6.92199 10.7358L6.92199 12.7358ZM8.5391 12.1049C8.91922 11.7248 9.20604 11.2013 9.43647 10.6252L7.57951 9.88242C7.39394 10.3463 7.2301 10.5855 7.12488 10.6907L8.5391 12.1049ZM9.45042 10.5882C9.66312 9.98878 9.8732 9.17568 10.0845 8.17182L8.12744 7.7598C7.92278 8.73193 7.73419 9.44417 7.56556 9.9194L9.45042 10.5882ZM10.0897 8.14562C10.3763 6.57756 10.7292 5.38899 11.1281 4.54518L9.31992 3.69043C8.81748 4.75329 8.42499 6.13005 8.12229 7.78599L10.0897 8.14562ZM11.1371 4.52546C11.5113 3.68721 11.9698 3.15104 12.4755 2.83031L11.4044 1.1413C10.4889 1.7219 9.8033 2.60707 9.31085 3.71015L11.1371 4.52546ZM12.485 2.82425C12.9764 2.5048 13.6487 2.30981 14.566 2.30981L14.566 0.309806C13.3686 0.309806 12.2902 0.565482 11.395 1.14736L12.485 2.82425ZM14.566 2.30981C15.518 2.30981 16.3124 2.58146 16.993 3.11231L18.223 1.5353C17.1703 0.714151 15.9366 0.309806 14.566 0.309806L14.566 2.30981ZM16.9952 3.11402C17.6763 3.64226 18.2376 4.40934 18.6527 5.4702L20.5152 4.74141C19.9944 3.41027 19.2383 2.32269 18.2208 1.53359L16.9952 3.11402ZM18.6499 5.46294C19.049 6.50653 19.26 7.73377 19.26 9.16181L21.26 9.16181C21.26 7.53918 21.0204 6.06241 20.518 4.74867L18.6499 5.46294Z" fill="white"/>
</svg>
