<svg width="53" height="158" viewBox="0 0 53 158" fill="none" xmlns="http://www.w3.org/2000/svg">
<path d="M19.766 152.97L20.4731 153.677L20.4917 153.659L20.5093 153.639L19.766 152.97ZM19.142 153.282L19.0006 152.292L18.9872 152.294L18.9738 152.296L19.142 153.282ZM2.528 156.116L2.35985 155.13L2.28439 155.143L2.21177 155.167L2.528 156.116ZM1.982 155.986L2.68911 155.279L2.6891 155.279L1.982 155.986ZM2.372 151.566L2.50711 152.557L2.52179 152.555L2.5364 152.552L2.372 151.566ZM12.512 149.876L12.6764 150.862L12.8107 148.922L12.512 149.876ZM6.532 148.004L6.1547 148.93L6.19339 148.946L6.23325 148.958L6.532 148.004ZM6.532 144.416L6.81609 145.375L6.82343 145.373L6.83075 145.37L6.532 144.416ZM12.512 142.544L12.8107 143.498L12.6764 141.558L12.512 142.544ZM2.372 140.854L2.5364 139.868L2.52179 139.865L2.50711 139.863L2.372 140.854ZM1.982 136.434L2.63279 137.193L2.69119 137.143L2.74126 137.085L1.982 136.434ZM2.346 136.252L2.48742 135.262L2.41707 135.252L2.346 135.252L2.346 136.252ZM2.528 136.278L2.69615 135.292L2.68281 135.29L2.66942 135.288L2.528 136.278ZM19.142 139.112L18.9738 140.098L18.9872 140.1L19.0006 140.102L19.142 139.112ZM19.766 139.45L20.5093 138.781L20.5059 138.777L19.766 139.45ZM19.324 143.584L19.657 144.527L19.6763 144.52L19.6954 144.512L19.324 143.584ZM11.888 146.21L11.555 145.267L8.88493 146.21L11.555 147.153L11.888 146.21ZM19.324 148.836L18.991 149.779L18.9969 149.781L19.324 148.836ZM19 152.268C19 152.328 18.992 152.351 18.9928 152.348C18.9933 152.347 18.9957 152.34 19.0013 152.33C19.0069 152.321 19.0142 152.311 19.0227 152.301L20.5093 153.639C20.8707 153.237 21 152.742 21 152.268L19 152.268ZM19.0589 152.263C19.0441 152.278 19.0356 152.282 19.0328 152.284C19.03 152.285 19.0213 152.289 19.0006 152.292L19.2834 154.272C19.7403 154.207 20.1468 154.003 20.4731 153.677L19.0589 152.263ZM18.9738 152.296L2.35985 155.13L2.69615 157.102L19.3102 154.268L18.9738 152.296ZM2.21177 155.167C2.28463 155.143 2.33498 155.142 2.346 155.142L2.346 157.142C2.49568 157.142 2.66737 157.124 2.84423 157.065L2.21177 155.167ZM2.346 155.142C2.40513 155.142 2.47487 155.154 2.54492 155.184C2.61381 155.213 2.6614 155.251 2.68911 155.279L1.27489 156.693C1.5538 156.972 1.92478 157.142 2.346 157.142L2.346 155.142ZM2.6891 155.279C2.69512 155.285 2.72412 155.316 2.75168 155.375C2.78095 155.437 2.8 155.514 2.8 155.596L0.799999 155.596C0.799999 156.06 1.01321 156.431 1.27489 156.693L2.6891 155.279ZM2.8 155.596L2.8 152.372L0.799999 152.372L0.799999 155.596L2.8 155.596ZM2.8 152.372C2.8 152.243 2.82779 152.288 2.75851 152.385C2.72085 152.438 2.66913 152.485 2.61075 152.518C2.55552 152.549 2.5149 152.556 2.50711 152.557L2.23689 150.575C1.82247 150.632 1.41005 150.83 1.12749 151.228C0.867545 151.594 0.799999 152.015 0.799999 152.372L2.8 152.372ZM2.5364 152.552L12.6764 150.862L12.3476 148.89L2.2076 150.58L2.5364 152.552ZM12.8107 148.922L6.83075 147.05L6.23325 148.958L12.2133 150.83L12.8107 148.922ZM6.9093 147.078C6.84518 147.052 6.80678 147.03 6.78663 147.016C6.76704 147.003 6.76869 147 6.77946 147.013C6.79134 147.028 6.80654 147.052 6.81754 147.083C6.8284 147.114 6.83 147.138 6.83 147.146L4.83 147.146C4.83 147.56 4.96337 147.952 5.23154 148.28C5.48596 148.591 5.82029 148.794 6.1547 148.93L6.9093 147.078ZM6.83 147.146L6.83 145.274L4.83 145.274L4.83 147.146L6.83 147.146ZM6.83 145.274C6.83 145.256 6.83242 145.263 6.82482 145.286C6.81661 145.311 6.8014 145.341 6.77946 145.368C6.73454 145.423 6.71354 145.405 6.81609 145.375L6.24791 143.457C5.88246 143.565 5.51046 143.76 5.23154 144.101C4.94395 144.453 4.83 144.868 4.83 145.274L6.83 145.274ZM6.83075 145.37L12.8107 143.498L12.2133 141.59L6.23325 143.462L6.83075 145.37ZM12.6764 141.558L2.5364 139.868L2.2076 141.84L12.3476 143.53L12.6764 141.558ZM2.50711 139.863C2.5149 139.864 2.55551 139.871 2.61075 139.902C2.66913 139.935 2.72085 139.982 2.7585 140.035C2.82778 140.132 2.8 140.177 2.8 140.048L0.799998 140.048C0.799998 140.405 0.867545 140.826 1.12749 141.192C1.41006 141.59 1.82247 141.788 2.23689 141.845L2.50711 139.863ZM2.8 140.048L2.8 136.824L0.799998 136.824L0.799998 140.048L2.8 140.048ZM2.8 136.824C2.8 136.879 2.78839 136.954 2.75168 137.032C2.71526 137.11 2.66784 137.163 2.63279 137.193L1.33121 135.675C0.994441 135.963 0.799998 136.368 0.799998 136.824L2.8 136.824ZM2.74126 137.085C2.72173 137.108 2.67602 137.153 2.59821 137.192C2.51687 137.233 2.42834 137.252 2.346 137.252L2.346 135.252C1.86932 135.252 1.48453 135.478 1.22274 135.783L2.74126 137.085ZM2.20458 137.242L2.38658 137.268L2.66942 135.288L2.48742 135.262L2.20458 137.242ZM2.35985 137.264L18.9738 140.098L19.3101 138.126L2.69615 135.292L2.35985 137.264ZM19.0006 140.102C19.0057 140.103 19.0075 140.103 19.0068 140.103C19.006 140.103 19.0048 140.102 19.0037 140.102C19.0027 140.101 19.0038 140.102 19.007 140.104C19.0103 140.107 19.0168 140.112 19.0261 140.123L20.5059 138.777C20.1848 138.424 19.7689 138.191 19.2834 138.122L19.0006 140.102ZM19.0227 140.119C19.017 140.113 19.0111 140.105 19.006 140.096C19.0008 140.087 18.9979 140.08 18.9965 140.076C18.9937 140.068 19 140.081 19 140.126L21 140.126C21 139.651 20.8609 139.172 20.5093 138.781L19.0227 140.119ZM19 140.126L19 142.596L21 142.596L21 140.126L19 140.126ZM19 142.596C19 142.653 18.9927 142.671 18.9956 142.662C18.9972 142.657 19.0013 142.645 19.0098 142.63C19.0184 142.615 19.03 142.598 19.0446 142.582L20.5394 143.91C20.888 143.518 21 143.036 21 142.596L19 142.596ZM19.0446 142.582C18.9968 142.635 18.9655 142.65 18.9526 142.656L19.6954 144.512C20.0291 144.379 20.3099 144.169 20.5394 143.91L19.0446 142.582ZM18.991 142.641L11.555 145.267L12.221 147.153L19.657 144.527L18.991 142.641ZM11.555 147.153L18.991 149.779L19.657 147.893L12.221 145.267L11.555 147.153ZM18.9969 149.781C19.0342 149.794 19.0463 149.803 19.0435 149.801C19.042 149.8 19.0376 149.797 19.0316 149.791C19.0255 149.785 19.019 149.777 19.0128 149.768C19.0067 149.76 19.0021 149.751 18.9989 149.745C18.9957 149.738 18.9947 149.734 18.9947 149.734C18.9948 149.735 19 149.754 19 149.798L21 149.798C21 149.399 20.9058 148.984 20.6492 148.619C20.3916 148.252 20.0311 148.023 19.6511 147.891L18.9969 149.781ZM19 149.798L19 152.268L21 152.268L21 149.798L19 149.798ZM19.818 132.117L19.1109 131.409L19.1109 131.409L19.818 132.117ZM1.982 132.117L1.22942 132.775L1.25135 132.8L1.27489 132.824L1.982 132.117ZM1.982 127.827L2.6891 128.534L2.71265 128.51L2.73458 128.485L1.982 127.827ZM8.716 127.619L8.716 128.619L9.716 128.619L9.716 127.619L8.716 127.619ZM8.716 121.223L9.716 121.223L9.716 120.223L8.716 120.223L8.716 121.223ZM1.982 121.041L2.68911 120.333L2.6891 120.333L1.982 121.041ZM19.818 116.751L20.5251 116.043L20.5251 116.043L19.818 116.751ZM19.818 121.041L20.5251 121.748L20.5251 121.748L19.818 121.041ZM12.876 121.223L12.876 120.223L11.876 120.223L11.876 121.223L12.876 121.223ZM12.876 127.619L11.876 127.619L11.876 128.619L12.876 128.619L12.876 127.619ZM19.818 127.827L19.0654 128.485L19.0873 128.51L19.1109 128.534L19.818 127.827ZM19 131.649C19 131.637 19.0021 131.599 19.0225 131.546C19.0437 131.492 19.076 131.444 19.1109 131.409L20.5251 132.824C20.8556 132.493 21 132.072 21 131.649L19 131.649ZM19.1109 131.409C19.1457 131.375 19.193 131.342 19.2476 131.321C19.3 131.301 19.3384 131.299 19.35 131.299L19.35 133.299C19.7736 133.299 20.1946 133.154 20.5251 132.824L19.1109 131.409ZM19.35 131.299L2.45 131.299L2.45 133.299L19.35 133.299L19.35 131.299ZM2.45 131.299C2.46156 131.299 2.49997 131.301 2.55244 131.321C2.60698 131.342 2.65425 131.375 2.68911 131.409L1.27489 132.824C1.60543 133.154 2.02641 133.299 2.45 133.299L2.45 131.299ZM2.73457 131.458C2.74277 131.467 2.76165 131.492 2.7775 131.533C2.7937 131.575 2.8 131.616 2.8 131.649L0.799998 131.649C0.799998 132.08 0.959512 132.467 1.22942 132.775L2.73457 131.458ZM2.8 131.649L2.8 128.295L0.799998 128.295L0.799998 131.649L2.8 131.649ZM2.8 128.295C2.8 128.306 2.79791 128.345 2.7775 128.397C2.75629 128.452 2.72396 128.499 2.6891 128.534L1.27489 127.119C0.944355 127.45 0.799997 127.871 0.799998 128.295L2.8 128.295ZM2.73458 128.485C2.70736 128.516 2.66106 128.556 2.59614 128.584C2.53209 128.613 2.47817 128.619 2.45 128.619L2.45 126.619C1.98243 126.619 1.54806 126.804 1.22942 127.168L2.73458 128.485ZM2.45 128.619L8.716 128.619L8.716 126.619L2.45 126.619L2.45 128.619ZM9.716 127.619L9.716 121.223L7.716 121.223L7.716 127.619L9.716 127.619ZM8.716 120.223L2.45 120.223L2.45 122.223L8.716 122.223L8.716 120.223ZM2.45 120.223C2.46156 120.223 2.49996 120.225 2.55244 120.245C2.60698 120.266 2.65425 120.299 2.68911 120.333L1.27489 121.748C1.60543 122.078 2.02641 122.223 2.45 122.223L2.45 120.223ZM2.6891 120.333C2.72396 120.368 2.75629 120.416 2.7775 120.47C2.79791 120.523 2.8 120.561 2.8 120.573L0.799997 120.573C0.799997 120.996 0.944355 121.417 1.27489 121.748L2.6891 120.333ZM2.8 120.573L2.8 117.219L0.799997 117.219L0.799997 120.573L2.8 120.573ZM2.8 117.219C2.8 117.23 2.79791 117.269 2.7775 117.321C2.75629 117.376 2.72396 117.423 2.6891 117.458L1.27489 116.043C0.944355 116.374 0.799997 116.795 0.799997 117.219L2.8 117.219ZM2.6891 117.458C2.65425 117.493 2.60698 117.525 2.55244 117.546C2.49996 117.566 2.46156 117.569 2.45 117.569L2.45 115.569C2.02642 115.569 1.60543 115.713 1.27489 116.043L2.6891 117.458ZM2.45 117.569L19.35 117.569L19.35 115.569L2.45 115.569L2.45 117.569ZM19.35 117.569C19.3384 117.569 19.3 117.566 19.2476 117.546C19.193 117.525 19.1457 117.493 19.1109 117.458L20.5251 116.043C20.1946 115.713 19.7736 115.569 19.35 115.569L19.35 117.569ZM19.1109 117.458C19.076 117.423 19.0437 117.376 19.0225 117.321C19.0021 117.269 19 117.23 19 117.219L21 117.219C21 116.795 20.8556 116.374 20.5251 116.043L19.1109 117.458ZM19 117.219L19 120.573L21 120.573L21 117.219L19 117.219ZM19 120.573C19 120.561 19.0021 120.523 19.0225 120.47C19.0437 120.416 19.076 120.368 19.1109 120.333L20.5251 121.748C20.8556 121.417 21 120.996 21 120.573L19 120.573ZM19.1109 120.333C19.1457 120.299 19.193 120.266 19.2476 120.245C19.3 120.225 19.3384 120.223 19.35 120.223L19.35 122.223C19.7736 122.223 20.1946 122.078 20.5251 121.748L19.1109 120.333ZM19.35 120.223L12.876 120.223L12.876 122.223L19.35 122.223L19.35 120.223ZM11.876 121.223L11.876 127.619L13.876 127.619L13.876 121.223L11.876 121.223ZM12.876 128.619L19.35 128.619L19.35 126.619L12.876 126.619L12.876 128.619ZM19.35 128.619C19.3218 128.619 19.2679 128.613 19.2039 128.584C19.1389 128.556 19.0926 128.516 19.0654 128.485L20.5706 127.168C20.2519 126.804 19.8176 126.619 19.35 126.619L19.35 128.619ZM19.1109 128.534C19.076 128.499 19.0437 128.452 19.0225 128.397C19.0021 128.345 19 128.306 19 128.295L21 128.295C21 127.871 20.8556 127.45 20.5251 127.119L19.1109 128.534ZM19 128.295L19 131.649L21 131.649L21 128.295L19 128.295ZM19.818 111.47L20.4765 112.222L20.5267 112.178L20.5706 112.128L19.818 111.47ZM1.982 111.47L1.22942 112.128L1.25135 112.153L1.27489 112.177L1.982 111.47ZM5.362 98.3915L6.06911 97.6844L6.04556 97.6609L6.0205 97.639L5.362 98.3915ZM5.544 107.154L4.544 107.154L4.544 108.154L5.544 108.154L5.544 107.154ZM9.054 107.154L9.054 108.154L10.054 108.154L10.054 107.154L9.054 107.154ZM9.262 98.9635L9.9205 99.7161L9.94556 99.6942L9.9691 99.6706L9.262 98.9635ZM12.46 98.9635L13.1671 98.2564L13.1436 98.2329L13.1185 98.211L12.46 98.9635ZM12.642 107.154L11.642 107.154L11.642 108.154L12.642 108.154L12.642 107.154ZM16.256 107.154L16.256 108.154L17.256 108.154L17.256 107.154L16.256 107.154ZM16.438 98.1835L17.1451 98.8906L17.1451 98.8906L16.438 98.1835ZM19.818 98.1835L20.5251 97.4764L20.5016 97.4529L20.4765 97.431L19.818 98.1835ZM19 111.002C19 110.969 19.0063 110.928 19.0225 110.886C19.0383 110.845 19.0572 110.82 19.0654 110.811L20.5706 112.128C20.8405 111.82 21 111.433 21 111.002L19 111.002ZM19.1595 110.717C19.1689 110.709 19.1938 110.69 19.2346 110.674C19.2762 110.658 19.3172 110.652 19.35 110.652L19.35 112.652C19.7817 112.652 20.168 112.492 20.4765 112.222L19.1595 110.717ZM19.35 110.652L2.45 110.652L2.45 112.652L19.35 112.652L19.35 110.652ZM2.45 110.652C2.46156 110.652 2.49996 110.654 2.55244 110.674C2.60698 110.695 2.65425 110.728 2.68911 110.762L1.27489 112.177C1.60543 112.507 2.02641 112.652 2.45 112.652L2.45 110.652ZM2.73457 110.811C2.74277 110.82 2.76165 110.845 2.7775 110.886C2.7937 110.928 2.8 110.969 2.8 111.002L0.799997 111.002C0.799997 111.433 0.959511 111.82 1.22942 112.128L2.73457 110.811ZM2.8 111.002L2.8 98.8595L0.799996 98.8595L0.799997 111.002L2.8 111.002ZM2.8 98.8595C2.8 98.8711 2.79791 98.9095 2.7775 98.962C2.75629 99.0165 2.72396 99.0638 2.6891 99.0986L1.27489 97.6844C0.944354 98.015 0.799996 98.4359 0.799996 98.8595L2.8 98.8595ZM2.6891 99.0986C2.65425 99.1335 2.60697 99.1658 2.55244 99.187C2.49996 99.2074 2.46156 99.2095 2.45 99.2095L2.45 97.2095C2.02641 97.2095 1.60543 97.3539 1.27489 97.6844L2.6891 99.0986ZM2.45 99.2095L4.894 99.2095L4.894 97.2095L2.45 97.2095L2.45 99.2095ZM4.894 99.2095C4.86116 99.2095 4.82021 99.2032 4.77855 99.187C4.7378 99.1712 4.71287 99.1523 4.70349 99.1441L6.0205 97.639C5.71203 97.369 5.32565 97.2095 4.894 97.2095L4.894 99.2095ZM4.65489 99.0986C4.62003 99.0638 4.5877 99.0165 4.56649 98.962C4.54608 98.9095 4.544 98.8711 4.544 98.8595L6.544 98.8595C6.544 98.4359 6.39964 98.015 6.06911 97.6844L4.65489 99.0986ZM4.544 98.8595L4.544 107.154L6.544 107.154L6.544 98.8595L4.544 98.8595ZM5.544 108.154L9.054 108.154L9.054 106.154L5.544 106.154L5.544 108.154ZM10.054 107.154L10.054 99.4315L8.054 99.4315L8.054 107.154L10.054 107.154ZM10.054 99.4315C10.054 99.4597 10.0483 99.5136 10.0198 99.5777C9.99095 99.6426 9.9516 99.6889 9.9205 99.7161L8.60349 98.211C8.23934 98.5296 8.054 98.964 8.054 99.4315L10.054 99.4315ZM9.9691 99.6706C9.93425 99.7055 9.88697 99.7378 9.83244 99.759C9.77996 99.7794 9.74156 99.7815 9.73 99.7815L9.73 97.7815C9.30641 97.7815 8.88543 97.9259 8.55489 98.2564L9.9691 99.6706ZM9.73 99.7815L11.992 99.7815L11.992 97.7815L9.73 97.7815L9.73 99.7815ZM11.992 99.7815C11.9592 99.7815 11.9182 99.7752 11.8766 99.759C11.8358 99.7432 11.8109 99.7243 11.8015 99.7161L13.1185 98.211C12.81 97.941 12.4236 97.7815 11.992 97.7815L11.992 99.7815ZM11.7529 99.6706C11.718 99.6358 11.6857 99.5885 11.6645 99.534C11.6441 99.4815 11.642 99.4431 11.642 99.4315L13.642 99.4315C13.642 99.0079 13.4976 98.587 13.1671 98.2564L11.7529 99.6706ZM11.642 99.4315L11.642 107.154L13.642 107.154L13.642 99.4315L11.642 99.4315ZM12.642 108.154L16.256 108.154L16.256 106.154L12.642 106.154L12.642 108.154ZM17.256 107.154L17.256 98.6515L15.256 98.6515L15.256 107.154L17.256 107.154ZM17.256 98.6515C17.256 98.6631 17.2539 98.7015 17.2335 98.754C17.2123 98.8085 17.18 98.8558 17.1451 98.8906L15.7309 97.4764C15.4004 97.807 15.256 98.2279 15.256 98.6515L17.256 98.6515ZM17.1451 98.8906C17.1103 98.9255 17.063 98.9578 17.0084 98.979C16.956 98.9994 16.9176 99.0015 16.906 99.0015L16.906 97.0015C16.4824 97.0015 16.0614 97.1459 15.7309 97.4764L17.1451 98.8906ZM16.906 99.0015L19.35 99.0015L19.35 97.0015L16.906 97.0015L16.906 99.0015ZM19.35 99.0015C19.3172 99.0015 19.2762 98.9952 19.2345 98.979C19.1938 98.9632 19.1689 98.9443 19.1595 98.9361L20.4765 97.431C20.168 97.161 19.7817 97.0015 19.35 97.0015L19.35 99.0015ZM19.1109 98.8906C19.076 98.8558 19.0437 98.8085 19.0225 98.754C19.0021 98.7015 19 98.6631 19 98.6515L21 98.6515C21 98.2279 20.8556 97.807 20.5251 97.4764L19.1109 98.8906ZM19 98.6515L19 111.002L21 111.002L21 98.6515L19 98.6515ZM19.818 93.5901L20.4765 94.3426L20.5267 94.2987L20.5706 94.2486L19.818 93.5901ZM1.982 93.5901L1.22942 94.2486L1.25135 94.2736L1.27489 94.2972L1.982 93.5901ZM5.362 80.5121L6.06911 79.805L6.04556 79.7814L6.0205 79.7595L5.362 80.5121ZM5.544 89.2741L4.544 89.2741L4.544 90.2741L5.544 90.2741L5.544 89.2741ZM9.054 89.2741L9.054 90.2741L10.054 90.2741L10.054 89.2741L9.054 89.2741ZM9.262 81.0841L9.9205 81.8366L9.94556 81.8147L9.9691 81.7912L9.262 81.0841ZM12.46 81.0841L13.1671 80.377L13.1436 80.3534L13.1185 80.3315L12.46 81.0841ZM12.642 89.2741L11.642 89.2741L11.642 90.2741L12.642 90.2741L12.642 89.2741ZM16.256 89.2741L16.256 90.2741L17.256 90.2741L17.256 89.2741L16.256 89.2741ZM16.438 80.3041L17.1451 81.0112L17.1451 81.0112L16.438 80.3041ZM19.818 80.3041L20.5251 79.597L20.5016 79.5734L20.4765 79.5515L19.818 80.3041ZM19 93.1221C19 93.0892 19.0063 93.0483 19.0225 93.0066C19.0383 92.9659 19.0572 92.9409 19.0654 92.9316L20.5706 94.2486C20.8405 93.9401 21 93.5537 21 93.1221L19 93.1221ZM19.1595 92.8375C19.1689 92.8293 19.1938 92.8104 19.2346 92.7946C19.2762 92.7784 19.3172 92.7721 19.35 92.7721L19.35 94.7721C19.7817 94.7721 20.168 94.6125 20.4765 94.3426L19.1595 92.8375ZM19.35 92.7721L2.45 92.7721L2.45 94.7721L19.35 94.7721L19.35 92.7721ZM2.45 92.7721C2.46156 92.7721 2.49996 92.7742 2.55244 92.7946C2.60698 92.8158 2.65425 92.8481 2.68911 92.883L1.27489 94.2972C1.60543 94.6277 2.02641 94.7721 2.45 94.7721L2.45 92.7721ZM2.73457 92.9316C2.74277 92.9409 2.76165 92.9659 2.7775 93.0066C2.7937 93.0483 2.8 93.0892 2.8 93.1221L0.799996 93.1221C0.799996 93.5537 0.95951 93.9401 1.22942 94.2486L2.73457 92.9316ZM2.8 93.1221L2.8 80.9801L0.799995 80.9801L0.799996 93.1221L2.8 93.1221ZM2.8 80.9801C2.8 80.9916 2.79791 81.03 2.7775 81.0825C2.75629 81.137 2.72396 81.1843 2.6891 81.2192L1.27489 79.805C0.944353 80.1355 0.799995 80.5565 0.799995 80.9801L2.8 80.9801ZM2.6891 81.2192C2.65425 81.254 2.60697 81.2864 2.55244 81.3076C2.49996 81.328 2.46156 81.3301 2.45 81.3301L2.45 79.3301C2.02641 79.3301 1.60543 79.4744 1.27489 79.805L2.6891 81.2192ZM2.45 81.3301L4.894 81.3301L4.894 79.3301L2.45 79.3301L2.45 81.3301ZM4.894 81.3301C4.86116 81.3301 4.82021 81.3238 4.77855 81.3076C4.7378 81.2917 4.71287 81.2728 4.70349 81.2646L6.0205 79.7595C5.71203 79.4896 5.32565 79.3301 4.894 79.3301L4.894 81.3301ZM4.65489 81.2192C4.62003 81.1843 4.5877 81.137 4.56649 81.0825C4.54608 81.03 4.544 80.9916 4.544 80.9801L6.544 80.9801C6.544 80.5565 6.39964 80.1355 6.06911 79.805L4.65489 81.2192ZM4.544 80.9801L4.544 89.2741L6.544 89.2741L6.544 80.9801L4.544 80.9801ZM5.544 90.2741L9.054 90.2741L9.054 88.2741L5.544 88.2741L5.544 90.2741ZM10.054 89.2741L10.054 81.5521L8.054 81.5521L8.054 89.2741L10.054 89.2741ZM10.054 81.5521C10.054 81.5802 10.0483 81.6342 10.0198 81.6982C9.99095 81.7631 9.9516 81.8094 9.9205 81.8366L8.60349 80.3315C8.23933 80.6501 8.054 81.0845 8.054 81.5521L10.054 81.5521ZM9.9691 81.7912C9.93425 81.826 9.88697 81.8584 9.83244 81.8796C9.77996 81.9 9.74156 81.9021 9.73 81.9021L9.73 79.9021C9.30641 79.9021 8.88543 80.0464 8.55489 80.377L9.9691 81.7912ZM9.73 81.9021L11.992 81.9021L11.992 79.9021L9.73 79.9021L9.73 81.9021ZM11.992 81.9021C11.9592 81.9021 11.9182 81.8958 11.8766 81.8796C11.8358 81.8637 11.8109 81.8448 11.8015 81.8366L13.1185 80.3315C12.81 80.0616 12.4236 79.9021 11.992 79.9021L11.992 81.9021ZM11.7529 81.7912C11.718 81.7563 11.6857 81.709 11.6645 81.6545C11.6441 81.602 11.642 81.5636 11.642 81.5521L13.642 81.5521C13.642 81.1285 13.4976 80.7075 13.1671 80.377L11.7529 81.7912ZM11.642 81.5521L11.642 89.2741L13.642 89.2741L13.642 81.5521L11.642 81.5521ZM12.642 90.2741L16.256 90.2741L16.256 88.2741L12.642 88.2741L12.642 90.2741ZM17.256 89.2741L17.256 80.7721L15.256 80.7721L15.256 89.2741L17.256 89.2741ZM17.256 80.7721C17.256 80.7836 17.2539 80.822 17.2335 80.8745C17.2123 80.929 17.18 80.9763 17.1451 81.0112L15.7309 79.597C15.4004 79.9275 15.256 80.3485 15.256 80.7721L17.256 80.7721ZM17.1451 81.0112C17.1103 81.046 17.063 81.0784 17.0084 81.0996C16.956 81.12 16.9176 81.1221 16.906 81.1221L16.906 79.1221C16.4824 79.1221 16.0614 79.2664 15.7309 79.597L17.1451 81.0112ZM16.906 81.1221L19.35 81.1221L19.35 79.1221L16.906 79.1221L16.906 81.1221ZM19.35 81.1221C19.3172 81.1221 19.2762 81.1158 19.2345 81.0996C19.1938 81.0837 19.1689 81.0648 19.1595 81.0566L20.4765 79.5515C20.168 79.2816 19.7817 79.1221 19.35 79.1221L19.35 81.1221ZM19.1109 81.0112C19.076 80.9763 19.0437 80.929 19.0225 80.8745C19.0021 80.822 19 80.7836 19 80.7721L21 80.7721C21 80.3485 20.8556 79.9275 20.5251 79.597L19.1109 81.0112ZM19 80.7721L19 93.1221L21 93.1221L21 80.7721L19 80.7721ZM19.818 75.7106L20.4765 76.4632L20.5267 76.4193L20.5706 76.3691L19.818 75.7106ZM1.982 75.7106L1.22942 76.3691L1.25135 76.3942L1.27489 76.4177L1.982 75.7106ZM1.982 71.3426L2.6891 72.0497L2.6891 72.0497L1.982 71.3426ZM16.074 71.1606L16.074 72.1606L17.074 72.1606L17.074 71.1606L16.074 71.1606ZM16.282 62.8146L16.9405 63.5672L16.9656 63.5452L16.9891 63.5217L16.282 62.8146ZM19.818 62.8146L20.5251 62.1075L20.5016 62.0839L20.4765 62.062L19.818 62.8146ZM19 75.2426C19 75.2098 19.0063 75.1688 19.0225 75.1271C19.0383 75.0864 19.0572 75.0615 19.0654 75.0521L20.5706 76.3691C20.8405 76.0606 21 75.6742 21 75.2426L19 75.2426ZM19.1595 74.958C19.1689 74.9498 19.1938 74.9309 19.2345 74.9151C19.2762 74.8989 19.3172 74.8926 19.35 74.8926L19.35 76.8926C19.7816 76.8926 20.168 76.7331 20.4765 76.4632L19.1595 74.958ZM19.35 74.8926L2.45 74.8926L2.45 76.8926L19.35 76.8926L19.35 74.8926ZM2.45 74.8926C2.46156 74.8926 2.49996 74.8947 2.55244 74.9151C2.60698 74.9363 2.65425 74.9686 2.6891 75.0035L1.27489 76.4177C1.60542 76.7482 2.02641 76.8926 2.45 76.8926L2.45 74.8926ZM2.73457 75.0521C2.74277 75.0615 2.76165 75.0864 2.7775 75.1271C2.7937 75.1688 2.8 75.2098 2.8 75.2426L0.799995 75.2426C0.799995 75.6742 0.959509 76.0606 1.22942 76.3691L2.73457 75.0521ZM2.8 75.2426L2.8 71.8106L0.799995 71.8106L0.799995 75.2426L2.8 75.2426ZM2.8 71.8106C2.8 71.8222 2.79791 71.8606 2.7775 71.913C2.75629 71.9676 2.72395 72.0148 2.6891 72.0497L1.27489 70.6355C0.944353 70.966 0.799995 71.387 0.799995 71.8106L2.8 71.8106ZM2.6891 72.0497C2.65425 72.0846 2.60697 72.1169 2.55244 72.1381C2.49996 72.1585 2.46156 72.1606 2.45 72.1606L2.45 70.1606C2.02641 70.1606 1.60542 70.3049 1.27489 70.6355L2.6891 72.0497ZM2.45 72.1606L16.074 72.1606L16.074 70.1606L2.45 70.1606L2.45 72.1606ZM17.074 71.1606L17.074 63.2826L15.074 63.2826L15.074 71.1606L17.074 71.1606ZM17.074 63.2826C17.074 63.3108 17.0683 63.3647 17.0398 63.4287C17.011 63.4937 16.9716 63.54 16.9405 63.5672L15.6235 62.062C15.2593 62.3807 15.074 62.815 15.074 63.2826L17.074 63.2826ZM16.9891 63.5217C16.9543 63.5566 16.907 63.5889 16.8524 63.6101C16.8 63.6305 16.7616 63.6326 16.75 63.6326L16.75 61.6326C16.3264 61.6326 15.9054 61.7769 15.5749 62.1075L16.9891 63.5217ZM16.75 63.6326L19.35 63.6326L19.35 61.6326L16.75 61.6326L16.75 63.6326ZM19.35 63.6326C19.3172 63.6326 19.2762 63.6263 19.2345 63.6101C19.1938 63.5942 19.1689 63.5754 19.1595 63.5672L20.4765 62.062C20.168 61.7921 19.7816 61.6326 19.35 61.6326L19.35 63.6326ZM19.1109 63.5217C19.076 63.4868 19.0437 63.4396 19.0225 63.385C19.0021 63.3326 19 63.2942 19 63.2826L21 63.2826C21 62.859 20.8556 62.438 20.5251 62.1075L19.1109 63.5217ZM19 63.2826L19 75.2426L21 75.2426L21 63.2826L19 63.2826ZM19.532 56.5569L18.6073 56.1762L18.6073 56.1762L19.532 56.5569ZM17.634 59.2349L18.2284 60.0391L18.2383 60.0318L18.2479 60.0243L17.634 59.2349ZM15.034 60.1709L15.034 61.1709L15.0525 61.1709L15.071 61.1702L15.034 60.1709ZM14.67 60.0149L13.9629 60.722L13.9629 60.722L14.67 60.0149ZM14.618 55.8289L15.4317 56.4102L15.4773 56.3463L15.5124 56.2761L14.618 55.8289ZM14.956 55.4129L14.5088 54.5185L14.3905 54.5776L14.2916 54.6655L14.956 55.4129ZM16.074 54.3209L16.9367 54.8266L16.9367 54.8266L16.074 54.3209ZM16.048 50.0569L15.1905 50.5714L15.1905 50.5714L16.048 50.0569ZM13.838 49.6929L14.569 50.3752L14.58 50.3635L14.5906 50.3514L13.838 49.6929ZM13.188 50.9409L12.2393 50.6247L12.2393 50.6247L13.188 50.9409ZM12.538 53.4889L11.5604 53.2784L11.559 53.285L12.538 53.4889ZM10.64 58.1689L11.4093 58.8078L11.4151 58.8008L11.4209 58.7936L10.64 58.1689ZM4.19199 58.8189L3.61398 59.6349L3.61398 59.6349L4.19199 58.8189ZM2.24199 56.2969L1.32285 56.6908L1.32285 56.6908L2.24199 56.2969ZM2.32 48.5489L3.22545 48.9734L3.22545 48.9734L2.32 48.5489ZM4.29599 46.0269L4.8789 46.8395L4.88896 46.8322L4.89883 46.8248L4.29599 46.0269ZM6.60999 45.0909L6.60999 44.0909L6.58728 44.0909L6.56459 44.0919L6.60999 45.0909ZM7 45.2469L7.70711 44.5398L7.7071 44.5398L7 45.2469ZM7.05199 49.5889L7.92024 50.0851L7.93401 50.061L7.94642 50.0361L7.05199 49.5889ZM6.71399 49.9269L6.96642 50.8945L7.12894 50.8521L7.2687 50.759L6.71399 49.9269ZM5.7 50.7849L6.55165 51.309L6.55603 51.3019L6.56029 51.2947L5.7 50.7849ZM5.7 54.2689L6.53205 53.7142L6.53204 53.7142L5.7 54.2689ZM7.83199 54.5549L8.51245 55.2877L8.52601 55.2751L8.5391 55.262L7.83199 54.5549ZM8.50799 53.4109L9.43647 53.7823L9.44381 53.764L9.45042 53.7453L8.50799 53.4109ZM9.10599 51.1229L10.0845 51.3289L10.0873 51.3159L10.0897 51.3027L9.10599 51.1229ZM10.224 47.2749L11.1281 47.7023L11.1327 47.6925L11.1371 47.6826L10.224 47.2749ZM11.94 45.1429L12.4756 45.9875L12.485 45.9814L11.94 45.1429ZM17.608 45.4809L16.993 46.2694L16.9952 46.2711L17.608 45.4809ZM19.584 48.2629L20.5181 47.9058L20.5152 47.8985L19.584 48.2629ZM19.26 52.3189C19.26 53.8714 19.0307 55.1479 18.6073 56.1762L20.4567 56.9377C21.0039 55.6086 21.26 54.0598 21.26 52.3189L19.26 52.3189ZM18.6073 56.1762C18.1695 57.2395 17.6284 57.9724 17.0201 58.4456L18.2479 60.0243C19.1996 59.2841 19.9238 58.2317 20.4567 56.9377L18.6073 56.1762ZM17.0396 58.4307C16.3942 58.9078 15.7197 59.1448 14.997 59.1716L15.071 61.1702C16.2203 61.1277 17.2791 60.7407 18.2284 60.0391L17.0396 58.4307ZM15.034 59.1709C15.0931 59.1709 15.1629 59.1828 15.2329 59.2128C15.3018 59.2423 15.3494 59.2801 15.3771 59.3078L13.9629 60.722C14.2418 61.0009 14.6128 61.1709 15.034 61.1709L15.034 59.1709ZM15.3771 59.3078C15.3929 59.3236 15.4238 59.36 15.4497 59.4191C15.4763 59.4801 15.488 59.5433 15.488 59.5989L13.488 59.5989C13.488 60.0479 13.6746 60.4337 13.9629 60.722L15.3771 59.3078ZM15.488 59.5989L15.488 56.3229L13.488 56.3229L13.488 59.5989L15.488 59.5989ZM15.488 56.3229C15.488 56.2866 15.492 56.2812 15.4876 56.2979C15.4827 56.3164 15.4682 56.3591 15.4317 56.4102L13.8043 55.2477C13.557 55.5938 13.488 55.9865 13.488 56.3229L15.488 56.3229ZM15.5124 56.2761C15.5089 56.2832 15.5285 56.242 15.6204 56.1603L14.2916 54.6655C14.0715 54.8612 13.8658 55.0973 13.7236 55.3817L15.5124 56.2761ZM15.4032 56.3073C16.0529 55.9825 16.5598 55.4696 16.9367 54.8266L15.2113 53.8152C14.9989 54.1776 14.7604 54.3927 14.5088 54.5185L15.4032 56.3073ZM16.9367 54.8266C17.3517 54.1186 17.516 53.2568 17.516 52.3189L15.516 52.3189C15.516 53.045 15.3856 53.5179 15.2113 53.8152L16.9367 54.8266ZM17.516 52.3189C17.516 51.2521 17.3522 50.2869 16.9055 49.5424L15.1905 50.5714C15.3678 50.8669 15.516 51.4097 15.516 52.3189L17.516 52.3189ZM16.9055 49.5424C16.4405 48.7675 15.7134 48.2769 14.774 48.2769L14.774 50.2769C14.9093 50.2769 15.0315 50.3064 15.1905 50.5714L16.9055 49.5424ZM14.774 48.2769C14.1158 48.2769 13.5254 48.5316 13.0854 49.0344L14.5906 50.3514C14.6359 50.2996 14.6696 50.2769 14.774 50.2769L14.774 48.2769ZM13.1069 49.0106C12.7208 49.4244 12.448 49.9985 12.2393 50.6247L14.1367 51.2571C14.3093 50.7393 14.4699 50.4815 14.569 50.3752L13.1069 49.0106ZM12.2393 50.6247C12.031 51.2497 11.8052 52.1419 11.5604 53.2784L13.5156 53.6995C13.7561 52.5826 13.9637 51.7761 14.1367 51.2571L12.2393 50.6247ZM11.559 53.285C11.1407 55.293 10.5514 56.6789 9.85913 57.5442L11.4209 58.7936C12.3926 57.579 13.0687 55.8448 13.517 53.6929L11.559 53.285ZM9.87071 57.53C9.24519 58.2832 8.34598 58.7029 7.026 58.7029L7.026 60.7029C8.82601 60.7029 10.3361 60.1 11.4093 58.8078L9.87071 57.53ZM7.026 58.7029C6.16757 58.7029 5.42649 58.4679 4.77001 58.0029L3.61398 59.6349C4.6215 60.3486 5.76976 60.7029 7.026 60.7029L7.026 58.7029ZM4.77001 58.0029C4.11185 57.5367 3.5687 56.854 3.16114 55.903L1.32285 56.6908C1.85129 57.9239 2.60814 58.9225 3.61398 59.6349L4.77001 58.0029ZM3.16114 55.903C2.75707 54.9602 2.53999 53.8252 2.53999 52.4749L0.539994 52.4749C0.539995 54.0366 0.790917 55.4497 1.32285 56.6908L3.16114 55.903ZM2.53999 52.4749C2.53999 51.0805 2.78039 49.9228 3.22545 48.9734L1.41454 48.1245C0.819602 49.3937 0.539994 50.8533 0.539994 52.4749L2.53999 52.4749ZM3.22545 48.9734C3.69066 47.9809 4.25097 47.2899 4.8789 46.8395L3.71309 45.2144C2.74635 45.9079 1.98933 46.8983 1.41454 48.1245L3.22545 48.9734ZM4.89883 46.8248C5.56269 46.3232 6.1445 46.1131 6.6554 46.0899L6.56459 44.0919C5.55015 44.1381 4.5893 44.552 3.69316 45.2291L4.89883 46.8248ZM6.60999 46.0909C6.57528 46.0909 6.51898 46.0847 6.45311 46.0584C6.38606 46.0316 6.33173 45.9929 6.29289 45.954L7.7071 44.5398C7.4033 44.236 7.01335 44.0909 6.60999 44.0909L6.60999 46.0909ZM6.29288 45.954C6.25405 45.9152 6.21533 45.8609 6.18852 45.7938C6.16217 45.7279 6.15599 45.6716 6.15599 45.6369L8.15599 45.6369C8.15599 45.2336 8.0109 44.8436 7.70711 44.5398L6.29288 45.954ZM6.15599 45.6369L6.15599 49.0689L8.15599 49.0689L8.15599 45.6369L6.15599 45.6369ZM6.15599 49.0689C6.15599 49.1183 6.15181 49.1468 6.14941 49.1588C6.14712 49.1703 6.14738 49.1621 6.15757 49.1417L7.94642 50.0361C8.10473 49.7195 8.15599 49.3816 8.15599 49.0689L6.15599 49.0689ZM6.18375 49.0928C6.19885 49.0664 6.21049 49.0552 6.20839 49.0573C6.20592 49.0598 6.19183 49.0732 6.15929 49.0949L7.2687 50.759C7.51177 50.5969 7.75219 50.3791 7.92024 50.0851L6.18375 49.0928ZM6.46157 48.9593C5.7342 49.149 5.20684 49.6556 4.8397 50.2751L6.56029 51.2947C6.74781 50.9783 6.89645 50.9128 6.96642 50.8945L6.46157 48.9593ZM4.84834 50.2608C4.45051 50.9073 4.28399 51.6645 4.28399 52.4749L6.28399 52.4749C6.28399 51.9333 6.39481 51.5639 6.55165 51.309L4.84834 50.2608ZM4.28399 52.4749C4.28399 53.3502 4.4356 54.1751 4.86795 54.8236L6.53204 53.7142C6.40972 53.5307 6.28399 53.1596 6.28399 52.4749L4.28399 52.4749ZM4.86794 54.8236C5.34662 55.5416 6.07998 55.8929 6.922 55.8929L6.92199 53.8929C6.68934 53.8929 6.60804 53.8282 6.53205 53.7142L4.86794 54.8236ZM6.922 55.8929C7.5112 55.8929 8.0658 55.7025 8.51245 55.2877L7.15154 53.8221C7.11286 53.858 7.06079 53.8929 6.92199 53.8929L6.922 55.8929ZM8.5391 55.262C8.91922 54.8819 9.20604 54.3584 9.43647 53.7823L7.57952 53.0395C7.39395 53.5035 7.2301 53.7426 7.12489 53.8478L8.5391 55.262ZM9.45042 53.7453C9.66313 53.1459 9.8732 52.3328 10.0845 51.3289L8.12744 50.9169C7.92278 51.889 7.7342 52.6013 7.56557 53.0765L9.45042 53.7453ZM10.0897 51.3027C10.3763 49.7347 10.7292 48.5461 11.1281 47.7023L9.31992 46.8475C8.81748 47.9104 8.42499 49.2872 8.12229 50.9431L10.0897 51.3027ZM11.1371 47.6826C11.5113 46.8443 11.9698 46.3082 12.4755 45.9874L11.4045 44.2984C10.4889 44.879 9.80331 45.7642 9.31086 46.8673L11.1371 47.6826ZM12.485 45.9814C12.9764 45.6619 13.6487 45.4669 14.566 45.4669L14.566 43.4669C13.3687 43.4669 12.2902 43.7226 11.395 44.3045L12.485 45.9814ZM14.566 45.4669C15.518 45.4669 16.3124 45.7386 16.993 46.2694L18.223 44.6924C17.1703 43.8713 15.9367 43.4669 14.566 43.4669L14.566 45.4669ZM16.9952 46.2711C17.6763 46.7994 18.2376 47.5665 18.6528 48.6273L20.5152 47.8985C19.9944 46.5674 19.2383 45.4798 18.2208 44.6907L16.9952 46.2711ZM18.6499 48.6201C19.049 49.6636 19.26 50.8909 19.26 52.3189L21.26 52.3189C21.26 50.6963 21.0204 49.2195 20.518 47.9058L18.6499 48.6201ZM50.844 156.61L51.4948 157.369L51.5532 157.319L51.6033 157.261L50.844 156.61ZM50.22 156.74L49.8763 157.679L49.8899 157.684L49.9038 157.689L50.22 156.74ZM33.528 150.63L33.8717 149.691L33.822 149.673L33.7705 149.66L33.528 150.63ZM33.008 150.292L33.7889 149.667L33.7889 149.667L33.008 150.292ZM33.008 145.092L32.2271 144.467L32.2271 144.467L33.008 145.092ZM33.528 144.754L33.7705 145.724L33.8213 145.711L33.8704 145.694L33.528 144.754ZM50.22 138.67L50.0031 137.694L49.9391 137.708L49.8776 137.73L50.22 138.67ZM50.454 138.618L50.454 137.618L50.3442 137.618L50.2371 137.642L50.454 138.618ZM50.844 138.8L51.5511 138.093L51.5511 138.093L50.844 138.8ZM50.454 143.22L50.098 142.286L50.0969 142.286L50.454 143.22ZM47.802 144.234L47.4449 143.3L46.802 143.546L46.802 144.234L47.802 144.234ZM47.802 151.176L46.802 151.176L46.802 151.871L47.4529 152.113L47.802 151.176ZM50.454 152.164L50.81 151.229L50.8031 151.227L50.454 152.164ZM44.058 145.274L45.058 145.274L45.058 143.861L43.7257 144.331L44.058 145.274ZM37.194 147.692L36.8617 146.749L34.1843 147.692L36.8617 148.635L37.194 147.692ZM44.058 150.11L43.7257 151.053L45.058 151.523L45.058 150.11L44.058 150.11ZM50 156.22C50 156.161 50.0117 156.102 50.0325 156.05C50.0525 156 50.0753 155.97 50.0847 155.959L51.6033 157.261C51.8375 156.987 52 156.633 52 156.22L50 156.22ZM50.1932 155.851C50.2042 155.841 50.2341 155.819 50.2841 155.799C50.3361 155.778 50.3949 155.766 50.454 155.766L50.454 157.766C50.8673 157.766 51.2215 157.604 51.4948 157.369L50.1932 155.851ZM50.454 155.766C50.4278 155.766 50.4207 155.765 50.4279 155.766C50.4321 155.766 50.4433 155.767 50.46 155.771C50.4763 155.774 50.5028 155.78 50.5362 155.791L49.9038 157.689C50.1121 157.758 50.3208 157.766 50.454 157.766L50.454 155.766ZM50.5637 155.801L33.8717 149.691L33.1843 151.569L49.8763 157.679L50.5637 155.801ZM33.7705 149.66C33.7695 149.66 33.7712 149.66 33.7749 149.662C33.7787 149.663 33.7829 149.665 33.787 149.668C33.791 149.671 33.7935 149.673 33.7942 149.673C33.7949 149.674 33.793 149.672 33.7889 149.667L32.2271 150.917C32.4974 151.255 32.8571 151.493 33.2855 151.6L33.7705 149.66ZM33.7889 149.667C33.7951 149.675 33.8001 149.683 33.8036 149.69C33.8071 149.696 33.8081 149.7 33.8078 149.699C33.8071 149.697 33.8 149.672 33.8 149.616L31.8 149.616C31.8 150.062 31.9142 150.526 32.2271 150.917L33.7889 149.667ZM33.8 149.616L33.8 145.768L31.8 145.768L31.8 149.616L33.8 149.616ZM33.8 145.768C33.8 145.712 33.8071 145.687 33.8078 145.685C33.8081 145.684 33.8071 145.688 33.8036 145.694C33.8001 145.701 33.7951 145.709 33.7889 145.717L32.2271 144.467C31.9142 144.858 31.8 145.322 31.8 145.768L33.8 145.768ZM33.7889 145.717C33.793 145.712 33.7949 145.71 33.7942 145.711C33.7935 145.711 33.791 145.713 33.787 145.716C33.7829 145.719 33.7787 145.721 33.7749 145.722C33.7712 145.724 33.7695 145.724 33.7705 145.724L33.2855 143.784C32.8571 143.891 32.4974 144.129 32.2271 144.467L33.7889 145.717ZM33.8704 145.694L50.5624 139.61L49.8776 137.73L33.1856 143.814L33.8704 145.694ZM50.4369 139.646L50.6709 139.594L50.2371 137.642L50.0031 137.694L50.4369 139.646ZM50.454 139.618C50.3721 139.618 50.2953 139.599 50.2326 139.57C50.1736 139.542 50.1429 139.513 50.1369 139.507L51.5511 138.093C51.2894 137.831 50.9179 137.618 50.454 137.618L50.454 139.618ZM50.1369 139.507C50.0981 139.468 50.0593 139.414 50.0325 139.347C50.0062 139.281 50 139.225 50 139.19L52 139.19C52 138.787 51.8549 138.397 51.5511 138.093L50.1369 139.507ZM50 139.19L50 142.388L52 142.388L52 139.19L50 139.19ZM50 142.388C50 142.451 49.9872 142.421 50.0275 142.359C50.0462 142.331 50.0682 142.309 50.0868 142.295C50.1043 142.281 50.1113 142.28 50.098 142.286L50.81 144.154C51.1533 144.024 51.474 143.8 51.6995 143.457C51.9218 143.118 52 142.741 52 142.388L50 142.388ZM50.0969 142.286L47.4449 143.3L48.1591 145.168L50.8111 144.154L50.0969 142.286ZM46.802 144.234L46.802 151.176L48.802 151.176L48.802 144.234L46.802 144.234ZM47.4529 152.113L50.1049 153.101L50.8031 151.227L48.1511 150.239L47.4529 152.113ZM50.098 153.098C50.1078 153.102 50.0982 153.1 50.0789 153.085C50.0586 153.069 50.0371 153.047 50.0198 153.019C49.9838 152.963 50 152.943 50 153.022L52 153.022C52 152.668 51.9252 152.288 51.7072 151.946C51.4839 151.595 51.1619 151.364 50.81 151.23L50.098 153.098ZM50 153.022L50 156.22L52 156.22L52 153.022L50 153.022ZM43.7257 144.331L36.8617 146.749L37.5263 148.635L44.3903 146.217L43.7257 144.331ZM36.8617 148.635L43.7257 151.053L44.3903 149.167L37.5263 146.749L36.8617 148.635ZM45.058 150.11L45.058 145.274L43.058 145.274L43.058 150.11L45.058 150.11ZM50.818 135.113L51.4765 135.865L51.5267 135.821L51.5706 135.771L50.818 135.113ZM32.982 135.113L32.2294 135.771L32.2513 135.796L32.2749 135.82L32.982 135.113ZM33.294 131.005L33.7221 131.908L33.778 131.882L33.8303 131.849L33.294 131.005ZM43.278 124.661L43.8143 125.505L46.7164 123.661L43.278 123.661L43.278 124.661ZM32.982 124.479L32.2294 125.137L32.2513 125.162L32.2749 125.186L32.982 124.479ZM32.982 120.423L33.6891 121.13L33.6891 121.13L32.982 120.423ZM50.818 120.423L51.5251 119.716L51.5016 119.692L51.4765 119.67L50.818 120.423ZM50.506 124.531L50.005 123.665L49.9798 123.68L49.9555 123.696L50.506 124.531ZM40.886 130.875L40.3355 130.04L37.5532 131.875L40.886 131.875L40.886 130.875ZM50.818 131.057L51.5251 130.35L51.5016 130.326L51.4765 130.304L50.818 131.057ZM50 134.645C50 134.612 50.0063 134.571 50.0225 134.529C50.0383 134.488 50.0572 134.464 50.0654 134.454L51.5706 135.771C51.8405 135.463 52 135.076 52 134.645L50 134.645ZM50.1595 134.36C50.1689 134.352 50.1938 134.333 50.2346 134.317C50.2762 134.301 50.3172 134.295 50.35 134.295L50.35 136.295C50.7817 136.295 51.168 136.135 51.4765 135.865L50.1595 134.36ZM50.35 134.295L33.45 134.295L33.45 136.295L50.35 136.295L50.35 134.295ZM33.45 134.295C33.4616 134.295 33.5 134.297 33.5524 134.317C33.607 134.338 33.6543 134.371 33.6891 134.406L32.2749 135.82C32.6054 136.15 33.0264 136.295 33.45 136.295L33.45 134.295ZM33.7346 134.454C33.7428 134.464 33.7617 134.488 33.7775 134.529C33.7937 134.571 33.8 134.612 33.8 134.645L31.8 134.645C31.8 135.076 31.9595 135.463 32.2294 135.771L33.7346 134.454ZM33.8 134.645L33.8 131.889L31.8 131.889L31.8 134.645L33.8 134.645ZM33.8 131.889C33.8 131.795 33.8178 131.792 33.7964 131.83C33.7857 131.85 33.7702 131.87 33.7518 131.886C33.734 131.903 33.7214 131.909 33.7221 131.908L32.8659 130.101C32.5291 130.26 32.2425 130.511 32.0506 130.855C31.8645 131.188 31.8 131.549 31.8 131.889L33.8 131.889ZM33.8303 131.849L43.8143 125.505L42.7417 123.817L32.7577 130.161L33.8303 131.849ZM43.278 123.661L33.45 123.661L33.45 125.661L43.278 125.661L43.278 123.661ZM33.45 123.661C33.4616 123.661 33.5 123.663 33.5524 123.683C33.607 123.704 33.6543 123.737 33.6891 123.772L32.2749 125.186C32.6054 125.516 33.0264 125.661 33.45 125.661L33.45 123.661ZM33.7346 123.82C33.7428 123.83 33.7617 123.854 33.7775 123.895C33.7937 123.937 33.8 123.978 33.8 124.011L31.8 124.011C31.8 124.442 31.9595 124.829 32.2294 125.137L33.7346 123.82ZM33.8 124.011L33.8 120.891L31.8 120.891L31.8 124.011L33.8 124.011ZM33.8 120.891C33.8 120.902 33.7979 120.941 33.7775 120.993C33.7563 121.048 33.724 121.095 33.6891 121.13L32.2749 119.716C31.9444 120.046 31.8 120.467 31.8 120.891L33.8 120.891ZM33.6891 121.13C33.6543 121.165 33.607 121.197 33.5524 121.218C33.5 121.239 33.4616 121.241 33.45 121.241L33.45 119.241C33.0264 119.241 32.6054 119.385 32.2749 119.716L33.6891 121.13ZM33.45 121.241L50.324 121.241L50.324 119.241L33.45 119.241L33.45 121.241ZM50.324 121.241C50.3116 121.241 50.2824 121.238 50.2448 121.225C50.2067 121.21 50.1775 121.191 50.1595 121.175L51.4765 119.67C51.1487 119.383 50.7477 119.241 50.324 119.241L50.324 121.241ZM50.1109 121.13C50.076 121.095 50.0437 121.048 50.0225 120.993C50.0021 120.941 50 120.902 50 120.891L52 120.891C52 120.467 51.8556 120.046 51.5251 119.716L50.1109 121.13ZM50 120.891L50 123.673L52 123.673L52 120.891L50 120.891ZM50 123.673C50 123.696 49.9975 123.704 49.9982 123.701C49.9986 123.7 49.9996 123.696 50.0016 123.691C50.0036 123.686 50.0064 123.68 50.0099 123.674C50.0134 123.668 50.017 123.663 50.0205 123.658C50.0239 123.654 50.0266 123.651 50.0278 123.65C50.0302 123.648 50.0247 123.654 50.005 123.665L51.007 125.396C51.646 125.026 52 124.41 52 123.673L50 123.673ZM49.9555 123.696L40.3355 130.04L41.4365 131.709L51.0565 125.365L49.9555 123.696ZM40.886 131.875L50.35 131.875L50.35 129.875L40.886 129.875L40.886 131.875ZM50.35 131.875C50.3172 131.875 50.2762 131.868 50.2346 131.852C50.1938 131.836 50.1689 131.817 50.1595 131.809L51.4765 130.304C51.168 130.034 50.7817 129.875 50.35 129.875L50.35 131.875ZM50.1109 131.764C50.076 131.729 50.0437 131.682 50.0225 131.627C50.0021 131.575 50 131.536 50 131.525L52 131.525C52 131.101 51.8556 130.68 51.5251 130.35L50.1109 131.764ZM50 131.525L50 134.645L52 134.645L52 131.525L50 131.525ZM50.818 115.151L51.4765 115.904L51.5267 115.86L51.5706 115.81L50.818 115.151ZM32.982 115.151L32.2294 115.81L32.2513 115.835L32.2749 115.858L32.982 115.151ZM34.62 101.995L33.8634 101.341L33.8634 101.341L34.62 101.995ZM39.898 99.7852L39.9281 100.785L39.9325 100.785L39.898 99.7852ZM43.876 99.7852L43.9119 98.7858L43.9117 98.7858L43.876 99.7852ZM49.258 101.943L50.0124 101.287L50.0118 101.286L49.258 101.943ZM46.45 105.401L47.1571 104.694L47.1515 104.688L47.1458 104.683L46.45 105.401ZM43.824 104.543L43.7552 105.541L43.7751 105.542L43.795 105.543L43.824 104.543ZM39.95 104.543L39.9798 105.543L40.0006 105.542L40.0212 105.541L39.95 104.543ZM37.376 105.479L38.0939 106.175L38.0991 106.17L38.1042 106.165L37.376 105.479ZM36.544 110.653L35.544 110.653L35.544 111.653L36.544 111.653L36.544 110.653ZM47.256 110.653L47.256 111.653L48.256 111.653L48.256 110.653L47.256 110.653ZM50 114.683C50 114.65 50.0063 114.609 50.0225 114.568C50.0383 114.527 50.0572 114.502 50.0654 114.493L51.5706 115.81C51.8405 115.501 52 115.115 52 114.683L50 114.683ZM50.1595 114.399C50.1689 114.39 50.1938 114.372 50.2346 114.356C50.2762 114.339 50.3172 114.333 50.35 114.333L50.35 116.333C50.7817 116.333 51.168 116.174 51.4765 115.904L50.1595 114.399ZM50.35 114.333L33.45 114.333L33.45 116.333L50.35 116.333L50.35 114.333ZM33.45 114.333C33.4616 114.333 33.5 114.335 33.5524 114.356C33.607 114.377 33.6543 114.409 33.6891 114.444L32.2749 115.858C32.6054 116.189 33.0264 116.333 33.45 116.333L33.45 114.333ZM33.7346 114.493C33.7428 114.502 33.7617 114.527 33.7775 114.568C33.7937 114.609 33.8 114.65 33.8 114.683L31.8 114.683C31.8 115.115 31.9595 115.501 32.2294 115.81L33.7346 114.493ZM33.8 114.683L33.8 107.923L31.8 107.923L31.8 114.683L33.8 114.683ZM33.8 107.923C33.8 105.526 34.3704 103.813 35.3766 102.649L33.8634 101.341C32.443 102.985 31.8 105.225 31.8 107.923L33.8 107.923ZM35.3766 102.649C36.364 101.506 37.8297 100.848 39.9281 100.785L39.8679 98.7856C37.3556 98.8612 35.3026 99.6759 33.8634 101.341L35.3766 102.649ZM39.9325 100.785C40.4187 100.768 41.0731 100.759 41.9 100.759L41.9 98.7592C41.0629 98.7592 40.3826 98.7679 39.8635 98.7858L39.9325 100.785ZM41.9 100.759C42.7272 100.759 43.3723 100.768 43.8403 100.785L43.9117 98.7858C43.409 98.7679 42.7368 98.7592 41.9 98.7592L41.9 100.759ZM43.84 100.785C46.072 100.865 47.5634 101.521 48.5042 102.6L50.0118 101.286C48.5952 99.6612 46.4986 98.8789 43.9119 98.7858L43.84 100.785ZM48.5036 102.6C49.4484 103.685 50 105.363 50 107.793L52 107.793C52 105.093 51.3903 102.87 50.0124 101.287L48.5036 102.6ZM50 107.793L50 114.683L52 114.683L52 107.793L50 107.793ZM48.256 107.923C48.256 106.646 47.9584 105.495 47.1571 104.694L45.7429 106.108C46.0163 106.382 46.256 106.912 46.256 107.923L48.256 107.923ZM47.1458 104.683C46.3354 103.898 45.1666 103.582 43.853 103.544L43.795 105.543C44.8734 105.574 45.4553 105.83 45.7542 106.119L47.1458 104.683ZM43.8928 103.546C43.3581 103.509 42.6828 103.491 41.874 103.491L41.874 105.491C42.6599 105.491 43.2846 105.508 43.7552 105.541L43.8928 103.546ZM41.874 103.491C41.0658 103.491 40.3979 103.509 39.8788 103.546L40.0212 105.541C40.4728 105.508 41.0875 105.491 41.874 105.491L41.874 103.491ZM39.9202 103.544C38.6098 103.583 37.4509 103.94 36.6478 104.794L38.1042 106.165C38.4104 105.839 38.9676 105.573 39.9798 105.543L39.9202 103.544ZM36.6581 104.783C35.8566 105.61 35.544 106.763 35.544 108.053L37.544 108.053C37.544 107.056 37.7861 106.493 38.0939 106.175L36.6581 104.783ZM35.544 108.053L35.544 110.653L37.544 110.653L37.544 108.053L35.544 108.053ZM36.544 111.653L47.256 111.653L47.256 109.653L36.544 109.653L36.544 111.653ZM48.256 110.653L48.256 107.923L46.256 107.923L46.256 110.653L48.256 110.653ZM50.766 86.6318L51.4731 87.3389L51.4917 87.3203L51.5093 87.3008L50.766 86.6318ZM50.142 86.9438L50.0006 85.9539L49.9872 85.9558L49.9738 85.958L50.142 86.9438ZM33.528 89.7778L33.3598 88.792L33.2844 88.8049L33.2118 88.8291L33.528 89.7778ZM32.982 89.6478L33.6891 88.9407L33.6891 88.9407L32.982 89.6478ZM33.372 85.2278L33.5071 86.2186L33.5218 86.2166L33.5364 86.2142L33.372 85.2278ZM43.512 83.5378L43.6764 84.5242L43.8107 82.5835L43.512 83.5378ZM37.532 81.6658L37.1547 82.5919L37.1934 82.6077L37.2332 82.6201L37.532 81.6658ZM37.532 78.0778L37.8161 79.0366L37.8234 79.0344L37.8307 79.0321L37.532 78.0778ZM43.512 76.2058L43.8107 77.1601L43.6764 75.2194L43.512 76.2058ZM33.372 74.5158L33.5364 73.5294L33.5218 73.527L33.5071 73.525L33.372 74.5158ZM32.982 70.0958L33.6328 70.8551L33.6912 70.805L33.7413 70.7466L32.982 70.0958ZM33.346 69.9138L33.4874 68.9239L33.4171 68.9138L33.346 68.9138L33.346 69.9138ZM33.528 69.9398L33.6961 68.954L33.6828 68.9518L33.6694 68.9499L33.528 69.9398ZM50.142 72.7738L49.9738 73.7596L49.9872 73.7618L50.0006 73.7638L50.142 72.7738ZM50.766 73.1118L51.5093 72.4428L51.5059 72.4391L50.766 73.1118ZM50.324 77.2458L50.657 78.1887L50.6763 78.1819L50.6954 78.1743L50.324 77.2458ZM42.888 79.8718L42.555 78.9289L39.8849 79.8718L42.555 80.8147L42.888 79.8718ZM50.324 82.4978L49.991 83.4408L49.9969 83.4428L50.324 82.4978ZM50 85.9298C50 85.99 49.992 86.0127 49.9928 86.0101C49.9933 86.0085 49.9957 86.002 50.0013 85.9923C50.0069 85.9825 50.0142 85.9723 50.0227 85.9628L51.5093 87.3008C51.8707 86.8992 52 86.4041 52 85.9298L50 85.9298ZM50.0589 85.9247C50.0441 85.9395 50.0356 85.944 50.0328 85.9454C50.03 85.9468 50.0213 85.9509 50.0006 85.9539L50.2834 87.9338C50.7403 87.8685 51.1468 87.6652 51.4731 87.3389L50.0589 85.9247ZM49.9738 85.958L33.3598 88.792L33.6961 90.7636L50.3101 87.9296L49.9738 85.958ZM33.2118 88.8291C33.2846 88.8048 33.335 88.8038 33.346 88.8038L33.346 90.8038C33.4957 90.8038 33.6674 90.7854 33.8442 90.7265L33.2118 88.8291ZM33.346 88.8038C33.4051 88.8038 33.4749 88.8156 33.5449 88.8457C33.6138 88.8752 33.6614 88.913 33.6891 88.9407L32.2749 90.3549C32.5538 90.6338 32.9248 90.8038 33.346 90.8038L33.346 88.8038ZM33.6891 88.9407C33.6951 88.9467 33.7241 88.9774 33.7517 89.0364C33.7809 89.0991 33.8 89.1759 33.8 89.2578L31.8 89.2578C31.8 89.7217 32.0132 90.0932 32.2749 90.3549L33.6891 88.9407ZM33.8 89.2578L33.8 86.0338L31.8 86.0338L31.8 89.2578L33.8 89.2578ZM33.8 86.0338C33.8 85.9052 33.8278 85.9494 33.7585 86.0471C33.7208 86.1001 33.6691 86.147 33.6108 86.1797C33.5555 86.2107 33.5149 86.2176 33.5071 86.2186L33.2369 84.237C32.8225 84.2935 32.4101 84.4914 32.1275 84.8896C31.8675 85.2559 31.8 85.6771 31.8 86.0338L33.8 86.0338ZM33.5364 86.2142L43.6764 84.5242L43.3476 82.5514L33.2076 84.2414L33.5364 86.2142ZM43.8107 82.5835L37.8307 80.7115L37.2332 82.6201L43.2132 84.4921L43.8107 82.5835ZM37.9093 80.7397C37.8452 80.7136 37.8068 80.6913 37.7866 80.6776C37.767 80.6643 37.7687 80.6619 37.7795 80.6751C37.7913 80.6896 37.8065 80.7137 37.8175 80.745C37.8284 80.776 37.83 80.7993 37.83 80.8078L35.83 80.8078C35.83 81.2213 35.9634 81.6138 36.2315 81.9415C36.486 82.2525 36.8203 82.4557 37.1547 82.5919L37.9093 80.7397ZM37.83 80.8078L37.83 78.9358L35.83 78.9358L35.83 80.8078L37.83 80.8078ZM37.83 78.9358C37.83 78.9175 37.8324 78.9244 37.8248 78.9478C37.8166 78.973 37.8014 79.0027 37.7795 79.0295C37.7345 79.0844 37.7135 79.067 37.8161 79.0366L37.2479 77.119C36.8825 77.2273 36.5105 77.4222 36.2315 77.7631C35.9439 78.1146 35.83 78.53 35.83 78.9358L37.83 78.9358ZM37.8307 79.0321L43.8107 77.1601L43.2132 75.2515L37.2332 77.1235L37.8307 79.0321ZM43.6764 75.2194L33.5364 73.5294L33.2076 75.5022L43.3476 77.1922L43.6764 75.2194ZM33.5071 73.525C33.5149 73.526 33.5555 73.5329 33.6107 73.5639C33.6691 73.5966 33.7208 73.6435 33.7585 73.6966C33.8278 73.7942 33.8 73.8384 33.8 73.7098L31.8 73.7098C31.8 74.0665 31.8675 74.4878 32.1275 74.8541C32.4101 75.2522 32.8225 75.4501 33.2369 75.5066L33.5071 73.525ZM33.8 73.7098L33.8 70.4858L31.8 70.4858L31.8 73.7098L33.8 73.7098ZM33.8 70.4858C33.8 70.541 33.7884 70.6155 33.7517 70.6942C33.7153 70.7722 33.6678 70.825 33.6328 70.8551L32.3312 69.3366C31.9944 69.6252 31.8 70.0298 31.8 70.4858L33.8 70.4858ZM33.7413 70.7466C33.7217 70.7694 33.676 70.8148 33.5982 70.8537C33.5169 70.8944 33.4283 70.9138 33.346 70.9138L33.346 68.9138C32.8693 68.9138 32.4845 69.1396 32.2227 69.445L33.7413 70.7466ZM33.2046 70.9038L33.3866 70.9298L33.6694 68.9499L33.4874 68.9239L33.2046 70.9038ZM33.3598 70.9256L49.9738 73.7596L50.3101 71.788L33.6961 68.954L33.3598 70.9256ZM50.0006 73.7638C50.0057 73.7645 50.0075 73.7652 50.0068 73.7649C50.006 73.7647 50.0048 73.7642 50.0037 73.7636C50.0027 73.7631 50.0038 73.7635 50.007 73.766C50.0103 73.7687 50.0168 73.7743 50.0261 73.7845L51.5059 72.4391C51.1848 72.0858 50.7689 71.8532 50.2834 71.7839L50.0006 73.7638ZM50.0227 73.7808C50.017 73.7745 50.0111 73.7666 50.006 73.7578C50.0008 73.749 49.9979 73.7419 49.9965 73.7379C49.9937 73.7298 50 73.7427 50 73.7878L52 73.7878C52 73.3128 51.8609 72.8335 51.5093 72.4428L50.0227 73.7808ZM50 73.7878L50 76.2578L52 76.2578L52 73.7878L50 73.7878ZM50 76.2578C50 76.3149 49.9927 76.3325 49.9956 76.3235C49.9972 76.3185 50.0013 76.3072 50.0098 76.2921C50.0184 76.2767 50.03 76.2599 50.0446 76.2434L51.5394 77.5722C51.888 77.18 52 76.6982 52 76.2578L50 76.2578ZM50.0446 76.2434C49.9968 76.2973 49.9655 76.3122 49.9526 76.3173L50.6954 78.1743C51.0291 78.0408 51.3099 77.8304 51.5394 77.5722L50.0446 76.2434ZM49.991 76.3029L42.555 78.9289L43.221 80.8147L50.657 78.1887L49.991 76.3029ZM42.555 80.8147L49.991 83.4407L50.657 81.5549L43.221 78.9289L42.555 80.8147ZM49.9969 83.4428C50.0342 83.4557 50.0463 83.4649 50.0435 83.4629C50.042 83.4619 50.0376 83.4586 50.0316 83.4526C50.0255 83.4465 50.0189 83.439 50.0128 83.4303C50.0067 83.4215 50.0021 83.4133 49.9989 83.4065C49.9957 83.3997 49.9946 83.3958 49.9947 83.3959C49.9948 83.3964 50 83.4153 50 83.4598L52 83.4598C52 83.0609 51.9058 82.6455 51.6492 82.2804C51.3916 81.9137 51.0311 81.6843 50.6511 81.5528L49.9969 83.4428ZM50 83.4598L50 85.9298L52 85.9298L52 83.4598L50 83.4598ZM50.818 65.7784L51.4765 66.531L51.5267 66.4871L51.5706 66.4369L50.818 65.7784ZM32.982 65.7784L32.2294 66.4369L32.2513 66.4619L32.2749 66.4855L32.982 65.7784ZM32.982 61.3584L33.6891 62.0655L33.7126 62.0419L33.7346 62.0169L32.982 61.3584ZM50.818 61.3584L50.0654 62.0169L50.0873 62.0419L50.1109 62.0655L50.818 61.3584ZM50 65.3104C50 65.2776 50.0063 65.2366 50.0225 65.1949C50.0383 65.1542 50.0572 65.1293 50.0654 65.1199L51.5706 66.4369C51.8405 66.1284 52 65.742 52 65.3104L50 65.3104ZM50.1595 65.0258C50.1689 65.0176 50.1938 64.9987 50.2345 64.9829C50.2762 64.9667 50.3172 64.9604 50.35 64.9604L50.35 66.9604C50.7816 66.9604 51.168 66.8009 51.4765 66.531L50.1595 65.0258ZM50.35 64.9604L33.45 64.9604L33.45 66.9604L50.35 66.9604L50.35 64.9604ZM33.45 64.9604C33.4616 64.9604 33.5 64.9625 33.5524 64.9829C33.607 65.0041 33.6543 65.0364 33.6891 65.0713L32.2749 66.4855C32.6054 66.816 33.0264 66.9604 33.45 66.9604L33.45 64.9604ZM33.7346 65.1199C33.7428 65.1293 33.7617 65.1542 33.7775 65.1949C33.7937 65.2366 33.8 65.2776 33.8 65.3104L31.8 65.3104C31.8 65.742 31.9595 66.1284 32.2294 66.4369L33.7346 65.1199ZM33.8 65.3104L33.8 61.8264L31.8 61.8264L31.8 65.3104L33.8 65.3104ZM33.8 61.8264C33.8 61.838 33.7979 61.8764 33.7775 61.9288C33.7563 61.9834 33.724 62.0306 33.6891 62.0655L32.2749 60.6513C31.9444 60.9818 31.8 61.4028 31.8 61.8264L33.8 61.8264ZM33.7346 62.0169C33.7074 62.048 33.6611 62.0873 33.5961 62.1162C33.5321 62.1447 33.4782 62.1504 33.45 62.1504L33.45 60.1504C32.9824 60.1504 32.5481 60.3357 32.2294 60.6999L33.7346 62.0169ZM33.45 62.1504L50.35 62.1504L50.35 60.1504L33.45 60.1504L33.45 62.1504ZM50.35 62.1504C50.3218 62.1504 50.2679 62.1447 50.2039 62.1162C50.1389 62.0873 50.0926 62.048 50.0654 62.0169L51.5706 60.6999C51.2519 60.3357 50.8176 60.1504 50.35 60.1504L50.35 62.1504ZM50.1109 62.0655C50.076 62.0306 50.0437 61.9834 50.0225 61.9288C50.0021 61.8764 50 61.8379 50 61.8264L52 61.8264C52 61.4028 51.8556 60.9818 51.5251 60.6513L50.1109 62.0655ZM50 61.8264L50 65.3104L52 65.3104L52 61.8264L50 61.8264ZM50.818 56.0747L51.4765 56.8273L51.5267 56.7834L51.5706 56.7332L50.818 56.0747ZM32.982 56.0747L32.2294 56.7332L32.2513 56.7583L32.2749 56.7818L32.982 56.0747ZM33.294 51.9667L33.7221 52.8704L33.778 52.8439L33.8303 52.8107L33.294 51.9667ZM43.278 45.6227L43.8143 46.4667L46.7164 44.6227L43.278 44.6227L43.278 45.6227ZM32.982 45.4407L32.2294 46.0992L32.2513 46.1243L32.2749 46.1478L32.982 45.4407ZM32.982 41.3847L33.6891 42.0918L33.6891 42.0918L32.982 41.3847ZM50.818 41.3847L51.5251 40.6776L51.5016 40.6541L51.4765 40.6321L50.818 41.3847ZM50.506 45.4927L50.005 44.6273L49.9798 44.6419L49.9555 44.6579L50.506 45.4927ZM40.886 51.8367L40.3355 51.0019L37.5532 52.8367L40.886 52.8367L40.886 51.8367ZM50.818 52.0187L51.5251 51.3116L51.5016 51.2881L51.4765 51.2661L50.818 52.0187ZM50 55.6067C50 55.5739 50.0063 55.5329 50.0225 55.4913C50.0383 55.4505 50.0572 55.4256 50.0654 55.4162L51.5706 56.7332C51.8405 56.4247 52 56.0384 52 55.6067L50 55.6067ZM50.1595 55.3221C50.1689 55.3139 50.1938 55.295 50.2345 55.2792C50.2762 55.263 50.3172 55.2567 50.35 55.2567L50.35 57.2567C50.7816 57.2567 51.168 57.0972 51.4765 56.8273L50.1595 55.3221ZM50.35 55.2567L33.45 55.2567L33.45 57.2567L50.35 57.2567L50.35 55.2567ZM33.45 55.2567C33.4616 55.2567 33.5 55.2588 33.5524 55.2792C33.607 55.3004 33.6542 55.3327 33.6891 55.3676L32.2749 56.7818C32.6054 57.1123 33.0264 57.2567 33.45 57.2567L33.45 55.2567ZM33.7346 55.4162C33.7428 55.4256 33.7617 55.4505 33.7775 55.4913C33.7937 55.5329 33.8 55.5739 33.8 55.6067L31.8 55.6067C31.8 56.0384 31.9595 56.4247 32.2294 56.7332L33.7346 55.4162ZM33.8 55.6067L33.8 52.8507L31.8 52.8507L31.8 55.6067L33.8 55.6067ZM33.8 52.8507C33.8 52.7575 33.8178 52.7543 33.7964 52.7925C33.7857 52.8117 33.7702 52.8317 33.7518 52.8485C33.734 52.8648 33.7214 52.8708 33.7221 52.8704L32.8659 51.063C32.5291 51.2225 32.2425 51.4734 32.0506 51.8169C31.8645 52.1498 31.8 52.5106 31.8 52.8507L33.8 52.8507ZM33.8303 52.8107L43.8143 46.4667L42.7417 44.7787L32.7577 51.1227L33.8303 52.8107ZM43.278 44.6227L33.45 44.6227L33.45 46.6227L43.278 46.6227L43.278 44.6227ZM33.45 44.6227C33.4616 44.6227 33.5 44.6248 33.5524 44.6452C33.607 44.6664 33.6542 44.6987 33.6891 44.7336L32.2749 46.1478C32.6054 46.4783 33.0264 46.6227 33.45 46.6227L33.45 44.6227ZM33.7346 44.7822C33.7428 44.7916 33.7616 44.8165 33.7775 44.8573C33.7937 44.8989 33.8 44.9399 33.8 44.9727L31.8 44.9727C31.8 45.4044 31.9595 45.7907 32.2294 46.0992L33.7346 44.7822ZM33.8 44.9727L33.8 41.8527L31.8 41.8527L31.8 44.9727L33.8 44.9727ZM33.8 41.8527C33.8 41.8643 33.7979 41.9027 33.7775 41.9552C33.7563 42.0097 33.724 42.057 33.6891 42.0918L32.2749 40.6776C31.9444 41.0081 31.8 41.4291 31.8 41.8527L33.8 41.8527ZM33.6891 42.0918C33.6543 42.1267 33.607 42.159 33.5524 42.1802C33.5 42.2006 33.4616 42.2027 33.45 42.2027L33.45 40.2027C33.0264 40.2027 32.6054 40.3471 32.2749 40.6776L33.6891 42.0918ZM33.45 42.2027L50.324 42.2027L50.324 40.2027L33.45 40.2027L33.45 42.2027ZM50.324 42.2027C50.3116 42.2027 50.2824 42.2004 50.2448 42.1865C50.2067 42.1725 50.1775 42.1531 50.1595 42.1373L51.4765 40.6321C51.1487 40.3453 50.7477 40.2027 50.324 40.2027L50.324 42.2027ZM50.1109 42.0918C50.076 42.057 50.0437 42.0097 50.0225 41.9551C50.0021 41.9027 50 41.8643 50 41.8527L52 41.8527C52 41.4291 51.8556 41.0081 51.5251 40.6776L50.1109 42.0918ZM50 41.8527L50 44.6347L52 44.6347L52 41.8527L50 41.8527ZM50 44.6347C50 44.658 49.9975 44.6663 49.9982 44.6633C49.9986 44.6618 49.9996 44.6583 50.0016 44.6532C50.0036 44.6481 50.0064 44.6423 50.0099 44.6362C50.0134 44.6302 50.017 44.6249 50.0205 44.6204C50.0239 44.6161 50.0266 44.6133 50.0278 44.6122C50.0302 44.6098 50.0247 44.6159 50.005 44.6273L51.007 46.3581C51.646 45.9882 52 45.372 52 44.6347L50 44.6347ZM49.9555 44.6579L40.3355 51.0019L41.4365 52.6715L51.0565 46.3275L49.9555 44.6579ZM40.886 52.8367L50.35 52.8367L50.35 50.8367L40.886 50.8367L40.886 52.8367ZM50.35 52.8367C50.3172 52.8367 50.2762 52.8304 50.2345 52.8142C50.1938 52.7984 50.1689 52.7795 50.1595 52.7713L51.4765 51.2661C51.168 50.9962 50.7816 50.8367 50.35 50.8367L50.35 52.8367ZM50.1109 52.7258C50.076 52.691 50.0437 52.6437 50.0225 52.5891C50.0021 52.5367 50 52.4983 50 52.4867L52 52.4867C52 52.0631 51.8556 51.6421 51.5251 51.3116L50.1109 52.7258ZM50 52.4867L50 55.6067L52 55.6067L52 52.4867L50 52.4867ZM49.44 34.6312L50.192 35.2904L50.1966 35.2851L49.44 34.6312ZM44.214 36.8672L44.2485 37.8666L44.2524 37.8665L44.214 36.8672ZM39.43 36.8672L39.3907 37.8664L39.3955 37.8666L39.43 36.8672ZM34.334 34.6052L33.565 35.2445L33.5688 35.2491L34.334 34.6052ZM33.346 24.4912L34.2604 24.8961L34.2624 24.8913L33.346 24.4912ZM35.4 21.6832L36.0106 22.4753L36.0207 22.4672L35.4 21.6832ZM37.974 20.6432L37.974 19.6432L37.9544 19.6432L37.9348 19.644L37.974 20.6432ZM38.364 20.8252L37.6047 21.476L37.6297 21.5052L37.6569 21.5323L38.364 20.8252ZM38.442 25.4272L39.3364 25.8744L39.3364 25.8744L38.442 25.4272ZM38.156 25.6872L38.565 26.5997L38.5843 26.5911L38.6032 26.5816L38.156 25.6872ZM36.856 26.7532L37.6423 27.371L37.6493 27.3622L37.656 27.3532L36.856 26.7532ZM39.56 32.0312L39.5124 33.0301L39.5243 33.0306L39.56 32.0312ZM44.084 32.0312L44.1185 33.0307L44.1294 33.0302L44.084 32.0312ZM46.736 26.2592L47.4953 25.6084L47.4938 25.6067L46.736 26.2592ZM43.798 25.3232L43.798 24.3232L42.798 24.3232L42.798 25.3232L43.798 25.3232ZM43.616 28.2352L44.2745 28.9878L44.2996 28.9659L44.3231 28.9423L43.616 28.2352ZM40.73 28.2352L41.4371 27.5281L41.4136 27.5045L41.3885 27.4826L40.73 28.2352ZM40.73 20.7472L41.3885 21.4998L41.4136 21.4779L41.4371 21.4543L40.73 20.7472ZM47.984 21.5792L48.5227 20.7367L48.5164 20.7327L47.984 21.5792ZM50.428 24.4652L51.3397 24.0543L51.3371 24.0485L50.428 24.4652ZM50.26 28.7812C50.26 31.1206 49.6926 32.8096 48.6834 33.9773L50.1966 35.2851C51.6141 33.6449 52.26 31.4338 52.26 28.7812L50.26 28.7812ZM48.688 33.972C47.6753 35.1274 46.2159 35.7895 44.1756 35.8679L44.2524 37.8665C46.7188 37.7716 48.7434 36.943 50.192 35.2904L48.688 33.972ZM44.1795 35.8678C43.6953 35.8845 42.9126 35.8932 41.822 35.8932L41.822 37.8932C42.9154 37.8932 43.7274 37.8846 44.2485 37.8666L44.1795 35.8678ZM41.822 35.8932C40.7314 35.8932 39.9487 35.8845 39.4645 35.8678L39.3955 37.8666C39.9166 37.8846 40.7286 37.8932 41.822 37.8932L41.822 35.8932ZM39.4693 35.868C37.4921 35.7901 36.0802 35.1273 35.0991 33.9614L33.5688 35.2491C34.9798 36.9258 36.9652 37.7709 39.3907 37.8664L39.4693 35.868ZM35.103 33.9659C34.0968 32.7556 33.54 31.0642 33.54 28.7812L31.54 28.7812C31.54 31.3862 32.1792 33.5774 33.565 35.2445L35.103 33.9659ZM33.54 28.7812C33.54 27.2414 33.7914 25.9551 34.2603 24.8961L32.4316 24.0863C31.826 25.4539 31.54 27.0277 31.54 28.7812L33.54 28.7812ZM34.2624 24.8913C34.7507 23.773 35.3439 22.989 36.0105 22.4752L34.7895 20.8912C33.7921 21.66 33.0159 22.748 32.4295 24.0911L34.2624 24.8913ZM36.0207 22.4672C36.7205 21.9132 37.3805 21.6672 38.0132 21.6424L37.9348 19.644C36.7995 19.6885 35.7435 20.1359 34.7793 20.8992L36.0207 22.4672ZM37.974 21.6432C37.9188 21.6432 37.8443 21.6316 37.7656 21.5949C37.6876 21.5585 37.6348 21.511 37.6047 21.476L39.1233 20.1744C38.8346 19.8376 38.43 19.6432 37.974 19.6432L37.974 21.6432ZM37.6569 21.5323C37.618 21.4935 37.5793 21.4391 37.5525 21.3721C37.5262 21.3062 37.52 21.2499 37.52 21.2152L39.52 21.2152C39.52 20.8118 39.3749 20.4219 39.0711 20.1181L37.6569 21.5323ZM37.52 21.2152L37.52 25.0112L39.52 25.0112L39.52 21.2152L37.52 21.2152ZM37.52 25.0112C37.52 25.0495 37.517 25.0643 37.5176 25.0609C37.5182 25.0576 37.5243 25.0266 37.5476 24.98L39.3364 25.8744C39.4835 25.5802 39.52 25.2699 39.52 25.0112L37.52 25.0112ZM37.5476 24.98C37.6201 24.8349 37.718 24.7882 37.7088 24.7928L38.6032 26.5816C38.8713 26.4476 39.1599 26.2275 39.3364 25.8744L37.5476 24.98ZM37.7469 24.7747C37.0743 25.0762 36.5112 25.5463 36.056 26.1532L37.656 27.3532C37.9288 26.9894 38.2324 26.7488 38.565 26.5997L37.7469 24.7747ZM36.0697 26.1354C35.5036 26.8559 35.284 27.7792 35.284 28.7812L37.284 28.7812C37.284 28.0498 37.4458 27.6212 37.6423 27.371L36.0697 26.1354ZM35.284 28.7812C35.284 29.9853 35.6059 31.0641 36.3987 31.8506C37.1821 32.6278 38.2768 32.9712 39.5124 33.0301L39.6076 31.0323C38.6592 30.9872 38.1159 30.7369 37.8073 30.4308C37.5081 30.134 37.284 29.6398 37.284 28.7812L35.284 28.7812ZM39.5243 33.0306C40.0285 33.0486 40.7974 33.0572 41.822 33.0572L41.822 31.0572C40.8012 31.0572 40.0622 31.0485 39.5957 31.0318L39.5243 33.0306ZM41.822 33.0572C42.8299 33.0572 43.5979 33.0486 44.1185 33.0306L44.0495 31.0318C43.5647 31.0485 42.8248 31.0572 41.822 31.0572L41.822 33.0572ZM44.1294 33.0302C45.4121 32.9719 46.5436 32.6251 47.3541 31.8391C48.1778 31.0404 48.516 29.9391 48.516 28.7032L46.516 28.7032C46.516 29.582 46.2822 30.0926 45.9618 30.4033C45.6284 30.7267 45.0439 30.9865 44.0386 31.0322L44.1294 33.0302ZM48.516 28.7032C48.516 27.5103 48.21 26.4423 47.4953 25.6084L45.9767 26.91C46.302 27.2895 46.516 27.8508 46.516 28.7032L48.516 28.7032ZM47.4938 25.6067C46.7094 24.6958 45.5744 24.3232 44.292 24.3232L44.292 26.3232C45.1936 26.3232 45.688 26.5746 45.9782 26.9117L47.4938 25.6067ZM44.292 24.3232L43.798 24.3232L43.798 26.3232L44.292 26.3232L44.292 24.3232ZM42.798 25.3232L42.798 27.7672L44.798 27.7672L44.798 25.3232L42.798 25.3232ZM42.798 27.7672C42.798 27.7556 42.8001 27.7172 42.8205 27.6648C42.8417 27.6102 42.874 27.5629 42.9089 27.5281L44.3231 28.9423C44.6536 28.6118 44.798 28.1908 44.798 27.7672L42.798 27.7672ZM42.9575 27.4826C42.9755 27.4668 43.0047 27.4474 43.0428 27.4334C43.0804 27.4195 43.1096 27.4172 43.122 27.4172L43.122 29.4172C43.5457 29.4172 43.9467 29.2746 44.2745 28.9878L42.9575 27.4826ZM43.122 27.4172L41.198 27.4172L41.198 29.4172L43.122 29.4172L43.122 27.4172ZM41.198 27.4172C41.2096 27.4172 41.248 27.4193 41.3004 27.4397C41.355 27.4609 41.4022 27.4932 41.4371 27.5281L40.0229 28.9423C40.3534 29.2728 40.7744 29.4172 41.198 29.4172L41.198 27.4172ZM41.3885 27.4826C41.4196 27.5098 41.4589 27.5561 41.4878 27.6211C41.5163 27.6851 41.522 27.739 41.522 27.7672L39.522 27.7672C39.522 28.2348 39.7073 28.6691 40.0715 28.9878L41.3885 27.4826ZM41.522 27.7672L41.522 21.2152L39.522 21.2152L39.522 27.7672L41.522 27.7672ZM41.522 21.2152C41.522 21.2434 41.5163 21.2973 41.4878 21.3613C41.4589 21.4263 41.4196 21.4726 41.3885 21.4998L40.0715 19.9946C39.7073 20.3133 39.522 20.7476 39.522 21.2152L41.522 21.2152ZM41.4371 21.4543C41.4022 21.4892 41.355 21.5215 41.3004 21.5427C41.248 21.5631 41.2096 21.5652 41.198 21.5652L41.198 19.5652C40.7744 19.5652 40.3534 19.7096 40.0229 20.0401L41.4371 21.4543ZM41.198 21.5652L44.162 21.5652L44.162 19.5652L41.198 19.5652L41.198 21.5652ZM44.162 21.5652C45.4777 21.5652 46.5606 21.8652 47.4515 22.4257L48.5164 20.7327C47.2581 19.9412 45.7929 19.5652 44.162 19.5652L44.162 21.5652ZM47.4453 22.4217C48.3258 22.9846 49.0191 23.7914 49.5189 24.8819L51.3371 24.0485C50.6929 22.643 49.7569 21.5258 48.5227 20.7367L47.4453 22.4217ZM49.5163 24.8761C50.0014 25.9525 50.26 27.2457 50.26 28.7812L52.26 28.7812C52.26 27.0233 51.9639 25.4393 51.3397 24.0543L49.5163 24.8761ZM50.532 13.7603L49.6073 13.3796L49.6073 13.3796L50.532 13.7603ZM48.634 16.4383L49.2284 17.2425L49.2383 17.2352L49.2479 17.2277L48.634 16.4383ZM46.034 17.3743L46.034 18.3743L46.0525 18.3743L46.071 18.3736L46.034 17.3743ZM45.67 17.2183L44.9629 17.9254L44.9629 17.9254L45.67 17.2183ZM45.618 13.0323L46.4317 13.6135L46.4773 13.5497L46.5124 13.4795L45.618 13.0323ZM45.956 12.6163L45.5088 11.7219L45.3905 11.781L45.2916 11.8689L45.956 12.6163ZM47.074 11.5243L47.9367 12.03L47.9367 12.03L47.074 11.5243ZM47.048 7.26031L46.1905 7.7748L46.1905 7.7748L47.048 7.26031ZM44.838 6.89631L45.569 7.57863L45.58 7.56689L45.5906 7.55481L44.838 6.89631ZM44.188 8.14431L43.2393 7.82808L43.2393 7.82808L44.188 8.14431ZM43.538 10.6923L42.5604 10.4817L42.559 10.4884L43.538 10.6923ZM41.64 15.3723L42.4093 16.0112L42.4151 16.0042L42.4209 15.997L41.64 15.3723ZM35.192 16.0223L34.614 16.8383L34.614 16.8383L35.192 16.0223ZM33.242 13.5003L32.3228 13.8942L32.3228 13.8942L33.242 13.5003ZM33.32 5.75231L34.2255 6.17674L34.2255 6.17674L33.32 5.75231ZM35.296 3.23031L35.8789 4.04285L35.889 4.03564L35.8988 4.02818L35.296 3.23031ZM37.61 2.29431L37.61 1.29431L37.5873 1.29431L37.5646 1.29534L37.61 2.29431ZM38 2.45031L38.7071 1.7432L38.7071 1.7432L38 2.45031ZM38.052 6.79231L38.9202 7.28845L38.934 7.26435L38.9464 7.23952L38.052 6.79231ZM37.714 7.13031L37.9664 8.09793L38.1289 8.05553L38.2687 7.96236L37.714 7.13031ZM36.7 7.98831L37.5517 8.51241L37.556 8.50529L37.5603 8.49811L36.7 7.98831ZM36.7 11.4723L37.532 10.9176L37.532 10.9176L36.7 11.4723ZM38.832 11.7583L39.5124 12.4911L39.526 12.4785L39.5391 12.4654L38.832 11.7583ZM39.508 10.6143L40.4365 10.9857L40.4438 10.9673L40.4504 10.9487L39.508 10.6143ZM40.106 8.32631L41.0845 8.53232L41.0873 8.51926L41.0897 8.50613L40.106 8.32631ZM41.224 4.47831L42.1281 4.90569L42.1327 4.89587L42.1371 4.88596L41.224 4.47831ZM42.94 2.34631L43.4756 3.19087L43.485 3.18475L42.94 2.34631ZM48.608 2.68431L47.993 3.47281L47.9952 3.47453L48.608 2.68431ZM50.584 5.46631L51.5181 5.10916L51.5152 5.10191L50.584 5.46631ZM50.26 9.52231C50.26 11.0748 50.0307 12.3513 49.6073 13.3796L51.4567 14.1411C52.0039 12.812 52.26 11.2632 52.26 9.52231L50.26 9.52231ZM49.6073 13.3796C49.1695 14.4429 48.6284 15.1758 48.0201 15.649L49.2479 17.2277C50.1996 16.4875 50.9238 15.4351 51.4567 14.1411L49.6073 13.3796ZM48.0396 15.6341C47.3942 16.1112 46.7197 16.3482 45.997 16.375L46.071 18.3736C47.2203 18.3311 48.2791 17.9441 49.2284 17.2425L48.0396 15.6341ZM46.034 16.3743C46.0931 16.3743 46.1629 16.3861 46.2329 16.4162C46.3018 16.4457 46.3494 16.4835 46.3771 16.5112L44.9629 17.9254C45.2418 18.2043 45.6128 18.3743 46.034 18.3743L46.034 16.3743ZM46.3771 16.5112C46.3929 16.527 46.4238 16.5634 46.4497 16.6225C46.4763 16.6835 46.488 16.7467 46.488 16.8023L44.488 16.8023C44.488 17.2513 44.6746 17.6371 44.9629 17.9254L46.3771 16.5112ZM46.488 16.8023L46.488 13.5263L44.488 13.5263L44.488 16.8023L46.488 16.8023ZM46.488 13.5263C46.488 13.49 46.492 13.4846 46.4876 13.5013C46.4827 13.5198 46.4682 13.5625 46.4317 13.6135L44.8043 12.4511C44.557 12.7972 44.488 13.1899 44.488 13.5263L46.488 13.5263ZM46.5124 13.4795C46.5089 13.4866 46.5285 13.4454 46.6204 13.3637L45.2916 11.8689C45.0715 12.0646 44.8658 12.3007 44.7236 12.5851L46.5124 13.4795ZM46.4032 13.5107C47.0529 13.1859 47.5598 12.673 47.9367 12.03L46.2113 11.0186C45.9989 11.3809 45.7604 11.5961 45.5088 11.7219L46.4032 13.5107ZM47.9367 12.03C48.3517 11.322 48.516 10.4602 48.516 9.52231L46.516 9.52231C46.516 10.2484 46.3856 10.7212 46.2113 11.0186L47.9367 12.03ZM48.516 9.52231C48.516 8.45551 48.3522 7.49032 47.9055 6.74581L46.1905 7.7748C46.3678 8.0703 46.516 8.6131 46.516 9.52231L48.516 9.52231ZM47.9055 6.74581C47.4405 5.97087 46.7134 5.48031 45.774 5.48031L45.774 7.48031C45.9093 7.48031 46.0315 7.50975 46.1905 7.7748L47.9055 6.74581ZM45.774 5.48031C45.1158 5.48031 44.5254 5.73498 44.0854 6.2378L45.5906 7.55481C45.6359 7.50297 45.6696 7.48031 45.774 7.48031L45.774 5.48031ZM44.1069 6.21399C43.7208 6.62776 43.448 7.20188 43.2393 7.82808L45.1367 8.46054C45.3093 7.94274 45.4699 7.68486 45.569 7.57863L44.1069 6.21399ZM43.2393 7.82808C43.031 8.4531 42.8052 9.34528 42.5604 10.4818L44.5156 10.9029C44.7561 9.786 44.9637 8.97952 45.1367 8.46054L43.2393 7.82808ZM42.559 10.4884C42.1407 12.4964 41.5514 13.8822 40.8591 14.7476L42.4209 15.997C43.3926 14.7824 44.0686 13.0482 44.517 10.8963L42.559 10.4884ZM40.8707 14.7334C40.2452 15.4866 39.346 15.9063 38.026 15.9063L38.026 17.9063C39.826 17.9063 41.3361 17.3034 42.4093 16.0112L40.8707 14.7334ZM38.026 15.9063C37.1676 15.9063 36.4265 15.6713 35.77 15.2063L34.614 16.8383C35.6215 17.552 36.7698 17.9063 38.026 17.9063L38.026 15.9063ZM35.77 15.2063C35.1118 14.7401 34.5687 14.0574 34.1611 13.1064L32.3228 13.8942C32.8513 15.1272 33.6081 16.1259 34.614 16.8383L35.77 15.2063ZM34.1611 13.1064C33.7571 12.1636 33.54 11.0286 33.54 9.67831L31.54 9.67831C31.54 11.24 31.7909 12.6531 32.3228 13.8942L34.1611 13.1064ZM33.54 9.67831C33.54 8.2839 33.7804 7.12622 34.2255 6.17674L32.4145 5.32787C31.8196 6.59707 31.54 8.05672 31.54 9.67831L33.54 9.67831ZM34.2255 6.17674C34.6907 5.1843 35.251 4.49332 35.8789 4.04285L34.7131 2.41777C33.7464 3.1113 32.9893 4.10166 32.4145 5.32788L34.2255 6.17674ZM35.8988 4.02818C36.5627 3.52659 37.1445 3.3165 37.6554 3.29328L37.5646 1.29534C36.5502 1.34145 35.5893 1.75536 34.6932 2.43244L35.8988 4.02818ZM37.61 3.29431C37.5753 3.29431 37.519 3.28814 37.4531 3.26179C37.3861 3.23497 37.3317 3.19626 37.2929 3.15742L38.7071 1.7432C38.4033 1.43941 38.0134 1.29431 37.61 1.29431L37.61 3.29431ZM37.2929 3.15741C37.254 3.11857 37.2153 3.06424 37.1885 2.9972C37.1622 2.93132 37.156 2.87503 37.156 2.84031L39.156 2.84031C39.156 2.43695 39.0109 2.047 38.7071 1.7432L37.2929 3.15741ZM37.156 2.84031L37.156 6.27231L39.156 6.27231L39.156 2.84031L37.156 2.84031ZM37.156 6.27231C37.156 6.32166 37.1518 6.35023 37.1494 6.36219C37.1471 6.37365 37.1474 6.36547 37.1576 6.3451L38.9464 7.23952C39.1047 6.9229 39.156 6.58496 39.156 6.27231L37.156 6.27231ZM37.1838 6.29617C37.1988 6.26976 37.2105 6.2586 37.2084 6.2607C37.2059 6.26317 37.1918 6.27657 37.1593 6.29826L38.2687 7.96236C38.5118 7.80031 38.7522 7.58253 38.9202 7.28845L37.1838 6.29617ZM37.4616 6.16269C36.7342 6.35244 36.2068 6.85895 35.8397 7.47851L37.5603 8.49811C37.7478 8.18166 37.8965 8.11618 37.9664 8.09793L37.4616 6.16269ZM35.8483 7.46421C35.4505 8.11068 35.284 8.86792 35.284 9.67831L37.284 9.67831C37.284 9.1367 37.3948 8.76727 37.5517 8.51241L35.8483 7.46421ZM35.284 9.67831C35.284 10.5536 35.4356 11.3785 35.8679 12.027L37.532 10.9176C37.4097 10.7341 37.284 10.363 37.284 9.67831L35.284 9.67831ZM35.8679 12.027C36.3466 12.745 37.08 13.0963 37.922 13.0963L37.922 11.0963C37.6893 11.0963 37.608 11.0316 37.532 10.9176L35.8679 12.027ZM37.922 13.0963C38.5112 13.0963 39.0658 12.9058 39.5124 12.4911L38.1515 11.0255C38.1129 11.0614 38.0608 11.0963 37.922 11.0963L37.922 13.0963ZM39.5391 12.4654C39.9192 12.0853 40.206 11.5618 40.4365 10.9857L38.5795 10.2429C38.3939 10.7069 38.2301 10.946 38.1249 11.0512L39.5391 12.4654ZM40.4504 10.9487C40.6631 10.3493 40.8732 9.53618 41.0845 8.53232L39.1274 8.1203C38.9228 9.09243 38.7342 9.80467 38.5656 10.2799L40.4504 10.9487ZM41.0897 8.50613C41.3763 6.93806 41.7292 5.7495 42.1281 4.90569L40.3199 4.05093C39.8175 5.11379 39.425 6.49055 39.1223 8.14649L41.0897 8.50613ZM42.1371 4.88596C42.5113 4.04771 42.9698 3.51154 43.4755 3.19082L42.4045 1.5018C41.4889 2.08241 40.8033 2.96757 40.3109 4.07066L42.1371 4.88596ZM43.485 3.18475C43.9764 2.8653 44.6487 2.67031 45.566 2.67031L45.566 0.670309C44.3686 0.670309 43.2902 0.925985 42.395 1.50786L43.485 3.18475ZM45.566 2.67031C46.518 2.67031 47.3124 2.94196 47.993 3.47281L49.223 1.89581C48.1703 1.07465 46.9367 0.670309 45.566 0.670309L45.566 2.67031ZM47.9952 3.47453C48.6763 4.00276 49.2376 4.76985 49.6528 5.83071L51.5152 5.10191C50.9944 3.77077 50.2383 2.68319 49.2208 1.89409L47.9952 3.47453ZM49.6499 5.82345C50.049 6.86703 50.26 8.09427 50.26 9.52231L52.26 9.52231C52.26 7.89968 52.0204 6.42292 51.518 5.10917L49.6499 5.82345Z" fill="white"/>
</svg>
