<svg width="22" height="176" viewBox="0 0 22 176" fill="none" xmlns="http://www.w3.org/2000/svg">
<path d="M19.766 170.97L20.4731 171.677L20.4917 171.659L20.5093 171.639L19.766 170.97ZM19.142 171.282L19.0006 170.292L18.9872 170.294L18.9738 170.296L19.142 171.282ZM2.528 174.116L2.35985 173.13L2.28439 173.143L2.21177 173.167L2.528 174.116ZM1.982 173.986L2.68911 173.279L2.6891 173.279L1.982 173.986ZM2.372 169.566L2.50711 170.557L2.52179 170.555L2.5364 170.552L2.372 169.566ZM12.512 167.876L12.6764 168.862L12.8107 166.922L12.512 167.876ZM6.532 166.004L6.1547 166.93L6.19339 166.946L6.23325 166.958L6.532 166.004ZM6.532 162.416L6.81609 163.375L6.82343 163.373L6.83075 163.37L6.532 162.416ZM12.512 160.544L12.8107 161.498L12.6764 159.558L12.512 160.544ZM2.372 158.854L2.5364 157.868L2.52179 157.865L2.50711 157.863L2.372 158.854ZM1.982 154.434L2.63279 155.193L2.69119 155.143L2.74126 155.085L1.982 154.434ZM2.346 154.252L2.48742 153.262L2.41707 153.252L2.346 153.252L2.346 154.252ZM2.528 154.278L2.69615 153.292L2.68281 153.29L2.66942 153.288L2.528 154.278ZM19.142 157.112L18.9738 158.098L18.9872 158.1L19.0006 158.102L19.142 157.112ZM19.766 157.45L20.5093 156.781L20.5059 156.777L19.766 157.45ZM19.324 161.584L19.657 162.527L19.6763 162.52L19.6954 162.512L19.324 161.584ZM11.888 164.21L11.555 163.267L8.88493 164.21L11.555 165.153L11.888 164.21ZM19.324 166.836L18.991 167.779L18.9969 167.781L19.324 166.836ZM19 170.268C19 170.328 18.992 170.351 18.9928 170.348C18.9933 170.347 18.9957 170.34 19.0013 170.33C19.0069 170.321 19.0142 170.311 19.0227 170.301L20.5093 171.639C20.8707 171.237 21 170.742 21 170.268L19 170.268ZM19.0589 170.263C19.0441 170.278 19.0356 170.282 19.0328 170.284C19.03 170.285 19.0213 170.289 19.0006 170.292L19.2834 172.272C19.7403 172.207 20.1468 172.003 20.4731 171.677L19.0589 170.263ZM18.9738 170.296L2.35985 173.13L2.69615 175.102L19.3102 172.268L18.9738 170.296ZM2.21177 173.167C2.28463 173.143 2.33498 173.142 2.346 173.142L2.346 175.142C2.49568 175.142 2.66737 175.124 2.84423 175.065L2.21177 173.167ZM2.346 173.142C2.40513 173.142 2.47487 173.154 2.54492 173.184C2.61381 173.213 2.6614 173.251 2.68911 173.279L1.27489 174.693C1.5538 174.972 1.92478 175.142 2.346 175.142L2.346 173.142ZM2.6891 173.279C2.69512 173.285 2.72412 173.316 2.75168 173.375C2.78095 173.437 2.8 173.514 2.8 173.596L0.799999 173.596C0.799999 174.06 1.01321 174.431 1.27489 174.693L2.6891 173.279ZM2.8 173.596L2.8 170.372L0.799999 170.372L0.799999 173.596L2.8 173.596ZM2.8 170.372C2.8 170.243 2.82779 170.288 2.75851 170.385C2.72085 170.438 2.66913 170.485 2.61075 170.518C2.55552 170.549 2.5149 170.556 2.50711 170.557L2.23689 168.575C1.82247 168.632 1.41005 168.83 1.12749 169.228C0.867545 169.594 0.799999 170.015 0.799999 170.372L2.8 170.372ZM2.5364 170.552L12.6764 168.862L12.3476 166.89L2.2076 168.58L2.5364 170.552ZM12.8107 166.922L6.83075 165.05L6.23325 166.958L12.2133 168.83L12.8107 166.922ZM6.9093 165.078C6.84518 165.052 6.80678 165.03 6.78663 165.016C6.76704 165.003 6.76869 165 6.77946 165.013C6.79134 165.028 6.80654 165.052 6.81754 165.083C6.8284 165.114 6.83 165.138 6.83 165.146L4.83 165.146C4.83 165.56 4.96337 165.952 5.23154 166.28C5.48596 166.591 5.82029 166.794 6.1547 166.93L6.9093 165.078ZM6.83 165.146L6.83 163.274L4.83 163.274L4.83 165.146L6.83 165.146ZM6.83 163.274C6.83 163.256 6.83242 163.263 6.82482 163.286C6.81661 163.311 6.8014 163.341 6.77946 163.368C6.73454 163.423 6.71354 163.405 6.81609 163.375L6.24791 161.457C5.88246 161.565 5.51046 161.76 5.23154 162.101C4.94395 162.453 4.83 162.868 4.83 163.274L6.83 163.274ZM6.83075 163.37L12.8107 161.498L12.2133 159.59L6.23325 161.462L6.83075 163.37ZM12.6764 159.558L2.5364 157.868L2.2076 159.84L12.3476 161.53L12.6764 159.558ZM2.50711 157.863C2.5149 157.864 2.55551 157.871 2.61075 157.902C2.66913 157.935 2.72085 157.982 2.7585 158.035C2.82778 158.132 2.8 158.177 2.8 158.048L0.799998 158.048C0.799998 158.405 0.867545 158.826 1.12749 159.192C1.41006 159.59 1.82247 159.788 2.23689 159.845L2.50711 157.863ZM2.8 158.048L2.8 154.824L0.799998 154.824L0.799998 158.048L2.8 158.048ZM2.8 154.824C2.8 154.879 2.78839 154.954 2.75168 155.032C2.71526 155.11 2.66784 155.163 2.63279 155.193L1.33121 153.675C0.994441 153.963 0.799998 154.368 0.799998 154.824L2.8 154.824ZM2.74126 155.085C2.72173 155.108 2.67602 155.153 2.59821 155.192C2.51687 155.233 2.42834 155.252 2.346 155.252L2.346 153.252C1.86932 153.252 1.48453 153.478 1.22274 153.783L2.74126 155.085ZM2.20458 155.242L2.38658 155.268L2.66942 153.288L2.48742 153.262L2.20458 155.242ZM2.35985 155.264L18.9738 158.098L19.3101 156.126L2.69615 153.292L2.35985 155.264ZM19.0006 158.102C19.0057 158.103 19.0075 158.103 19.0068 158.103C19.006 158.103 19.0048 158.102 19.0037 158.102C19.0027 158.101 19.0038 158.102 19.007 158.104C19.0103 158.107 19.0168 158.112 19.0261 158.123L20.5059 156.777C20.1848 156.424 19.7689 156.191 19.2834 156.122L19.0006 158.102ZM19.0227 158.119C19.017 158.113 19.0111 158.105 19.006 158.096C19.0008 158.087 18.9979 158.08 18.9965 158.076C18.9937 158.068 19 158.081 19 158.126L21 158.126C21 157.651 20.8609 157.172 20.5093 156.781L19.0227 158.119ZM19 158.126L19 160.596L21 160.596L21 158.126L19 158.126ZM19 160.596C19 160.653 18.9927 160.671 18.9956 160.662C18.9972 160.657 19.0013 160.645 19.0098 160.63C19.0184 160.615 19.03 160.598 19.0446 160.582L20.5394 161.91C20.888 161.518 21 161.036 21 160.596L19 160.596ZM19.0446 160.582C18.9968 160.635 18.9655 160.65 18.9526 160.656L19.6954 162.512C20.0291 162.379 20.3099 162.169 20.5394 161.91L19.0446 160.582ZM18.991 160.641L11.555 163.267L12.221 165.153L19.657 162.527L18.991 160.641ZM11.555 165.153L18.991 167.779L19.657 165.893L12.221 163.267L11.555 165.153ZM18.9969 167.781C19.0342 167.794 19.0463 167.803 19.0435 167.801C19.042 167.8 19.0376 167.797 19.0316 167.791C19.0255 167.785 19.019 167.777 19.0128 167.768C19.0067 167.76 19.0021 167.751 18.9989 167.745C18.9957 167.738 18.9947 167.734 18.9947 167.734C18.9948 167.735 19 167.754 19 167.798L21 167.798C21 167.399 20.9058 166.984 20.6492 166.619C20.3916 166.252 20.0311 166.023 19.6511 165.891L18.9969 167.781ZM19 167.798L19 170.268L21 170.268L21 167.798L19 167.798ZM18.466 148.838L17.7048 148.189L17.7048 148.189L18.466 148.838ZM13.188 151.074L13.2225 152.073L13.2253 152.073L13.188 151.074ZM8.69 151.074L8.65215 152.073L8.65554 152.073L8.69 151.074ZM3.412 148.812L4.16799 148.157L4.16739 148.156L3.412 148.812ZM3.412 137.32L4.1674 137.975L4.1719 137.97L3.412 137.32ZM8.69 135.058L8.72029 136.057L8.72446 136.057L8.69 135.058ZM13.188 135.058L13.2253 134.058L13.2225 134.058L13.188 135.058ZM18.466 137.294L17.7048 137.942L17.7048 137.942L18.466 137.294ZM15.658 140.804L14.9509 141.511L14.9563 141.516L14.9619 141.522L15.658 140.804ZM13.032 139.894L12.9975 140.893L13.0026 140.893L13.032 139.894ZM8.768 139.894L8.7974 140.893L8.80369 140.893L8.768 139.894ZM6.142 140.804L5.43489 140.097L5.43489 140.097L6.142 140.804ZM6.142 145.328L5.43489 146.035L5.44033 146.04L5.44585 146.046L6.142 145.328ZM8.768 146.238L8.72392 147.237L8.73231 147.237L8.768 146.238ZM13.032 146.238L13.0665 147.237L13.0761 147.237L13.032 146.238ZM15.658 145.328L14.9619 144.61L14.9619 144.61L15.658 145.328ZM19.26 143.066C19.26 145.35 18.7026 147.018 17.7048 148.189L19.2272 149.486C20.6214 147.85 21.26 145.669 21.26 143.066L19.26 143.066ZM17.7048 148.189C16.7353 149.327 15.2713 149.995 13.1507 150.074L13.2253 152.073C15.75 151.979 17.8047 151.156 19.2272 149.486L17.7048 148.189ZM13.1535 150.074C12.6686 150.091 11.9372 150.1 10.952 150.1L10.952 152.1C11.9428 152.1 12.7021 152.091 13.2225 152.073L13.1535 150.074ZM10.952 150.1C9.94922 150.1 9.20927 150.091 8.72446 150.074L8.65554 152.073C9.17606 152.091 9.94411 152.1 10.952 152.1L10.952 150.1ZM8.72785 150.074C6.65171 149.996 5.17879 149.325 4.16799 148.157L2.65601 149.466C4.10654 151.142 6.15229 151.978 8.65215 152.073L8.72785 150.074ZM4.16739 148.156C3.11437 146.943 2.54 145.281 2.54 143.066L0.539998 143.066C0.539998 145.635 1.21363 147.804 2.65661 149.467L4.16739 148.156ZM2.54 143.066C2.54 140.851 3.11437 139.189 4.16739 137.975L2.65661 136.664C1.21363 138.328 0.539997 140.497 0.539998 143.066L2.54 143.066ZM4.1719 137.97C5.18169 136.789 6.65003 136.12 8.72029 136.057L8.65971 134.058C6.15396 134.134 4.10364 134.973 2.6521 136.67L4.1719 137.97ZM8.72446 136.057C9.72725 136.023 10.4672 136.006 10.952 136.006L10.952 134.006C10.4315 134.006 9.66341 134.024 8.65554 134.058L8.72446 136.057ZM10.952 136.006C11.4192 136.006 12.1503 136.023 13.1535 136.057L13.2225 134.058C12.2151 134.024 11.4554 134.006 10.952 134.006L10.952 136.006ZM13.1507 136.057C15.2713 136.136 16.7353 136.804 17.7048 137.942L19.2272 136.645C17.8047 134.975 15.75 134.153 13.2253 134.058L13.1507 136.057ZM17.7048 137.942C18.7026 139.114 19.26 140.781 19.26 143.066L21.26 143.066C21.26 140.462 20.6214 138.282 19.2272 136.645L17.7048 137.942ZM17.516 143.066C17.516 141.899 17.1579 140.865 16.3541 140.086L14.9619 141.522C15.3021 141.851 15.516 142.326 15.516 143.066L17.516 143.066ZM16.3651 140.097C15.5449 139.276 14.3794 138.933 13.0614 138.894L13.0026 140.893C14.0419 140.924 14.6271 141.187 14.9509 141.511L16.3651 140.097ZM13.0665 138.894C12.0612 138.86 11.335 138.842 10.9 138.842L10.9 140.842C11.297 140.842 11.9922 140.858 12.9975 140.893L13.0665 138.894ZM10.9 138.842C10.4303 138.842 9.70456 138.86 8.73231 138.894L8.80369 140.893C9.77277 140.858 10.4684 140.842 10.9 140.842L10.9 138.842ZM8.7386 138.894C7.42059 138.933 6.25509 139.276 5.43489 140.097L6.8491 141.511C7.17291 141.187 7.75807 140.924 8.7974 140.893L8.7386 138.894ZM5.43489 140.097C4.64571 140.886 4.284 141.91 4.284 143.066L6.284 143.066C6.284 142.35 6.49429 141.866 6.8491 141.511L5.43489 140.097ZM4.284 143.066C4.284 144.222 4.64571 145.246 5.43489 146.035L6.8491 144.621C6.49429 144.266 6.284 143.782 6.284 143.066L4.284 143.066ZM5.44585 146.046C6.26138 146.836 7.41554 147.179 8.72392 147.237L8.81207 145.239C7.76313 145.192 7.16661 144.928 6.83814 144.61L5.44585 146.046ZM8.73231 147.237C9.23588 147.255 9.96083 147.264 10.9 147.264L10.9 145.264C9.96716 145.264 9.27079 145.255 8.80369 145.238L8.73231 147.237ZM10.9 147.264C11.8225 147.264 12.5466 147.255 13.0665 147.237L12.9975 145.238C12.5121 145.255 11.8149 145.264 10.9 145.264L10.9 147.264ZM13.0761 147.237C14.3845 147.179 15.5386 146.836 16.3541 146.046L14.9619 144.61C14.6334 144.928 14.0369 145.192 12.9879 145.239L13.0761 147.237ZM16.3541 146.046C17.1579 145.266 17.516 144.232 17.516 143.066L15.516 143.066C15.516 143.806 15.3021 144.28 14.9619 144.61L16.3541 146.046ZM19.818 130.536L20.4765 131.289L20.5267 131.245L20.5706 131.194L19.818 130.536ZM1.982 130.536L1.22942 131.194L1.25135 131.219L1.27489 131.243L1.982 130.536ZM3.36 117.692L4.13254 118.327L4.13726 118.321L4.14189 118.315L3.36 117.692ZM12.772 118.992L11.8595 119.401L12.3056 120.396L13.2585 119.866L12.772 118.992ZM19.168 115.43L18.7208 114.536L18.7009 114.545L18.6815 114.556L19.168 115.43ZM19.844 115.534L20.5511 114.827L20.5511 114.827L19.844 115.534ZM19.298 120.422L18.8919 119.508L18.8645 119.52L18.8379 119.534L19.298 120.422ZM13.578 123.386L13.1179 122.498L12.578 122.778L12.578 123.386L13.578 123.386ZM13.578 126.038L12.578 126.038L12.578 127.038L13.578 127.038L13.578 126.038ZM19.818 126.246L19.0654 126.904L19.0873 126.929L19.1109 126.953L19.818 126.246ZM9.314 121.228L10.0512 120.552L10.0437 120.544L10.036 120.536L9.314 121.228ZM6.038 121.228L6.7299 121.95L6.74526 121.935L6.75999 121.92L6.038 121.228ZM5.414 126.038L4.414 126.038L4.414 127.038L5.414 127.038L5.414 126.038ZM9.886 126.038L9.886 127.038L10.886 127.038L10.886 126.038L9.886 126.038ZM19 130.068C19 130.035 19.0063 129.994 19.0225 129.952C19.0383 129.912 19.0572 129.887 19.0654 129.877L20.5706 131.194C20.8405 130.886 21 130.5 21 130.068L19 130.068ZM19.1595 129.783C19.1689 129.775 19.1938 129.756 19.2346 129.74C19.2762 129.724 19.3172 129.718 19.35 129.718L19.35 131.718C19.7817 131.718 20.168 131.558 20.4765 131.289L19.1595 129.783ZM19.35 129.718L2.45 129.718L2.45 131.718L19.35 131.718L19.35 129.718ZM2.45 129.718C2.46156 129.718 2.49996 129.72 2.55244 129.74C2.60698 129.762 2.65425 129.794 2.68911 129.829L1.27489 131.243C1.60543 131.574 2.02641 131.718 2.45 131.718L2.45 129.718ZM2.73457 129.877C2.74277 129.887 2.76165 129.912 2.7775 129.952C2.7937 129.994 2.8 130.035 2.8 130.068L0.799997 130.068C0.799997 130.5 0.959511 130.886 1.22942 131.194L2.73457 129.877ZM2.8 130.068L2.8 122.996L0.799996 122.996L0.799997 130.068L2.8 130.068ZM2.8 122.996C2.8 120.868 3.28746 119.355 4.13254 118.327L2.58746 117.057C1.35254 118.559 0.799996 120.582 0.799996 122.996L2.8 122.996ZM4.14189 118.315C4.94461 117.309 6.09103 116.768 7.728 116.768L7.728 114.768C5.5863 114.768 3.82072 115.51 2.5781 117.069L4.14189 118.315ZM7.728 116.768C8.77984 116.768 9.60775 117.014 10.2634 117.455L11.3806 115.796C10.3376 115.094 9.10282 114.768 7.728 114.768L7.728 116.768ZM10.2634 117.455C10.946 117.915 11.4792 118.553 11.8595 119.401L13.6845 118.583C13.1635 117.421 12.3966 116.481 11.3806 115.796L10.2634 117.455ZM13.2585 119.866L19.6545 116.304L18.6815 114.556L12.2854 118.118L13.2585 119.866ZM19.6152 116.324C19.6256 116.319 19.5663 116.352 19.454 116.352L19.454 114.352C19.1684 114.352 18.9184 114.437 18.7208 114.536L19.6152 116.324ZM19.454 116.352C19.3721 116.352 19.2953 116.333 19.2326 116.304C19.1736 116.276 19.1429 116.247 19.1369 116.241L20.5511 114.827C20.2894 114.565 19.9179 114.352 19.454 114.352L19.454 116.352ZM19.1369 116.241C19.1092 116.213 19.0714 116.166 19.0419 116.097C19.0118 116.027 19 115.957 19 115.898L21 115.898C21 115.477 20.83 115.106 20.5511 114.827L19.1369 116.241ZM19 115.898L19 119.356L21 119.356L21 115.898L19 115.898ZM19 119.356C19 119.404 18.9944 119.431 18.9914 119.442C18.9886 119.452 18.9872 119.453 18.9893 119.449C18.9973 119.437 18.987 119.466 18.8919 119.508L19.7041 121.336C20.077 121.17 20.4177 120.917 20.6597 120.549C20.9025 120.181 21 119.767 21 119.356L19 119.356ZM18.8379 119.534L13.1179 122.498L14.0381 124.274L19.7581 121.31L18.8379 119.534ZM12.578 123.386L12.578 126.038L14.578 126.038L14.578 123.386L12.578 123.386ZM13.578 127.038L19.35 127.038L19.35 125.038L13.578 125.038L13.578 127.038ZM19.35 127.038C19.3218 127.038 19.2679 127.032 19.2039 127.004C19.1389 126.975 19.0926 126.936 19.0654 126.904L20.5706 125.587C20.2519 125.223 19.8176 125.038 19.35 125.038L19.35 127.038ZM19.1109 126.953C19.076 126.918 19.0437 126.871 19.0225 126.816C19.0021 126.764 19 126.726 19 126.714L21 126.714C21 126.29 20.8556 125.869 20.5251 125.539L19.1109 126.953ZM19 126.714L19 130.068L21 130.068L21 126.714L19 126.714ZM10.886 123.048C10.886 122.104 10.6603 121.217 10.0512 120.552L8.57684 121.904C8.7304 122.071 8.886 122.398 8.886 123.048L10.886 123.048ZM10.036 120.536C9.41106 119.884 8.58226 119.604 7.676 119.604L7.676 121.604C8.1564 121.604 8.4196 121.74 8.59201 121.92L10.036 120.536ZM7.676 119.604C6.76974 119.604 5.94093 119.884 5.31601 120.536L6.75999 121.92C6.9324 121.74 7.19559 121.604 7.676 121.604L7.676 119.604ZM5.34609 120.506C4.66344 121.16 4.414 122.076 4.414 123.048L6.414 123.048C6.414 122.391 6.58055 122.093 6.7299 121.95L5.34609 120.506ZM4.414 123.048L4.414 126.038L6.414 126.038L6.414 123.048L4.414 123.048ZM5.414 127.038L9.886 127.038L9.886 125.038L5.414 125.038L5.414 127.038ZM10.886 126.038L10.886 123.048L8.886 123.048L8.886 126.038L10.886 126.038ZM19.818 111.285L20.4765 112.038L20.5267 111.994L20.5706 111.944L19.818 111.285ZM1.982 111.285L1.22942 111.944L1.25135 111.969L1.27489 111.992L1.982 111.285ZM1.982 107.073L2.6891 107.78L2.6891 107.78L1.982 107.073ZM8.222 106.891L8.222 107.891L11.0415 107.891L8.85208 106.115L8.222 106.891ZM2.294 102.081L2.92407 101.305L2.87807 101.268L2.82799 101.236L2.294 102.081ZM1.982 96.9334L2.63278 97.6926L2.66195 97.6676L2.68911 97.6405L1.982 96.9334ZM2.658 96.8554L3.28016 96.0725L3.22877 96.0317L3.17249 95.9979L2.658 96.8554ZM10.51 103.095L9.88783 103.878L10.5031 104.367L11.1236 103.885L10.51 103.095ZM19.142 96.3874L19.7556 97.177L19.8049 97.1387L19.8491 97.0945L19.142 96.3874ZM19.844 96.4394L20.5511 95.7323L20.5239 95.7051L20.4948 95.6801L19.844 96.4394ZM19.48 101.743L18.8553 100.963L18.8545 100.963L19.48 101.743ZM13.058 106.891L12.4325 106.111L10.2117 107.891L13.058 107.891L13.058 106.891ZM19 110.817C19 110.785 19.0063 110.744 19.0225 110.702C19.0383 110.661 19.0572 110.636 19.0654 110.627L20.5706 111.944C20.8405 111.635 21 111.249 21 110.817L19 110.817ZM19.1595 110.533C19.1689 110.525 19.1938 110.506 19.2346 110.49C19.2762 110.474 19.3172 110.467 19.35 110.467L19.35 112.467C19.7817 112.467 20.168 112.308 20.4765 112.038L19.1595 110.533ZM19.35 110.467L2.45 110.467L2.45 112.467L19.35 112.467L19.35 110.467ZM2.45 110.467C2.46156 110.467 2.49996 110.469 2.55244 110.49C2.60698 110.511 2.65425 110.543 2.68911 110.578L1.27489 111.992C1.60543 112.323 2.02641 112.467 2.45 112.467L2.45 110.467ZM2.73457 110.627C2.74277 110.636 2.76165 110.661 2.7775 110.702C2.7937 110.744 2.8 110.785 2.8 110.817L0.799996 110.817C0.799996 111.249 0.95951 111.635 1.22942 111.944L2.73457 110.627ZM2.8 110.817L2.8 107.541L0.799996 107.541L0.799996 110.817L2.8 110.817ZM2.8 107.541C2.8 107.553 2.79791 107.591 2.7775 107.644C2.75629 107.698 2.72395 107.746 2.6891 107.78L1.27489 106.366C0.944354 106.697 0.799996 107.118 0.799996 107.541L2.8 107.541ZM2.6891 107.78C2.65425 107.815 2.60698 107.848 2.55244 107.869C2.49996 107.889 2.46156 107.891 2.45 107.891L2.45 105.891C2.02641 105.891 1.60543 106.036 1.27489 106.366L2.6891 107.78ZM2.45 107.891L8.222 107.891L8.222 105.891L2.45 105.891L2.45 107.891ZM8.85208 106.115L2.92407 101.305L1.66392 102.858L7.59192 107.668L8.85208 106.115ZM2.82799 101.236C2.81799 101.23 2.81679 101.227 2.81941 101.23C2.82219 101.233 2.82328 101.236 2.82249 101.234C2.82086 101.231 2.8 101.186 2.8 101.067L0.799996 101.067C0.799996 101.798 1.07869 102.497 1.76 102.927L2.82799 101.236ZM2.8 101.067L2.8 97.3234L0.799995 97.3234L0.799996 101.067L2.8 101.067ZM2.8 97.3234C2.8 97.3785 2.78839 97.4531 2.75168 97.5318C2.71526 97.6098 2.66784 97.6626 2.63278 97.6926L1.33121 96.1741C0.994439 96.4628 0.799995 96.8674 0.799995 97.3234L2.8 97.3234ZM2.68911 97.6405C2.6614 97.6682 2.61381 97.706 2.54492 97.7355C2.47487 97.7655 2.40513 97.7774 2.346 97.7774L2.346 95.7774C1.92477 95.7774 1.5538 95.9474 1.27489 96.2263L2.68911 97.6405ZM2.346 97.7774C2.32258 97.7774 2.24081 97.7713 2.1435 97.7129L3.17249 95.9979C2.90184 95.8355 2.61208 95.7774 2.346 95.7774L2.346 97.7774ZM2.03583 97.6383L9.88783 103.878L11.1322 102.312L3.28016 96.0725L2.03583 97.6383ZM11.1236 103.885L19.7556 97.177L18.5284 95.5978L9.89639 102.306L11.1236 103.885ZM19.8491 97.0945C19.6648 97.2788 19.4695 97.2834 19.454 97.2834L19.454 95.2834C19.1612 95.2834 18.7579 95.3573 18.4349 95.6803L19.8491 97.0945ZM19.454 97.2834C19.3948 97.2834 19.336 97.2716 19.2841 97.2509C19.2341 97.2308 19.2042 97.208 19.1932 97.1986L20.4948 95.6801C20.2215 95.4459 19.8673 95.2834 19.454 95.2834L19.454 97.2834ZM19.1369 97.1465C19.098 97.1076 19.0593 97.0533 19.0325 96.9863C19.0062 96.9204 19 96.8641 19 96.8294L21 96.8294C21 96.426 20.8549 96.0361 20.5511 95.7323L19.1369 97.1465ZM19 96.8294L19 100.703L21 100.703L21 96.8294L19 96.8294ZM19 100.703C19 100.793 18.9831 100.86 18.8553 100.963L20.1047 102.524C20.6702 102.072 21 101.446 21 100.703L19 100.703ZM18.8545 100.963L12.4325 106.111L13.6835 107.672L20.1055 102.524L18.8545 100.963ZM13.058 107.891L19.35 107.891L19.35 105.891L13.058 105.891L13.058 107.891ZM19.35 107.891C19.3384 107.891 19.3 107.889 19.2476 107.869C19.193 107.848 19.1457 107.815 19.1109 107.78L20.5251 106.366C20.1946 106.036 19.7736 105.891 19.35 105.891L19.35 107.891ZM19.1109 107.78C19.076 107.746 19.0437 107.698 19.0225 107.644C19.0021 107.591 19 107.553 19 107.541L21 107.541C21 107.118 20.8556 106.697 20.5251 106.366L19.1109 107.78ZM19 107.541L19 110.817L21 110.817L21 107.541L19 107.541ZM19.532 90.913L18.6073 90.5322L18.6073 90.5322L19.532 90.913ZM17.634 93.591L18.2284 94.3951L18.2383 94.3878L18.2479 94.3803L17.634 93.591ZM15.034 94.527L15.034 95.527L15.0525 95.527L15.071 95.5263L15.034 94.527ZM14.67 94.371L13.9629 95.0781L13.9629 95.0781L14.67 94.371ZM14.618 90.185L15.4317 90.7662L15.4773 90.7023L15.5124 90.6322L14.618 90.185ZM14.956 89.769L14.5088 88.8745L14.3905 88.9337L14.2916 89.0215L14.956 89.769ZM16.074 88.677L16.9367 89.1827L16.9367 89.1827L16.074 88.677ZM16.048 84.413L15.1905 84.9274L15.1905 84.9274L16.048 84.413ZM13.838 84.049L14.5691 84.7313L14.58 84.7195L14.5906 84.7075L13.838 84.049ZM13.188 85.297L12.2393 84.9807L12.2393 84.9807L13.188 85.297ZM12.538 87.845L11.5604 87.6344L11.559 87.641L12.538 87.845ZM10.64 92.525L11.4093 93.1639L11.4151 93.1568L11.4209 93.1496L10.64 92.525ZM4.192 93.175L3.61398 93.991L3.61398 93.991L4.192 93.175ZM2.242 90.653L1.32285 91.0469L1.32285 91.0469L2.242 90.653ZM2.32 82.905L3.22545 83.3294L3.22545 83.3294L2.32 82.905ZM4.296 80.383L4.8789 81.1955L4.88896 81.1883L4.89883 81.1808L4.296 80.383ZM6.60999 79.447L6.60999 78.447L6.58728 78.447L6.56459 78.448L6.60999 79.447ZM7 79.603L7.70711 78.8958L7.7071 78.8958L7 79.603ZM7.052 83.945L7.92024 84.4411L7.93401 84.417L7.94642 84.3922L7.052 83.945ZM6.714 84.283L6.96642 85.2506L7.12894 85.2082L7.2687 85.115L6.714 84.283ZM5.7 85.141L6.55165 85.665L6.55603 85.6579L6.56029 85.6508L5.7 85.141ZM5.7 88.625L6.53205 88.0703L6.53205 88.0703L5.7 88.625ZM7.832 88.911L8.51245 89.6437L8.52601 89.6311L8.5391 89.6181L7.832 88.911ZM8.508 87.767L9.43647 88.1383L9.44381 88.12L9.45042 88.1014L8.508 87.767ZM9.106 85.479L10.0845 85.685L10.0873 85.6719L10.0897 85.6588L9.106 85.479ZM10.224 81.631L11.1281 82.0583L11.1327 82.0485L11.1371 82.0386L10.224 81.631ZM11.94 79.499L12.4756 80.3435L12.485 80.3374L11.94 79.499ZM17.608 79.837L16.993 80.6255L16.9952 80.6272L17.608 79.837ZM19.584 82.619L20.5181 82.2618L20.5152 82.2546L19.584 82.619ZM19.26 86.675C19.26 88.2274 19.0307 89.5039 18.6073 90.5322L20.4567 91.2937C21.0039 89.9646 21.26 88.4158 21.26 86.675L19.26 86.675ZM18.6073 90.5322C18.1695 91.5955 17.6284 92.3284 17.0201 92.8016L18.2479 94.3803C19.1996 93.6401 19.9239 92.5877 20.4567 91.2937L18.6073 90.5322ZM17.0396 92.7868C16.3942 93.2638 15.7197 93.5009 14.997 93.5276L15.071 95.5263C16.2203 95.4837 17.2791 95.0967 18.2284 94.3951L17.0396 92.7868ZM15.034 93.527C15.0931 93.527 15.1629 93.5388 15.2329 93.5688C15.3018 93.5983 15.3494 93.6361 15.3771 93.6638L13.9629 95.0781C14.2418 95.357 14.6128 95.527 15.034 95.527L15.034 93.527ZM15.3771 93.6638C15.3929 93.6797 15.4238 93.716 15.4497 93.7751C15.4763 93.8361 15.488 93.8993 15.488 93.955L13.488 93.955C13.488 94.4039 13.6746 94.7898 13.9629 95.0781L15.3771 93.6638ZM15.488 93.955L15.488 90.679L13.488 90.679L13.488 93.955L15.488 93.955ZM15.488 90.679C15.488 90.6426 15.492 90.6373 15.4876 90.6539C15.4827 90.6725 15.4682 90.7152 15.4317 90.7662L13.8043 89.6037C13.557 89.9498 13.488 90.3425 13.488 90.679L15.488 90.679ZM15.5124 90.6322C15.5089 90.6392 15.5285 90.598 15.6204 90.5164L14.2916 89.0215C14.0715 89.2172 13.8658 89.4533 13.7236 89.7377L15.5124 90.6322ZM15.4032 90.6634C16.0529 90.3385 16.5598 89.8256 16.9367 89.1827L15.2113 88.1712C14.9989 88.5336 14.7604 88.7487 14.5088 88.8745L15.4032 90.6634ZM16.9367 89.1827C17.3517 88.4747 17.516 87.6129 17.516 86.675L15.516 86.675C15.516 87.401 15.3856 87.8739 15.2113 88.1712L16.9367 89.1827ZM17.516 86.675C17.516 85.6082 17.3522 84.643 16.9055 83.8985L15.1905 84.9274C15.3678 85.2229 15.516 85.7657 15.516 86.675L17.516 86.675ZM16.9055 83.8985C16.4405 83.1235 15.7134 82.633 14.774 82.633L14.774 84.633C14.9093 84.633 15.0315 84.6624 15.1905 84.9274L16.9055 83.8985ZM14.774 82.633C14.1158 82.633 13.5254 82.8876 13.0854 83.3904L14.5906 84.7075C14.6359 84.6556 14.6696 84.633 14.774 84.633L14.774 82.633ZM13.1069 83.3666C12.7208 83.7804 12.448 84.3545 12.2393 84.9807L14.1367 85.6132C14.3093 85.0954 14.4699 84.8375 14.5691 84.7313L13.1069 83.3666ZM12.2393 84.9807C12.031 85.6057 11.8052 86.4979 11.5604 87.6344L13.5156 88.0555C13.7561 86.9386 13.9637 86.1322 14.1367 85.6132L12.2393 84.9807ZM11.559 87.641C11.1407 89.649 10.5514 91.0349 9.85913 91.9003L11.4209 93.1496C12.3926 91.935 13.0687 90.2009 13.517 88.0489L11.559 87.641ZM9.87071 91.8861C9.24519 92.6392 8.34598 93.059 7.026 93.059L7.026 95.059C8.82601 95.059 10.3361 94.456 11.4093 93.1639L9.87071 91.8861ZM7.026 93.059C6.16757 93.059 5.42649 92.8239 4.77001 92.3589L3.61398 93.991C4.6215 94.7046 5.76976 95.059 7.026 95.059L7.026 93.059ZM4.77001 92.3589C4.11185 91.8927 3.5687 91.21 3.16114 90.259L1.32285 91.0469C1.85129 92.2799 2.60814 93.2785 3.61398 93.991L4.77001 92.3589ZM3.16114 90.259C2.75707 89.3162 2.54 88.1813 2.54 86.831L0.539995 86.831C0.539995 88.3926 0.790918 89.8057 1.32285 91.0469L3.16114 90.259ZM2.54 86.831C2.54 85.4365 2.78039 84.2789 3.22545 83.3294L1.41454 82.4805C0.819602 83.7497 0.539995 85.2094 0.539995 86.831L2.54 86.831ZM3.22545 83.3294C3.69066 82.3369 4.25097 81.646 4.8789 81.1955L3.71309 79.5704C2.74635 80.2639 1.98933 81.2543 1.41454 82.4805L3.22545 83.3294ZM4.89883 81.1808C5.56269 80.6792 6.1445 80.4691 6.6554 80.4459L6.56459 78.448C5.55016 78.4941 4.5893 78.908 3.69316 79.5851L4.89883 81.1808ZM6.60999 80.447C6.57528 80.447 6.51898 80.4408 6.45311 80.4144C6.38606 80.3876 6.33173 80.3489 6.29289 80.3101L7.7071 78.8958C7.4033 78.592 7.01336 78.447 6.60999 78.447L6.60999 80.447ZM6.29289 80.3101C6.25405 80.2712 6.21534 80.2169 6.18852 80.1498C6.16217 80.084 6.156 80.0277 6.156 79.993L8.156 79.993C8.156 79.5896 8.0109 79.1996 7.70711 78.8958L6.29289 80.3101ZM6.156 79.993L6.156 83.425L8.156 83.425L8.156 79.993L6.156 79.993ZM6.156 83.425C6.156 83.4743 6.15181 83.5029 6.14941 83.5148C6.14712 83.5263 6.14738 83.5181 6.15757 83.4977L7.94642 84.3922C8.10473 84.0755 8.156 83.7376 8.156 83.425L6.156 83.425ZM6.18375 83.4488C6.19885 83.4224 6.21049 83.4112 6.20839 83.4133C6.20593 83.4158 6.19183 83.4292 6.15929 83.4509L7.2687 85.115C7.51177 84.953 7.75219 84.7352 7.92024 84.4411L6.18375 83.4488ZM6.46157 83.3153C5.7342 83.5051 5.20685 84.0116 4.8397 84.6312L6.56029 85.6508C6.74781 85.3343 6.89645 85.2688 6.96642 85.2506L6.46157 83.3153ZM4.84834 84.6169C4.45051 85.2633 4.28399 86.0206 4.28399 86.831L6.28399 86.831C6.28399 86.2893 6.39482 85.9199 6.55165 85.665L4.84834 84.6169ZM4.28399 86.831C4.284 87.7062 4.4356 88.5311 4.86795 89.1797L6.53205 88.0703C6.40972 87.8868 6.284 87.5157 6.28399 86.831L4.28399 86.831ZM4.86795 89.1797C5.34662 89.8977 6.07998 90.249 6.922 90.249L6.922 88.249C6.68934 88.249 6.60804 88.1842 6.53205 88.0703L4.86795 89.1797ZM6.922 90.249C7.5112 90.249 8.0658 90.0585 8.51245 89.6437L7.15154 88.1782C7.11286 88.2141 7.06079 88.249 6.922 88.249L6.922 90.249ZM8.5391 89.6181C8.91922 89.2379 9.20604 88.7144 9.43647 88.1383L7.57952 87.3956C7.39395 87.8595 7.2301 88.0986 7.12489 88.2038L8.5391 89.6181ZM9.45042 88.1014C9.66313 87.5019 9.87321 86.6888 10.0845 85.685L8.12745 85.2729C7.92279 86.2451 7.7342 86.9573 7.56557 87.4325L9.45042 88.1014ZM10.0897 85.6588C10.3763 84.0907 10.7292 82.9021 11.1281 82.0583L9.31992 81.2036C8.81748 82.2664 8.42499 83.6432 8.1223 85.2991L10.0897 85.6588ZM11.1371 82.0386C11.5114 81.2004 11.9698 80.6642 12.4755 80.3435L11.4045 78.6544C10.4889 79.2351 9.80331 80.1202 9.31086 81.2233L11.1371 82.0386ZM12.485 80.3374C12.9765 80.0179 13.6487 79.823 14.566 79.823L14.566 77.823C13.3687 77.823 12.2902 78.0786 11.395 78.6605L12.485 80.3374ZM14.566 79.823C15.518 79.823 16.3124 80.0946 16.993 80.6255L18.223 79.0484C17.1703 78.2273 15.9367 77.823 14.566 77.823L14.566 79.823ZM16.9952 80.6272C17.6763 81.1554 18.2376 81.9225 18.6528 82.9834L20.5152 82.2546C19.9944 80.9234 19.2383 79.8358 18.2208 79.0467L16.9952 80.6272ZM18.6499 82.9761C19.049 84.0197 19.26 85.2469 19.26 86.675L21.26 86.675C21.26 85.0523 21.0204 83.5756 20.518 82.2618L18.6499 82.9761ZM19.818 74.7647L19.1109 74.0576L19.1109 74.0576L19.818 74.7647ZM1.982 74.7647L1.22942 75.4232L1.25134 75.4483L1.27489 75.4718L1.982 74.7647ZM1.98199 70.4747L2.6891 71.1818L2.71265 71.1583L2.73457 71.1332L1.98199 70.4747ZM8.716 70.2667L8.716 71.2667L9.716 71.2667L9.716 70.2667L8.716 70.2667ZM8.71599 63.8707L9.71599 63.8707L9.71599 62.8707L8.71599 62.8707L8.71599 63.8707ZM1.98199 63.6887L2.6891 62.9816L2.6891 62.9816L1.98199 63.6887ZM19.818 59.3987L20.5251 58.6916L20.5251 58.6916L19.818 59.3987ZM19.818 63.6887L20.5251 64.3958L20.5251 64.3958L19.818 63.6887ZM12.876 63.8707L12.876 62.8707L11.876 62.8707L11.876 63.8707L12.876 63.8707ZM12.876 70.2667L11.876 70.2667L11.876 71.2667L12.876 71.2667L12.876 70.2667ZM19.818 70.4747L19.0654 71.1332L19.0873 71.1583L19.1109 71.1818L19.818 70.4747ZM19 74.2967C19 74.2852 19.0021 74.2467 19.0225 74.1943C19.0437 74.1397 19.076 74.0925 19.1109 74.0576L20.5251 75.4718C20.8556 75.1413 21 74.7203 21 74.2967L19 74.2967ZM19.1109 74.0576C19.1457 74.0228 19.193 73.9904 19.2475 73.9692C19.3 73.9488 19.3384 73.9467 19.35 73.9467L19.35 75.9467C19.7736 75.9467 20.1946 75.8024 20.5251 75.4718L19.1109 74.0576ZM19.35 73.9467L2.45 73.9467L2.45 75.9467L19.35 75.9467L19.35 73.9467ZM2.45 73.9467C2.46156 73.9467 2.49996 73.9488 2.55244 73.9692C2.60697 73.9904 2.65425 74.0228 2.6891 74.0576L1.27489 75.4718C1.60542 75.8024 2.02641 75.9467 2.45 75.9467L2.45 73.9467ZM2.73457 74.1062C2.74277 74.1156 2.76165 74.1405 2.7775 74.1813C2.7937 74.2229 2.79999 74.2639 2.79999 74.2967L0.799994 74.2967C0.799994 74.7284 0.959509 75.1148 1.22942 75.4232L2.73457 74.1062ZM2.79999 74.2967L2.79999 70.9427L0.799994 70.9427L0.799994 74.2967L2.79999 74.2967ZM2.79999 70.9427C2.79999 70.9543 2.79791 70.9927 2.7775 71.0452C2.75629 71.0997 2.72395 71.147 2.6891 71.1818L1.27489 69.7676C0.944352 70.0981 0.799994 70.5191 0.799994 70.9427L2.79999 70.9427ZM2.73457 71.1332C2.70736 71.1643 2.66106 71.2037 2.59613 71.2325C2.53208 71.261 2.47817 71.2667 2.45 71.2667L2.45 69.2667C1.98242 69.2667 1.54806 69.4521 1.22942 69.8162L2.73457 71.1332ZM2.45 71.2667L8.716 71.2667L8.71599 69.2667L2.45 69.2667L2.45 71.2667ZM9.716 70.2667L9.71599 63.8707L7.71599 63.8707L7.716 70.2667L9.716 70.2667ZM8.71599 62.8707L2.44999 62.8707L2.44999 64.8707L8.71599 64.8707L8.71599 62.8707ZM2.44999 62.8707C2.46156 62.8707 2.49996 62.8728 2.55244 62.8932C2.60697 62.9144 2.65425 62.9468 2.6891 62.9816L1.27489 64.3958C1.60542 64.7264 2.02641 64.8707 2.44999 64.8707L2.44999 62.8707ZM2.6891 62.9816C2.72395 63.0165 2.75629 63.0637 2.7775 63.1183C2.79791 63.1707 2.79999 63.2091 2.79999 63.2207L0.799994 63.2207C0.799994 63.6443 0.944352 64.0653 1.27489 64.3958L2.6891 62.9816ZM2.79999 63.2207L2.79999 59.8667L0.799994 59.8667L0.799994 63.2207L2.79999 63.2207ZM2.79999 59.8667C2.79999 59.8783 2.79791 59.9167 2.7775 59.9692C2.75629 60.0237 2.72395 60.071 2.6891 60.1058L1.27489 58.6916C0.944352 59.0221 0.799994 59.4431 0.799994 59.8667L2.79999 59.8667ZM2.6891 60.1058C2.65425 60.1407 2.60697 60.173 2.55244 60.1942C2.49996 60.2146 2.46156 60.2167 2.44999 60.2167L2.44999 58.2167C2.02641 58.2167 1.60543 58.3611 1.27489 58.6916L2.6891 60.1058ZM2.44999 60.2167L19.35 60.2167L19.35 58.2167L2.44999 58.2167L2.44999 60.2167ZM19.35 60.2167C19.3384 60.2167 19.3 60.2146 19.2476 60.1942C19.193 60.173 19.1457 60.1407 19.1109 60.1058L20.5251 58.6916C20.1946 58.3611 19.7736 58.2167 19.35 58.2167L19.35 60.2167ZM19.1109 60.1058C19.076 60.071 19.0437 60.0237 19.0225 59.9692C19.0021 59.9167 19 59.8783 19 59.8667L21 59.8667C21 59.4431 20.8556 59.0221 20.5251 58.6916L19.1109 60.1058ZM19 59.8667L19 63.2207L21 63.2207L21 59.8667L19 59.8667ZM19 63.2207C19 63.2091 19.0021 63.1707 19.0225 63.1183C19.0437 63.0637 19.076 63.0165 19.1109 62.9816L20.5251 64.3958C20.8556 64.0653 21 63.6443 21 63.2207L19 63.2207ZM19.1109 62.9816C19.1457 62.9468 19.193 62.9144 19.2475 62.8932C19.3 62.8728 19.3384 62.8707 19.35 62.8707L19.35 64.8707C19.7736 64.8707 20.1946 64.7264 20.5251 64.3958L19.1109 62.9816ZM19.35 62.8707L12.876 62.8707L12.876 64.8707L19.35 64.8707L19.35 62.8707ZM11.876 63.8707L11.876 70.2667L13.876 70.2667L13.876 63.8707L11.876 63.8707ZM12.876 71.2667L19.35 71.2667L19.35 69.2667L12.876 69.2667L12.876 71.2667ZM19.35 71.2667C19.3218 71.2667 19.2679 71.261 19.2039 71.2325C19.1389 71.2037 19.0926 71.1643 19.0654 71.1332L20.5706 69.8162C20.2519 69.4521 19.8176 69.2667 19.35 69.2667L19.35 71.2667ZM19.1109 71.1818C19.076 71.147 19.0437 71.0997 19.0225 71.0452C19.0021 70.9927 19 70.9543 19 70.9427L21 70.9427C21 70.5191 20.8556 70.0981 20.5251 69.7676L19.1109 71.1818ZM19 70.9427L19 74.2967L21 74.2967L21 70.9427L19 70.9427ZM18.466 52.6357L17.7048 51.9872L17.7048 51.9872L18.466 52.6357ZM13.188 54.8717L13.2225 55.8711L13.2253 55.871L13.188 54.8717ZM8.68999 54.8717L8.65214 55.871L8.65553 55.8711L8.68999 54.8717ZM3.41199 52.6097L4.16799 51.9551L4.16738 51.9544L3.41199 52.6097ZM3.41199 41.1177L4.1674 41.773L4.1719 41.7677L3.41199 41.1177ZM8.68999 38.8557L8.72028 39.8552L8.72446 39.8551L8.68999 38.8557ZM13.188 38.8557L13.2253 37.8564L13.2225 37.8563L13.188 38.8557ZM18.466 41.0917L17.7048 41.7401L17.7048 41.7401L18.466 41.0917ZM15.658 44.6017L14.9509 45.3088L14.9563 45.3142L14.9618 45.3196L15.658 44.6017ZM13.032 43.6917L12.9975 44.6911L13.0026 44.6912L13.032 43.6917ZM8.76799 43.6917L8.79739 44.6913L8.80369 44.691L8.76799 43.6917ZM6.14199 44.6017L5.43489 43.8946L5.43489 43.8946L6.14199 44.6017ZM6.14199 49.1257L5.43489 49.8328L5.44033 49.8382L5.44585 49.8436L6.14199 49.1257ZM8.76799 50.0357L8.72392 51.0347L8.7323 51.035L8.76799 50.0357ZM13.032 50.0357L13.0665 51.0351L13.0761 51.0347L13.032 50.0357ZM15.658 49.1257L14.9618 48.4078L14.9618 48.4078L15.658 49.1257ZM19.26 46.8637C19.26 49.1482 18.7026 50.8158 17.7048 51.9872L19.2272 53.2841C20.6214 51.6475 21.26 49.4672 21.26 46.8637L19.26 46.8637ZM17.7048 51.9872C16.7353 53.1253 15.2713 53.7932 13.1507 53.8724L13.2253 55.871C15.75 55.7768 17.8047 54.9541 19.2272 53.2841L17.7048 51.9872ZM13.1535 53.8723C12.6686 53.889 11.9372 53.8977 10.952 53.8977L10.952 55.8977C11.9428 55.8977 12.702 55.889 13.2225 55.8711L13.1535 53.8723ZM10.952 53.8977C9.94922 53.8977 9.20926 53.889 8.72446 53.8723L8.65553 55.8711C9.17606 55.889 9.9441 55.8977 10.952 55.8977L10.952 53.8977ZM8.72785 53.8724C6.6517 53.7937 5.17879 53.1225 4.16799 51.9551L2.656 53.2643C4.10653 54.9395 6.15229 55.7763 8.65214 55.871L8.72785 53.8724ZM4.16738 51.9544C3.11436 50.7405 2.53999 49.0786 2.53999 46.8637L0.539993 46.8637C0.539994 49.4328 1.21362 51.6015 2.65661 53.265L4.16738 51.9544ZM2.53999 46.8637C2.53999 44.6488 3.11436 42.9868 4.16738 41.773L2.65661 40.4624C1.21362 42.1258 0.539993 44.2946 0.539993 46.8637L2.53999 46.8637ZM4.1719 41.7677C5.18168 40.5873 6.65003 39.9179 8.72028 39.8552L8.6597 37.8561C6.15396 37.9321 4.10364 38.7708 2.65209 40.4676L4.1719 41.7677ZM8.72446 39.8551C9.72725 39.8205 10.4672 39.8037 10.952 39.8037L10.952 37.8037C10.4314 37.8037 9.66341 37.8215 8.65553 37.8563L8.72446 39.8551ZM10.952 39.8037C11.4192 39.8037 12.1503 39.8205 13.1535 39.8551L13.2225 37.8563C12.2151 37.8215 11.4554 37.8037 10.952 37.8037L10.952 39.8037ZM13.1507 39.855C15.2713 39.9341 16.7353 40.6021 17.7048 41.7401L19.2272 40.4432C17.8047 38.7733 15.75 37.9506 13.2253 37.8564L13.1507 39.855ZM17.7048 41.7401C18.7026 42.9115 19.26 44.5792 19.26 46.8637L21.26 46.8637C21.26 44.2602 20.6214 42.0798 19.2272 40.4432L17.7048 41.7401ZM17.516 46.8637C17.516 45.697 17.1579 44.6632 16.3541 43.8838L14.9618 45.3196C15.302 45.6495 15.516 46.1237 15.516 46.8637L17.516 46.8637ZM16.3651 43.8946C15.5449 43.0744 14.3794 42.7309 13.0614 42.6921L13.0026 44.6912C14.0419 44.7218 14.6271 44.985 14.9509 45.3088L16.3651 43.8946ZM13.0665 42.6923C12.0611 42.6576 11.335 42.6397 10.9 42.6397L10.9 44.6397C11.2969 44.6397 11.9922 44.6564 12.9975 44.6911L13.0665 42.6923ZM10.9 42.6397C10.4303 42.6397 9.70456 42.6576 8.7323 42.6923L8.80369 44.691C9.77276 44.6564 10.4683 44.6397 10.9 44.6397L10.9 42.6397ZM8.73859 42.6921C7.42059 42.7309 6.25509 43.0744 5.43489 43.8946L6.8491 45.3088C7.1729 44.985 7.75807 44.7218 8.79739 44.6912L8.73859 42.6921ZM5.43489 43.8946C4.6457 44.6838 4.28399 45.7076 4.28399 46.8637L6.28399 46.8637C6.28399 46.1478 6.49428 45.6636 6.8491 45.3088L5.43489 43.8946ZM4.28399 46.8637C4.28399 48.0198 4.6457 49.0436 5.43489 49.8328L6.8491 48.4186C6.49428 48.0638 6.28399 47.5796 6.28399 46.8637L4.28399 46.8637ZM5.44585 49.8436C6.26138 50.6344 7.41553 50.977 8.72392 51.0347L8.81207 49.0366C7.76312 48.9904 7.16661 48.7263 6.83814 48.4078L5.44585 49.8436ZM8.7323 51.035C9.23587 51.053 9.96083 51.0617 10.9 51.0617L10.9 49.0617C9.96716 49.0617 9.27078 49.053 8.80369 49.0363L8.7323 51.035ZM10.9 51.0617C11.8224 51.0617 12.5466 51.053 13.0665 51.0351L12.9975 49.0363C12.5121 49.053 11.8149 49.0617 10.9 49.0617L10.9 51.0617ZM13.0761 51.0347C14.3845 50.977 15.5386 50.6344 16.3541 49.8436L14.9618 48.4078C14.6334 48.7263 14.0369 48.9904 12.9879 49.0366L13.0761 51.0347ZM16.3541 49.8436C17.1579 49.0641 17.516 48.0303 17.516 46.8637L15.516 46.8637C15.516 47.6037 15.302 48.0779 14.9618 48.4078L16.3541 49.8436ZM19.818 34.3339L20.4765 35.0865L20.5267 35.0426L20.5706 34.9924L19.818 34.3339ZM1.98199 34.3339L1.22942 34.9924L1.25134 35.0175L1.27488 35.041L1.98199 34.3339ZM3.33399 21.3599L4.11175 21.9885L4.11589 21.9833L3.33399 21.3599ZM12.2 21.3339L12.9935 20.7252L12.9882 20.7185L12.2 21.3339ZM13.656 29.6799L12.656 29.6799L12.656 30.6799L13.656 30.6799L13.656 29.6799ZM19.818 29.8879L19.0654 30.5464L19.0873 30.5715L19.1109 30.595L19.818 29.8879ZM9.49599 24.9219L10.2467 24.2613L10.2394 24.253L10.2319 24.2448L9.49599 24.9219ZM6.06399 24.8959L6.74105 25.6318L6.75637 25.6177L6.7711 25.603L6.06399 24.8959ZM5.41399 29.7579L4.41399 29.7579L4.41399 30.7579L5.41399 30.7579L5.41399 29.7579ZM10.068 29.7579L10.068 30.7579L11.068 30.7579L11.068 29.7579L10.068 29.7579ZM19 33.8659C19 33.8331 19.0063 33.7921 19.0225 33.7505C19.0383 33.7097 19.0572 33.6848 19.0654 33.6754L20.5706 34.9924C20.8405 34.6839 21 34.2976 21 33.8659L19 33.8659ZM19.1595 33.5813C19.1689 33.5731 19.1938 33.5542 19.2345 33.5384C19.2762 33.5222 19.3172 33.5159 19.35 33.5159L19.35 35.5159C19.7816 35.5159 20.168 35.3564 20.4765 35.0865L19.1595 33.5813ZM19.35 33.5159L2.44999 33.5159L2.44999 35.5159L19.35 35.5159L19.35 33.5159ZM2.44999 33.5159C2.46156 33.5159 2.49996 33.518 2.55244 33.5384C2.60697 33.5596 2.65425 33.5919 2.6891 33.6268L1.27488 35.041C1.60542 35.3716 2.02641 35.5159 2.44999 35.5159L2.44999 33.5159ZM2.73457 33.6754C2.74277 33.6848 2.76165 33.7097 2.7775 33.7505C2.7937 33.7921 2.79999 33.8331 2.79999 33.8659L0.799993 33.8659C0.799993 34.2976 0.959507 34.6839 1.22942 34.9924L2.73457 33.6754ZM2.79999 33.8659L2.79999 26.5859L0.799992 26.5859L0.799993 33.8659L2.79999 33.8659ZM2.79999 26.5859C2.79999 24.5133 3.27746 23.0207 4.11173 21.9885L2.55625 20.7313C1.34519 22.2297 0.799992 24.2212 0.799992 26.5859L2.79999 26.5859ZM4.11589 21.9833C4.9113 20.9857 6.08594 20.4359 7.80599 20.4359L7.80599 18.4359C5.60871 18.4359 3.80202 19.1688 2.55209 20.7365L4.11589 21.9833ZM7.80599 20.4359C9.51114 20.4359 10.6535 20.9781 11.4118 21.9493L12.9882 20.7185C11.7705 19.159 9.98352 18.4359 7.80599 18.4359L7.80599 20.4359ZM11.4066 21.9426C12.1987 22.9752 12.656 24.4835 12.656 26.5859L14.656 26.5859C14.656 24.2164 14.1426 22.2233 12.9934 20.7252L11.4066 21.9426ZM12.656 26.5859L12.656 29.6799L14.656 29.6799L14.656 26.5859L12.656 26.5859ZM13.656 30.6799L19.35 30.6799L19.35 28.6799L13.656 28.6799L13.656 30.6799ZM19.35 30.6799C19.3218 30.6799 19.2679 30.6742 19.2039 30.6457C19.1389 30.6169 19.0926 30.5775 19.0654 30.5464L20.5706 29.2294C20.2519 28.8652 19.8176 28.6799 19.35 28.6799L19.35 30.6799ZM19.1109 30.595C19.076 30.5602 19.0437 30.5129 19.0225 30.4584C19.0021 30.4059 19 30.3675 19 30.3559L21 30.3559C21 29.9323 20.8556 29.5113 20.5251 29.1808L19.1109 30.595ZM19 30.3559L19 33.8659L21 33.8659L21 30.3559L19 30.3559ZM11.068 26.7159C11.068 25.7895 10.8344 24.9291 10.2467 24.2613L8.74528 25.5825C8.92025 25.7814 9.06799 26.117 9.06799 26.7159L11.068 26.7159ZM10.2319 24.2448C9.59191 23.5492 8.709 23.2719 7.75399 23.2719L7.75399 25.2719C8.32431 25.2719 8.60274 25.428 8.76006 25.599L10.2319 24.2448ZM7.75399 23.2719C6.83702 23.2719 5.99833 23.5474 5.35689 24.1888L6.7711 25.603C6.96165 25.4125 7.24963 25.2719 7.75399 25.2719L7.75399 23.2719ZM5.38694 24.16C4.67837 24.8119 4.41399 25.7324 4.41399 26.7159L6.41399 26.7159C6.41399 26.0701 6.58295 25.7773 6.74105 25.6318L5.38694 24.16ZM4.41399 26.7159L4.41399 29.7579L6.41399 29.7579L6.41399 26.7159L4.41399 26.7159ZM5.41399 30.7579L10.068 30.7579L10.068 28.7579L5.41399 28.7579L5.41399 30.7579ZM11.068 29.7579L11.068 26.7159L9.06799 26.7159L9.06799 29.7579L11.068 29.7579ZM19.532 13.1236L18.6073 12.7428L18.6073 12.7428L19.532 13.1236ZM17.634 15.8016L18.2284 16.6058L18.2382 16.5985L18.2479 16.5909L17.634 15.8016ZM15.034 16.7376L15.034 17.7376L15.0525 17.7376L15.071 17.7369L15.034 16.7376ZM14.67 16.5816L13.9629 17.2887L13.9629 17.2887L14.67 16.5816ZM14.618 12.3956L15.4317 12.9768L15.4773 12.913L15.5124 12.8428L14.618 12.3956ZM14.956 11.9796L14.5088 11.0852L14.3905 11.1443L14.2916 11.2322L14.956 11.9796ZM16.074 10.8876L16.9367 11.3933L16.9367 11.3933L16.074 10.8876ZM16.048 6.62359L15.1905 7.13809L15.1905 7.13809L16.048 6.62359ZM13.838 6.25959L14.569 6.94191L14.58 6.93018L14.5906 6.9181L13.838 6.25959ZM13.188 7.50759L12.2393 7.19136L12.2393 7.19136L13.188 7.50759ZM12.538 10.0556L11.5604 9.84503L11.559 9.85164L12.538 10.0556ZM10.64 14.7356L11.4093 15.3745L11.4151 15.3674L11.4209 15.3603L10.64 14.7356ZM4.19199 15.3856L3.61397 16.2016L3.61397 16.2016L4.19199 15.3856ZM2.24199 12.8636L1.32285 13.2575L1.32285 13.2575L2.24199 12.8636ZM2.31999 5.11559L3.22545 5.54003L3.22545 5.54003L2.31999 5.11559ZM4.29599 2.59359L4.8789 3.40613L4.88895 3.39892L4.89883 3.39146L4.29599 2.59359ZM6.60999 1.65759L6.60999 0.657591L6.58728 0.657591L6.56458 0.658623L6.60999 1.65759ZM6.99999 1.81359L7.7071 1.10649L7.7071 1.10648L6.99999 1.81359ZM7.05199 6.15559L7.92023 6.65173L7.93401 6.62763L7.94642 6.6028L7.05199 6.15559ZM6.71399 6.49359L6.96641 7.46121L7.12894 7.41881L7.26869 7.32564L6.71399 6.49359ZM5.69999 7.35159L6.55165 7.87569L6.55603 7.86858L6.56028 7.86139L5.69999 7.35159ZM5.69999 10.8356L6.53204 10.2809L6.53204 10.2809L5.69999 10.8356ZM7.83199 11.1216L8.51244 11.8544L8.52601 11.8418L8.5391 11.8287L7.83199 11.1216ZM8.50799 9.97759L9.43647 10.349L9.44381 10.3306L9.45042 10.312L8.50799 9.97759ZM9.10599 7.68959L10.0845 7.8956L10.0873 7.88254L10.0897 7.86941L9.10599 7.68959ZM10.224 3.84159L11.1281 4.26897L11.1327 4.25916L11.1371 4.24924L10.224 3.84159ZM11.94 1.70959L12.4756 2.55415L12.485 2.54803L11.94 1.70959ZM17.608 2.04759L16.993 2.8361L16.9952 2.83781L17.608 2.04759ZM19.584 4.82959L20.5181 4.47244L20.5152 4.46519L19.584 4.82959ZM19.26 8.88559C19.26 10.438 19.0307 11.7146 18.6073 12.7428L20.4567 13.5043C21.0039 12.1753 21.26 10.6265 21.26 8.88559L19.26 8.88559ZM18.6073 12.7428C18.1695 13.8062 17.6284 14.5391 17.0201 15.0122L18.2479 16.5909C19.1996 15.8508 19.9238 14.7983 20.4567 13.5043L18.6073 12.7428ZM17.0396 14.9974C16.3942 15.4745 15.7197 15.7115 14.997 15.7383L15.071 17.7369C16.2203 17.6943 17.2791 17.3074 18.2284 16.6058L17.0396 14.9974ZM15.034 15.7376C15.0931 15.7376 15.1629 15.7494 15.2329 15.7794C15.3018 15.809 15.3494 15.8468 15.3771 15.8745L13.9629 17.2887C14.2418 17.5676 14.6128 17.7376 15.034 17.7376L15.034 15.7376ZM15.3771 15.8745C15.3929 15.8903 15.4238 15.9266 15.4497 15.9858C15.4763 16.0467 15.488 16.11 15.488 16.1656L13.488 16.1656C13.488 16.6146 13.6746 17.0004 13.9629 17.2887L15.3771 15.8745ZM15.488 16.1656L15.488 12.8896L13.488 12.8896L13.488 16.1656L15.488 16.1656ZM15.488 12.8896C15.488 12.8533 15.492 12.8479 15.4876 12.8646C15.4827 12.8831 15.4682 12.9258 15.4317 12.9768L13.8043 11.8144C13.557 12.1605 13.488 12.5532 13.488 12.8896L15.488 12.8896ZM15.5124 12.8428C15.5089 12.8499 15.5285 12.8087 15.6204 12.727L14.2916 11.2322C14.0715 11.4278 13.8658 11.664 13.7236 11.9484L15.5124 12.8428ZM15.4032 12.874C16.0529 12.5492 16.5598 12.0363 16.9367 11.3933L15.2113 10.3819C14.9989 10.7442 14.7604 10.9593 14.5088 11.0852L15.4032 12.874ZM16.9367 11.3933C17.3517 10.6853 17.516 9.82352 17.516 8.88559L15.516 8.88559C15.516 9.61166 15.3856 10.0845 15.2113 10.3819L16.9367 11.3933ZM17.516 8.88559C17.516 7.8188 17.3522 6.8536 16.9055 6.1091L15.1905 7.13809C15.3678 7.43358 15.516 7.97638 15.516 8.88559L17.516 8.88559ZM16.9055 6.1091C16.4405 5.33415 15.7134 4.84359 14.774 4.84359L14.774 6.84359C14.9093 6.84359 15.0315 6.87303 15.1905 7.13809L16.9055 6.1091ZM14.774 4.84359C14.1158 4.84359 13.5254 5.09826 13.0854 5.60109L14.5906 6.9181C14.6359 6.86625 14.6696 6.84359 14.774 6.84359L14.774 4.84359ZM13.1069 5.57727C12.7208 5.99104 12.448 6.56516 12.2393 7.19136L14.1367 7.82382C14.3093 7.30602 14.4699 7.04814 14.569 6.94191L13.1069 5.57727ZM12.2393 7.19136C12.031 7.81638 11.8052 8.70857 11.5604 9.84504L13.5156 10.2661C13.7561 9.14928 13.9637 8.3428 14.1367 7.82382L12.2393 7.19136ZM11.559 9.85164C11.1407 11.8597 10.5514 13.2455 9.85912 14.1109L11.4209 15.3603C12.3926 14.1457 13.0686 12.4115 13.517 10.2595L11.559 9.85164ZM9.8707 14.0967C9.24518 14.8499 8.34598 15.2696 7.02599 15.2696L7.02599 17.2696C8.82601 17.2696 10.3361 16.6667 11.4093 15.3745L9.8707 14.0967ZM7.02599 15.2696C6.16756 15.2696 5.42649 15.0346 4.77001 14.5696L3.61397 16.2016C4.6215 16.9153 5.76976 17.2696 7.02599 17.2696L7.02599 15.2696ZM4.77001 14.5696C4.11185 14.1034 3.5687 13.4207 3.16114 12.4697L1.32285 13.2575C1.85128 14.4905 2.60814 15.4891 3.61397 16.2016L4.77001 14.5696ZM3.16114 12.4697C2.75707 11.5268 2.53999 10.3919 2.53999 9.04159L0.539992 9.04159C0.539992 10.6033 0.790915 12.0163 1.32285 13.2575L3.16114 12.4697ZM2.53999 9.04159C2.53999 7.64718 2.78038 6.4895 3.22545 5.54003L1.41453 4.69116C0.819599 5.96035 0.539992 7.42 0.539992 9.04159L2.53999 9.04159ZM3.22545 5.54003C3.69066 4.54758 4.25097 3.8566 4.8789 3.40613L3.71308 1.78105C2.74635 2.47458 1.98932 3.46494 1.41453 4.69116L3.22545 5.54003ZM4.89883 3.39146C5.56268 2.88988 6.1445 2.67978 6.6554 2.65656L6.56458 0.658623C5.55015 0.704733 4.5893 1.11864 3.69316 1.79572L4.89883 3.39146ZM6.60999 2.65759C6.57527 2.65759 6.51898 2.65142 6.4531 2.62507C6.38606 2.59825 6.33173 2.55954 6.29289 2.5207L7.7071 1.10648C7.4033 0.802688 7.01335 0.657591 6.60999 0.657591L6.60999 2.65759ZM6.29288 2.52069C6.25404 2.48185 6.21533 2.42752 6.18851 2.36048C6.16216 2.2946 6.15599 2.23831 6.15599 2.20359L8.15599 2.20359C8.15599 1.80023 8.0109 1.41028 7.7071 1.10649L6.29288 2.52069ZM6.15599 2.20359L6.15599 5.63559L8.15599 5.63559L8.15599 2.20359L6.15599 2.20359ZM6.15599 5.63559C6.15599 5.68495 6.1518 5.71351 6.14941 5.72547C6.14712 5.73693 6.14738 5.72875 6.15756 5.70838L7.94642 6.6028C8.10473 6.28618 8.15599 5.94824 8.15599 5.63559L6.15599 5.63559ZM6.18375 5.65945C6.19884 5.63304 6.21049 5.62188 6.20838 5.62398C6.20592 5.62645 6.19182 5.63985 6.15929 5.66154L7.26869 7.32564C7.51177 7.16359 7.75219 6.94581 7.92023 6.65173L6.18375 5.65945ZM6.46157 5.52597C5.7342 5.71572 5.20684 6.22224 4.8397 6.84179L6.56028 7.86139C6.74781 7.54495 6.89645 7.47946 6.96641 7.46121L6.46157 5.52597ZM4.84833 6.82749C4.45051 7.47396 4.28399 8.2312 4.28399 9.04159L6.28399 9.04159C6.28399 8.49998 6.39481 8.13055 6.55165 7.87569L4.84833 6.82749ZM4.28399 9.04159C4.28399 9.91688 4.4356 10.7418 4.86794 11.3903L6.53204 10.2809C6.40972 10.0974 6.28399 9.72631 6.28399 9.04159L4.28399 9.04159ZM4.86794 11.3903C5.34662 12.1083 6.07998 12.4596 6.92199 12.4596L6.92199 10.4596C6.68934 10.4596 6.60803 10.3949 6.53204 10.2809L4.86794 11.3903ZM6.92199 12.4596C7.5112 12.4596 8.0658 12.2691 8.51244 11.8544L7.15154 10.3888C7.11285 10.4247 7.06078 10.4596 6.92199 10.4596L6.92199 12.4596ZM8.5391 11.8287C8.91922 11.4486 9.20604 10.9251 9.43647 10.349L7.57952 9.6062C7.39394 10.0701 7.2301 10.3093 7.12489 10.4145L8.5391 11.8287ZM9.45042 10.312C9.66312 9.71256 9.8732 8.89947 10.0845 7.8956L8.12744 7.48358C7.92278 8.45572 7.73419 9.16795 7.56556 9.64318L9.45042 10.312ZM10.0897 7.86941C10.3763 6.30135 10.7292 5.11278 11.1281 4.26897L9.31992 3.41421C8.81748 4.47707 8.42499 5.85384 8.12229 7.50978L10.0897 7.86941ZM11.1371 4.24924C11.5113 3.411 11.9698 2.87482 12.4755 2.5541L11.4045 0.865082C10.4889 1.44569 9.8033 2.33085 9.31085 3.43394L11.1371 4.24924ZM12.485 2.54803C12.9764 2.22858 13.6487 2.03359 14.566 2.03359L14.566 0.0335912C13.3686 0.0335912 12.2902 0.289267 11.395 0.871146L12.485 2.54803ZM14.566 2.03359C15.518 2.03359 16.3124 2.30525 16.993 2.83609L18.223 1.25909C17.1703 0.437936 15.9366 0.0335911 14.566 0.0335912L14.566 2.03359ZM16.9952 2.83781C17.6763 3.36604 18.2376 4.13313 18.6527 5.19399L20.5152 4.46519C19.9944 3.13405 19.2383 2.04647 18.2208 1.25737L16.9952 2.83781ZM18.6499 5.18673C19.049 6.23032 19.26 7.45755 19.26 8.88559L21.26 8.88559C21.26 7.26296 21.0204 5.7862 20.518 4.47245L18.6499 5.18673Z" fill="white"/>
</svg>
