<svg xmlns="http://www.w3.org/2000/svg" xmlns:xlink="http://www.w3.org/1999/xlink" viewBox="0 0 1000 1000"><defs><style>.cls-1{fill:url(#BLueBlack);}.cls-2{fill:url(#linear-gradient);}.cls-3{fill:url(#linear-gradient-2);}.cls-4{fill:url(#linear-gradient-3);}.cls-5{fill:url(#linear-gradient-4);}.cls-6{fill:url(#linear-gradient-5);}.cls-7{fill:url(#linear-gradient-6);}.cls-8{fill:url(#linear-gradient-7);}.cls-9{fill:url(#linear-gradient-8);}.cls-10{fill:url(#WingsBlue);}.cls-11{fill:url(#linear-gradient-9);}.cls-12{fill:url(#linear-gradient-10);}.cls-13{fill:url(#linear-gradient-11);}.cls-14{fill:#d8d8d8;}.cls-15{fill:url(#linear-gradient-12);}.cls-16{fill:url(#linear-gradient-13);}.cls-17{fill:#fff;}</style><linearGradient id="BLueBlack" x1="507.79" y1="837.79" x2="586" y2="394.26" gradientUnits="userSpaceOnUse"><stop offset="0" stop-color="#270043"/><stop offset="0.05" stop-color="#271152"/><stop offset="0.17" stop-color="#273473"/><stop offset="0.3" stop-color="#26508d"/><stop offset="0.44" stop-color="#2667a2"/><stop offset="0.59" stop-color="#2677b1"/><stop offset="0.76" stop-color="#2680b9"/><stop offset="1" stop-color="#2683bc"/></linearGradient><linearGradient id="linear-gradient" x1="498.43" y1="481.11" x2="682.38" y2="481.11" gradientUnits="userSpaceOnUse"><stop offset="0" stop-color="#2683bc"/><stop offset="0.27" stop-color="#2a59a4"/><stop offset="0.49" stop-color="#2c3b93"/><stop offset="0.52" stop-color="#2b388c"/><stop offset="0.61" stop-color="#28327a"/><stop offset="0.71" stop-color="#272e6f"/><stop offset="0.82" stop-color="#262d6c"/><stop offset="0.87" stop-color="#272f72"/><stop offset="0.95" stop-color="#2a3684"/><stop offset="1" stop-color="#2c3b93"/></linearGradient><linearGradient id="linear-gradient-2" x1="425.91" y1="400.54" x2="425.91" y2="400.54" gradientUnits="userSpaceOnUse"><stop offset="0" stop-color="#2a85bc"/><stop offset="0.28" stop-color="#2b59a4"/><stop offset="0.49" stop-color="#2c3b93"/><stop offset="0.52" stop-color="#2b388c"/><stop offset="0.61" stop-color="#28327a"/><stop offset="0.71" stop-color="#272e6f"/><stop offset="0.82" stop-color="#262d6c"/><stop offset="0.87" stop-color="#272f72"/><stop offset="0.95" stop-color="#2a3684"/><stop offset="1" stop-color="#2c3b93"/></linearGradient><linearGradient id="linear-gradient-3" x1="204.01" y1="457.6" x2="311.45" y2="486.39" gradientTransform="matrix(-0.92, -0.4, -0.4, 0.92, 841.95, 200.27)" gradientUnits="userSpaceOnUse"><stop offset="0" stop-color="#0b88c4"/><stop offset="1" stop-color="#195198"/></linearGradient><linearGradient id="linear-gradient-4" x1="213.97" y1="439.08" x2="363.93" y2="439.08" xlink:href="#linear-gradient-3"/><linearGradient id="linear-gradient-5" x1="315.68" y1="321.48" x2="325.56" y2="321.48" gradientTransform="matrix(-0.92, -0.4, -0.4, 0.92, 841.95, 200.27)" gradientUnits="userSpaceOnUse"><stop offset="0" stop-color="#0b88c4"/><stop offset="0.36" stop-color="#0c85c2"/><stop offset="0.58" stop-color="#0e7dbb"/><stop offset="0.78" stop-color="#126eaf"/><stop offset="0.95" stop-color="#17599f"/><stop offset="1" stop-color="#195198"/></linearGradient><linearGradient id="linear-gradient-6" x1="235.86" y1="477.15" x2="147.55" y2="415.31" gradientTransform="matrix(-0.92, -0.4, -0.4, 0.92, 841.95, 200.27)" gradientUnits="userSpaceOnUse"><stop offset="0" stop-color="#05a9d3"/><stop offset="0.08" stop-color="#07a2cf"/><stop offset="0.42" stop-color="#0e8abf"/><stop offset="0.74" stop-color="#127bb6"/><stop offset="1" stop-color="#1376b3"/></linearGradient><linearGradient id="linear-gradient-7" x1="219.03" y1="476.79" x2="157.34" y2="433.59" gradientTransform="matrix(-0.92, -0.4, -0.4, 0.92, 841.95, 200.27)" gradientUnits="userSpaceOnUse"><stop offset="0.27" stop-color="#05a9d3"/><stop offset="0.51" stop-color="#099ccb"/><stop offset="0.96" stop-color="#1279b5"/><stop offset="1" stop-color="#1376b3"/></linearGradient><linearGradient id="linear-gradient-8" x1="267.62" y1="200.62" x2="485.04" y2="200.62" gradientTransform="matrix(-0.92, -0.4, -0.4, 0.92, 841.95, 200.27)" gradientUnits="userSpaceOnUse"><stop offset="0" stop-color="#0c8cc5"/><stop offset="0.5" stop-color="#107eba"/><stop offset="1" stop-color="#1376b3"/></linearGradient><linearGradient id="WingsBlue" x1="400.91" y1="196.87" x2="553.55" y2="42.05" gradientTransform="matrix(-0.92, -0.4, -0.4, 0.92, 841.95, 200.27)" gradientUnits="userSpaceOnUse"><stop offset="0" stop-color="#099aca"/><stop offset="0.03" stop-color="#0c91c3"/><stop offset="0.12" stop-color="#1474aa"/><stop offset="0.22" stop-color="#1b5c95"/><stop offset="0.34" stop-color="#204985"/><stop offset="0.47" stop-color="#243c7a"/><stop offset="0.65" stop-color="#263474"/><stop offset="1" stop-color="#273272"/></linearGradient><linearGradient id="linear-gradient-9" x1="403.88" y1="351.64" x2="403.88" y2="190.06" gradientTransform="matrix(-0.92, -0.4, -0.4, 0.92, 841.95, 200.27)" gradientUnits="userSpaceOnUse"><stop offset="0" stop-color="#099aca"/><stop offset="0.18" stop-color="#0a95c6"/><stop offset="0.38" stop-color="#0f87ba"/><stop offset="0.6" stop-color="#156fa6"/><stop offset="0.83" stop-color="#1f4e8a"/><stop offset="1" stop-color="#273272"/></linearGradient><linearGradient id="linear-gradient-10" x1="301.79" y1="373.08" x2="382.28" y2="512.93" gradientTransform="matrix(-0.92, -0.4, -0.4, 0.92, 841.95, 200.27)" gradientUnits="userSpaceOnUse"><stop offset="0" stop-color="#099aca"/><stop offset="0.14" stop-color="#0e88bb"/><stop offset="0.53" stop-color="#1c5993"/><stop offset="0.83" stop-color="#243d7b"/><stop offset="1" stop-color="#273272"/></linearGradient><linearGradient id="linear-gradient-11" x1="261.8" y1="331.93" x2="326.25" y2="488.62" gradientTransform="matrix(-0.92, -0.4, -0.4, 0.92, 841.95, 200.27)" gradientUnits="userSpaceOnUse"><stop offset="0" stop-color="#099aca"/><stop offset="0.35" stop-color="#0a98c8"/><stop offset="0.52" stop-color="#0c90c2"/><stop offset="0.66" stop-color="#1083b6"/><stop offset="0.78" stop-color="#1570a6"/><stop offset="0.88" stop-color="#1c5792"/><stop offset="0.98" stop-color="#253a78"/><stop offset="1" stop-color="#273272"/></linearGradient><linearGradient id="linear-gradient-12" x1="459.19" y1="400.79" x2="527.34" y2="580.36" gradientUnits="userSpaceOnUse"><stop offset="0" stop-color="gray"/><stop offset="0.18" stop-color="#848484"/><stop offset="0.36" stop-color="#8f8f8f"/><stop offset="0.53" stop-color="#a3a3a3"/><stop offset="0.71" stop-color="#bebebe"/><stop offset="0.88" stop-color="#e0e0e0"/><stop offset="1" stop-color="#fff"/><stop offset="1" stop-color="#f2f2f2"/><stop offset="1" stop-color="#ddd"/><stop offset="1" stop-color="#d0d0d0"/><stop offset="1" stop-color="#ccc"/></linearGradient><linearGradient id="linear-gradient-13" x1="385.07" y1="461.74" x2="567.5" y2="461.74" gradientUnits="userSpaceOnUse"><stop offset="0" stop-color="#270043"/><stop offset="0.2" stop-color="#271657"/><stop offset="0.63" stop-color="#264d8a"/><stop offset="1" stop-color="#2683bc"/></linearGradient></defs><g id="Layer_1" data-name="Layer 1"><path class="cls-1" d="M589.61,396.25v-.06H436.31V770.61a40.35,40.35,0,0,0,.33,5.07c2.47,80,80.36,53.66,80.36,53.66V775a41.66,41.66,0,0,0,.24-4.35c0-.38,0-.76,0-1.14h0V646.38h72.37v-.06a125.09,125.09,0,0,0,0-250.07Zm-4,169.2H516.1V474.27h69.52a45.59,45.59,0,0,1,0,91.18Z"/></g><g id="Layer_14" data-name="Layer 14"><g id="Layer_3" data-name="Layer 3"><path class="cls-2" d="M498.43,396.19s58.13,10.83,61,78.08h30.2s39.89,8.55,41.6,44.45S593.6,564.88,588.47,566c0,0,70.1-2.28,89.48-64.4,0,0,12.53-32.48-4.56-69.52,0,0-24.51-30.21-75.8-35.91Z"/></g></g><g id="Layer_7" data-name="Layer 7"><line class="cls-3" x1="424.2" y1="402.25" x2="427.62" y2="398.83"/><path class="cls-4" d="M475,532.55S408.22,517,365,516.08c0,0,21.2,34.48,75.12,21C440.07,537.11,461,534.11,475,532.55Z"/><path class="cls-5" d="M468.57,525.36s-57.21-40.53-70.63-47.58-54-29-57.61-33.73c0,0,6.22,45.73,63.65,62.29S468.57,525.36,468.57,525.36Z"/><path class="cls-6" d="M427.7,363.37s-10.08,1.35-15.06,10A20.56,20.56,0,0,0,427.7,363.37Z"/><path class="cls-7" d="M522.88,625.4S564.1,534.31,528,489l-7.49-26.65-23.2-28.38L481.61,414.5l-26.15-11.29-27.85-4.42-14.5,1.33-5.63,5,20.22,18.39L465,444.07l29.25,24.65,22.93,74.47,5.36,49.17-9.87,41.95-1.93,7.39-21.86,41.85s23.35-29.17,34-58.15"/><path class="cls-8" d="M488.92,683.55S521.66,626.77,511.47,580h0L468.14,462.69l-43.93-45.75s42.25,10.64,57.47,26.71,37.05,47.65,41.23,80.47S535,619.25,488.92,683.55Z"/><path class="cls-9" d="M488.28,344.31S361.53,220,359.87,93.25c0,0-54.4,111.37,57.56,259.72C417.43,353,444.34,333.89,488.28,344.31Z"/><path class="cls-10" d="M488.28,343.31S361.53,219,359.87,92.25c0,0-54.4,111.37,57.56,259.72C417.43,352,444.34,332.89,488.28,343.31Z"/><path class="cls-11" d="M375.22,282.08s-46.84-49-49.31-97.56c0,0-46.74,99.48,67.24,205,0,0,7.2-10.82,16.14-13.92,0,0-2.49-11.84,9.14-22.65Z"/><path class="cls-12" d="M387.3,422.06l.09.46.17,1,0,.09.13.69c0-.22-.09-.46-.13-.69l0-.09c-.05-.31-.11-.64-.17-1l-.09-.46-.07-.38c-.1-.54-.19-1.06-.28-1.54l-.06-.35-.15-.84-.17-.92-.08-.39,0-.24v-.1a36.15,36.15,0,0,1,6.72-28.76C316.3,316.62,299.47,282.9,299.47,282.9S277.33,375.27,403.15,446c0,0,96.47,58.1,109.32,133.92,0,0,16.29-71.47-87.26-163q-8.85-7.81-16.91-15.16a177.16,177.16,0,0,0-21.87,15.52v.1l0,.24.08.39.17.92.15.84.06.35m1.65,9-.07-.36-.08-.48-.07-.35-.22-1.2c.08.44.16.85.22,1.2l.07.35.08.48.07.36Zm-.56-3.08-.13-.72-.11-.6.11.6.13.72.11.59Z"/><path class="cls-13" d="M511.47,580s-10.21-33.53-31.61-52.89-57.57-47-83.87-60.9-69.41-44.52-77.55-55-26-32.12-24.81-56.92c0,0,30.22,30.45,39.06,34.9,0,0,39.74,39.94,72.44,56.59S499.59,514.37,511.47,580Z"/><path class="cls-14" d="M522.12,627.61l.45-.76.64-1.47-.9,2.31Z"/><path class="cls-15" d="M564,474.3h2.49c-123.68-136.56-180.51-57.42-180.51-57.42,41.45-31.49,81.3-5.74,81.3-5.74s60.28,34.88,68.21,125a198.8,198.8,0,0,1-12.5,89.08l6.74-15.6c4.83-11.21,12.92-38.74,12.92-38.74,14.92-72.69-2.45-113.11-2.45-113.11C546,459.35,555.78,467.11,564,474.3Z"/><path class="cls-16" d="M567.18,472.37c-2.42-72.29-37.48-107.62-37.48-107.62,10.53-3.63,26.13-24.7,26.13-24.7-35.31,10.12-69,3-69,3-87.76-13.1-79.22,32.67-79.22,32.67-28.1,14.71-22,43-22,43,39.32-33.91,76.16-25.47,104.55-6.35C529,438.53,550.57,483.64,548,530.34c-1.77,32.36-9.21,53.09-9.21,53.09,33.79-51.58,28.39-109.16,28.39-109.16"/><path class="cls-17" d="M420.5,374.31q5.85-9.37,15.86-9.2C434.58,371.19,427.18,375.48,420.5,374.31Z"/></g></svg>